<?xml version="1.0" encoding="UTF-8" standalone="no"?>
<!-- Created with Inkscape (http://www.inkscape.org/) -->

<svg
   version="1.1"
   id="svg1"
   width="448"
   height="128"
   viewBox="0 0 448 128"
   xmlns="http://www.w3.org/2000/svg"
   xmlns:svg="http://www.w3.org/2000/svg">
  <defs
     id="defs1">
    <clipPath
       clipPathUnits="userSpaceOnUse"
       id="clipPath2">
      <path
         d="M 0,0 H 1400 V 399.02344 H 0 Z"
         transform="matrix(0.33464872,0,0,0.33464872,28.430539,149)"
         clip-rule="evenodd"
         id="path2" />
    </clipPath>
    <clipPath
       clipPathUnits="userSpaceOnUse"
       id="clipPath4">
      <path
         d="M 0,0 H 1400 V 399.02344 H 0 Z"
         transform="matrix(0.33464872,0,0,0.33464872,28.430539,149)"
         clip-rule="evenodd"
         id="path4" />
    </clipPath>
    <clipPath
       clipPathUnits="userSpaceOnUse"
       id="clipPath6">
      <path
         d="M 0,0 H 1400 V 399.02344 H 0 Z"
         transform="matrix(0.33464872,0,0,0.33464872,28.430539,149)"
         clip-rule="evenodd"
         id="path6" />
    </clipPath>
    <clipPath
       clipPathUnits="userSpaceOnUse"
       id="clipPath8">
      <path
         d="M 0,0 H 1400 V 399.02344 H 0 Z"
         transform="matrix(0.33464872,0,0,0.33464872,28.430539,149)"
         clip-rule="evenodd"
         id="path8" />
    </clipPath>
    <clipPath
       clipPathUnits="userSpaceOnUse"
       id="clipPath10">
      <path
         d="m 151.11208,115.04605 h 62.75236 v 47.81128 h -62.75236 z"
         transform="matrix(18.463043,0,0,-18.215215,-2789.9888,2800.7353)"
         clip-rule="evenodd"
         id="path10" />
    </clipPath>
    <clipPath
       clipPathUnits="userSpaceOnUse"
       id="clipPath12">
      <path
         d="m 151.11208,115.04605 h 62.75236 v 47.81128 h -62.75236 z"
         transform="matrix(26.114645,0,0,-25.764106,-5014.131,4173.6019)"
         clip-rule="evenodd"
         id="path12" />
    </clipPath>
    <clipPath
       clipPathUnits="userSpaceOnUse"
       id="clipPath14">
      <path
         d="M 0,0 H 1400 V 399.02344 H 0 Z"
         transform="matrix(0.33464872,0,0,0.33464872,28.430539,149)"
         clip-rule="evenodd"
         id="path14" />
    </clipPath>
    <clipPath
       clipPathUnits="userSpaceOnUse"
       id="clipPath16">
      <path
         d="m 599.34326,112.77499 h 62.75238 v 44.82312 h -62.75238 z"
         transform="matrix(18.463043,0,0,-19.082614,-11065.701,2857.213)"
         clip-rule="evenodd"
         id="path16" />
    </clipPath>
    <clipPath
       clipPathUnits="userSpaceOnUse"
       id="clipPath18">
      <path
         d="m 599.34326,112.77499 h 62.75238 v 44.82312 h -62.75238 z"
         transform="matrix(26.114645,0,0,-26.990962,-16719.53,4253.4825)"
         clip-rule="evenodd"
         id="path18" />
    </clipPath>
    <clipPath
       clipPathUnits="userSpaceOnUse"
       id="clipPath20">
      <path
         d="M 0,0 H 1400 V 399.02344 H 0 Z"
         transform="matrix(0.33464872,0,0,0.33464872,28.430539,149)"
         clip-rule="evenodd"
         id="path20" />
    </clipPath>
    <clipPath
       clipPathUnits="userSpaceOnUse"
       id="clipPath22">
      <path
         d="M 0,0 H 1400 V 399.02344 H 0 Z"
         transform="matrix(0.33464872,0,0,0.33464872,28.430539,149)"
         clip-rule="evenodd"
         id="path22" />
    </clipPath>
    <clipPath
       clipPathUnits="userSpaceOnUse"
       id="clipPath24">
      <path
         d="M 0,0 H 1400 V 399.02344 H 0 Z"
         transform="matrix(0.33464872,0,0,0.33464872,28.430539,149)"
         clip-rule="evenodd"
         id="path24" />
    </clipPath>
    <clipPath
       clipPathUnits="userSpaceOnUse"
       id="clipPath26">
      <path
         d="m 1087.9153,111.28091 h 107.5754 v 47.81134 h -107.5754 z"
         transform="matrix(18.368582,0,0,-18.045451,-19927.898,2713.1144)"
         clip-rule="evenodd"
         id="path26" />
    </clipPath>
    <clipPath
       clipPathUnits="userSpaceOnUse"
       id="clipPath28">
      <path
         d="m 1087.9153,111.28091 h 107.5754 v 47.81134 h -107.5754 z"
         transform="matrix(25.981026,0,0,-25.523978,-29254.458,4049.6672)"
         clip-rule="evenodd"
         id="path28" />
    </clipPath>
    <clipPath
       clipPathUnits="userSpaceOnUse"
       id="clipPath30">
      <path
         d="m 1087.9153,111.28091 h 107.5754 v 47.81134 h -107.5754 z"
         transform="matrix(25.981026,0,0,-25.523978,-29854.458,4049.6672)"
         clip-rule="evenodd"
         id="path30" />
    </clipPath>
    <clipPath
       clipPathUnits="userSpaceOnUse"
       id="clipPath32">
      <path
         d="m 1087.9153,111.28091 h 107.5754 v 47.81134 h -107.5754 z"
         transform="matrix(25.981026,0,0,-25.523978,-30632.458,4049.6672)"
         clip-rule="evenodd"
         id="path32" />
    </clipPath>
    <clipPath
       clipPathUnits="userSpaceOnUse"
       id="clipPath34">
      <path
         d="M 0,0 H 1400 V 399.02344 H 0 Z"
         transform="matrix(0.33464872,0,0,0.33464872,28.430539,149)"
         clip-rule="evenodd"
         id="path34" />
    </clipPath>
    <clipPath
       clipPathUnits="userSpaceOnUse"
       id="clipPath36">
      <path
         d="M 0,0 H 1400 V 399.02344 H 0 Z"
         transform="matrix(0.33464872,0,0,0.33464872,28.430539,149)"
         clip-rule="evenodd"
         id="path36" />
    </clipPath>
    <clipPath
       clipPathUnits="userSpaceOnUse"
       id="clipPath38">
      <path
         d="M 0,0 H 1400 V 399.02344 H 0 Z"
         transform="matrix(0.33464872,0,0,0.33464872,28.430539,149)"
         clip-rule="evenodd"
         id="path38" />
    </clipPath>
    <clipPath
       clipPathUnits="userSpaceOnUse"
       id="clipPath40">
      <path
         d="M 0,0 H 1400 V 399.02344 H 0 Z"
         transform="matrix(0.33464872,0,0,0.33464872,28.430539,149)"
         clip-rule="evenodd"
         id="path40" />
    </clipPath>
    <clipPath
       clipPathUnits="userSpaceOnUse"
       id="clipPath42">
      <path
         d="M 0,0 H 1400 V 399.02344 H 0 Z"
         transform="matrix(0.33464872,0,0,0.33464872,28.430539,149)"
         clip-rule="evenodd"
         id="path42" />
    </clipPath>
    <clipPath
       clipPathUnits="userSpaceOnUse"
       id="clipPath44">
      <path
         d="M 0,0 H 1400 V 399.02344 H 0 Z"
         transform="matrix(0.33464872,0,0,0.33464872,28.430539,149)"
         clip-rule="evenodd"
         id="path44" />
    </clipPath>
    <clipPath
       clipPathUnits="userSpaceOnUse"
       id="clipPath46">
      <path
         d="M 0,0 H 1400 V 399.02344 H 0 Z"
         transform="matrix(0.33464872,0,0,0.33464872,28.430539,149)"
         clip-rule="evenodd"
         id="path46" />
    </clipPath>
    <clipPath
       clipPathUnits="userSpaceOnUse"
       id="clipPath48">
      <path
         d="M 0,0 H 1400 V 399.02344 H 0 Z"
         transform="matrix(0.33464872,0,0,0.33464872,28.430539,149)"
         clip-rule="evenodd"
         id="path48" />
    </clipPath>
    <clipPath
       clipPathUnits="userSpaceOnUse"
       id="clipPath50">
      <path
         d="M 0,0 H 1400 V 399.02344 H 0 Z"
         transform="matrix(0.33464872,0,0,0.33464872,28.430539,149)"
         clip-rule="evenodd"
         id="path50" />
    </clipPath>
    <clipPath
       clipPathUnits="userSpaceOnUse"
       id="clipPath52">
      <path
         d="M 0,0 H 1400 V 399.02344 H 0 Z"
         transform="matrix(0.33464872,0,0,0.33464872,28.430539,149)"
         clip-rule="evenodd"
         id="path52" />
    </clipPath>
    <clipPath
       clipPathUnits="userSpaceOnUse"
       id="clipPath54">
      <path
         d="M 0,0 H 1400 V 399.02344 H 0 Z"
         transform="matrix(0.33464872,0,0,0.33464872,28.430539,149)"
         clip-rule="evenodd"
         id="path54" />
    </clipPath>
    <clipPath
       clipPathUnits="userSpaceOnUse"
       id="clipPath56">
      <path
         d="M 0,0 H 1400 V 399.02344 H 0 Z"
         transform="matrix(0.33464872,0,0,0.33464872,28.430539,149)"
         clip-rule="evenodd"
         id="path56" />
    </clipPath>
    <clipPath
       clipPathUnits="userSpaceOnUse"
       id="clipPath58">
      <path
         d="M 0,0 H 1400 V 399.02344 H 0 Z"
         transform="matrix(0.33464872,0,0,0.33464872,28.430539,149)"
         clip-rule="evenodd"
         id="path58" />
    </clipPath>
    <clipPath
       clipPathUnits="userSpaceOnUse"
       id="clipPath60">
      <path
         d="M 0,0 H 1400 V 399.02344 H 0 Z"
         transform="matrix(0.33464872,0,0,0.33464872,28.430539,149)"
         clip-rule="evenodd"
         id="path60" />
    </clipPath>
    <clipPath
       clipPathUnits="userSpaceOnUse"
       id="clipPath62">
      <path
         d="M 0,0 H 1400 V 399.02344 H 0 Z"
         transform="matrix(0.33464872,0,0,0.33464872,28.430539,149)"
         clip-rule="evenodd"
         id="path62" />
    </clipPath>
    <clipPath
       clipPathUnits="userSpaceOnUse"
       id="clipPath64">
      <path
         d="M 0,0 H 1400 V 399.02344 H 0 Z"
         transform="matrix(0.33464872,0,0,0.33464872,28.430539,149)"
         clip-rule="evenodd"
         id="path64" />
    </clipPath>
    <clipPath
       clipPathUnits="userSpaceOnUse"
       id="clipPath66">
      <path
         d="M 0,0 H 1400 V 399.02344 H 0 Z"
         transform="matrix(0.33464872,0,0,0.33464872,28.430539,149)"
         clip-rule="evenodd"
         id="path66" />
    </clipPath>
    <clipPath
       clipPathUnits="userSpaceOnUse"
       id="clipPath68">
      <path
         d="M 0,0 H 1400 V 399.02344 H 0 Z"
         transform="matrix(0.33464872,0,0,0.33464872,28.430539,149)"
         clip-rule="evenodd"
         id="path68" />
    </clipPath>
    <clipPath
       clipPathUnits="userSpaceOnUse"
       id="clipPath70">
      <path
         d="m 611.29614,300.31491 h 38.84668 v 38.84671 h -38.84668 z"
         transform="matrix(18.276972,0,0,-18.721661,-11122.643,6327.5314)"
         clip-rule="evenodd"
         id="path70" />
    </clipPath>
    <clipPath
       clipPathUnits="userSpaceOnUse"
       id="clipPath72">
      <path
         d="m 750.2478,1.4941101 h 62.75232 V 46.31723 H 750.2478 Z"
         transform="matrix(18.865076,0,0,-18.931169,-14135.847,711.28534)"
         clip-rule="evenodd"
         id="path72" />
    </clipPath>
    <clipPath
       clipPathUnits="userSpaceOnUse"
       id="clipPath74">
      <path
         d="m 750.2478,1.4941101 h 62.75232 V 46.31723 H 750.2478 Z"
         transform="matrix(26.683276,0,0,-26.776763,-21235.992,1218.2255)"
         clip-rule="evenodd"
         id="path74" />
    </clipPath>
    <clipPath
       clipPathUnits="userSpaceOnUse"
       id="clipPath76">
      <path
         d="m 451.42697,1.4941101 h 62.75235 V 46.31723 h -62.75235 z"
         transform="matrix(18.76332,0,0,-18.59813,-8452.2687,711.10082)"
         clip-rule="evenodd"
         id="path76" />
    </clipPath>
    <clipPath
       clipPathUnits="userSpaceOnUse"
       id="clipPath78">
      <path
         d="m 451.42697,1.4941101 h 62.75235 V 46.31723 h -62.75235 z"
         transform="matrix(26.539365,0,0,-26.305707,-13196.993,1217.9647)"
         clip-rule="evenodd"
         id="path78" />
    </clipPath>
    <clipPath
       clipPathUnits="userSpaceOnUse"
       id="clipPath80">
      <path
         d="m 302.01657,1.4941101 h 62.75238 V 46.31723 h -62.75238 z"
         transform="matrix(18.515464,0,0,-18.598055,-5573.9767,711.09891)"
         clip-rule="evenodd"
         id="path80" />
    </clipPath>
    <clipPath
       clipPathUnits="userSpaceOnUse"
       id="clipPath82">
      <path
         d="m 302.01657,1.4941101 h 62.75238 V 46.31723 h -62.75238 z"
         transform="matrix(26.188764,0,0,-26.305599,-9125.8477,1217.9619)"
         clip-rule="evenodd"
         id="path82" />
    </clipPath>
    <clipPath
       clipPathUnits="userSpaceOnUse"
       id="clipPath84">
      <path
         d="M 3.1957703,1.4941101 H 65.948135 V 46.31723 H 3.1957703 Z"
         transform="matrix(18.892609,0,0,-18.931169,-42.544513,711.28534)"
         clip-rule="evenodd"
         id="path84" />
    </clipPath>
    <clipPath
       clipPathUnits="userSpaceOnUse"
       id="clipPath86">
      <path
         d="M 3.1957703,1.4941101 H 65.948135 V 46.31723 H 3.1957703 Z"
         transform="matrix(26.722226,0,0,-26.776763,-1302.0433,1218.2255)"
         clip-rule="evenodd"
         id="path86" />
    </clipPath>
    <clipPath
       clipPathUnits="userSpaceOnUse"
       id="clipPath88">
      <path
         d="m 1258.2432,1.4941101 h 134.4693 V 46.31723 h -134.4693 z"
         transform="matrix(18.514511,0,0,-18.764971,-23277.757,711.20075)"
         clip-rule="evenodd"
         id="path88" />
    </clipPath>
    <clipPath
       clipPathUnits="userSpaceOnUse"
       id="clipPath90">
      <path
         d="m 1258.2432,1.4941101 h 134.4693 V 46.31723 h -134.4693 z"
         transform="matrix(26.187435,0,0,-26.541676,-34166.57,1218.1053)"
         clip-rule="evenodd"
         id="path90" />
    </clipPath>
    <clipPath
       clipPathUnits="userSpaceOnUse"
       id="clipPath92">
      <path
         d="m 1258.2432,1.4941101 h 134.4693 V 46.31723 h -134.4693 z"
         transform="matrix(26.187435,0,0,-26.541676,-34666.57,1218.1053)"
         clip-rule="evenodd"
         id="path92" />
    </clipPath>
    <clipPath
       clipPathUnits="userSpaceOnUse"
       id="clipPath94">
      <path
         d="m 1258.2432,1.4941101 h 134.4693 V 46.31723 h -134.4693 z"
         transform="matrix(26.187435,0,0,-26.541676,-35266.57,1218.1053)"
         clip-rule="evenodd"
         id="path94" />
    </clipPath>
    <clipPath
       clipPathUnits="userSpaceOnUse"
       id="clipPath96">
      <path
         d="m 1258.2432,1.4941101 h 134.4693 V 46.31723 h -134.4693 z"
         transform="matrix(26.187435,0,0,-26.541676,-36044.569,1218.1053)"
         clip-rule="evenodd"
         id="path96" />
    </clipPath>
    <clipPath
       clipPathUnits="userSpaceOnUse"
       id="clipPath98">
      <path
         d="m 899.6582,1.4941101 h 134.4694 V 46.31723 H 899.6582 Z"
         transform="matrix(18.63018,0,0,-18.75858,-16742.794,711.04792)"
         clip-rule="evenodd"
         id="path98" />
    </clipPath>
    <clipPath
       clipPathUnits="userSpaceOnUse"
       id="clipPath100">
      <path
         d="m 899.6582,1.4941101 h 134.4694 V 46.31723 H 899.6582 Z"
         transform="matrix(26.351046,0,0,-26.532632,-24923.342,1217.889)"
         clip-rule="evenodd"
         id="path100" />
    </clipPath>
    <clipPath
       clipPathUnits="userSpaceOnUse"
       id="clipPath102">
      <path
         d="m 899.6582,1.4941101 h 134.4694 V 46.31723 H 899.6582 Z"
         transform="matrix(26.351046,0,0,-26.532632,-25423.342,1217.889)"
         clip-rule="evenodd"
         id="path102" />
    </clipPath>
    <clipPath
       clipPathUnits="userSpaceOnUse"
       id="clipPath104">
      <path
         d="m 899.6582,1.4941101 h 134.4694 V 46.31723 H 899.6582 Z"
         transform="matrix(26.351046,0,0,-26.532632,-26023.343,1217.889)"
         clip-rule="evenodd"
         id="path104" />
    </clipPath>
    <clipPath
       clipPathUnits="userSpaceOnUse"
       id="clipPath106">
      <path
         d="m 899.6582,1.4941101 h 134.4694 V 46.31723 H 899.6582 Z"
         transform="matrix(26.351046,0,0,-26.532632,-26801.343,1217.889)"
         clip-rule="evenodd"
         id="path106" />
    </clipPath>
  </defs>
  <g
     id="g1">
    <path
       id="path1"
       d="M 50,170 H 70"
       style="fill:none;stroke:#000000;stroke-width:1;stroke-linecap:butt;stroke-linejoin:miter;stroke-miterlimit:10;stroke-dasharray:none;stroke-opacity:1"
       transform="matrix(0.95622655,0,0,0.95622655,-27.186036,-142.47776)"
       clip-path="url(#clipPath2)" />
    <path
       id="path3"
       d="M 110,220.00999 219.84,220"
       style="fill:none;stroke:#000000;stroke-width:1;stroke-linecap:butt;stroke-linejoin:miter;stroke-miterlimit:10;stroke-dasharray:none;stroke-opacity:1"
       transform="matrix(0.95622655,0,0,0.95622655,-27.186036,-142.47776)"
       clip-path="url(#clipPath4)" />
    <path
       id="path5"
       d="m 341,211.5 h -3 v -3 h 3 m -15,3 h -3 v -3 h 3 m -15,3 h -3 v -3 h 3"
       style="fill:#000000;fill-opacity:1;fill-rule:nonzero;stroke:none"
       transform="matrix(0.95622655,0,0,0.95622655,-27.186036,-142.47776)"
       clip-path="url(#clipPath6)" />
    <path
       id="path7"
       d="m 76,159.74 h 28 c 0.39396,0 0.78413,0.0384 1.17052,0.11529 0.3864,0.0769 0.76159,0.19067 1.12557,0.34143 0.36398,0.15077 0.70975,0.33558 1.03732,0.55445 0.32756,0.21888 0.63064,0.46759 0.90922,0.74618 0.27857,0.27856 0.5273,0.58163 0.74618,0.90922 0.21888,0.32756 0.40369,0.67334 0.55446,1.03732 0.15075,0.36397 0.26457,0.73915 0.34143,1.12555 0.0769,0.3864 0.11529,0.7766 0.1153,1.17056 v 58.00001 c -1e-5,0.39396 -0.0384,0.78413 -0.1153,1.17053 -0.0769,0.3864 -0.19068,0.76156 -0.34144,1.12553 -0.15077,0.36397 -0.33558,0.70975 -0.55445,1.03732 -0.21888,0.32758 -0.46761,0.63065 -0.74618,0.90923 -0.27858,0.27856 -0.58166,0.52728 -0.90922,0.74617 -0.32757,0.21887 -0.67334,0.4037 -1.03732,0.55447 -0.36398,0.15078 -0.73917,0.26458 -1.12557,0.34143 -0.38639,0.0769 -0.77656,0.1153 -1.17052,0.11532 H 76 c -0.393967,-2e-5 -0.784149,-0.0384 -1.170547,-0.1153 -0.386399,-0.0769 -0.761582,-0.19067 -1.125557,-0.34145 -0.363976,-0.15077 -0.709755,-0.3356 -1.037323,-0.55447 -0.327568,-0.21889 -0.630646,-0.46761 -0.909218,-0.74617 -0.27858,-0.27858 -0.527306,-0.58165 -0.746178,-0.90923 -0.21888,-0.32757 -0.403702,-0.67335 -0.554466,-1.03732 -0.150765,-0.36397 -0.26458,-0.73913 -0.341431,-1.12553 C 70.038429,224.52414 70,224.13397 70,223.74001 V 165.74 c 0,-0.39396 0.03843,-0.78416 0.11528,-1.17056 0.07685,-0.3864 0.190666,-0.76159 0.341431,-1.12556 0.150764,-0.36399 0.335586,-0.70976 0.554466,-1.03734 0.218872,-0.32756 0.467598,-0.63063 0.746178,-0.90919 0.278572,-0.27859 0.58165,-0.5273 0.909218,-0.74619 0.327568,-0.21886 0.673347,-0.40369 1.037323,-0.55446 0.363975,-0.15074 0.739158,-0.26456 1.125557,-0.34141 C 75.215851,159.77843 75.606033,159.74 76,159.74 Z"
       style="fill:#ffffff;fill-opacity:1;fill-rule:nonzero;stroke:#000000;stroke-width:1;stroke-linecap:butt;stroke-linejoin:miter;stroke-miterlimit:10;stroke-dasharray:none;stroke-opacity:1"
       transform="matrix(0.95622655,0,0,0.95622655,-27.186036,-142.47776)"
       clip-path="url(#clipPath8)" />
    <path
       id="path9"
       d="m 56,342 c 0,57.33334 11,110 33,158 22,48 50.33333,86.33331 85,115 34.66667,28.66669 71,50.66669 109,66 38,15.33331 74,23.33331 108,24 2,0 5,0 9,0 4,0 6.66666,-0.33331 8,-1 60.66666,0 114.33331,-22.66669 161,-68 l 13,-12 30,39 c 18,24.66669 28.33331,38.33331 31,41 0.66669,0 2,0 4,0 2,0 4,0.33331 6,1 h 4 c 2,0 5,-2 9,-6 V 419 l -6,-6 h -34 c -4,4 -6.33331,9.66666 -7,17 -6,54.66666 -22,102 -48,142 -26,40 -57.66669,66.33331 -95,79 -12.66666,4.66669 -29.33334,7 -50,7 -69.33334,0 -127.33334,-23.33331 -174,-70 -52.66667,-52.66669 -79,-134.66666 -79,-246 0,-80.66669 12.66667,-144.33333 38,-191 14,-26.66667 31.33333,-49 52,-67 20.66666,-18 42.33334,-31 65,-39 22.66666,-8 41.33334,-13.333334 56,-16 14.66666,-2.666666 29.33334,-4.333334 44,-5 59.33334,0 107,23 143,69 36,46 54.33331,96.33333 55,151 0,4.66667 2,9 6,13 h 28 l 6,-6 V 236 C 662.66669,167.33333 637.33331,107.33334 590,56 542.66669,4.6666641 480.33334,-21 403,-21 309,-21 227.66667,13.666664 159,83 90.333328,152.33334 56,238.66666 56,342 Z"
       style="fill:#000000;fill-opacity:1;fill-rule:nonzero;stroke:none"
       transform="matrix(0.01733192,0,0,-0.01756773,48.355862,49.202561)"
       clip-path="url(#clipPath10)" />
    <path
       id="path11"
       d="m 96,585 c 37.33334,54 88.33333,81 153,81 32,0 64,-8.66669 96,-26 32,-17.33331 58,-48 78,-92 24.66666,-55.33334 37,-131.33331 37,-228 C 460,216.66666 445.66666,137.66667 417,83 403.66666,55 385.33334,32.666668 362,16 338.66666,-0.66666794 318.33334,-11 301,-15 c -17.33334,-4 -34.33334,-6.333334 -51,-7 -17.33333,0 -34.66667,2 -52,6 -17.33333,4 -37.66667,14.666666 -61,32 C 113.66666,33.333336 95.333336,55.666664 82,83 53.333332,137.66667 39,216.66666 39,320 39,436 58,524.33331 96,585 Z m 225,12 c -20,21.33331 -43.66666,32 -71,32 -28,0 -52,-10.66669 -72,-32 -16.66667,-17.33331 -27.66667,-41.33331 -33,-72 -5.33333,-30.66666 -8,-94.66666 -8,-192 0,-105.33334 2.66667,-174.66666 8,-208 5.33333,-33.333336 17.33333,-59.666664 36,-79 18.66667,-20 41.66667,-30 69,-30 26.66666,0 49.33334,10 68,30 19.33334,20 31.33334,48 36,84 4.66666,36 7.33334,103.66666 8,203 0,96.66669 -2.66666,160.33334 -8,191 -5.33334,30.66669 -16.33334,55 -33,73 z"
       style="fill:#000000;fill-opacity:1;fill-rule:nonzero;stroke:none"
       transform="matrix(0.01225366,0,0,-0.01242038,61.441457,51.837722)"
       clip-path="url(#clipPath12)" />
    <path
       id="path13"
       d="m 226,159.74 h 28 c 0.39395,0 0.78412,0.0384 1.17052,0.11529 0.3864,0.0769 0.76158,0.19067 1.12556,0.34143 0.36398,0.15077 0.70975,0.33558 1.03732,0.55445 0.32758,0.21888 0.63065,0.46759 0.90925,0.74618 0.27859,0.27856 0.52731,0.58163 0.74615,0.90922 0.21887,0.32756 0.40369,0.67334 0.55447,1.03732 0.15076,0.36397 0.26456,0.73915 0.3414,1.12555 0.0769,0.3864 0.1153,0.7766 0.11533,1.17056 v 58.00001 c -3e-5,0.39396 -0.0385,0.78413 -0.11533,1.17053 -0.0768,0.3864 -0.19064,0.76156 -0.3414,1.12553 -0.15078,0.36397 -0.3356,0.70975 -0.55447,1.03732 -0.21884,0.32758 -0.46756,0.63065 -0.74615,0.90923 -0.2786,0.27856 -0.58167,0.52728 -0.90925,0.74617 -0.32757,0.21887 -0.67334,0.4037 -1.03732,0.55447 -0.36398,0.15078 -0.73916,0.26458 -1.12555,0.34143 -0.3864,0.0769 -0.77658,0.1153 -1.17053,0.11532 h -28 c -0.39397,-2e-5 -0.78415,-0.0384 -1.17055,-0.1153 -0.3864,-0.0769 -0.76159,-0.19067 -1.12558,-0.34145 -0.36398,-0.15077 -0.70976,-0.3356 -1.03732,-0.55447 -0.32758,-0.21889 -0.63065,-0.46761 -0.90921,-0.74617 -0.27858,-0.27858 -0.52731,-0.58165 -0.74619,-0.90923 -0.21887,-0.32757 -0.40368,-0.67335 -0.55445,-1.03732 -0.15078,-0.36397 -0.26458,-0.73913 -0.34144,-1.12553 -0.0769,-0.3864 -0.11528,-0.77657 -0.11526,-1.17053 L 220,165.74 c -2e-5,-0.39396 0.0384,-0.78416 0.11525,-1.17056 0.0769,-0.3864 0.19067,-0.76159 0.34143,-1.12556 0.15077,-0.36399 0.33559,-0.70976 0.55447,-1.03734 0.21888,-0.32756 0.46761,-0.63063 0.74619,-0.90919 0.27856,-0.27859 0.58163,-0.5273 0.90921,-0.74619 0.32756,-0.21886 0.67334,-0.40369 1.03732,-0.55446 0.36399,-0.15074 0.73918,-0.26456 1.12558,-0.34141 0.3864,-0.0769 0.77658,-0.11529 1.17055,-0.11529 z"
       style="fill:#ffffff;fill-opacity:1;fill-rule:nonzero;stroke:#000000;stroke-width:1;stroke-linecap:butt;stroke-linejoin:miter;stroke-miterlimit:10;stroke-dasharray:none;stroke-opacity:1"
       transform="matrix(0.95622655,0,0,0.95622655,-27.186036,-142.47776)"
       clip-path="url(#clipPath14)" />
    <path
       id="path15"
       d="m 56,342 c 0,57.33334 11,110 33,158 22,48 50.33333,86.33331 85,115 34.66667,28.66669 71,50.66669 109,66 38,15.33331 74,23.33331 108,24 2,0 5,0 9,0 4,0 6.66666,-0.33331 8,-1 60.66666,0 114.33331,-22.66669 161,-68 l 13,-12 30,39 c 18,24.66669 28.33331,38.33331 31,41 0.66669,0 2,0 4,0 2,0 4,0.33331 6,1 h 4 c 2,0 5,-2 9,-6 V 419 l -6,-6 h -34 c -4,4 -6.33331,9.66666 -7,17 -6,54.66666 -22,102 -48,142 -26,40 -57.66669,66.33331 -95,79 -12.66666,4.66669 -29.33334,7 -50,7 -69.33334,0 -127.33334,-23.33331 -174,-70 -52.66667,-52.66669 -79,-134.66666 -79,-246 0,-80.66669 12.66667,-144.33333 38,-191 14,-26.66667 31.33333,-49 52,-67 20.66666,-18 42.33334,-31 65,-39 22.66666,-8 41.33334,-13.333334 56,-16 14.66666,-2.666666 29.33334,-4.333334 44,-5 59.33334,0 107,23 143,69 36,46 54.33331,96.33333 55,151 0,4.66667 2,9 6,13 h 28 l 6,-6 V 236 C 662.66669,167.33333 637.33331,107.33334 590,56 542.66669,4.6666641 480.33334,-21 403,-21 309,-21 227.66667,13.666664 159,83 90.333328,152.33334 56,238.66666 56,342 Z"
       style="fill:#000000;fill-opacity:1;fill-rule:nonzero;stroke:none"
       transform="matrix(0.01733192,0,0,-0.01676919,191.78984,47.913147)"
       clip-path="url(#clipPath16)" />
    <path
       id="path17"
       d="m 213,578 -13,-5 c -9.33333,-3.33331 -22.66667,-6.66669 -40,-10 -17.33333,-3.33331 -36.66666,-5.66669 -58,-7 H 83 v 46 h 19 c 31.33333,1.33331 60.33333,6.33331 87,15 26.66667,8.66669 45.33333,16.66669 56,24 10.66667,7.33331 20,14.66669 28,22 1.33334,2 5.33334,3 12,3 6,0 11.66666,-2 17,-6 V 361 l 1,-300 c 4.66666,-4.666668 8.66666,-7.666668 12,-9 3.33334,-1.333332 11.33334,-2.666668 24,-4 12.66666,-1.333332 33.33334,-2 62,-2 h 26 V 0 H 416 C 402,2 349,3 257,3 166.33333,3 114,2 100,0 H 88 v 46 h 26 c 14.66667,0 27.33333,0 38,0 10.66667,0 19,0.333332 25,1 6,0.666668 11.33333,1.666668 16,3 4.66667,1.333332 7.33333,2 8,2 0.66667,0 2.66667,1.666668 6,5 3.33333,3.333332 5.33333,4.666668 6,4 z"
       style="fill:#000000;fill-opacity:1;fill-rule:nonzero;stroke:none"
       transform="matrix(0.01225366,0,0,-0.01185582,204.87544,50.428523)"
       clip-path="url(#clipPath18)" />
    <path
       id="path19"
       d="M 260,220.00999 280,220"
       style="fill:none;stroke:#000000;stroke-width:1;stroke-linecap:butt;stroke-linejoin:miter;stroke-miterlimit:10;stroke-dasharray:none;stroke-opacity:1"
       transform="matrix(0.95622655,0,0,0.95622655,-27.186036,-142.47776)"
       clip-path="url(#clipPath20)" />
    <path
       id="path21"
       d="M 388.09,220.28999 370,220"
       style="fill:none;stroke:#000000;stroke-width:1;stroke-linecap:butt;stroke-linejoin:miter;stroke-miterlimit:10;stroke-dasharray:none;stroke-opacity:1"
       transform="matrix(0.95622655,0,0,0.95622655,-27.186036,-142.47776)"
       clip-path="url(#clipPath22)" />
    <path
       id="path23"
       d="m 394.60001,159.74 h 30.79998 c 0.43335,0 0.86255,0.0423 1.28757,0.12681 0.42505,0.0845 0.83777,0.20973 1.23813,0.37558 0.40036,0.16584 0.78073,0.36914 1.14105,0.60991 0.36032,0.24076 0.6937,0.51435 1.00012,0.8208 0.3064,0.30642 0.57999,0.6398 0.82077,1.00012 0.24076,0.36033 0.44404,0.74069 0.6099,1.14106 0.16583,0.40038 0.29101,0.81308 0.37558,1.23812 0.0846,0.42503 0.12686,0.85425 0.12689,1.28761 V 223.14 c -3e-5,0.43336 -0.0423,0.86255 -0.12686,1.28758 -0.0846,0.42504 -0.20978,0.83772 -0.37561,1.2381 -0.16586,0.40036 -0.36914,0.78072 -0.6099,1.14105 -0.24078,0.36034 -0.51437,0.69373 -0.82077,1.00017 -0.30642,0.30643 -0.63983,0.58002 -1.00015,0.82079 -0.36032,0.24075 -0.74066,0.44406 -1.14102,0.6099 -0.40036,0.16585 -0.81308,0.29104 -1.2381,0.37558 -0.42505,0.0846 -0.85425,0.12682 -1.2876,0.12684 h -30.79998 c -0.43338,-2e-5 -0.86258,-0.0423 -1.28763,-0.12682 -0.42505,-0.0846 -0.83777,-0.20975 -1.23813,-0.3756 -0.40039,-0.16584 -0.78073,-0.36915 -1.14105,-0.60992 -0.36032,-0.24075 -0.69373,-0.51434 -1.00016,-0.82077 -0.30645,-0.30644 -0.58004,-0.63983 -0.8208,-1.00017 -0.24075,-0.36033 -0.44406,-0.74069 -0.60989,-1.14105 -0.16586,-0.40038 -0.29105,-0.81306 -0.37558,-1.2381 C 388.04227,224.00255 388,223.57336 388,223.14 v -56.79999 c 0,-0.43336 0.0423,-0.86258 0.12677,-1.28761 0.0845,-0.42504 0.20972,-0.83774 0.37558,-1.23812 0.16583,-0.40037 0.36914,-0.78073 0.60989,-1.14106 0.24076,-0.36032 0.51435,-0.6937 0.8208,-1.00012 0.30643,-0.30645 0.63984,-0.58004 1.00016,-0.8208 0.36032,-0.24077 0.74066,-0.44407 1.14102,-0.60991 0.40036,-0.16585 0.81308,-0.29104 1.23813,-0.37558 0.42508,-0.0845 0.85428,-0.12681 1.28766,-0.12681 z"
       style="fill:#ffffff;fill-opacity:1;fill-rule:nonzero;stroke:#000000;stroke-width:1;stroke-linecap:butt;stroke-linejoin:miter;stroke-miterlimit:10;stroke-dasharray:none;stroke-opacity:1"
       transform="matrix(0.95622655,0,0,0.95622655,-27.186036,-142.47776)"
       clip-path="url(#clipPath24)" />
    <path
       id="path25"
       d="m 56,342 c 0,57.33334 11,110 33,158 22,48 50.33333,86.33331 85,115 34.66667,28.66669 71,50.66669 109,66 38,15.33331 74,23.33331 108,24 2,0 5,0 9,0 4,0 6.66666,-0.33331 8,-1 60.66666,0 114.33331,-22.66669 161,-68 l 13,-12 30,39 c 18,24.66669 28.33331,38.33331 31,41 0.66669,0 2,0 4,0 2,0 4,0.33331 6,1 h 4 c 2,0 5,-2 9,-6 V 419 l -6,-6 h -34 c -4,4 -6.33331,9.66666 -7,17 -6,54.66666 -22,102 -48,142 -26,40 -57.66669,66.33331 -95,79 -12.66666,4.66669 -29.33334,7 -50,7 -69.33334,0 -127.33334,-23.33331 -174,-70 -52.66667,-52.66669 -79,-134.66666 -79,-246 0,-80.66669 12.66667,-144.33333 38,-191 14,-26.66667 31.33333,-49 52,-67 20.66666,-18 42.33334,-31 65,-39 22.66666,-8 41.33334,-13.333334 56,-16 14.66666,-2.666666 29.33334,-4.333334 44,-5 59.33334,0 107,23 143,69 36,46 54.33331,96.33333 55,151 0,4.66667 2,9 6,13 h 28 l 6,-6 V 236 C 662.66669,167.33333 637.33331,107.33334 590,56 542.66669,4.6666641 480.33334,-21 403,-21 309,-21 227.66667,13.666664 159,83 90.333328,152.33334 56,238.66666 56,342 Z"
       style="fill:#000000;fill-opacity:1;fill-rule:nonzero;stroke:none"
       transform="matrix(0.01742105,0,0,-0.017733,347.16491,48.111658)"
       clip-path="url(#clipPath26)" />
    <path
       id="path27"
       d="m 21,287 c 0.666666,4 1.666666,9.33334 3,16 1.333334,6.66666 5.333332,19.33334 12,38 6.666668,18.66666 13.333332,34.33334 20,47 6.666668,12.66666 17.666664,25 33,37 15.33334,12 30.66666,17.66666 46,17 24,0 44,-6 60,-18 16,-12 26,-23.33334 30,-34 4,-10.66666 6,-17.66666 6,-21 0,-1.33334 0.33333,-2 1,-2 l 11,11 c 40.66666,42.66666 87,64 139,64 36,0 65,-9 87,-27 22,-18 33.33334,-44.33334 34,-79 0.66666,-34.66666 -12,-87 -38,-157 -26,-70 -38.66666,-112.333336 -38,-127 0,-17.333336 5.66666,-26 17,-26 4,0 7,0.333334 9,1 19.33334,3.333334 36.66666,16 52,38 15.33331,22 27,48.66666 35,80 1.33331,5.33333 8,8 20,8 13.33331,0 20,-2.66667 20,-8 0,-0.66667 -1.33331,-5.66667 -4,-15 -5.33331,-19.33334 -12.66669,-38.333328 -22,-57 -9.33331,-18.666668 -24.66669,-37.333332 -46,-56 -21.33334,-18.6666679 -44.33334,-27.666667 -69,-27 -31.33334,0 -54,9 -68,27 -14,18 -21,36.666664 -21,56 0,12.666664 12,52.66666 36,120 24,67.33334 36.33334,118 37,152 0,39.33334 -14.66666,59 -44,59 h -5 C 316.66666,404 268.33334,370.33334 229,303 L 222,291 189,157 C 167,69.666664 154.33333,22.666668 151,16 c -8.66667,-18 -23,-27 -43,-27 -8.666664,0 -15.666664,2 -21,6 -5.333336,4 -9,8 -11,12 -2,4 -2.666664,7.333333 -2,10 0,8.666668 12.666664,63 38,163 25.33333,100 38.66667,154.33334 40,163 0.66667,3.33334 1,11 1,23 0,26 -8,39 -24,39 -25.33334,0 -46.333328,-33.33331 -63,-100 -4,-13.33334 -6,-20.33334 -6,-21 -1.333332,-4 -7.666664,-6 -19,-6 H 27 c -4,4 -6,7 -6,9 z"
       style="fill:#000000;fill-opacity:1;fill-rule:nonzero;stroke:none"
       transform="matrix(0.01231668,0,0,-0.01253723,360.3178,50.771609)"
       clip-path="url(#clipPath28)" />
    <path
       id="path29"
       d="m 84,237 c 0,0 0,4.33333 0,13 0,8.66666 4.666664,15.33334 14,20 h 581 c 10,-5.33334 15,-12 15,-20 0,-8 -5,-14.66667 -15,-20 H 98 c -9.333336,4.66667 -14,11.33333 -14,20 z"
       style="fill:#000000;fill-opacity:1;fill-rule:nonzero;stroke:none"
       transform="matrix(0.01231668,0,0,-0.01253723,367.7078,50.771609)"
       clip-path="url(#clipPath30)" />
    <path
       id="path31"
       d="m 213,578 -13,-5 c -9.33333,-3.33331 -22.66667,-6.66669 -40,-10 -17.33333,-3.33331 -36.66666,-5.66669 -58,-7 H 83 v 46 h 19 c 31.33333,1.33331 60.33333,6.33331 87,15 26.66667,8.66669 45.33333,16.66669 56,24 10.66667,7.33331 20,14.66669 28,22 1.33334,2 5.33334,3 12,3 6,0 11.66666,-2 17,-6 V 361 l 1,-300 c 4.66666,-4.666668 8.66666,-7.666668 12,-9 3.33334,-1.333332 11.33334,-2.666668 24,-4 12.66666,-1.333332 33.33334,-2 62,-2 h 26 V 0 H 416 C 402,2 349,3 257,3 166.33333,3 114,2 100,0 H 88 v 46 h 26 c 14.66667,0 27.33333,0 38,0 10.66667,0 19,0.333332 25,1 6,0.666668 11.33333,1.666668 16,3 4.66667,1.333332 7.33333,2 8,2 0.66667,0 2.66667,1.666668 6,5 3.33333,3.333332 5.33333,4.666668 6,4 z"
       style="fill:#000000;fill-opacity:1;fill-rule:nonzero;stroke:none"
       transform="matrix(0.01231668,0,0,-0.01253723,377.29018,50.771609)"
       clip-path="url(#clipPath32)" />
    <path
       id="path33"
       d="m 59.5,280 v -3 h 1 v 3 m -1,-6 v -3 h 1 v 3 m -1,-6 v -3 h 1 v 3 m -1,-6 v -3 h 1 v 3 m -1,-6 v -3 h 1 v 3 m -1,-6 v -3 h 1 v 3 m -1,-6 v -3 h 1 v 3 m -1,-6 v -3 h 1 v 3 m -1,-6 v -3 h 1 v 3 m -1,-6 v -3 h 1 v 3 m -1,-6 v -3 h 1 v 3 m -1,-6 v -3 h 1 v 3 m -1,-6 v -3 h 1 v 3 m -1,-6 v -3 h 1 v 3 m -1,-6 v -3 h 1 v 3 m -1,-6 v -3 h 1 v 3 m -1,-6 v -3 h 1 v 3 m -1,-6 v -3 h 1 v 3 m -1,-6 v -3 h 1 v 3 m -1,-6 v -3 h 1 v 3 m -1,-6 v -3 h 1 v 3 m -1,-6 v -3 h 1 v 3"
       style="fill:#000000;fill-opacity:1;fill-rule:nonzero;stroke:none"
       transform="matrix(0.95622655,0,0,0.95622655,-27.186036,-142.47776)"
       clip-path="url(#clipPath34)" />
    <path
       id="path35"
       d="m 60,279.5 h 3 v 1 h -3 m 6,-1 h 3 v 1 h -3 m 6,-1 h 3 v 1 h -3 m 6,-1 h 3 v 1 h -3 m 6,-1 h 3 v 1 h -3 m 6,-1 h 3 v 1 h -3 m 6,-1 h 3 v 1 h -3 m 6,-1 h 3 v 1 h -3 m 6,-1 h 3 v 1 h -3 m 6,-1 h 3 v 1 h -3 m 6,-1 h 3 v 1 h -3 m 6,-1 h 3 v 1 h -3 m 6,-1 h 3 v 1 h -3 m 6,-1 h 3 v 1 h -3 m 6,-1 h 3 v 1 h -3 m 6,-1 h 3 v 1 h -3 m 6,-1 h 3 v 1 h -3 m 6,-1 h 3 v 1 h -3 m 6,-1 h 3 v 1 h -3 m 6,-1 h 3 v 1 h -3 m 6,-1 h 3 v 1 h -3 m 6,-1 h 3 v 1 h -3 m 6,-1 h 3 v 1 h -3 m 6,-1 h 3 v 1 h -3 m 6,-1 h 3 v 1 h -3 m 6,-1 h 3 v 1 h -3 m 6,-1 h 3 v 1 h -3 m 6,-1 h 3 v 1 h -3 m 6,-1 h 3 v 1 h -3 m 6,-1 h 3 v 1 h -3 m 6,-1 h 3 v 1 h -3 m 6,-1 h 3 v 1 h -3 m 6,-1 h 3 v 1 h -3 m 6,-1 h 3 v 1 h -3 m 6,-1 h 3 v 1 h -3 m 6,-1 h 3 v 1 h -3 m 6,-1 h 3 v 1 h -3 m 6,-1 h 3 v 1 h -3 m 6,-1 h 3 v 1 h -3 m 6,-1 h 3 v 1 h -3 m 6,-1 h 3 v 1 h -3 m 6,-1 h 3 v 1 h -3 m 6,-1 h 3 v 1 h -3 m 6,-1 h 3 v 1 h -3 m 6,-1 h 3 v 1 h -3 m 6,-1 h 3 v 1 h -3 m 6,-1 h 3 v 1 h -3 m 6,-1 h 3 v 1 h -3 m 6,-1 h 3 v 1 h -3 m 6,-1 h 3 v 1 h -3 m 6,-1 h 3 v 1 h -3 m 6,-1 h 3 v 1 h -3 m 6,-1 h 3 v 1 h -3 m 6,-1 h 3 v 1 h -3 m 6,-1 h 3 v 1 h -3 m 6,-1 h 3 v 1 h -3 m 6,-1 h 3 v 1 h -3 m 6,-1 h 3 v 1 h -3 m 6,-1 h 3 v 1 h -3 m 6,-1 h 3 v 1 h -3 m 6,-1 h 3 v 1 h -3 m 6,-1 h 3 v 1 h -3 m 6,-1 h 3 v 1 h -3 m 6,-1 h 2 v 1 h -2"
       style="fill:#000000;fill-opacity:1;fill-rule:nonzero;stroke:none"
       transform="matrix(0.95622655,0,0,0.95622655,-27.186036,-142.47776)"
       clip-path="url(#clipPath36)" />
    <path
       id="path37"
       d="m 439.5,280 v -3 h 1 v 3 m -1,-6 v -3 h 1 v 3 m -1,-6 v -3 h 1 v 3 m -1,-6 v -3 h 1 v 3 m -1,-6 v -3 h 1 v 3 m -1,-6 v -3 h 1 v 3 m -1,-6 v -3 h 1 v 3 m -1,-6 v -3 h 1 v 3 m -1,-6 v -3 h 1 v 3 m -1,-6 v -3 h 1 v 3 m -1,-6 v -3 h 1 v 3 m -1,-6 v -3 h 1 v 3 m -1,-6 v -3 h 1 v 3 m -1,-6 v -3 h 1 v 3 m -1,-6 v -3 h 1 v 3 m -1,-6 v -3 h 1 v 3 m -1,-6 v -3 h 1 v 3 m -1,-6 v -3 h 1 v 3 m -1,-6 v -3 h 1 v 3 m -1,-6 v -3 h 1 v 3 m -1,-6 v -3 h 1 v 3 m -1,-6 v -3 h 1 v 3"
       style="fill:#000000;fill-opacity:1;fill-rule:nonzero;stroke:none"
       transform="matrix(0.95622655,0,0,0.95622655,-27.186036,-142.47776)"
       clip-path="url(#clipPath38)" />
    <path
       id="path39"
       d="m 60,149.5 h 3 v 1 h -3 m 6,-1 h 3 v 1 h -3 m 6,-1 h 3 v 1 h -3 m 6,-1 h 3 v 1 h -3 m 6,-1 h 3 v 1 h -3 m 6,-1 h 3 v 1 h -3 m 6,-1 h 3 v 1 h -3 m 6,-1 h 3 v 1 h -3 m 6,-1 h 3 v 1 h -3 m 6,-1 h 3 v 1 h -3"
       style="fill:#000000;fill-opacity:1;fill-rule:nonzero;stroke:none"
       transform="matrix(0.95622655,0,0,0.95622655,-27.186036,-142.47776)"
       clip-path="url(#clipPath40)" />
    <path
       id="path41"
       d="m 120.5,150 v 3 h -1 v -3 m 1,6 v 3 h -1 v -3 m 1,6 v 3 h -1 v -3 m 1,6 v 3 h -1 v -3 m 1,6 v 3 h -1 v -3 m 1,6 v 3 h -1 v -3 m 1,6 v 3 h -1 v -3 m 1,6 v 3 h -1 v -3 m 1,6 v 2 h -1 v -2"
       style="fill:#000000;fill-opacity:1;fill-rule:nonzero;stroke:none"
       transform="matrix(0.95622655,0,0,0.95622655,-27.186036,-142.47776)"
       clip-path="url(#clipPath42)" />
    <path
       id="path43"
       d="m 120,199.5 h 3 v 1 h -3 m 6,-1 h 3 v 1 h -3 m 6,-1 h 3 v 1 h -3 m 6,-1 h 3 v 1 h -3 m 6,-1 h 3 v 1 h -3 m 6,-1 h 3 v 1 h -3 m 6,-1 h 3 v 1 h -3 m 6,-1 h 3 v 1 h -3 m 6,-1 h 3 v 1 h -3 m 6,-1 h 3 v 1 h -3 m 6,-1 h 3 v 1 h -3 m 6,-1 h 3 v 1 h -3 m 6,-1 h 3 v 1 h -3 m 6,-1 h 3 v 1 h -3 m 6,-1 h 3 v 1 h -3"
       style="fill:#000000;fill-opacity:1;fill-rule:nonzero;stroke:none"
       transform="matrix(0.95622655,0,0,0.95622655,-27.186036,-142.47776)"
       clip-path="url(#clipPath44)" />
    <path
       id="path45"
       d="m 209.5,200 v -3 h 1 v 3 m -1,-6 v -3 h 1 v 3 m -1,-6 v -3 h 1 v 3 m -1,-6 v -3 h 1 v 3 m -1,-6 v -3 h 1 v 3 m -1,-6 v -3 h 1 v 3 m -1,-6 v -3 h 1 v 3 m -1,-6 v -3 h 1 v 3 m -1,-6 v -2 h 1 v 2"
       style="fill:#000000;fill-opacity:1;fill-rule:nonzero;stroke:none"
       transform="matrix(0.95622655,0,0,0.95622655,-27.186036,-142.47776)"
       clip-path="url(#clipPath46)" />
    <path
       id="path47"
       d="m 210,149.5 h 3 v 1 h -3 m 6,-1 h 3 v 1 h -3 m 6,-1 h 3 v 1 h -3 m 6,-1 h 3 v 1 h -3 m 6,-1 h 3 v 1 h -3 m 6,-1 h 3 v 1 h -3 m 6,-1 h 3 v 1 h -3 m 6,-1 h 3 v 1 h -3 m 6,-1 h 3 v 1 h -3 m 6,-1 h 3 v 1 h -3"
       style="fill:#000000;fill-opacity:1;fill-rule:nonzero;stroke:none"
       transform="matrix(0.95622655,0,0,0.95622655,-27.186036,-142.47776)"
       clip-path="url(#clipPath48)" />
    <path
       id="path49"
       d="m 269.5,200 v -3 h 1 v 3 m -1,-6 v -3 h 1 v 3 m -1,-6 v -3 h 1 v 3 m -1,-6 v -3 h 1 v 3 m -1,-6 v -3 h 1 v 3 m -1,-6 v -3 h 1 v 3 m -1,-6 v -3 h 1 v 3 m -1,-6 v -3 h 1 v 3 m -1,-6 v -2 h 1 v 2"
       style="fill:#000000;fill-opacity:1;fill-rule:nonzero;stroke:none"
       transform="matrix(0.95622655,0,0,0.95622655,-27.186036,-142.47776)"
       clip-path="url(#clipPath50)" />
    <path
       id="path51"
       d="m 270,199.5 h 3 v 1 h -3 m 6,-1 h 3 v 1 h -3"
       style="fill:#000000;fill-opacity:1;fill-rule:nonzero;stroke:none"
       transform="matrix(0.95622655,0,0,0.95622655,-27.186036,-142.47776)"
       clip-path="url(#clipPath52)" />
    <path
       id="path53"
       d="m 360,199.5 h 3 v 1 h -3 m 6,-1 h 3 v 1 h -3 m 6,-1 h 3 v 1 h -3 m 6,-1 h 2 v 1 h -2"
       style="fill:#000000;fill-opacity:1;fill-rule:nonzero;stroke:none"
       transform="matrix(0.95622655,0,0,0.95622655,-27.186036,-142.47776)"
       clip-path="url(#clipPath54)" />
    <path
       id="path55"
       d="m 379.5,200 v -3 h 1 v 3 m -1,-6 v -3 h 1 v 3 m -1,-6 v -3 h 1 v 3 m -1,-6 v -3 h 1 v 3 m -1,-6 v -3 h 1 v 3 m -1,-6 v -3 h 1 v 3 m -1,-6 v -3 h 1 v 3 m -1,-6 v -3 h 1 v 3 m -1,-6 v -2 h 1 v 2"
       style="fill:#000000;fill-opacity:1;fill-rule:nonzero;stroke:none"
       transform="matrix(0.95622655,0,0,0.95622655,-27.186036,-142.47776)"
       clip-path="url(#clipPath56)" />
    <path
       id="path57"
       d="m 440,150.5 h -3 v -1 h 3 m -6,1 h -3 v -1 h 3 m -6,1 h -3 v -1 h 3 m -6,1 h -3 v -1 h 3 m -6,1 h -3 v -1 h 3 m -6,1 h -3 v -1 h 3 m -6,1 h -3 v -1 h 3 m -6,1 h -3 v -1 h 3 m -6,1 h -3 v -1 h 3 m -6,1 h -3 v -1 h 3"
       style="fill:#000000;fill-opacity:1;fill-rule:nonzero;stroke:none"
       transform="matrix(0.95622655,0,0,0.95622655,-27.186036,-142.47776)"
       clip-path="url(#clipPath58)" />
    <path
       id="path59"
       d="M 110,170.03 130,170"
       style="fill:none;stroke:#000000;stroke-width:1;stroke-linecap:butt;stroke-linejoin:miter;stroke-miterlimit:10;stroke-dasharray:none;stroke-opacity:1"
       transform="matrix(0.95622655,0,0,0.95622655,-27.186036,-142.47776)"
       clip-path="url(#clipPath60)" />
    <path
       id="path61"
       d="m 200,170 h 20"
       style="fill:none;stroke:#000000;stroke-width:1;stroke-linecap:butt;stroke-linejoin:miter;stroke-miterlimit:10;stroke-dasharray:none;stroke-opacity:1"
       transform="matrix(0.95622655,0,0,0.95622655,-27.186036,-142.47776)"
       clip-path="url(#clipPath62)" />
    <path
       id="path63"
       d="m 260,170 h 20"
       style="fill:none;stroke:#000000;stroke-width:1;stroke-linecap:butt;stroke-linejoin:miter;stroke-miterlimit:10;stroke-dasharray:none;stroke-opacity:1"
       transform="matrix(0.95622655,0,0,0.95622655,-27.186036,-142.47776)"
       clip-path="url(#clipPath64)" />
    <path
       id="path65"
       d="m 370,170 h 18"
       style="fill:none;stroke:#000000;stroke-width:1;stroke-linecap:butt;stroke-linejoin:miter;stroke-miterlimit:10;stroke-dasharray:none;stroke-opacity:1"
       transform="matrix(0.95622655,0,0,0.95622655,-27.186036,-142.47776)"
       clip-path="url(#clipPath66)" />
    <path
       id="path67"
       d="m 432,170 h 19"
       style="fill:none;stroke:#000000;stroke-width:1;stroke-linecap:butt;stroke-linejoin:miter;stroke-miterlimit:10;stroke-dasharray:none;stroke-opacity:1"
       transform="matrix(0.95622655,0,0,0.95622655,-27.186036,-142.47776)"
       clip-path="url(#clipPath68)" />
    <path
       id="path69"
       d="m 50,252 c 0,76.66669 22.333328,150.33331 67,221 44.66667,70.66669 101,126.66669 169,168 68,41.33331 136,62.33331 204,63 60,0 107.66669,-17 143,-51 6,-6.66669 11,-12.33331 15,-17 4,-4.66669 6.66669,-8 8,-10 l 1,-3 c 2,0 11,8.66669 27,26 4.66669,4 9.66669,8.66669 15,14 5.33331,5.33331 10.66669,10.66669 16,16 5.33331,5.33331 8.66669,9 10,11 l 15,15 h 6 c 9.33331,0 14,-2.33331 14,-7 0,-2.66669 -10.66669,-48.33331 -32,-137 -24,-92.66669 -36,-139.33334 -36,-140 -1.33331,-3.33334 -3,-5.33334 -5,-6 -2,-0.66666 -8,-1.33334 -18,-2 h -16 c -4,4 -6,7 -6,9 0,0.66666 0.33331,3 1,7 0.66669,4 1.33331,10.66666 2,20 0.66669,9.33334 1,20 1,32 0,47.33331 -10.66669,88.66669 -32,124 -21.33331,35.33331 -57.66669,53.33331 -109,54 -17.33334,0 -36,-2.33331 -56,-7 -20,-4.66669 -44,-12.66669 -72,-24 -28,-11.33331 -55.66666,-30 -83,-56 -27.33334,-26 -51.66667,-57 -73,-93 -21.33333,-38 -38.33333,-82.33334 -51,-133 -12.66667,-50.66666 -19,-92 -19,-124 0,-76 25.33333,-130.666664 76,-164 32,-22.666668 71.33334,-34 118,-34 60.66666,0 114.66666,22.666664 162,68 47.33331,45.33334 78.66669,94.66666 94,148 2.66669,8.66667 4.66669,13.66667 6,15 1.33331,1.33334 6.66669,2 16,2 13.33331,0 20,-3 20,-9 0,-3.33333 -0.33331,-6.33333 -1,-9 C 627.66669,167.66666 586.33331,106.33334 523,55 459.66666,3.6666641 391.66669,-22 319,-22 243.66666,-22 180,3 128,53 76,103 50,169.33333 50,252 Z"
       style="fill:#000000;fill-opacity:1;fill-rule:nonzero;stroke:none"
       transform="matrix(0.01750837,0,0,-0.0170925,194.73935,108.15333)"
       clip-path="url(#clipPath70)" />
    <path
       id="path71"
       d="m 18,487 c 0,6 3.666666,16 11,30 7.333332,14 20,30.33331 38,49 18,18.66669 38,37 60,55 22,18 51.66666,32.66669 89,44 37.33334,11.33331 75.33334,17.33331 114,18 19.33334,0 34.66666,-4.66669 46,-14 11.33334,-9.33331 18.33334,-18 21,-26 2.66666,-8 3.66666,-15 3,-21 0,-25.33331 -6,-70 -18,-134 -12,-64 -23.33334,-112.33334 -34,-145 0,-0.66666 39.66666,-1 119,-1 h 120 l 7,24 c 14,49.33334 32,105.33334 54,168 22,62.66669 36,98.33331 42,107 7.33331,10 18.33331,19.33331 33,28 14.66669,8.66669 28.33331,13.33331 41,14 12.66669,0 19,-3.66669 19,-11 L 750,578 C 727.33331,516 703,438.66669 677,346 651,253.33333 633.66669,171.66667 625,101 c -0.66669,-6 -1.33331,-12.333336 -2,-19 -0.66669,-6.666664 -1,-12.333336 -1,-17 0,-4.666668 -0.33331,-7.666668 -1,-9 0,-24 12.33331,-36 37,-36 5.33331,0 19.66669,1.666666 43,5 5.33331,18 17,32.666664 35,44 18,11.333336 34.33331,17.333336 49,18 12,0 18,-4 18,-12 0,-8 -4,-18.333332 -12,-31 -8,-12.666668 -20.33331,-26.333332 -37,-41 -16.66669,-14.666667 -39.66669,-26.666666 -69,-36 -29.33331,-9.333336 -61.66669,-14.333332 -97,-15 -13.33331,0 -22,0.666668 -26,2 -26.66669,10 -40,29.666666 -40,59 v 10 c 6,70.666672 19.33331,146.33333 40,227 l 7,31 -4,-1 c -2.66669,-1.33334 -5.66669,-2.33334 -9,-3 -3.33331,-0.66666 -5.66669,-1.66666 -7,-3 L 438,273 H 328 l -7,-24 C 311.66666,217.66667 296.33334,170.33334 275,107 253.66667,43.666664 239.33333,8 232,0 c -8.66667,-10.666667 -20.66667,-20 -36,-28 -15.33333,-8 -29,-12.333332 -41,-13 -4,0 -7.33333,0.666668 -10,2 -2.66667,1.333332 -4.33333,3 -5,5 -0.66667,2 -1,3.666666 -1,5 0,3.333334 3,12 9,26 6,14 17,43.666664 33,89 16,45.33334 33.33333,99 52,161 4.66667,15.33334 7,23.66666 7,25 0,0.66666 -15.33333,1 -46,1 h -25 c -20,0 -30,4 -30,12 0,6.66666 4.66667,14.33334 14,23 9.33333,8.66666 20.66667,16.66666 34,24 12.66667,6 29,9.33334 49,10 l 24,1 4,16 c 9.33334,36.66666 17.66666,77.66666 25,123 7.33334,45.33331 11,77.33331 11,96 0,23.33331 -13.33334,35 -40,35 h -6 c -37.33334,0 -65.66667,-7 -85,-21 -14,-9.33331 -28,-25.33331 -42,-48 -14,-22.66669 -21.66666,-34.66666 -23,-36 -21.333336,-20 -43.666664,-31 -67,-33 -12.666668,0 -19,4 -19,12 z"
       style="fill:#000000;fill-opacity:1;fill-rule:nonzero;stroke:none"
       transform="matrix(0.01696256,0,0,-0.01690334,239.78015,12.023098)"
       clip-path="url(#clipPath72)" />
    <path
       id="path73"
       d="m 127,463 c -18,0 -32,5.66666 -42,17 -10,11.33334 -15.333336,26 -16,44 0,36.66669 16,69.33331 48,98 32,28.66669 70.66666,43 116,43 23.33334,0 38,-0.33331 44,-1 49.33334,-8 87,-25.66669 113,-53 26,-27.33331 39.33334,-57 40,-89 0,-34.66666 -11.33334,-68.33334 -34,-101 -22.66666,-32.66666 -54,-56.33334 -94,-71 l -3,-2 c 0,-0.66666 3,-1.66666 9,-3 6,-1.33334 15.66666,-4.33334 29,-9 13.33334,-4.66666 26,-11.66666 38,-21 54.66666,-35.33334 82,-82 82,-140 C 457,122.33333 436.33334,76.333336 395,37 353.66666,-2.3333359 301.33334,-22 238,-22 184.66666,-22 138.66667,-7.6666679 100,21 61.333332,49.666668 42,86 42,130 c 0,18.66667 6,33.66667 18,45 12,11.33333 27,17.33333 45,18 18.66667,0 34,-6 46,-18 12,-12 18,-27 18,-45 0,-7.33334 -1,-14 -3,-20 -2,-6 -4.33333,-11.333336 -7,-16 -2.66667,-4.666664 -6.33333,-8.666664 -11,-12 -4.66667,-3.333336 -8.66667,-6 -12,-8 -3.33333,-2 -6.66667,-3.333336 -10,-4 -3.33334,-0.666664 -6,-1.666664 -8,-3 l -4,-1 c 34,-30 75.33333,-45 124,-45 36.66666,0 64.33334,17.666664 83,53 11.33334,22 17,55.66666 17,101 v 20 c 0,63.33334 -21.33334,105.66666 -64,127 -10,4 -30.33333,6.33334 -61,7 l -42,1 -3,2 c -1.33333,2 -2,7.33334 -2,16 0,12 2.66667,18 8,18 18.66667,0 38,1.66666 58,5 22.66667,3.33334 43.33334,17.33334 62,42 18.66666,24.66666 28,62 28,112 v 8 c 0,38 -11.66666,64.33331 -35,79 -14.66666,9.33331 -30.33334,14 -47,14 -21.33333,0 -41,-3.66669 -59,-11 -18,-7.33331 -30.66667,-15 -38,-23 -7.33333,-8 -11,-12 -11,-12 h 3 c 2,-0.66669 4.66667,-1.33331 8,-2 3.33333,-0.66669 6.66667,-2.33331 10,-5 3.33333,-2.66669 7.33333,-5 12,-7 4.66667,-2 8,-5.66669 10,-11 2,-5.33331 4.66667,-10.33331 8,-15 3.33333,-4.66669 4.33333,-11.33331 3,-20 0,-14.66666 -4.66667,-27.66666 -14,-39 -9.33333,-11.33334 -24.33333,-17.33334 -45,-18 z"
       style="fill:#000000;fill-opacity:1;fill-rule:nonzero;stroke:none"
       transform="matrix(0.01199253,0,0,-0.01195066,254.67327,14.558599)"
       clip-path="url(#clipPath74)" />
    <path
       id="path75"
       d="m 18,487 c 0,6 3.666666,16 11,30 7.333332,14 20,30.33331 38,49 18,18.66669 38,37 60,55 22,18 51.66666,32.66669 89,44 37.33334,11.33331 75.33334,17.33331 114,18 19.33334,0 34.66666,-4.66669 46,-14 11.33334,-9.33331 18.33334,-18 21,-26 2.66666,-8 3.66666,-15 3,-21 0,-25.33331 -6,-70 -18,-134 -12,-64 -23.33334,-112.33334 -34,-145 0,-0.66666 39.66666,-1 119,-1 h 120 l 7,24 c 14,49.33334 32,105.33334 54,168 22,62.66669 36,98.33331 42,107 7.33331,10 18.33331,19.33331 33,28 14.66669,8.66669 28.33331,13.33331 41,14 12.66669,0 19,-3.66669 19,-11 L 750,578 C 727.33331,516 703,438.66669 677,346 651,253.33333 633.66669,171.66667 625,101 c -0.66669,-6 -1.33331,-12.333336 -2,-19 -0.66669,-6.666664 -1,-12.333336 -1,-17 0,-4.666668 -0.33331,-7.666668 -1,-9 0,-24 12.33331,-36 37,-36 5.33331,0 19.66669,1.666666 43,5 5.33331,18 17,32.666664 35,44 18,11.333336 34.33331,17.333336 49,18 12,0 18,-4 18,-12 0,-8 -4,-18.333332 -12,-31 -8,-12.666668 -20.33331,-26.333332 -37,-41 -16.66669,-14.666667 -39.66669,-26.666666 -69,-36 -29.33331,-9.333336 -61.66669,-14.333332 -97,-15 -13.33331,0 -22,0.666668 -26,2 -26.66669,10 -40,29.666666 -40,59 v 10 c 6,70.666672 19.33331,146.33333 40,227 l 7,31 -4,-1 c -2.66669,-1.33334 -5.66669,-2.33334 -9,-3 -3.33331,-0.66666 -5.66669,-1.66666 -7,-3 L 438,273 H 328 l -7,-24 C 311.66666,217.66667 296.33334,170.33334 275,107 253.66667,43.666664 239.33333,8 232,0 c -8.66667,-10.666667 -20.66667,-20 -36,-28 -15.33333,-8 -29,-12.333332 -41,-13 -4,0 -7.33333,0.666668 -10,2 -2.66667,1.333332 -4.33333,3 -5,5 -0.66667,2 -1,3.666666 -1,5 0,3.333334 3,12 9,26 6,14 17,43.666664 33,89 16,45.33334 33.33333,99 52,161 4.66667,15.33334 7,23.66666 7,25 0,0.66666 -15.33333,1 -46,1 h -25 c -20,0 -30,4 -30,12 0,6.66666 4.66667,14.33334 14,23 9.33333,8.66666 20.66667,16.66666 34,24 12.66667,6 29,9.33334 49,10 l 24,1 4,16 c 9.33334,36.66666 17.66666,77.66666 25,123 7.33334,45.33331 11,77.33331 11,96 0,23.33331 -13.33334,35 -40,35 h -6 c -37.33334,0 -65.66667,-7 -85,-21 -14,-9.33331 -28,-25.33331 -42,-48 -14,-22.66669 -21.66666,-34.66666 -23,-36 -21.333336,-20 -43.666664,-31 -67,-33 -12.666668,0 -19,4 -19,12 z"
       style="fill:#000000;fill-opacity:1;fill-rule:nonzero;stroke:none"
       transform="matrix(0.01705455,0,0,-0.01720603,144.14964,12.235222)"
       clip-path="url(#clipPath76)" />
    <path
       id="path77"
       d="m 109,429 c -18,0 -32.333336,6 -43,18 -10.666668,12 -16,26.66666 -16,44 0,47.33331 17.666664,88.33331 53,123 35.33334,34.66669 79.33333,52 132,52 60.66666,0 111.33334,-18.66669 152,-56 40.66666,-37.33331 61.33334,-85.66669 62,-145 0,-28.66666 -6.66666,-56 -20,-82 -13.33334,-26 -29.33334,-48.66666 -48,-68 -18.66666,-19.33334 -45.33334,-44 -80,-74 -24,-20.66667 -57.33333,-51.33333 -100,-92 l -59,-56 76,-1 c 104.66669,0 160.33334,1.666664 167,5 4.66666,1.333336 12.66666,31 24,89 v 3 h 40 v -3 C 448.33334,184 444,153.66667 436,95 428,36.333332 423,5.666667 421,3 V 0 H 50 v 19 12 c 0,4.666668 2,9.666668 6,15 4,5.333332 14,17 30,35 19.33334,21.33334 36,40 50,56 6,6.66667 17.33333,19 34,37 16.66667,18 28,30.33333 34,37 6,6.66667 15.66667,17.66667 29,33 13.33333,15.33334 22.66667,26.66666 28,34 5.33334,7.33334 13,17.33334 23,30 10,12.66666 17,23.33334 21,32 4,8.66666 9,18.33334 15,29 6,10.66666 10.33334,21.33334 13,32 2.66666,10.66666 5,20.66666 7,30 2,9.33334 3,20.33334 3,33 0,42 -11.33334,78.33331 -34,109 -22.66666,30.66669 -55,46 -97,46 -22,0 -41.33333,-5.66669 -58,-17 -16.66667,-11.33331 -28.33334,-22.33331 -35,-33 -6.66666,-10.66669 -10,-17 -10,-19 0,-0.66669 1.66666,-1 5,-1 12,0 24.33333,-4.66669 37,-14 12.66667,-9.33331 19,-24.66666 19,-46 0,-16.66666 -5.33333,-30.66666 -16,-42 -10.66667,-11.33334 -25.66667,-17.33334 -45,-18 z"
       style="fill:#000000;fill-opacity:1;fill-rule:nonzero;stroke:none"
       transform="matrix(0.01205756,0,0,-0.01216466,159.12354,14.816126)"
       clip-path="url(#clipPath78)" />
    <path
       id="path79"
       d="m 18,487 c 0,6 3.666666,16 11,30 7.333332,14 20,30.33331 38,49 18,18.66669 38,37 60,55 22,18 51.66666,32.66669 89,44 37.33334,11.33331 75.33334,17.33331 114,18 19.33334,0 34.66666,-4.66669 46,-14 11.33334,-9.33331 18.33334,-18 21,-26 2.66666,-8 3.66666,-15 3,-21 0,-25.33331 -6,-70 -18,-134 -12,-64 -23.33334,-112.33334 -34,-145 0,-0.66666 39.66666,-1 119,-1 h 120 l 7,24 c 14,49.33334 32,105.33334 54,168 22,62.66669 36,98.33331 42,107 7.33331,10 18.33331,19.33331 33,28 14.66669,8.66669 28.33331,13.33331 41,14 12.66669,0 19,-3.66669 19,-11 L 750,578 C 727.33331,516 703,438.66669 677,346 651,253.33333 633.66669,171.66667 625,101 c -0.66669,-6 -1.33331,-12.333336 -2,-19 -0.66669,-6.666664 -1,-12.333336 -1,-17 0,-4.666668 -0.33331,-7.666668 -1,-9 0,-24 12.33331,-36 37,-36 5.33331,0 19.66669,1.666666 43,5 5.33331,18 17,32.666664 35,44 18,11.333336 34.33331,17.333336 49,18 12,0 18,-4 18,-12 0,-8 -4,-18.333332 -12,-31 -8,-12.666668 -20.33331,-26.333332 -37,-41 -16.66669,-14.666667 -39.66669,-26.666666 -69,-36 -29.33331,-9.333336 -61.66669,-14.333332 -97,-15 -13.33331,0 -22,0.666668 -26,2 -26.66669,10 -40,29.666666 -40,59 v 10 c 6,70.666672 19.33331,146.33333 40,227 l 7,31 -4,-1 c -2.66669,-1.33334 -5.66669,-2.33334 -9,-3 -3.33331,-0.66666 -5.66669,-1.66666 -7,-3 L 438,273 H 328 l -7,-24 C 311.66666,217.66667 296.33334,170.33334 275,107 253.66667,43.666664 239.33333,8 232,0 c -8.66667,-10.666667 -20.66667,-20 -36,-28 -15.33333,-8 -29,-12.333332 -41,-13 -4,0 -7.33333,0.666668 -10,2 -2.66667,1.333332 -4.33333,3 -5,5 -0.66667,2 -1,3.666666 -1,5 0,3.333334 3,12 9,26 6,14 17,43.666664 33,89 16,45.33334 33.33333,99 52,161 4.66667,15.33334 7,23.66666 7,25 0,0.66666 -15.33333,1 -46,1 h -25 c -20,0 -30,4 -30,12 0,6.66666 4.66667,14.33334 14,23 9.33333,8.66666 20.66667,16.66666 34,24 12.66667,6 29,9.33334 49,10 l 24,1 4,16 c 9.33334,36.66666 17.66666,77.66666 25,123 7.33334,45.33331 11,77.33331 11,96 0,23.33331 -13.33334,35 -40,35 h -6 c -37.33334,0 -65.66667,-7 -85,-21 -14,-9.33331 -28,-25.33331 -42,-48 -14,-22.66669 -21.66666,-34.66666 -23,-36 -21.333336,-20 -43.666664,-31 -67,-33 -12.666668,0 -19,4 -19,12 z"
       style="fill:#000000;fill-opacity:1;fill-rule:nonzero;stroke:none"
       transform="matrix(0.01728285,0,0,-0.0172061,96.334204,12.235239)"
       clip-path="url(#clipPath80)" />
    <path
       id="path81"
       d="m 213,578 -13,-5 c -9.33333,-3.33331 -22.66667,-6.66669 -40,-10 -17.33333,-3.33331 -36.66666,-5.66669 -58,-7 H 83 v 46 h 19 c 31.33333,1.33331 60.33333,6.33331 87,15 26.66667,8.66669 45.33333,16.66669 56,24 10.66667,7.33331 20,14.66669 28,22 1.33334,2 5.33334,3 12,3 6,0 11.66666,-2 17,-6 V 361 l 1,-300 c 4.66666,-4.666668 8.66666,-7.666668 12,-9 3.33334,-1.333332 11.33334,-2.666668 24,-4 12.66666,-1.333332 33.33334,-2 62,-2 h 26 V 0 H 416 C 402,2 349,3 257,3 166.33333,3 114,2 100,0 H 88 v 46 h 26 c 14.66667,0 27.33333,0 38,0 10.66667,0 19,0.333332 25,1 6,0.666668 11.33333,1.666668 16,3 4.66667,1.333332 7.33333,2 8,2 0.66667,0 2.66667,1.666668 6,5 3.33333,3.333332 5.33333,4.666668 6,4 z"
       style="fill:#000000;fill-opacity:1;fill-rule:nonzero;stroke:none"
       transform="matrix(0.01221898,0,0,-0.01216471,111.50855,14.816153)"
       clip-path="url(#clipPath82)" />
    <path
       id="path83"
       d="m 18,487 c 0,6 3.666666,16 11,30 7.333332,14 20,30.33331 38,49 18,18.66669 38,37 60,55 22,18 51.66666,32.66669 89,44 37.33334,11.33331 75.33334,17.33331 114,18 19.33334,0 34.66666,-4.66669 46,-14 11.33334,-9.33331 18.33334,-18 21,-26 2.66666,-8 3.66666,-15 3,-21 0,-25.33331 -6,-70 -18,-134 -12,-64 -23.33334,-112.33334 -34,-145 0,-0.66666 39.66666,-1 119,-1 h 120 l 7,24 c 14,49.33334 32,105.33334 54,168 22,62.66669 36,98.33331 42,107 7.33331,10 18.33331,19.33331 33,28 14.66669,8.66669 28.33331,13.33331 41,14 12.66669,0 19,-3.66669 19,-11 L 750,578 C 727.33331,516 703,438.66669 677,346 651,253.33333 633.66669,171.66667 625,101 c -0.66669,-6 -1.33331,-12.333336 -2,-19 -0.66669,-6.666664 -1,-12.333336 -1,-17 0,-4.666668 -0.33331,-7.666668 -1,-9 0,-24 12.33331,-36 37,-36 5.33331,0 19.66669,1.666666 43,5 5.33331,18 17,32.666664 35,44 18,11.333336 34.33331,17.333336 49,18 12,0 18,-4 18,-12 0,-8 -4,-18.333332 -12,-31 -8,-12.666668 -20.33331,-26.333332 -37,-41 -16.66669,-14.666667 -39.66669,-26.666666 -69,-36 -29.33331,-9.333336 -61.66669,-14.333332 -97,-15 -13.33331,0 -22,0.666668 -26,2 -26.66669,10 -40,29.666666 -40,59 v 10 c 6,70.666672 19.33331,146.33333 40,227 l 7,31 -4,-1 c -2.66669,-1.33334 -5.66669,-2.33334 -9,-3 -3.33331,-0.66666 -5.66669,-1.66666 -7,-3 L 438,273 H 328 l -7,-24 C 311.66666,217.66667 296.33334,170.33334 275,107 253.66667,43.666664 239.33333,8 232,0 c -8.66667,-10.666667 -20.66667,-20 -36,-28 -15.33333,-8 -29,-12.333332 -41,-13 -4,0 -7.33333,0.666668 -10,2 -2.66667,1.333332 -4.33333,3 -5,5 -0.66667,2 -1,3.666666 -1,5 0,3.333334 3,12 9,26 6,14 17,43.666664 33,89 16,45.33334 33.33333,99 52,161 4.66667,15.33334 7,23.66666 7,25 0,0.66666 -15.33333,1 -46,1 h -25 c -20,0 -30,4 -30,12 0,6.66666 4.66667,14.33334 14,23 9.33333,8.66666 20.66667,16.66666 34,24 12.66667,6 29,9.33334 49,10 l 24,1 4,16 c 9.33334,36.66666 17.66666,77.66666 25,123 7.33334,45.33331 11,77.33331 11,96 0,23.33331 -13.33334,35 -40,35 h -6 c -37.33334,0 -65.66667,-7 -85,-21 -14,-9.33331 -28,-25.33331 -42,-48 -14,-22.66669 -21.66666,-34.66666 -23,-36 -21.333336,-20 -43.666664,-31 -67,-33 -12.666668,0 -19,4 -19,12 z"
       style="fill:#000000;fill-opacity:1;fill-rule:nonzero;stroke:none"
       transform="matrix(0.01693784,0,0,-0.01690334,0.72061216,12.023098)"
       clip-path="url(#clipPath84)" />
    <path
       id="path85"
       d="m 96,585 c 37.33334,54 88.33333,81 153,81 32,0 64,-8.66669 96,-26 32,-17.33331 58,-48 78,-92 24.66666,-55.33334 37,-131.33331 37,-228 C 460,216.66666 445.66666,137.66667 417,83 403.66666,55 385.33334,32.666668 362,16 338.66666,-0.66666794 318.33334,-11 301,-15 c -17.33334,-4 -34.33334,-6.333334 -51,-7 -17.33333,0 -34.66667,2 -52,6 -17.33333,4 -37.66667,14.666666 -61,32 C 113.66666,33.333336 95.333336,55.666664 82,83 53.333332,137.66667 39,216.66666 39,320 39,436 58,524.33331 96,585 Z m 225,12 c -20,21.33331 -43.66666,32 -71,32 -28,0 -52,-10.66669 -72,-32 -16.66667,-17.33331 -27.66667,-41.33331 -33,-72 -5.33333,-30.66666 -8,-94.66666 -8,-192 0,-105.33334 2.66667,-174.66666 8,-208 5.33333,-33.333336 17.33333,-59.666664 36,-79 18.66667,-20 41.66667,-30 69,-30 26.66666,0 49.33334,10 68,30 19.33334,20 31.33334,48 36,84 4.66666,36 7.33334,103.66666 8,203 0,96.66669 -2.66666,160.33334 -8,191 -5.33334,30.66669 -16.33334,55 -33,73 z"
       style="fill:#000000;fill-opacity:1;fill-rule:nonzero;stroke:none"
       transform="matrix(0.01197505,0,0,-0.01195066,15.592034,14.558599)"
       clip-path="url(#clipPath86)" />
    <path
       id="path87"
       d="m 18,487 c 0,6 3.666666,16 11,30 7.333332,14 20,30.33331 38,49 18,18.66669 38,37 60,55 22,18 51.66666,32.66669 89,44 37.33334,11.33331 75.33334,17.33331 114,18 19.33334,0 34.66666,-4.66669 46,-14 11.33334,-9.33331 18.33334,-18 21,-26 2.66666,-8 3.66666,-15 3,-21 0,-25.33331 -6,-70 -18,-134 -12,-64 -23.33334,-112.33334 -34,-145 0,-0.66666 39.66666,-1 119,-1 h 120 l 7,24 c 14,49.33334 32,105.33334 54,168 22,62.66669 36,98.33331 42,107 7.33331,10 18.33331,19.33331 33,28 14.66669,8.66669 28.33331,13.33331 41,14 12.66669,0 19,-3.66669 19,-11 L 750,578 C 727.33331,516 703,438.66669 677,346 651,253.33333 633.66669,171.66667 625,101 c -0.66669,-6 -1.33331,-12.333336 -2,-19 -0.66669,-6.666664 -1,-12.333336 -1,-17 0,-4.666668 -0.33331,-7.666668 -1,-9 0,-24 12.33331,-36 37,-36 5.33331,0 19.66669,1.666666 43,5 5.33331,18 17,32.666664 35,44 18,11.333336 34.33331,17.333336 49,18 12,0 18,-4 18,-12 0,-8 -4,-18.333332 -12,-31 -8,-12.666668 -20.33331,-26.333332 -37,-41 -16.66669,-14.666667 -39.66669,-26.666666 -69,-36 -29.33331,-9.333336 -61.66669,-14.333332 -97,-15 -13.33331,0 -22,0.666668 -26,2 -26.66669,10 -40,29.666666 -40,59 v 10 c 6,70.666672 19.33331,146.33333 40,227 l 7,31 -4,-1 c -2.66669,-1.33334 -5.66669,-2.33334 -9,-3 -3.33331,-0.66666 -5.66669,-1.66666 -7,-3 L 438,273 H 328 l -7,-24 C 311.66666,217.66667 296.33334,170.33334 275,107 253.66667,43.666664 239.33333,8 232,0 c -8.66667,-10.666667 -20.66667,-20 -36,-28 -15.33333,-8 -29,-12.333332 -41,-13 -4,0 -7.33333,0.666668 -10,2 -2.66667,1.333332 -4.33333,3 -5,5 -0.66667,2 -1,3.666666 -1,5 0,3.333334 3,12 9,26 6,14 17,43.666664 33,89 16,45.33334 33.33333,99 52,161 4.66667,15.33334 7,23.66666 7,25 0,0.66666 -15.33333,1 -46,1 h -25 c -20,0 -30,4 -30,12 0,6.66666 4.66667,14.33334 14,23 9.33333,8.66666 20.66667,16.66666 34,24 12.66667,6 29,9.33334 49,10 l 24,1 4,16 c 9.33334,36.66666 17.66666,77.66666 25,123 7.33334,45.33331 11,77.33331 11,96 0,23.33331 -13.33334,35 -40,35 h -6 c -37.33334,0 -65.66667,-7 -85,-21 -14,-9.33331 -28,-25.33331 -42,-48 -14,-22.66669 -21.66666,-34.66666 -23,-36 -21.333336,-20 -43.666664,-31 -67,-33 -12.666668,0 -19,4 -19,12 z"
       style="fill:#000000;fill-opacity:1;fill-rule:nonzero;stroke:none"
       transform="matrix(0.01728374,0,0,-0.01705305,402.3267,12.128142)"
       clip-path="url(#clipPath88)" />
    <path
       id="path89"
       d="m 109,429 c -18,0 -32.333336,6 -43,18 -10.666668,12 -16,26.66666 -16,44 0,47.33331 17.666664,88.33331 53,123 35.33334,34.66669 79.33333,52 132,52 60.66666,0 111.33334,-18.66669 152,-56 40.66666,-37.33331 61.33334,-85.66669 62,-145 0,-28.66666 -6.66666,-56 -20,-82 -13.33334,-26 -29.33334,-48.66666 -48,-68 -18.66666,-19.33334 -45.33334,-44 -80,-74 -24,-20.66667 -57.33333,-51.33333 -100,-92 l -59,-56 76,-1 c 104.66669,0 160.33334,1.666664 167,5 4.66666,1.333336 12.66666,31 24,89 v 3 h 40 v -3 C 448.33334,184 444,153.66667 436,95 428,36.333332 423,5.666667 421,3 V 0 H 50 v 19 12 c 0,4.666668 2,9.666668 6,15 4,5.333332 14,17 30,35 19.33334,21.33334 36,40 50,56 6,6.66667 17.33333,19 34,37 16.66667,18 28,30.33333 34,37 6,6.66667 15.66667,17.66667 29,33 13.33333,15.33334 22.66667,26.66666 28,34 5.33334,7.33334 13,17.33334 23,30 10,12.66666 17,23.33334 21,32 4,8.66666 9,18.33334 15,29 6,10.66666 10.33334,21.33334 13,32 2.66666,10.66666 5,20.66666 7,30 2,9.33334 3,20.33334 3,33 0,42 -11.33334,78.33331 -34,109 -22.66666,30.66669 -55,46 -97,46 -22,0 -41.33333,-5.66669 -58,-17 -16.66667,-11.33331 -28.33334,-22.33331 -35,-33 -6.66666,-10.66669 -10,-17 -10,-19 0,-0.66669 1.66666,-1 5,-1 12,0 24.33333,-4.66669 37,-14 12.66667,-9.33331 19,-24.66666 19,-46 0,-16.66666 -5.33333,-30.66666 -16,-42 -10.66667,-11.33334 -25.66667,-17.33334 -45,-18 z"
       style="fill:#000000;fill-opacity:1;fill-rule:nonzero;stroke:none"
       transform="matrix(0.0122196,0,0,-0.01205651,417.50182,14.686099)"
       clip-path="url(#clipPath90)" />
    <path
       id="path91"
       d="m 21,287 c 0.666666,4 1.666666,9.33334 3,16 1.333334,6.66666 5.333332,19.33334 12,38 6.666668,18.66666 13.333332,34.33334 20,47 6.666668,12.66666 17.666664,25 33,37 15.33334,12 30.66666,17.66666 46,17 24,0 44,-6 60,-18 16,-12 26,-23.33334 30,-34 4,-10.66666 6,-17.66666 6,-21 0,-1.33334 0.33333,-2 1,-2 l 11,11 c 40.66666,42.66666 87,64 139,64 36,0 65,-9 87,-27 22,-18 33.33334,-44.33334 34,-79 0.66666,-34.66666 -12,-87 -38,-157 -26,-70 -38.66666,-112.333336 -38,-127 0,-17.333336 5.66666,-26 17,-26 4,0 7,0.333334 9,1 19.33334,3.333334 36.66666,16 52,38 15.33331,22 27,48.66666 35,80 1.33331,5.33333 8,8 20,8 13.33331,0 20,-2.66667 20,-8 0,-0.66667 -1.33331,-5.66667 -4,-15 -5.33331,-19.33334 -12.66669,-38.333328 -22,-57 -9.33331,-18.666668 -24.66669,-37.333332 -46,-56 -21.33334,-18.6666679 -44.33334,-27.666667 -69,-27 -31.33334,0 -54,9 -68,27 -14,18 -21,36.666664 -21,56 0,12.666664 12,52.66666 36,120 24,67.33334 36.33334,118 37,152 0,39.33334 -14.66666,59 -44,59 h -5 C 316.66666,404 268.33334,370.33334 229,303 L 222,291 189,157 C 167,69.666664 154.33333,22.666668 151,16 c -8.66667,-18 -23,-27 -43,-27 -8.666664,0 -15.666664,2 -21,6 -5.333336,4 -9,8 -11,12 -2,4 -2.666664,7.333333 -2,10 0,8.666668 12.666664,63 38,163 25.33333,100 38.66667,154.33334 40,163 0.66667,3.33334 1,11 1,23 0,26 -8,39 -24,39 -25.33334,0 -46.333328,-33.33331 -63,-100 -4,-13.33334 -6,-20.33334 -6,-21 -1.333332,-4 -7.666664,-6 -19,-6 H 27 c -4,4 -6,7 -6,9 z"
       style="fill:#000000;fill-opacity:1;fill-rule:nonzero;stroke:none"
       transform="matrix(0.0122196,0,0,-0.01205651,423.61162,14.686099)"
       clip-path="url(#clipPath92)" />
    <path
       id="path93"
       d="m 84,237 c 0,0 0,4.33333 0,13 0,8.66666 4.666664,15.33334 14,20 h 581 c 10,-5.33334 15,-12 15,-20 0,-8 -5,-14.66667 -15,-20 H 98 c -9.333336,4.66667 -14,11.33333 -14,20 z"
       style="fill:#000000;fill-opacity:1;fill-rule:nonzero;stroke:none"
       transform="matrix(0.0122196,0,0,-0.01205651,430.94338,14.686099)"
       clip-path="url(#clipPath94)" />
    <path
       id="path95"
       d="m 213,578 -13,-5 c -9.33333,-3.33331 -22.66667,-6.66669 -40,-10 -17.33333,-3.33331 -36.66666,-5.66669 -58,-7 H 83 v 46 h 19 c 31.33333,1.33331 60.33333,6.33331 87,15 26.66667,8.66669 45.33333,16.66669 56,24 10.66667,7.33331 20,14.66669 28,22 1.33334,2 5.33334,3 12,3 6,0 11.66666,-2 17,-6 V 361 l 1,-300 c 4.66666,-4.666668 8.66666,-7.666668 12,-9 3.33334,-1.333332 11.33334,-2.666668 24,-4 12.66666,-1.333332 33.33334,-2 62,-2 h 26 V 0 H 416 C 402,2 349,3 257,3 166.33333,3 114,2 100,0 H 88 v 46 h 26 c 14.66667,0 27.33333,0 38,0 10.66667,0 19,0.333332 25,1 6,0.666668 11.33333,1.666668 16,3 4.66667,1.333332 7.33333,2 8,2 0.66667,0 2.66667,1.666668 6,5 3.33333,3.333332 5.33333,4.666668 6,4 z"
       style="fill:#000000;fill-opacity:1;fill-rule:nonzero;stroke:none"
       transform="matrix(0.0122196,0,0,-0.01205651,440.45022,14.686099)"
       clip-path="url(#clipPath96)" />
    <path
       id="path97"
       d="m 18,487 c 0,6 3.666666,16 11,30 7.333332,14 20,30.33331 38,49 18,18.66669 38,37 60,55 22,18 51.66666,32.66669 89,44 37.33334,11.33331 75.33334,17.33331 114,18 19.33334,0 34.66666,-4.66669 46,-14 11.33334,-9.33331 18.33334,-18 21,-26 2.66666,-8 3.66666,-15 3,-21 0,-25.33331 -6,-70 -18,-134 -12,-64 -23.33334,-112.33334 -34,-145 0,-0.66666 39.66666,-1 119,-1 h 120 l 7,24 c 14,49.33334 32,105.33334 54,168 22,62.66669 36,98.33331 42,107 7.33331,10 18.33331,19.33331 33,28 14.66669,8.66669 28.33331,13.33331 41,14 12.66669,0 19,-3.66669 19,-11 L 750,578 C 727.33331,516 703,438.66669 677,346 651,253.33333 633.66669,171.66667 625,101 c -0.66669,-6 -1.33331,-12.333336 -2,-19 -0.66669,-6.666664 -1,-12.333336 -1,-17 0,-4.666668 -0.33331,-7.666668 -1,-9 0,-24 12.33331,-36 37,-36 5.33331,0 19.66669,1.666666 43,5 5.33331,18 17,32.666664 35,44 18,11.333336 34.33331,17.333336 49,18 12,0 18,-4 18,-12 0,-8 -4,-18.333332 -12,-31 -8,-12.666668 -20.33331,-26.333332 -37,-41 -16.66669,-14.666667 -39.66669,-26.666666 -69,-36 -29.33331,-9.333336 -61.66669,-14.333332 -97,-15 -13.33331,0 -22,0.666668 -26,2 -26.66669,10 -40,29.666666 -40,59 v 10 c 6,70.666672 19.33331,146.33333 40,227 l 7,31 -4,-1 c -2.66669,-1.33334 -5.66669,-2.33334 -9,-3 -3.33331,-0.66666 -5.66669,-1.66666 -7,-3 L 438,273 H 328 l -7,-24 C 311.66666,217.66667 296.33334,170.33334 275,107 253.66667,43.666664 239.33333,8 232,0 c -8.66667,-10.666667 -20.66667,-20 -36,-28 -15.33333,-8 -29,-12.333332 -41,-13 -4,0 -7.33333,0.666668 -10,2 -2.66667,1.333332 -4.33333,3 -5,5 -0.66667,2 -1,3.666666 -1,5 0,3.333334 3,12 9,26 6,14 17,43.666664 33,89 16,45.33334 33.33333,99 52,161 4.66667,15.33334 7,23.66666 7,25 0,0.66666 -15.33333,1 -46,1 h -25 c -20,0 -30,4 -30,12 0,6.66666 4.66667,14.33334 14,23 9.33333,8.66666 20.66667,16.66666 34,24 12.66667,6 29,9.33334 49,10 l 24,1 4,16 c 9.33334,36.66666 17.66666,77.66666 25,123 7.33334,45.33331 11,77.33331 11,96 0,23.33331 -13.33334,35 -40,35 h -6 c -37.33334,0 -65.66667,-7 -85,-21 -14,-9.33331 -28,-25.33331 -42,-48 -14,-22.66669 -21.66666,-34.66666 -23,-36 -21.333336,-20 -43.666664,-31 -67,-33 -12.666668,0 -19,4 -19,12 z"
       style="fill:#000000;fill-opacity:1;fill-rule:nonzero;stroke:none"
       transform="matrix(0.01717643,0,0,-0.01705886,287.58143,12.129667)"
       clip-path="url(#clipPath98)" />
    <path
       id="path99"
       d="m 109,429 c -18,0 -32.333336,6 -43,18 -10.666668,12 -16,26.66666 -16,44 0,47.33331 17.666664,88.33331 53,123 35.33334,34.66669 79.33333,52 132,52 60.66666,0 111.33334,-18.66669 152,-56 40.66666,-37.33331 61.33334,-85.66669 62,-145 0,-28.66666 -6.66666,-56 -20,-82 -13.33334,-26 -29.33334,-48.66666 -48,-68 -18.66666,-19.33334 -45.33334,-44 -80,-74 -24,-20.66667 -57.33333,-51.33333 -100,-92 l -59,-56 76,-1 c 104.66669,0 160.33334,1.666664 167,5 4.66666,1.333336 12.66666,31 24,89 v 3 h 40 v -3 C 448.33334,184 444,153.66667 436,95 428,36.333332 423,5.666667 421,3 V 0 H 50 v 19 12 c 0,4.666668 2,9.666668 6,15 4,5.333332 14,17 30,35 19.33334,21.33334 36,40 50,56 6,6.66667 17.33333,19 34,37 16.66667,18 28,30.33333 34,37 6,6.66667 15.66667,17.66667 29,33 13.33333,15.33334 22.66667,26.66666 28,34 5.33334,7.33334 13,17.33334 23,30 10,12.66666 17,23.33334 21,32 4,8.66666 9,18.33334 15,29 6,10.66666 10.33334,21.33334 13,32 2.66666,10.66666 5,20.66666 7,30 2,9.33334 3,20.33334 3,33 0,42 -11.33334,78.33331 -34,109 -22.66666,30.66669 -55,46 -97,46 -22,0 -41.33333,-5.66669 -58,-17 -16.66667,-11.33331 -28.33334,-22.33331 -35,-33 -6.66666,-10.66669 -10,-17 -10,-19 0,-0.66669 1.66666,-1 5,-1 12,0 24.33333,-4.66669 37,-14 12.66667,-9.33331 19,-24.66666 19,-46 0,-16.66666 -5.33333,-30.66666 -16,-42 -10.66667,-11.33334 -25.66667,-17.33334 -45,-18 z"
       style="fill:#000000;fill-opacity:1;fill-rule:nonzero;stroke:none"
       transform="matrix(0.01214373,0,0,-0.01206062,302.66233,14.688497)"
       clip-path="url(#clipPath100)" />
    <path
       id="path101"
       d="m 21,287 c 0.666666,4 1.666666,9.33334 3,16 1.333334,6.66666 5.333332,19.33334 12,38 6.666668,18.66666 13.333332,34.33334 20,47 6.666668,12.66666 17.666664,25 33,37 15.33334,12 30.66666,17.66666 46,17 24,0 44,-6 60,-18 16,-12 26,-23.33334 30,-34 4,-10.66666 6,-17.66666 6,-21 0,-1.33334 0.33333,-2 1,-2 l 11,11 c 40.66666,42.66666 87,64 139,64 36,0 65,-9 87,-27 22,-18 33.33334,-44.33334 34,-79 0.66666,-34.66666 -12,-87 -38,-157 -26,-70 -38.66666,-112.333336 -38,-127 0,-17.333336 5.66666,-26 17,-26 4,0 7,0.333334 9,1 19.33334,3.333334 36.66666,16 52,38 15.33331,22 27,48.66666 35,80 1.33331,5.33333 8,8 20,8 13.33331,0 20,-2.66667 20,-8 0,-0.66667 -1.33331,-5.66667 -4,-15 -5.33331,-19.33334 -12.66669,-38.333328 -22,-57 -9.33331,-18.666668 -24.66669,-37.333332 -46,-56 -21.33334,-18.6666679 -44.33334,-27.666667 -69,-27 -31.33334,0 -54,9 -68,27 -14,18 -21,36.666664 -21,56 0,12.666664 12,52.66666 36,120 24,67.33334 36.33334,118 37,152 0,39.33334 -14.66666,59 -44,59 h -5 C 316.66666,404 268.33334,370.33334 229,303 L 222,291 189,157 C 167,69.666664 154.33333,22.666668 151,16 c -8.66667,-18 -23,-27 -43,-27 -8.666664,0 -15.666664,2 -21,6 -5.333336,4 -9,8 -11,12 -2,4 -2.666664,7.333333 -2,10 0,8.666668 12.666664,63 38,163 25.33333,100 38.66667,154.33334 40,163 0.66667,3.33334 1,11 1,23 0,26 -8,39 -24,39 -25.33334,0 -46.333328,-33.33331 -63,-100 -4,-13.33334 -6,-20.33334 -6,-21 -1.333332,-4 -7.666664,-6 -19,-6 H 27 c -4,4 -6,7 -6,9 z"
       style="fill:#000000;fill-opacity:1;fill-rule:nonzero;stroke:none"
       transform="matrix(0.01214373,0,0,-0.01206062,308.7342,14.688497)"
       clip-path="url(#clipPath102)" />
    <path
       id="path103"
       d="m 84,237 c 0,0 0,4.33333 0,13 0,8.66666 4.666664,15.33334 14,20 h 581 c 10,-5.33334 15,-12 15,-20 0,-8 -5,-14.66667 -15,-20 H 98 c -9.333336,4.66667 -14,11.33333 -14,20 z"
       style="fill:#000000;fill-opacity:1;fill-rule:nonzero;stroke:none"
       transform="matrix(0.01214373,0,0,-0.01206062,316.02045,14.688497)"
       clip-path="url(#clipPath104)" />
    <path
       id="path105"
       d="m 109,429 c -18,0 -32.333336,6 -43,18 -10.666668,12 -16,26.66666 -16,44 0,47.33331 17.666664,88.33331 53,123 35.33334,34.66669 79.33333,52 132,52 60.66666,0 111.33334,-18.66669 152,-56 40.66666,-37.33331 61.33334,-85.66669 62,-145 0,-28.66666 -6.66666,-56 -20,-82 -13.33334,-26 -29.33334,-48.66666 -48,-68 -18.66666,-19.33334 -45.33334,-44 -80,-74 -24,-20.66667 -57.33333,-51.33333 -100,-92 l -59,-56 76,-1 c 104.66669,0 160.33334,1.666664 167,5 4.66666,1.333336 12.66666,31 24,89 v 3 h 40 v -3 C 448.33334,184 444,153.66667 436,95 428,36.333332 423,5.666667 421,3 V 0 H 50 v 19 12 c 0,4.666668 2,9.666668 6,15 4,5.333332 14,17 30,35 19.33334,21.33334 36,40 50,56 6,6.66667 17.33333,19 34,37 16.66667,18 28,30.33333 34,37 6,6.66667 15.66667,17.66667 29,33 13.33333,15.33334 22.66667,26.66666 28,34 5.33334,7.33334 13,17.33334 23,30 10,12.66666 17,23.33334 21,32 4,8.66666 9,18.33334 15,29 6,10.66666 10.33334,21.33334 13,32 2.66666,10.66666 5,20.66666 7,30 2,9.33334 3,20.33334 3,33 0,42 -11.33334,78.33331 -34,109 -22.66666,30.66669 -55,46 -97,46 -22,0 -41.33333,-5.66669 -58,-17 -16.66667,-11.33331 -28.33334,-22.33331 -35,-33 -6.66666,-10.66669 -10,-17 -10,-19 0,-0.66669 1.66666,-1 5,-1 12,0 24.33333,-4.66669 37,-14 12.66667,-9.33331 19,-24.66666 19,-46 0,-16.66666 -5.33333,-30.66666 -16,-42 -10.66667,-11.33334 -25.66667,-17.33334 -45,-18 z"
       style="fill:#000000;fill-opacity:1;fill-rule:nonzero;stroke:none"
       transform="matrix(0.01214373,0,0,-0.01206062,325.46827,14.688497)"
       clip-path="url(#clipPath106)" />
  </g>
</svg>
