<?xml version="1.0" encoding="UTF-8" standalone="no"?>
<!-- Created with Inkscape (http://www.inkscape.org/) -->

<svg
   version="1.1"
   id="svg1"
   width="310.72"
   height="60.16"
   viewBox="0 0 310.72 60.16"
   xmlns="http://www.w3.org/2000/svg"
   xmlns:svg="http://www.w3.org/2000/svg">
  <defs
     id="defs1">
    <clipPath
       clipPathUnits="userSpaceOnUse"
       id="clipPath2">
      <path
         d="M 0,0 H 968.99414 V 189 H 0 Z"
         transform="matrix(0.33333333,0,0,0.33333333,152.46099,229)"
         clip-rule="evenodd"
         id="path2" />
    </clipPath>
    <clipPath
       clipPathUnits="userSpaceOnUse"
       id="clipPath4">
      <path
         d="M 0,0 H 968.99414 V 189 H 0 Z"
         transform="matrix(0.33333333,0,0,0.33333333,152.46099,229)"
         clip-rule="evenodd"
         id="path4" />
    </clipPath>
    <clipPath
       clipPathUnits="userSpaceOnUse"
       id="clipPath6">
      <path
         d="M 0,0 H 968.99414 V 189 H 0 Z"
         transform="matrix(0.33333333,0,0,0.33333333,152.46099,229)"
         clip-rule="evenodd"
         id="path6" />
    </clipPath>
    <clipPath
       clipPathUnits="userSpaceOnUse"
       id="clipPath8">
      <path
         d="M 0,0 H 968.99414 V 189 H 0 Z"
         transform="matrix(0.33333333,0,0,0.33333333,152.46099,229)"
         clip-rule="evenodd"
         id="path8" />
    </clipPath>
    <clipPath
       clipPathUnits="userSpaceOnUse"
       id="clipPath10">
      <path
         d="M 0,0 H 968.99414 V 189 H 0 Z"
         transform="matrix(0.33333333,0,0,0.33333333,152.46099,229)"
         clip-rule="evenodd"
         id="path10" />
    </clipPath>
    <clipPath
       clipPathUnits="userSpaceOnUse"
       id="clipPath12">
      <path
         d="M 0,0 H 968.99414 V 189 H 0 Z"
         transform="matrix(0.33333333,0,0,0.33333333,152.46099,229)"
         clip-rule="evenodd"
         id="path12" />
    </clipPath>
    <clipPath
       clipPathUnits="userSpaceOnUse"
       id="clipPath14">
      <path
         d="M 0,0 H 968.99414 V 189 H 0 Z"
         transform="matrix(0.33333333,0,0,0.33333333,152.46099,229)"
         clip-rule="evenodd"
         id="path14" />
    </clipPath>
    <clipPath
       clipPathUnits="userSpaceOnUse"
       id="clipPath16">
      <path
         d="M 0,0 H 968.99414 V 189 H 0 Z"
         transform="matrix(0.33333333,0,0,0.33333333,152.46099,229)"
         clip-rule="evenodd"
         id="path16" />
    </clipPath>
    <clipPath
       clipPathUnits="userSpaceOnUse"
       id="clipPath18">
      <path
         d="M 0,0 H 968.99414 V 189 H 0 Z"
         transform="matrix(0.33333333,0,0,0.33333333,152.46099,229)"
         clip-rule="evenodd"
         id="path18" />
    </clipPath>
    <clipPath
       clipPathUnits="userSpaceOnUse"
       id="clipPath20">
      <path
         d="M 0,0 H 968.99414 V 189 H 0 Z"
         transform="matrix(0.33333333,0,0,0.33333333,152.46099,229)"
         clip-rule="evenodd"
         id="path20" />
    </clipPath>
    <clipPath
       clipPathUnits="userSpaceOnUse"
       id="clipPath22">
      <path
         d="M 0,0 H 968.99414 V 189 H 0 Z"
         transform="matrix(0.33333333,0,0,0.33333333,152.46099,229)"
         clip-rule="evenodd"
         id="path22" />
    </clipPath>
    <clipPath
       clipPathUnits="userSpaceOnUse"
       id="clipPath24">
      <path
         d="M 0,0 H 968.99414 V 189 H 0 Z"
         transform="matrix(0.33333333,0,0,0.33333333,152.46099,229)"
         clip-rule="evenodd"
         id="path24" />
    </clipPath>
    <clipPath
       clipPathUnits="userSpaceOnUse"
       id="clipPath26">
      <path
         d="m 148.61703,69 h 39 v 39 h -39 z"
         transform="matrix(18.07692,0,0,-18.07692,-2659.5381,1930.3074)"
         clip-rule="evenodd"
         id="path26" />
    </clipPath>
    <clipPath
       clipPathUnits="userSpaceOnUse"
       id="clipPath28">
      <path
         d="m 783.11707,97.5 h 36 v 48 h -36 z"
         transform="matrix(18.666663,0,0,-18.714653,-14562.182,2529.8305)"
         clip-rule="evenodd"
         id="path28" />
    </clipPath>
    <clipPath
       clipPathUnits="userSpaceOnUse"
       id="clipPath30">
      <path
         d="m 574.61707,43.5 h 33 v 36 h -33 z"
         transform="matrix(18.090911,0,0,-19.007239,-10368.345,1510.9453)"
         clip-rule="evenodd"
         id="path30" />
    </clipPath>
    <clipPath
       clipPathUnits="userSpaceOnUse"
       id="clipPath32">
      <path
         d="m 897.11707,97.5 h 66 v 45 h -66 z"
         transform="matrix(18.075715,0,0,-18.5251,-16198.033,2489.5122)"
         clip-rule="evenodd"
         id="path32" />
    </clipPath>
    <clipPath
       clipPathUnits="userSpaceOnUse"
       id="clipPath34">
      <path
         d="m 897.11707,97.5 h 66 v 45 h -66 z"
         transform="matrix(25.566783,0,0,-26.202403,-24152.804,3733.3974)"
         clip-rule="evenodd"
         id="path34" />
    </clipPath>
    <clipPath
       clipPathUnits="userSpaceOnUse"
       id="clipPath36">
      <path
         d="m 420.11703,121.5 h 63 v 45 h -63 z"
         transform="matrix(18.790921,0,0,-18.856761,-7876.7503,2974.0967)"
         clip-rule="evenodd"
         id="path36" />
    </clipPath>
    <clipPath
       clipPathUnits="userSpaceOnUse"
       id="clipPath38">
      <path
         d="m 420.11703,121.5 h 63 v 45 h -63 z"
         transform="matrix(26.578381,0,0,-26.671511,-12382.953,4418.8063)"
         clip-rule="evenodd"
         id="path38" />
    </clipPath>
    <clipPath
       clipPathUnits="userSpaceOnUse"
       id="clipPath40">
      <path
         d="m 663.11707,40.5 h 63 v 45 h -63 z"
         transform="matrix(18.689568,0,0,-18.525025,-12375.372,1433.5765)"
         clip-rule="evenodd"
         id="path40" />
    </clipPath>
    <clipPath
       clipPathUnits="userSpaceOnUse"
       id="clipPath42">
      <path
         d="m 663.11707,40.5 h 63 v 45 h -63 z"
         transform="matrix(26.435029,0,0,-26.202295,-18745.925,2239.8533)"
         clip-rule="evenodd"
         id="path42" />
    </clipPath>
    <clipPath
       clipPathUnits="userSpaceOnUse"
       id="clipPath44">
      <path
         d="m 267.11703,36 h 63 v 45 h -63 z"
         transform="matrix(18.442687,0,0,-18.524961,-4908.3561,1350.2103)"
         clip-rule="evenodd"
         id="path44" />
    </clipPath>
    <clipPath
       clipPathUnits="userSpaceOnUse"
       id="clipPath46">
      <path
         d="m 267.11703,36 h 63 v 45 h -63 z"
         transform="matrix(26.085821,0,0,-26.20221,-8184.3738,2121.9384)"
         clip-rule="evenodd"
         id="path46" />
    </clipPath>
    <clipPath
       clipPathUnits="userSpaceOnUse"
       id="clipPath48">
      <path
         d="M 0.11703491,36 H 63.117035 V 81 H 0.11703491 Z"
         transform="matrix(18.818348,0,0,-18.856761,15.629518,1361.8436)"
         clip-rule="evenodd"
         id="path48" />
    </clipPath>
    <clipPath
       clipPathUnits="userSpaceOnUse"
       id="clipPath50">
      <path
         d="M 0.11703491,36 H 63.117035 V 81 H 0.11703491 Z"
         transform="matrix(26.61718,0,0,-26.671511,-1219.7599,2138.3923)"
         clip-rule="evenodd"
         id="path50" />
    </clipPath>
    <clipPath
       clipPathUnits="userSpaceOnUse"
       id="clipPath52">
      <path
         d="m 420.11703,39 h 63 v 45 h -63 z"
         transform="matrix(18.818348,0,0,-18.856761,-7888.0767,1418.4139)"
         clip-rule="evenodd"
         id="path52" />
    </clipPath>
    <clipPath
       clipPathUnits="userSpaceOnUse"
       id="clipPath54">
      <path
         d="m 420.11703,39 h 63 v 45 h -63 z"
         transform="matrix(26.61718,0,0,-26.671511,-12398.976,2218.4068)"
         clip-rule="evenodd"
         id="path54" />
    </clipPath>
    <clipPath
       clipPathUnits="userSpaceOnUse"
       id="clipPath56">
      <path
         d="m 897.11707,10.5 h 63 v 45 h -63 z"
         transform="matrix(18.442687,0,0,-18.524961,-16527.249,877.82377)"
         clip-rule="evenodd"
         id="path56" />
    </clipPath>
    <clipPath
       clipPathUnits="userSpaceOnUse"
       id="clipPath58">
      <path
         d="m 897.11707,10.5 h 63 v 45 h -63 z"
         transform="matrix(26.085821,0,0,-26.20221,-24618.443,1453.782)"
         clip-rule="evenodd"
         id="path58" />
    </clipPath>
    <clipPath
       clipPathUnits="userSpaceOnUse"
       id="clipPath60">
      <path
         d="m 264.11703,100.5 h 66 v 45 h -66 z"
         transform="matrix(18.075715,0,0,-18.5251,-4756.1042,2545.0875)"
         clip-rule="evenodd"
         id="path60" />
    </clipPath>
    <clipPath
       clipPathUnits="userSpaceOnUse"
       id="clipPath62">
      <path
         d="m 264.11703,100.5 h 66 v 45 h -66 z"
         transform="matrix(25.566783,0,0,-26.202403,-7969.0306,3812.0046)"
         clip-rule="evenodd"
         id="path62" />
    </clipPath>
    <clipPath
       clipPathUnits="userSpaceOnUse"
       id="clipPath64">
      <path
         d="M 0.11703491,99 H 63.117035 v 45 H 0.11703491 Z"
         transform="matrix(18.790921,0,0,-18.856761,15.436355,2549.8196)"
         clip-rule="evenodd"
         id="path64" />
    </clipPath>
    <clipPath
       clipPathUnits="userSpaceOnUse"
       id="clipPath66">
      <path
         d="M 0.11703491,99 H 63.117035 v 45 H 0.11703491 Z"
         transform="matrix(26.578381,0,0,-26.671511,-1220.0331,3818.6973)"
         clip-rule="evenodd"
         id="path66" />
    </clipPath>
  </defs>
  <g
     id="g1">
    <path
       id="path1"
       d="m 229,249 h 10"
       style="fill:none;stroke:#000000;stroke-width:1;stroke-linecap:butt;stroke-linejoin:miter;stroke-miterlimit:10;stroke-dasharray:none;stroke-opacity:1"
       transform="matrix(0.95999996,0,0,0.95999996,-146.36254,-219.83999)"
       clip-path="url(#clipPath2)" />
    <path
       id="path3"
       d="m 229,269 h 10"
       style="fill:none;stroke:#000000;stroke-width:1;stroke-linecap:butt;stroke-linejoin:miter;stroke-miterlimit:10;stroke-dasharray:none;stroke-opacity:1"
       transform="matrix(0.95999996,0,0,0.95999996,-146.36254,-219.83999)"
       clip-path="url(#clipPath4)" />
    <path
       id="path5"
       d="M 189,249 H 179"
       style="fill:none;stroke:#000000;stroke-width:1;stroke-linecap:butt;stroke-linejoin:miter;stroke-miterlimit:10;stroke-dasharray:none;stroke-opacity:1"
       transform="matrix(0.95999996,0,0,0.95999996,-146.36254,-219.83999)"
       clip-path="url(#clipPath6)" />
    <path
       id="path7"
       d="M 189,269 H 179"
       style="fill:none;stroke:#000000;stroke-width:1;stroke-linecap:butt;stroke-linejoin:miter;stroke-miterlimit:10;stroke-dasharray:none;stroke-opacity:1"
       transform="matrix(0.95999996,0,0,0.95999996,-146.36254,-219.83999)"
       clip-path="url(#clipPath8)" />
    <path
       id="path9"
       d="m 189,239 h 40 v 40 h -40 z"
       style="fill:#ffffff;fill-opacity:1;fill-rule:nonzero;stroke:#000000;stroke-width:1;stroke-linecap:butt;stroke-linejoin:miter;stroke-miterlimit:10;stroke-dasharray:none;stroke-opacity:1"
       transform="matrix(0.95999996,0,0,0.95999996,-146.36254,-219.83999)"
       clip-path="url(#clipPath10)" />
    <g
       id="g10">
      <text
         id="text10"
         xml:space="preserve"
         transform="matrix(0.95999996,0,0,0.95999996,115.23744,32.159999)"><tspan
           id="tspan10"
           style="font-variant:normal;font-weight:normal;font-size:12px;font-family:Arial;writing-mode:lr-tb;fill:#000000;fill-opacity:1;fill-rule:nonzero;stroke:none"
           x="0"
           y="0">=</tspan></text>
    </g>
    <path
       id="path11"
       d="M 330,250 H 320"
       style="fill:none;stroke:#000000;stroke-width:1;stroke-linecap:butt;stroke-linejoin:miter;stroke-miterlimit:10;stroke-dasharray:none;stroke-opacity:1"
       transform="matrix(0.95999996,0,0,0.95999996,-146.36254,-219.83999)"
       clip-path="url(#clipPath12)" />
    <path
       id="path13"
       d="m 370,260 h 30"
       style="fill:none;stroke:#000000;stroke-width:1;stroke-linecap:butt;stroke-linejoin:miter;stroke-miterlimit:10;stroke-dasharray:none;stroke-opacity:1"
       transform="matrix(0.95999996,0,0,0.95999996,-146.36254,-219.83999)"
       clip-path="url(#clipPath14)" />
    <path
       id="path15"
       d="m 370,240 h 40 l 40,0.04"
       style="fill:none;stroke:#000000;stroke-width:1;stroke-linecap:butt;stroke-linejoin:miter;stroke-miterlimit:10;stroke-dasharray:none;stroke-opacity:1"
       transform="matrix(0.95999996,0,0,0.95999996,-146.36254,-219.83999)"
       clip-path="url(#clipPath16)" />
    <path
       id="path17"
       d="m 330,230 h 40 v 40 h -40 z"
       style="fill:#ffffff;fill-opacity:1;fill-rule:nonzero;stroke:#000000;stroke-width:1;stroke-linecap:butt;stroke-linejoin:miter;stroke-miterlimit:10;stroke-dasharray:none;stroke-opacity:1"
       transform="matrix(0.95999996,0,0,0.95999996,-146.36254,-219.83999)"
       clip-path="url(#clipPath18)" />
    <path
       id="path19"
       d="m 440,270 h 10"
       style="fill:none;stroke:#000000;stroke-width:1;stroke-linecap:butt;stroke-linejoin:miter;stroke-miterlimit:10;stroke-dasharray:none;stroke-opacity:1"
       transform="matrix(0.95999996,0,0,0.95999996,-146.36254,-219.83999)"
       clip-path="url(#clipPath20)" />
    <path
       id="path21"
       d="M 400,280 H 360.5 L 320,280.04"
       style="fill:none;stroke:#000000;stroke-width:1;stroke-linecap:butt;stroke-linejoin:miter;stroke-miterlimit:10;stroke-dasharray:none;stroke-opacity:1"
       transform="matrix(0.95999996,0,0,0.95999996,-146.36254,-219.83999)"
       clip-path="url(#clipPath22)" />
    <path
       id="path23"
       d="m 400,250 h 40 v 40 h -40 z"
       style="fill:#ffffff;fill-opacity:1;fill-rule:nonzero;stroke:#000000;stroke-width:1;stroke-linecap:butt;stroke-linejoin:miter;stroke-miterlimit:10;stroke-dasharray:none;stroke-opacity:1"
       transform="matrix(0.95999996,0,0,0.95999996,-146.36254,-219.83999)"
       clip-path="url(#clipPath24)" />
    <path
       id="path25"
       d="m 130,622 c -4.66666,4.66669 -8.33334,7.66669 -11,9 -2.66666,1.33331 -8,2.33331 -16,3 -8,0.66669 -22.333328,1.66669 -43,3 H 27 v 46 h 175 34 64 c 50.66666,0 89.66666,-2 117,-6 27.33334,-4 55,-13.66669 83,-29 63.33331,-32 99.66669,-75.66669 109,-131 0.66669,-3.33331 1,-8.66666 1,-16 0,-22 -5.33331,-42.66666 -16,-62 -10.66669,-19.33334 -23.33331,-35 -38,-47 -14.66669,-12 -29.66669,-22.33334 -45,-31 -15.33334,-8.66666 -28.33334,-14.66666 -39,-18 l -16,-5 c 2,-2 5.66666,-4 11,-6 20,-10.66666 36.33334,-22 49,-34 12.66669,-12 22.33331,-26.66666 29,-44 6.66669,-17.33333 11.33331,-31.66667 14,-43 2.66669,-11.33333 5.66669,-30 9,-56 3.33331,-26 6.66669,-46.33334 10,-61 6.66669,-32 14.66669,-53 24,-63 9.33331,-10 22,-15 38,-15 h 5 c 10,0 19.66669,5.333332 29,16 9.33331,10.666668 15.33331,29 18,55 0,7.333336 1.33331,12 4,14 2.66669,2 8,3.33334 16,4 8,0.66666 13.33331,0 16,-2 2.66669,-2 4,-6.333336 4,-13 0,-20.666672 -5.33331,-41.666664 -16,-63 -10.66669,-21.333334 -25.33331,-35.666666 -44,-43 -10.66669,-4 -24.66669,-6 -42,-6 -99.33331,4 -156.66666,41.333328 -172,112 -1.33334,7.333336 -2,31.66666 -2,73 0,41.33334 -2.33334,69 -7,83 -12.66666,38.66666 -38,63.33334 -76,74 l -10,2 -66,1 H 231 V 192 l 1,-131 c 4,-6.666668 9.66667,-10.666668 17,-12 7.33334,-1.333332 24.66666,-2.333332 52,-3 h 33 V 0 H 323 C 309,2 261.66669,3 181,3 99.666664,3 52,2 38,0 H 27 v 46 h 33 c 28,0.666668 45,1.666668 51,3 6,1.333332 12.33334,5.333332 19,12 z M 491,499 v 10 c 0,12 -0.33334,22 -1,30 -0.66666,8 -3.66666,18.33331 -9,31 -5.33334,12.66669 -11.66666,23 -19,31 -7.33334,8 -20,15.33331 -38,22 -18,6.66669 -38.66666,11 -62,13 -1.33334,0 -8.66666,0 -22,0 -13.33334,0 -25.33334,0.33331 -36,1 h -21 c -30,0 -46.33333,-3 -49,-9 -2,-2.66669 -3,-48 -3,-136 V 360 h 58 c 67.33334,0 115.66666,6 145,18 29.33334,12 47.66666,38 55,78 1.33334,7.33334 2,21.66666 2,43 z"
       style="fill:#000000;fill-opacity:1;fill-rule:nonzero;stroke:none"
       transform="matrix(0.01770213,0,0,-0.01770213,47.07949,34.170553)"
       clip-path="url(#clipPath26)" />
    <path
       id="path27"
       d="m 56,341 c 0,105.33334 33.666664,192.33331 101,261 67.33334,68.66669 144.33331,103 231,103 88.66669,0 166.33331,-34.66669 233,-104 66.66669,-69.33331 100.33331,-156 101,-260 0,-44 -6.33331,-85 -19,-123 C 690.33331,180 676,149.66667 660,127 644,104.33333 625,83 603,63 581,43 565,30.333334 555,25 545,19.666666 535,14.333334 525,9 524.33331,8.333333 524,8 524,8 h -1 c 0.66669,-2 1.66669,-5 3,-9 1.33331,-4 5,-10.666666 11,-20 6,-9.333334 12,-18 18,-26 6,-8 14.66669,-14.666668 26,-20 11.33331,-5.333336 22.66669,-8.333336 34,-9 25.33331,0 46.33331,6.666664 63,20 16.66669,13.333336 26,31 28,53 0.66669,8.666667 4,13 10,13 3.33331,0 7.33331,-1.666666 12,-5 l -1,-18 c 0,-50 -10,-92.33333 -30,-127 -20,-34.66667 -50.33331,-52.33333 -91,-53 -28.66669,0 -51.33331,9 -68,27 -16.66669,18 -30,45.66666 -40,83 -10,40 -15,65 -15,75 l -12,-3 c -8,-2 -20,-4.333333 -36,-7 -16,-2.666666 -31.66666,-4 -47,-4 C 298.66666,-22 221,12.333328 155,81 89,149.66667 56,236.33333 56,341 Z m 551,-2 c 0,60 -7,112.33334 -21,157 -14,44.66669 -32.33331,78.66669 -55,102 -22.66666,23.33331 -46,40.33331 -70,51 -24,10.66669 -47.66666,16 -71,16 -23.33334,0 -47.33334,-5.33331 -72,-16 C 293.33334,638.33331 270,621.33331 248,598 226,574.66669 207.33333,540.66669 192,496 176.66667,451.33334 169.33333,399 170,339 170,208.33333 205.66666,114.33334 277,57 293,45 302.33334,39 305,39 l -1,3 c 0,1.333332 0,2.666668 0,4 -2,4.666668 -3,12 -3,22 0,22 8,42 24,60 16,18 38,27 66,27 42,0 76.66666,-28.33333 104,-85 l 6,-12 c 32,22 57.66669,57.33333 77,106 19.33331,46.66667 29,105 29,175 z M 385,18 c 12.66666,0 26,1.666666 40,5 14,3.333334 25.33334,6.666666 34,10 8.66666,3.333332 13,5.666668 13,7 -0.66666,4.666668 -2,10.333332 -4,17 -2,6.666668 -8.33334,17 -19,31 -10.66666,14 -23,23 -37,27 -9.33334,1.33334 -18,2 -26,2 -12.66666,0 -23.66666,-5 -33,-15 -9.33334,-10 -14.33334,-21.666664 -15,-35 0,-12.666668 4.33334,-24 13,-34 8.66666,-10 20,-15 34,-15 z"
       style="fill:#000000;fill-opacity:1;fill-rule:nonzero;stroke:none"
       transform="matrix(0.01714286,0,0,-0.0170989,249.63745,43.257318)"
       clip-path="url(#clipPath28)" />
    <path
       id="path29"
       d="m 130,622 c -4.66666,4.66669 -8.33334,7.66669 -11,9 -2.66666,1.33331 -8,2.33331 -16,3 -8,0.66669 -22.333328,1.66669 -43,3 H 27 v 46 h 187 c 15.33333,0 36,0 62,0 26,0 44.33334,0.33331 55,1 58.66666,0 105.33334,-4.33331 140,-13 34.66666,-8.66669 66.66669,-27 96,-55 38,-35.33331 57,-77.66669 57,-127 0,-45.33334 -17,-84.33334 -51,-117 -34,-32.66666 -74.66666,-54.33334 -122,-65 -14.66666,-3.33334 -55.66666,-5.33334 -123,-6 H 234 V 181 c 0,-79.33334 1,-120.333332 3,-123 5.33333,-7.333332 27.66666,-11.333332 67,-12 h 33 V 0 H 326 C 312,2 264,3 182,3 92,3 44,2 38,0 H 27 v 46 h 33 c 28,0.666668 45,1.666668 51,3 6,1.333332 12.33334,5.333332 19,12 z M 507,488 c 0,17.33334 -0.33334,30.66669 -1,40 -0.66666,9.33331 -2.66666,21.33331 -6,36 -3.33334,14.66669 -9,25.66669 -17,33 -8,7.33331 -19,15 -33,23 -14,8 -31.66666,13 -53,15 -8,1.33331 -38,2 -90,2 h -21 c -32.66667,0 -50,-3 -52,-9 -2,-2.66669 -3,-51 -3,-145 V 342 h 71 37 c 34,0 62,2.33334 84,7 22,4.66666 41.33334,15.66666 58,33 17.33334,19.33334 26,54.66666 26,106 z"
       style="fill:#000000;fill-opacity:1;fill-rule:nonzero;stroke:none"
       transform="matrix(0.01768844,0,0,-0.01683569,183.39985,25.437807)"
       clip-path="url(#clipPath30)" />
    <path
       id="path31"
       d="m 18,487 c 0,6 3.666666,16 11,30 7.333332,14 20,30.33331 38,49 18,18.66669 38,37 60,55 22,18 51.66666,32.66669 89,44 37.33334,11.33331 75.33334,17.33331 114,18 19.33334,0 34.66666,-4.66669 46,-14 11.33334,-9.33331 18.33334,-18 21,-26 2.66666,-8 3.66666,-15 3,-21 0,-25.33331 -6,-70 -18,-134 -12,-64 -23.33334,-112.33334 -34,-145 0,-0.66666 39.66666,-1 119,-1 h 120 l 7,24 c 14,49.33334 32,105.33334 54,168 22,62.66669 36,98.33331 42,107 7.33331,10 18.33331,19.33331 33,28 14.66669,8.66669 28.33331,13.33331 41,14 12.66669,0 19,-3.66669 19,-11 L 750,578 C 727.33331,516 703,438.66669 677,346 651,253.33333 633.66669,171.66667 625,101 c -0.66669,-6 -1.33331,-12.333336 -2,-19 -0.66669,-6.666664 -1,-12.333336 -1,-17 0,-4.666668 -0.33331,-7.666668 -1,-9 0,-24 12.33331,-36 37,-36 5.33331,0 19.66669,1.666666 43,5 5.33331,18 17,32.666664 35,44 18,11.333336 34.33331,17.333336 49,18 12,0 18,-4 18,-12 0,-8 -4,-18.333332 -12,-31 -8,-12.666668 -20.33331,-26.333332 -37,-41 -16.66669,-14.666667 -39.66669,-26.666666 -69,-36 -29.33331,-9.333336 -61.66669,-14.333332 -97,-15 -13.33331,0 -22,0.666668 -26,2 -26.66669,10 -40,29.666666 -40,59 v 10 c 6,70.666672 19.33331,146.33333 40,227 l 7,31 -4,-1 c -2.66669,-1.33334 -5.66669,-2.33334 -9,-3 -3.33331,-0.66666 -5.66669,-1.66666 -7,-3 L 438,273 H 328 l -7,-24 C 311.66666,217.66667 296.33334,170.33334 275,107 253.66667,43.666664 239.33333,8 232,0 c -8.66667,-10.666667 -20.66667,-20 -36,-28 -15.33333,-8 -29,-12.333332 -41,-13 -4,0 -7.33333,0.666668 -10,2 -2.66667,1.333332 -4.33333,3 -5,5 -0.66667,2 -1,3.666666 -1,5 0,3.333334 3,12 9,26 6,14 17,43.666664 33,89 16,45.33334 33.33333,99 52,161 4.66667,15.33334 7,23.66666 7,25 0,0.66666 -15.33333,1 -46,1 h -25 c -20,0 -30,4 -30,12 0,6.66666 4.66667,14.33334 14,23 9.33333,8.66666 20.66667,16.66666 34,24 12.66667,6 29,9.33334 49,10 l 24,1 4,16 c 9.33334,36.66666 17.66666,77.66666 25,123 7.33334,45.33331 11,77.33331 11,96 0,23.33331 -13.33334,35 -40,35 h -6 c -37.33334,0 -65.66667,-7 -85,-21 -14,-9.33331 -28,-25.33331 -42,-48 -14,-22.66669 -21.66666,-34.66666 -23,-36 -21.333336,-20 -43.666664,-31 -67,-33 -12.666668,0 -19,4 -19,12 z"
       style="fill:#000000;fill-opacity:1;fill-rule:nonzero;stroke:none"
       transform="matrix(0.01770331,0,0,-0.01727386,286.7588,43.003485)"
       clip-path="url(#clipPath32)" />
    <path
       id="path33"
       d="M 462,0 C 450,2 407,3 333,3 255.66666,3 211,2 199,0 h -9 v 46 h 31 c 13.33333,0 22.33333,0 27,0 4.66667,0 10.33334,0.666668 17,2 6.66666,1.333332 11.33334,3 14,5 2.66666,2 5,4.666668 7,8 0.66666,1.333332 1,19.333328 1,54 v 50 H 28 v 46 l 151,231 c 102,154.66669 153.66666,232.33331 155,233 1.33334,1.33331 8.33334,2 21,2 h 18 l 6,-6 V 211 h 92 v -46 h -92 v -51 c 0,-27.333336 0,-43.333336 0,-48 0,-4.666668 2,-8.666668 6,-12 5.33334,-4.666668 24.33334,-7.333332 57,-8 h 29 V 0 Z M 293,211 V 545 L 74,212 183,211 Z"
       style="fill:#000000;fill-opacity:1;fill-rule:nonzero;stroke:none"
       transform="matrix(0.01251624,0,0,-0.01221262,302.30229,45.594564)"
       clip-path="url(#clipPath34)" />
    <path
       id="path35"
       d="m 18,487 c 0,6 3.666666,16 11,30 7.333332,14 20,30.33331 38,49 18,18.66669 38,37 60,55 22,18 51.66666,32.66669 89,44 37.33334,11.33331 75.33334,17.33331 114,18 19.33334,0 34.66666,-4.66669 46,-14 11.33334,-9.33331 18.33334,-18 21,-26 2.66666,-8 3.66666,-15 3,-21 0,-25.33331 -6,-70 -18,-134 -12,-64 -23.33334,-112.33334 -34,-145 0,-0.66666 39.66666,-1 119,-1 h 120 l 7,24 c 14,49.33334 32,105.33334 54,168 22,62.66669 36,98.33331 42,107 7.33331,10 18.33331,19.33331 33,28 14.66669,8.66669 28.33331,13.33331 41,14 12.66669,0 19,-3.66669 19,-11 L 750,578 C 727.33331,516 703,438.66669 677,346 651,253.33333 633.66669,171.66667 625,101 c -0.66669,-6 -1.33331,-12.333336 -2,-19 -0.66669,-6.666664 -1,-12.333336 -1,-17 0,-4.666668 -0.33331,-7.666668 -1,-9 0,-24 12.33331,-36 37,-36 5.33331,0 19.66669,1.666666 43,5 5.33331,18 17,32.666664 35,44 18,11.333336 34.33331,17.333336 49,18 12,0 18,-4 18,-12 0,-8 -4,-18.333332 -12,-31 -8,-12.666668 -20.33331,-26.333332 -37,-41 -16.66669,-14.666667 -39.66669,-26.666666 -69,-36 -29.33331,-9.333336 -61.66669,-14.333332 -97,-15 -13.33331,0 -22,0.666668 -26,2 -26.66669,10 -40,29.666666 -40,59 v 10 c 6,70.666672 19.33331,146.33333 40,227 l 7,31 -4,-1 c -2.66669,-1.33334 -5.66669,-2.33334 -9,-3 -3.33331,-0.66666 -5.66669,-1.66666 -7,-3 L 438,273 H 328 l -7,-24 C 311.66666,217.66667 296.33334,170.33334 275,107 253.66667,43.666664 239.33333,8 232,0 c -8.66667,-10.666667 -20.66667,-20 -36,-28 -15.33333,-8 -29,-12.333332 -41,-13 -4,0 -7.33333,0.666668 -10,2 -2.66667,1.333332 -4.33333,3 -5,5 -0.66667,2 -1,3.666666 -1,5 0,3.333334 3,12 9,26 6,14 17,43.666664 33,89 16,45.33334 33.33333,99 52,161 4.66667,15.33334 7,23.66666 7,25 0,0.66666 -15.33333,1 -46,1 h -25 c -20,0 -30,4 -30,12 0,6.66666 4.66667,14.33334 14,23 9.33333,8.66666 20.66667,16.66666 34,24 12.66667,6 29,9.33334 49,10 l 24,1 4,16 c 9.33334,36.66666 17.66666,77.66666 25,123 7.33334,45.33331 11,77.33331 11,96 0,23.33331 -13.33334,35 -40,35 h -6 c -37.33334,0 -65.66667,-7 -85,-21 -14,-9.33331 -28,-25.33331 -42,-48 -14,-22.66669 -21.66666,-34.66666 -23,-36 -21.333336,-20 -43.666664,-31 -67,-33 -12.666668,0 -19,4 -19,12 z"
       style="fill:#000000;fill-opacity:1;fill-rule:nonzero;stroke:none"
       transform="matrix(0.0170295,0,0,-0.01697004,134.13712,50.47054)"
       clip-path="url(#clipPath36)" />
    <path
       id="path37"
       d="m 127,463 c -18,0 -32,5.66666 -42,17 -10,11.33334 -15.333336,26 -16,44 0,36.66669 16,69.33331 48,98 32,28.66669 70.66666,43 116,43 23.33334,0 38,-0.33331 44,-1 49.33334,-8 87,-25.66669 113,-53 26,-27.33331 39.33334,-57 40,-89 0,-34.66666 -11.33334,-68.33334 -34,-101 -22.66666,-32.66666 -54,-56.33334 -94,-71 l -3,-2 c 0,-0.66666 3,-1.66666 9,-3 6,-1.33334 15.66666,-4.33334 29,-9 13.33334,-4.66666 26,-11.66666 38,-21 54.66666,-35.33334 82,-82 82,-140 C 457,122.33333 436.33334,76.333336 395,37 353.66666,-2.3333359 301.33334,-22 238,-22 184.66666,-22 138.66667,-7.6666679 100,21 61.333332,49.666668 42,86 42,130 c 0,18.66667 6,33.66667 18,45 12,11.33333 27,17.33333 45,18 18.66667,0 34,-6 46,-18 12,-12 18,-27 18,-45 0,-7.33334 -1,-14 -3,-20 -2,-6 -4.33333,-11.333336 -7,-16 -2.66667,-4.666664 -6.33333,-8.666664 -11,-12 -4.66667,-3.333336 -8.66667,-6 -12,-8 -3.33333,-2 -6.66667,-3.333336 -10,-4 -3.33334,-0.666664 -6,-1.666664 -8,-3 l -4,-1 c 34,-30 75.33333,-45 124,-45 36.66666,0 64.33334,17.666664 83,53 11.33334,22 17,55.66666 17,101 v 20 c 0,63.33334 -21.33334,105.66666 -64,127 -10,4 -30.33333,6.33334 -61,7 l -42,1 -3,2 c -1.33333,2 -2,7.33334 -2,16 0,12 2.66667,18 8,18 18.66667,0 38,1.66666 58,5 22.66667,3.33334 43.33334,17.33334 62,42 18.66666,24.66666 28,62 28,112 v 8 c 0,38 -11.66666,64.33331 -35,79 -14.66666,9.33331 -30.33334,14 -47,14 -21.33333,0 -41,-3.66669 -59,-11 -18,-7.33331 -30.66667,-15 -38,-23 -7.33333,-8 -11,-12 -11,-12 h 3 c 2,-0.66669 4.66667,-1.33331 8,-2 3.33333,-0.66669 6.66667,-2.33331 10,-5 3.33333,-2.66669 7.33333,-5 12,-7 4.66667,-2 8,-5.66669 10,-11 2,-5.33331 4.66667,-10.33331 8,-15 3.33333,-4.66669 4.33333,-11.33331 3,-20 0,-14.66666 -4.66667,-27.66666 -14,-39 -9.33333,-11.33334 -24.33333,-17.33334 -45,-18 z"
       style="fill:#000000;fill-opacity:1;fill-rule:nonzero;stroke:none"
       transform="matrix(0.01203986,0,0,-0.01199782,149.08902,53.016043)"
       clip-path="url(#clipPath38)" />
    <path
       id="path39"
       d="m 18,487 c 0,6 3.666666,16 11,30 7.333332,14 20,30.33331 38,49 18,18.66669 38,37 60,55 22,18 51.66666,32.66669 89,44 37.33334,11.33331 75.33334,17.33331 114,18 19.33334,0 34.66666,-4.66669 46,-14 11.33334,-9.33331 18.33334,-18 21,-26 2.66666,-8 3.66666,-15 3,-21 0,-25.33331 -6,-70 -18,-134 -12,-64 -23.33334,-112.33334 -34,-145 0,-0.66666 39.66666,-1 119,-1 h 120 l 7,24 c 14,49.33334 32,105.33334 54,168 22,62.66669 36,98.33331 42,107 7.33331,10 18.33331,19.33331 33,28 14.66669,8.66669 28.33331,13.33331 41,14 12.66669,0 19,-3.66669 19,-11 L 750,578 C 727.33331,516 703,438.66669 677,346 651,253.33333 633.66669,171.66667 625,101 c -0.66669,-6 -1.33331,-12.333336 -2,-19 -0.66669,-6.666664 -1,-12.333336 -1,-17 0,-4.666668 -0.33331,-7.666668 -1,-9 0,-24 12.33331,-36 37,-36 5.33331,0 19.66669,1.666666 43,5 5.33331,18 17,32.666664 35,44 18,11.333336 34.33331,17.333336 49,18 12,0 18,-4 18,-12 0,-8 -4,-18.333332 -12,-31 -8,-12.666668 -20.33331,-26.333332 -37,-41 -16.66669,-14.666667 -39.66669,-26.666666 -69,-36 -29.33331,-9.333336 -61.66669,-14.333332 -97,-15 -13.33331,0 -22,0.666668 -26,2 -26.66669,10 -40,29.666666 -40,59 v 10 c 6,70.666672 19.33331,146.33333 40,227 l 7,31 -4,-1 c -2.66669,-1.33334 -5.66669,-2.33334 -9,-3 -3.33331,-0.66666 -5.66669,-1.66666 -7,-3 L 438,273 H 328 l -7,-24 C 311.66666,217.66667 296.33334,170.33334 275,107 253.66667,43.666664 239.33333,8 232,0 c -8.66667,-10.666667 -20.66667,-20 -36,-28 -15.33333,-8 -29,-12.333332 -41,-13 -4,0 -7.33333,0.666668 -10,2 -2.66667,1.333332 -4.33333,3 -5,5 -0.66667,2 -1,3.666666 -1,5 0,3.333334 3,12 9,26 6,14 17,43.666664 33,89 16,45.33334 33.33333,99 52,161 4.66667,15.33334 7,23.66666 7,25 0,0.66666 -15.33333,1 -46,1 h -25 c -20,0 -30,4 -30,12 0,6.66666 4.66667,14.33334 14,23 9.33333,8.66666 20.66667,16.66666 34,24 12.66667,6 29,9.33334 49,10 l 24,1 4,16 c 9.33334,36.66666 17.66666,77.66666 25,123 7.33334,45.33331 11,77.33331 11,96 0,23.33331 -13.33334,35 -40,35 h -6 c -37.33334,0 -65.66667,-7 -85,-21 -14,-9.33331 -28,-25.33331 -42,-48 -14,-22.66669 -21.66666,-34.66666 -23,-36 -21.333336,-20 -43.666664,-31 -67,-33 -12.666668,0 -19,4 -19,12 z"
       style="fill:#000000;fill-opacity:1;fill-rule:nonzero;stroke:none"
       transform="matrix(0.01712185,0,0,-0.01727393,211.88927,24.7635)"
       clip-path="url(#clipPath40)" />
    <path
       id="path41"
       d="m 109,429 c -18,0 -32.333336,6 -43,18 -10.666668,12 -16,26.66666 -16,44 0,47.33331 17.666664,88.33331 53,123 35.33334,34.66669 79.33333,52 132,52 60.66666,0 111.33334,-18.66669 152,-56 40.66666,-37.33331 61.33334,-85.66669 62,-145 0,-28.66666 -6.66666,-56 -20,-82 -13.33334,-26 -29.33334,-48.66666 -48,-68 -18.66666,-19.33334 -45.33334,-44 -80,-74 -24,-20.66667 -57.33333,-51.33333 -100,-92 l -59,-56 76,-1 c 104.66669,0 160.33334,1.666664 167,5 4.66666,1.333336 12.66666,31 24,89 v 3 h 40 v -3 C 448.33334,184 444,153.66667 436,95 428,36.333332 423,5.666667 421,3 V 0 H 50 v 19 12 c 0,4.666668 2,9.666668 6,15 4,5.333332 14,17 30,35 19.33334,21.33334 36,40 50,56 6,6.66667 17.33333,19 34,37 16.66667,18 28,30.33333 34,37 6,6.66667 15.66667,17.66667 29,33 13.33333,15.33334 22.66667,26.66666 28,34 5.33334,7.33334 13,17.33334 23,30 10,12.66666 17,23.33334 21,32 4,8.66666 9,18.33334 15,29 6,10.66666 10.33334,21.33334 13,32 2.66666,10.66666 5,20.66666 7,30 2,9.33334 3,20.33334 3,33 0,42 -11.33334,78.33331 -34,109 -22.66666,30.66669 -55,46 -97,46 -22,0 -41.33333,-5.66669 -58,-17 -16.66667,-11.33331 -28.33334,-22.33331 -35,-33 -6.66666,-10.66669 -10,-17 -10,-19 0,-0.66669 1.66666,-1 5,-1 12,0 24.33333,-4.66669 37,-14 12.66667,-9.33331 19,-24.66666 19,-46 0,-16.66666 -5.33333,-30.66666 -16,-42 -10.66667,-11.33334 -25.66667,-17.33334 -45,-18 z"
       style="fill:#000000;fill-opacity:1;fill-rule:nonzero;stroke:none"
       transform="matrix(0.01210515,0,0,-0.01221267,226.92224,27.354589)"
       clip-path="url(#clipPath42)" />
    <path
       id="path43"
       d="m 18,487 c 0,6 3.666666,16 11,30 7.333332,14 20,30.33331 38,49 18,18.66669 38,37 60,55 22,18 51.66666,32.66669 89,44 37.33334,11.33331 75.33334,17.33331 114,18 19.33334,0 34.66666,-4.66669 46,-14 11.33334,-9.33331 18.33334,-18 21,-26 2.66666,-8 3.66666,-15 3,-21 0,-25.33331 -6,-70 -18,-134 -12,-64 -23.33334,-112.33334 -34,-145 0,-0.66666 39.66666,-1 119,-1 h 120 l 7,24 c 14,49.33334 32,105.33334 54,168 22,62.66669 36,98.33331 42,107 7.33331,10 18.33331,19.33331 33,28 14.66669,8.66669 28.33331,13.33331 41,14 12.66669,0 19,-3.66669 19,-11 L 750,578 C 727.33331,516 703,438.66669 677,346 651,253.33333 633.66669,171.66667 625,101 c -0.66669,-6 -1.33331,-12.333336 -2,-19 -0.66669,-6.666664 -1,-12.333336 -1,-17 0,-4.666668 -0.33331,-7.666668 -1,-9 0,-24 12.33331,-36 37,-36 5.33331,0 19.66669,1.666666 43,5 5.33331,18 17,32.666664 35,44 18,11.333336 34.33331,17.333336 49,18 12,0 18,-4 18,-12 0,-8 -4,-18.333332 -12,-31 -8,-12.666668 -20.33331,-26.333332 -37,-41 -16.66669,-14.666667 -39.66669,-26.666666 -69,-36 -29.33331,-9.333336 -61.66669,-14.333332 -97,-15 -13.33331,0 -22,0.666668 -26,2 -26.66669,10 -40,29.666666 -40,59 v 10 c 6,70.666672 19.33331,146.33333 40,227 l 7,31 -4,-1 c -2.66669,-1.33334 -5.66669,-2.33334 -9,-3 -3.33331,-0.66666 -5.66669,-1.66666 -7,-3 L 438,273 H 328 l -7,-24 C 311.66666,217.66667 296.33334,170.33334 275,107 253.66667,43.666664 239.33333,8 232,0 c -8.66667,-10.666667 -20.66667,-20 -36,-28 -15.33333,-8 -29,-12.333332 -41,-13 -4,0 -7.33333,0.666668 -10,2 -2.66667,1.333332 -4.33333,3 -5,5 -0.66667,2 -1,3.666666 -1,5 0,3.333334 3,12 9,26 6,14 17,43.666664 33,89 16,45.33334 33.33333,99 52,161 4.66667,15.33334 7,23.66666 7,25 0,0.66666 -15.33333,1 -46,1 h -25 c -20,0 -30,4 -30,12 0,6.66666 4.66667,14.33334 14,23 9.33333,8.66666 20.66667,16.66666 34,24 12.66667,6 29,9.33334 49,10 l 24,1 4,16 c 9.33334,36.66666 17.66666,77.66666 25,123 7.33334,45.33331 11,77.33331 11,96 0,23.33331 -13.33334,35 -40,35 h -6 c -37.33334,0 -65.66667,-7 -85,-21 -14,-9.33331 -28,-25.33331 -42,-48 -14,-22.66669 -21.66666,-34.66666 -23,-36 -21.333336,-20 -43.666664,-31 -67,-33 -12.666668,0 -19,4 -19,12 z"
       style="fill:#000000;fill-opacity:1;fill-rule:nonzero;stroke:none"
       transform="matrix(0.01735105,0,0,-0.01727399,85.165132,23.32352)"
       clip-path="url(#clipPath44)" />
    <path
       id="path45"
       d="m 213,578 -13,-5 c -9.33333,-3.33331 -22.66667,-6.66669 -40,-10 -17.33333,-3.33331 -36.66666,-5.66669 -58,-7 H 83 v 46 h 19 c 31.33333,1.33331 60.33333,6.33331 87,15 26.66667,8.66669 45.33333,16.66669 56,24 10.66667,7.33331 20,14.66669 28,22 1.33334,2 5.33334,3 12,3 6,0 11.66666,-2 17,-6 V 361 l 1,-300 c 4.66666,-4.666668 8.66666,-7.666668 12,-9 3.33334,-1.333332 11.33334,-2.666668 24,-4 12.66666,-1.333332 33.33334,-2 62,-2 h 26 V 0 H 416 C 402,2 349,3 257,3 166.33333,3 114,2 100,0 H 88 v 46 h 26 c 14.66667,0 27.33333,0 38,0 10.66667,0 19,0.333332 25,1 6,0.666668 11.33333,1.666668 16,3 4.66667,1.333332 7.33333,2 8,2 0.66667,0 2.66667,1.666668 6,5 3.33333,3.333332 5.33333,4.666668 6,4 z"
       style="fill:#000000;fill-opacity:1;fill-rule:nonzero;stroke:none"
       transform="matrix(0.0122672,0,0,-0.01221271,100.39935,25.914618)"
       clip-path="url(#clipPath46)" />
    <path
       id="path47"
       d="m 18,487 c 0,6 3.666666,16 11,30 7.333332,14 20,30.33331 38,49 18,18.66669 38,37 60,55 22,18 51.66666,32.66669 89,44 37.33334,11.33331 75.33334,17.33331 114,18 19.33334,0 34.66666,-4.66669 46,-14 11.33334,-9.33331 18.33334,-18 21,-26 2.66666,-8 3.66666,-15 3,-21 0,-25.33331 -6,-70 -18,-134 -12,-64 -23.33334,-112.33334 -34,-145 0,-0.66666 39.66666,-1 119,-1 h 120 l 7,24 c 14,49.33334 32,105.33334 54,168 22,62.66669 36,98.33331 42,107 7.33331,10 18.33331,19.33331 33,28 14.66669,8.66669 28.33331,13.33331 41,14 12.66669,0 19,-3.66669 19,-11 L 750,578 C 727.33331,516 703,438.66669 677,346 651,253.33333 633.66669,171.66667 625,101 c -0.66669,-6 -1.33331,-12.333336 -2,-19 -0.66669,-6.666664 -1,-12.333336 -1,-17 0,-4.666668 -0.33331,-7.666668 -1,-9 0,-24 12.33331,-36 37,-36 5.33331,0 19.66669,1.666666 43,5 5.33331,18 17,32.666664 35,44 18,11.333336 34.33331,17.333336 49,18 12,0 18,-4 18,-12 0,-8 -4,-18.333332 -12,-31 -8,-12.666668 -20.33331,-26.333332 -37,-41 -16.66669,-14.666667 -39.66669,-26.666666 -69,-36 -29.33331,-9.333336 -61.66669,-14.333332 -97,-15 -13.33331,0 -22,0.666668 -26,2 -26.66669,10 -40,29.666666 -40,59 v 10 c 6,70.666672 19.33331,146.33333 40,227 l 7,31 -4,-1 c -2.66669,-1.33334 -5.66669,-2.33334 -9,-3 -3.33331,-0.66666 -5.66669,-1.66666 -7,-3 L 438,273 H 328 l -7,-24 C 311.66666,217.66667 296.33334,170.33334 275,107 253.66667,43.666664 239.33333,8 232,0 c -8.66667,-10.666667 -20.66667,-20 -36,-28 -15.33333,-8 -29,-12.333332 -41,-13 -4,0 -7.33333,0.666668 -10,2 -2.66667,1.333332 -4.33333,3 -5,5 -0.66667,2 -1,3.666666 -1,5 0,3.333334 3,12 9,26 6,14 17,43.666664 33,89 16,45.33334 33.33333,99 52,161 4.66667,15.33334 7,23.66666 7,25 0,0.66666 -15.33333,1 -46,1 h -25 c -20,0 -30,4 -30,12 0,6.66666 4.66667,14.33334 14,23 9.33333,8.66666 20.66667,16.66666 34,24 12.66667,6 29,9.33334 49,10 l 24,1 4,16 c 9.33334,36.66666 17.66666,77.66666 25,123 7.33334,45.33331 11,77.33331 11,96 0,23.33331 -13.33334,35 -40,35 h -6 c -37.33334,0 -65.66667,-7 -85,-21 -14,-9.33331 -28,-25.33331 -42,-48 -14,-22.66669 -21.66666,-34.66666 -23,-36 -21.333336,-20 -43.666664,-31 -67,-33 -12.666668,0 -19,4 -19,12 z"
       style="fill:#000000;fill-opacity:1;fill-rule:nonzero;stroke:none"
       transform="matrix(0.01700468,0,0,-0.01697004,-0.26577496,23.110541)"
       clip-path="url(#clipPath48)" />
    <path
       id="path49"
       d="m 96,585 c 37.33334,54 88.33333,81 153,81 32,0 64,-8.66669 96,-26 32,-17.33331 58,-48 78,-92 24.66666,-55.33334 37,-131.33331 37,-228 C 460,216.66666 445.66666,137.66667 417,83 403.66666,55 385.33334,32.666668 362,16 338.66666,-0.66666794 318.33334,-11 301,-15 c -17.33334,-4 -34.33334,-6.333334 -51,-7 -17.33333,0 -34.66667,2 -52,6 -17.33333,4 -37.66667,14.666666 -61,32 C 113.66666,33.333336 95.333336,55.666664 82,83 53.333332,137.66667 39,216.66666 39,320 39,436 58,524.33331 96,585 Z m 225,12 c -20,21.33331 -43.66666,32 -71,32 -28,0 -52,-10.66669 -72,-32 -16.66667,-17.33331 -27.66667,-41.33331 -33,-72 -5.33333,-30.66666 -8,-94.66666 -8,-192 0,-105.33334 2.66667,-174.66666 8,-208 5.33333,-33.333336 17.33333,-59.666664 36,-79 18.66667,-20 41.66667,-30 69,-30 26.66666,0 49.33334,10 68,30 19.33334,20 31.33334,48 36,84 4.66666,36 7.33334,103.66666 8,203 0,96.66669 -2.66666,160.33334 -8,191 -5.33334,30.66669 -16.33334,55 -33,73 z"
       style="fill:#000000;fill-opacity:1;fill-rule:nonzero;stroke:none"
       transform="matrix(0.01202231,0,0,-0.01199782,14.664332,25.656046)"
       clip-path="url(#clipPath50)" />
    <path
       id="path51"
       d="m 18,487 c 0,6 3.666666,16 11,30 7.333332,14 20,30.33331 38,49 18,18.66669 38,37 60,55 22,18 51.66666,32.66669 89,44 37.33334,11.33331 75.33334,17.33331 114,18 19.33334,0 34.66666,-4.66669 46,-14 11.33334,-9.33331 18.33334,-18 21,-26 2.66666,-8 3.66666,-15 3,-21 0,-25.33331 -6,-70 -18,-134 -12,-64 -23.33334,-112.33334 -34,-145 0,-0.66666 39.66666,-1 119,-1 h 120 l 7,24 c 14,49.33334 32,105.33334 54,168 22,62.66669 36,98.33331 42,107 7.33331,10 18.33331,19.33331 33,28 14.66669,8.66669 28.33331,13.33331 41,14 12.66669,0 19,-3.66669 19,-11 L 750,578 C 727.33331,516 703,438.66669 677,346 651,253.33333 633.66669,171.66667 625,101 c -0.66669,-6 -1.33331,-12.333336 -2,-19 -0.66669,-6.666664 -1,-12.333336 -1,-17 0,-4.666668 -0.33331,-7.666668 -1,-9 0,-24 12.33331,-36 37,-36 5.33331,0 19.66669,1.666666 43,5 5.33331,18 17,32.666664 35,44 18,11.333336 34.33331,17.333336 49,18 12,0 18,-4 18,-12 0,-8 -4,-18.333332 -12,-31 -8,-12.666668 -20.33331,-26.333332 -37,-41 -16.66669,-14.666667 -39.66669,-26.666666 -69,-36 -29.33331,-9.333336 -61.66669,-14.333332 -97,-15 -13.33331,0 -22,0.666668 -26,2 -26.66669,10 -40,29.666666 -40,59 v 10 c 6,70.666672 19.33331,146.33333 40,227 l 7,31 -4,-1 c -2.66669,-1.33334 -5.66669,-2.33334 -9,-3 -3.33331,-0.66666 -5.66669,-1.66666 -7,-3 L 438,273 H 328 l -7,-24 C 311.66666,217.66667 296.33334,170.33334 275,107 253.66667,43.666664 239.33333,8 232,0 c -8.66667,-10.666667 -20.66667,-20 -36,-28 -15.33333,-8 -29,-12.333332 -41,-13 -4,0 -7.33333,0.666668 -10,2 -2.66667,1.333332 -4.33333,3 -5,5 -0.66667,2 -1,3.666666 -1,5 0,3.333334 3,12 9,26 6,14 17,43.666664 33,89 16,45.33334 33.33333,99 52,161 4.66667,15.33334 7,23.66666 7,25 0,0.66666 -15.33333,1 -46,1 h -25 c -20,0 -30,4 -30,12 0,6.66666 4.66667,14.33334 14,23 9.33333,8.66666 20.66667,16.66666 34,24 12.66667,6 29,9.33334 49,10 l 24,1 4,16 c 9.33334,36.66666 17.66666,77.66666 25,123 7.33334,45.33331 11,77.33331 11,96 0,23.33331 -13.33334,35 -40,35 h -6 c -37.33334,0 -65.66667,-7 -85,-21 -14,-9.33331 -28,-25.33331 -42,-48 -14,-22.66669 -21.66666,-34.66666 -23,-36 -21.333336,-20 -43.666664,-31 -67,-33 -12.666668,0 -19,4 -19,12 z"
       style="fill:#000000;fill-opacity:1;fill-rule:nonzero;stroke:none"
       transform="matrix(0.01700468,0,0,-0.01697004,134.13422,24.070541)"
       clip-path="url(#clipPath52)" />
    <path
       id="path53"
       d="m 96,585 c 37.33334,54 88.33333,81 153,81 32,0 64,-8.66669 96,-26 32,-17.33331 58,-48 78,-92 24.66666,-55.33334 37,-131.33331 37,-228 C 460,216.66666 445.66666,137.66667 417,83 403.66666,55 385.33334,32.666668 362,16 338.66666,-0.66666794 318.33334,-11 301,-15 c -17.33334,-4 -34.33334,-6.333334 -51,-7 -17.33333,0 -34.66667,2 -52,6 -17.33333,4 -37.66667,14.666666 -61,32 C 113.66666,33.333336 95.333336,55.666664 82,83 53.333332,137.66667 39,216.66666 39,320 39,436 58,524.33331 96,585 Z m 225,12 c -20,21.33331 -43.66666,32 -71,32 -28,0 -52,-10.66669 -72,-32 -16.66667,-17.33331 -27.66667,-41.33331 -33,-72 -5.33333,-30.66666 -8,-94.66666 -8,-192 0,-105.33334 2.66667,-174.66666 8,-208 5.33333,-33.333336 17.33333,-59.666664 36,-79 18.66667,-20 41.66667,-30 69,-30 26.66666,0 49.33334,10 68,30 19.33334,20 31.33334,48 36,84 4.66666,36 7.33334,103.66666 8,203 0,96.66669 -2.66666,160.33334 -8,191 -5.33334,30.66669 -16.33334,55 -33,73 z"
       style="fill:#000000;fill-opacity:1;fill-rule:nonzero;stroke:none"
       transform="matrix(0.01202231,0,0,-0.01199782,149.06433,26.616046)"
       clip-path="url(#clipPath54)" />
    <path
       id="path55"
       d="m 18,487 c 0,6 3.666666,16 11,30 7.333332,14 20,30.33331 38,49 18,18.66669 38,37 60,55 22,18 51.66666,32.66669 89,44 37.33334,11.33331 75.33334,17.33331 114,18 19.33334,0 34.66666,-4.66669 46,-14 11.33334,-9.33331 18.33334,-18 21,-26 2.66666,-8 3.66666,-15 3,-21 0,-25.33331 -6,-70 -18,-134 -12,-64 -23.33334,-112.33334 -34,-145 0,-0.66666 39.66666,-1 119,-1 h 120 l 7,24 c 14,49.33334 32,105.33334 54,168 22,62.66669 36,98.33331 42,107 7.33331,10 18.33331,19.33331 33,28 14.66669,8.66669 28.33331,13.33331 41,14 12.66669,0 19,-3.66669 19,-11 L 750,578 C 727.33331,516 703,438.66669 677,346 651,253.33333 633.66669,171.66667 625,101 c -0.66669,-6 -1.33331,-12.333336 -2,-19 -0.66669,-6.666664 -1,-12.333336 -1,-17 0,-4.666668 -0.33331,-7.666668 -1,-9 0,-24 12.33331,-36 37,-36 5.33331,0 19.66669,1.666666 43,5 5.33331,18 17,32.666664 35,44 18,11.333336 34.33331,17.333336 49,18 12,0 18,-4 18,-12 0,-8 -4,-18.333332 -12,-31 -8,-12.666668 -20.33331,-26.333332 -37,-41 -16.66669,-14.666667 -39.66669,-26.666666 -69,-36 -29.33331,-9.333336 -61.66669,-14.333332 -97,-15 -13.33331,0 -22,0.666668 -26,2 -26.66669,10 -40,29.666666 -40,59 v 10 c 6,70.666672 19.33331,146.33333 40,227 l 7,31 -4,-1 c -2.66669,-1.33334 -5.66669,-2.33334 -9,-3 -3.33331,-0.66666 -5.66669,-1.66666 -7,-3 L 438,273 H 328 l -7,-24 C 311.66666,217.66667 296.33334,170.33334 275,107 253.66667,43.666664 239.33333,8 232,0 c -8.66667,-10.666667 -20.66667,-20 -36,-28 -15.33333,-8 -29,-12.333332 -41,-13 -4,0 -7.33333,0.666668 -10,2 -2.66667,1.333332 -4.33333,3 -5,5 -0.66667,2 -1,3.666666 -1,5 0,3.333334 3,12 9,26 6,14 17,43.666664 33,89 16,45.33334 33.33333,99 52,161 4.66667,15.33334 7,23.66666 7,25 0,0.66666 -15.33333,1 -46,1 h -25 c -20,0 -30,4 -30,12 0,6.66666 4.66667,14.33334 14,23 9.33333,8.66666 20.66667,16.66666 34,24 12.66667,6 29,9.33334 49,10 l 24,1 4,16 c 9.33334,36.66666 17.66666,77.66666 25,123 7.33334,45.33331 11,77.33331 11,96 0,23.33331 -13.33334,35 -40,35 h -6 c -37.33334,0 -65.66667,-7 -85,-21 -14,-9.33331 -28,-25.33331 -42,-48 -14,-22.66669 -21.66666,-34.66666 -23,-36 -21.333336,-20 -43.666664,-31 -67,-33 -12.666668,0 -19,4 -19,12 z"
       style="fill:#000000;fill-opacity:1;fill-rule:nonzero;stroke:none"
       transform="matrix(0.01735105,0,0,-0.01727399,286.76512,15.163519)"
       clip-path="url(#clipPath56)" />
    <path
       id="path57"
       d="m 213,578 -13,-5 c -9.33333,-3.33331 -22.66667,-6.66669 -40,-10 -17.33333,-3.33331 -36.66666,-5.66669 -58,-7 H 83 v 46 h 19 c 31.33333,1.33331 60.33333,6.33331 87,15 26.66667,8.66669 45.33333,16.66669 56,24 10.66667,7.33331 20,14.66669 28,22 1.33334,2 5.33334,3 12,3 6,0 11.66666,-2 17,-6 V 361 l 1,-300 c 4.66666,-4.666668 8.66666,-7.666668 12,-9 3.33334,-1.333332 11.33334,-2.666668 24,-4 12.66666,-1.333332 33.33334,-2 62,-2 h 26 V 0 H 416 C 402,2 349,3 257,3 166.33333,3 114,2 100,0 H 88 v 46 h 26 c 14.66667,0 27.33333,0 38,0 10.66667,0 19,0.333332 25,1 6,0.666668 11.33333,1.666668 16,3 4.66667,1.333332 7.33333,2 8,2 0.66667,0 2.66667,1.666668 6,5 3.33333,3.333332 5.33333,4.666668 6,4 z"
       style="fill:#000000;fill-opacity:1;fill-rule:nonzero;stroke:none"
       transform="matrix(0.0122672,0,0,-0.01221271,301.99936,17.754618)"
       clip-path="url(#clipPath58)" />
    <path
       id="path59"
       d="m 18,487 c 0,6 3.666666,16 11,30 7.333332,14 20,30.33331 38,49 18,18.66669 38,37 60,55 22,18 51.66666,32.66669 89,44 37.33334,11.33331 75.33334,17.33331 114,18 19.33334,0 34.66666,-4.66669 46,-14 11.33334,-9.33331 18.33334,-18 21,-26 2.66666,-8 3.66666,-15 3,-21 0,-25.33331 -6,-70 -18,-134 -12,-64 -23.33334,-112.33334 -34,-145 0,-0.66666 39.66666,-1 119,-1 h 120 l 7,24 c 14,49.33334 32,105.33334 54,168 22,62.66669 36,98.33331 42,107 7.33331,10 18.33331,19.33331 33,28 14.66669,8.66669 28.33331,13.33331 41,14 12.66669,0 19,-3.66669 19,-11 L 750,578 C 727.33331,516 703,438.66669 677,346 651,253.33333 633.66669,171.66667 625,101 c -0.66669,-6 -1.33331,-12.333336 -2,-19 -0.66669,-6.666664 -1,-12.333336 -1,-17 0,-4.666668 -0.33331,-7.666668 -1,-9 0,-24 12.33331,-36 37,-36 5.33331,0 19.66669,1.666666 43,5 5.33331,18 17,32.666664 35,44 18,11.333336 34.33331,17.333336 49,18 12,0 18,-4 18,-12 0,-8 -4,-18.333332 -12,-31 -8,-12.666668 -20.33331,-26.333332 -37,-41 -16.66669,-14.666667 -39.66669,-26.666666 -69,-36 -29.33331,-9.333336 -61.66669,-14.333332 -97,-15 -13.33331,0 -22,0.666668 -26,2 -26.66669,10 -40,29.666666 -40,59 v 10 c 6,70.666672 19.33331,146.33333 40,227 l 7,31 -4,-1 c -2.66669,-1.33334 -5.66669,-2.33334 -9,-3 -3.33331,-0.66666 -5.66669,-1.66666 -7,-3 L 438,273 H 328 l -7,-24 C 311.66666,217.66667 296.33334,170.33334 275,107 253.66667,43.666664 239.33333,8 232,0 c -8.66667,-10.666667 -20.66667,-20 -36,-28 -15.33333,-8 -29,-12.333332 -41,-13 -4,0 -7.33333,0.666668 -10,2 -2.66667,1.333332 -4.33333,3 -5,5 -0.66667,2 -1,3.666666 -1,5 0,3.333334 3,12 9,26 6,14 17,43.666664 33,89 16,45.33334 33.33333,99 52,161 4.66667,15.33334 7,23.66666 7,25 0,0.66666 -15.33333,1 -46,1 h -25 c -20,0 -30,4 -30,12 0,6.66666 4.66667,14.33334 14,23 9.33333,8.66666 20.66667,16.66666 34,24 12.66667,6 29,9.33334 49,10 l 24,1 4,16 c 9.33334,36.66666 17.66666,77.66666 25,123 7.33334,45.33331 11,77.33331 11,96 0,23.33331 -13.33334,35 -40,35 h -6 c -37.33334,0 -65.66667,-7 -85,-21 -14,-9.33331 -28,-25.33331 -42,-48 -14,-22.66669 -21.66666,-34.66666 -23,-36 -21.333336,-20 -43.666664,-31 -67,-33 -12.666668,0 -19,4 -19,12 z"
       style="fill:#000000;fill-opacity:1;fill-rule:nonzero;stroke:none"
       transform="matrix(0.01770331,0,0,-0.01727386,84.198787,43.963485)"
       clip-path="url(#clipPath60)" />
    <path
       id="path61"
       d="M 462,0 C 450,2 407,3 333,3 255.66666,3 211,2 199,0 h -9 v 46 h 31 c 13.33333,0 22.33333,0 27,0 4.66667,0 10.33334,0.666668 17,2 6.66666,1.333332 11.33334,3 14,5 2.66666,2 5,4.666668 7,8 0.66666,1.333332 1,19.333328 1,54 v 50 H 28 v 46 l 151,231 c 102,154.66669 153.66666,232.33331 155,233 1.33334,1.33331 8.33334,2 21,2 h 18 l 6,-6 V 211 h 92 v -46 h -92 v -51 c 0,-27.333336 0,-43.333336 0,-48 0,-4.666668 2,-8.666668 6,-12 5.33334,-4.666668 24.33334,-7.333332 57,-8 h 29 V 0 Z M 293,211 V 545 L 74,212 183,211 Z"
       style="fill:#000000;fill-opacity:1;fill-rule:nonzero;stroke:none"
       transform="matrix(0.01251624,0,0,-0.01221262,99.7423,46.554564)"
       clip-path="url(#clipPath62)" />
    <path
       id="path63"
       d="m 18,487 c 0,6 3.666666,16 11,30 7.333332,14 20,30.33331 38,49 18,18.66669 38,37 60,55 22,18 51.66666,32.66669 89,44 37.33334,11.33331 75.33334,17.33331 114,18 19.33334,0 34.66666,-4.66669 46,-14 11.33334,-9.33331 18.33334,-18 21,-26 2.66666,-8 3.66666,-15 3,-21 0,-25.33331 -6,-70 -18,-134 -12,-64 -23.33334,-112.33334 -34,-145 0,-0.66666 39.66666,-1 119,-1 h 120 l 7,24 c 14,49.33334 32,105.33334 54,168 22,62.66669 36,98.33331 42,107 7.33331,10 18.33331,19.33331 33,28 14.66669,8.66669 28.33331,13.33331 41,14 12.66669,0 19,-3.66669 19,-11 L 750,578 C 727.33331,516 703,438.66669 677,346 651,253.33333 633.66669,171.66667 625,101 c -0.66669,-6 -1.33331,-12.333336 -2,-19 -0.66669,-6.666664 -1,-12.333336 -1,-17 0,-4.666668 -0.33331,-7.666668 -1,-9 0,-24 12.33331,-36 37,-36 5.33331,0 19.66669,1.666666 43,5 5.33331,18 17,32.666664 35,44 18,11.333336 34.33331,17.333336 49,18 12,0 18,-4 18,-12 0,-8 -4,-18.333332 -12,-31 -8,-12.666668 -20.33331,-26.333332 -37,-41 -16.66669,-14.666667 -39.66669,-26.666666 -69,-36 -29.33331,-9.333336 -61.66669,-14.333332 -97,-15 -13.33331,0 -22,0.666668 -26,2 -26.66669,10 -40,29.666666 -40,59 v 10 c 6,70.666672 19.33331,146.33333 40,227 l 7,31 -4,-1 c -2.66669,-1.33334 -5.66669,-2.33334 -9,-3 -3.33331,-0.66666 -5.66669,-1.66666 -7,-3 L 438,273 H 328 l -7,-24 C 311.66666,217.66667 296.33334,170.33334 275,107 253.66667,43.666664 239.33333,8 232,0 c -8.66667,-10.666667 -20.66667,-20 -36,-28 -15.33333,-8 -29,-12.333332 -41,-13 -4,0 -7.33333,0.666668 -10,2 -2.66667,1.333332 -4.33333,3 -5,5 -0.66667,2 -1,3.666666 -1,5 0,3.333334 3,12 9,26 6,14 17,43.666664 33,89 16,45.33334 33.33333,99 52,161 4.66667,15.33334 7,23.66666 7,25 0,0.66666 -15.33333,1 -46,1 h -25 c -20,0 -30,4 -30,12 0,6.66666 4.66667,14.33334 14,23 9.33333,8.66666 20.66667,16.66666 34,24 12.66667,6 29,9.33334 49,10 l 24,1 4,16 c 9.33334,36.66666 17.66666,77.66666 25,123 7.33334,45.33331 11,77.33331 11,96 0,23.33331 -13.33334,35 -40,35 h -6 c -37.33334,0 -65.66667,-7 -85,-21 -14,-9.33331 -28,-25.33331 -42,-48 -14,-22.66669 -21.66666,-34.66666 -23,-36 -21.333336,-20 -43.666664,-31 -67,-33 -12.666668,0 -19,4 -19,12 z"
       style="fill:#000000;fill-opacity:1;fill-rule:nonzero;stroke:none"
       transform="matrix(0.0170295,0,0,-0.01697004,-0.26287341,43.27054)"
       clip-path="url(#clipPath64)" />
    <path
       id="path65"
       d="m 127,463 c -18,0 -32,5.66666 -42,17 -10,11.33334 -15.333336,26 -16,44 0,36.66669 16,69.33331 48,98 32,28.66669 70.66666,43 116,43 23.33334,0 38,-0.33331 44,-1 49.33334,-8 87,-25.66669 113,-53 26,-27.33331 39.33334,-57 40,-89 0,-34.66666 -11.33334,-68.33334 -34,-101 -22.66666,-32.66666 -54,-56.33334 -94,-71 l -3,-2 c 0,-0.66666 3,-1.66666 9,-3 6,-1.33334 15.66666,-4.33334 29,-9 13.33334,-4.66666 26,-11.66666 38,-21 54.66666,-35.33334 82,-82 82,-140 C 457,122.33333 436.33334,76.333336 395,37 353.66666,-2.3333359 301.33334,-22 238,-22 184.66666,-22 138.66667,-7.6666679 100,21 61.333332,49.666668 42,86 42,130 c 0,18.66667 6,33.66667 18,45 12,11.33333 27,17.33333 45,18 18.66667,0 34,-6 46,-18 12,-12 18,-27 18,-45 0,-7.33334 -1,-14 -3,-20 -2,-6 -4.33333,-11.333336 -7,-16 -2.66667,-4.666664 -6.33333,-8.666664 -11,-12 -4.66667,-3.333336 -8.66667,-6 -12,-8 -3.33333,-2 -6.66667,-3.333336 -10,-4 -3.33334,-0.666664 -6,-1.666664 -8,-3 l -4,-1 c 34,-30 75.33333,-45 124,-45 36.66666,0 64.33334,17.666664 83,53 11.33334,22 17,55.66666 17,101 v 20 c 0,63.33334 -21.33334,105.66666 -64,127 -10,4 -30.33333,6.33334 -61,7 l -42,1 -3,2 c -1.33333,2 -2,7.33334 -2,16 0,12 2.66667,18 8,18 18.66667,0 38,1.66666 58,5 22.66667,3.33334 43.33334,17.33334 62,42 18.66666,24.66666 28,62 28,112 v 8 c 0,38 -11.66666,64.33331 -35,79 -14.66666,9.33331 -30.33334,14 -47,14 -21.33333,0 -41,-3.66669 -59,-11 -18,-7.33331 -30.66667,-15 -38,-23 -7.33333,-8 -11,-12 -11,-12 h 3 c 2,-0.66669 4.66667,-1.33331 8,-2 3.33333,-0.66669 6.66667,-2.33331 10,-5 3.33333,-2.66669 7.33333,-5 12,-7 4.66667,-2 8,-5.66669 10,-11 2,-5.33331 4.66667,-10.33331 8,-15 3.33333,-4.66669 4.33333,-11.33331 3,-20 0,-14.66666 -4.66667,-27.66666 -14,-39 -9.33333,-11.33334 -24.33333,-17.33334 -45,-18 z"
       style="fill:#000000;fill-opacity:1;fill-rule:nonzero;stroke:none"
       transform="matrix(0.01203986,0,0,-0.01199782,14.689028,45.816043)"
       clip-path="url(#clipPath66)" />
  </g>
</svg>
