<?xml version="1.0" encoding="UTF-8" standalone="no"?>
<!-- Created with Inkscape (http://www.inkscape.org/) -->

<svg
   version="1.1"
   id="svg1"
   width="348.16"
   height="125.43999"
   viewBox="0 0 348.16 125.43999"
   xmlns="http://www.w3.org/2000/svg"
   xmlns:svg="http://www.w3.org/2000/svg">
  <defs
     id="defs1">
    <clipPath
       clipPathUnits="userSpaceOnUse"
       id="clipPath2">
      <path
         d="M 0,0 H 1085.9863 V 389.99023 H 0 Z"
         transform="matrix(0.33338341,0,0,0.33338341,99.483215,404.49997)"
         clip-rule="evenodd"
         id="path2" />
    </clipPath>
    <clipPath
       clipPathUnits="userSpaceOnUse"
       id="clipPath4">
      <path
         d="M 0,0 H 1085.9863 V 389.99023 H 0 Z"
         transform="matrix(0.33338341,0,0,0.33338341,99.483215,404.49997)"
         clip-rule="evenodd"
         id="path4" />
    </clipPath>
    <clipPath
       clipPathUnits="userSpaceOnUse"
       id="clipPath6">
      <path
         d="M 0,0 H 1085.9863 V 389.99023 H 0 Z"
         transform="matrix(0.33338341,0,0,0.33338341,99.483215,404.49997)"
         clip-rule="evenodd"
         id="path6" />
    </clipPath>
    <clipPath
       clipPathUnits="userSpaceOnUse"
       id="clipPath8">
      <path
         d="M 0,0 H 1085.9863 V 389.99023 H 0 Z"
         transform="matrix(0.33338341,0,0,0.33338341,99.483215,404.49997)"
         clip-rule="evenodd"
         id="path8" />
    </clipPath>
    <clipPath
       clipPathUnits="userSpaceOnUse"
       id="clipPath10">
      <path
         d="M 0,0 H 1085.9863 V 389.99023 H 0 Z"
         transform="matrix(0.33338341,0,0,0.33338341,99.483215,404.49997)"
         clip-rule="evenodd"
         id="path10" />
    </clipPath>
    <clipPath
       clipPathUnits="userSpaceOnUse"
       id="clipPath12">
      <path
         d="M 0,0 H 1085.9863 V 389.99023 H 0 Z"
         transform="matrix(0.33338341,0,0,0.33338341,99.483215,404.49997)"
         clip-rule="evenodd"
         id="path12" />
    </clipPath>
    <clipPath
       clipPathUnits="userSpaceOnUse"
       id="clipPath14">
      <path
         d="M 0,0 H 1085.9863 V 389.99023 H 0 Z"
         transform="matrix(0.33338341,0,0,0.33338341,99.483215,404.49997)"
         clip-rule="evenodd"
         id="path14" />
    </clipPath>
    <clipPath
       clipPathUnits="userSpaceOnUse"
       id="clipPath16">
      <path
         d="M 0,0 H 1085.9863 V 389.99023 H 0 Z"
         transform="matrix(0.33338341,0,0,0.33338341,99.483215,404.49997)"
         clip-rule="evenodd"
         id="path16" />
    </clipPath>
    <clipPath
       clipPathUnits="userSpaceOnUse"
       id="clipPath18">
      <path
         d="M 0,0 H 1085.9863 V 389.99023 H 0 Z"
         transform="matrix(0.33338341,0,0,0.33338341,99.483215,404.49997)"
         clip-rule="evenodd"
         id="path18" />
    </clipPath>
    <clipPath
       clipPathUnits="userSpaceOnUse"
       id="clipPath20">
      <path
         d="m 337.49963,157.47644 h 74.98874 v 44.99324 h -74.98874 z"
         transform="matrix(18.75748,0,0,-18.864954,-6330.6428,3653.8837)"
         clip-rule="evenodd"
         id="path20" />
    </clipPath>
    <clipPath
       clipPathUnits="userSpaceOnUse"
       id="clipPath22">
      <path
         d="m 337.49963,157.47644 h 74.98874 v 44.99324 h -74.98874 z"
         transform="matrix(26.531092,0,0,-26.683098,-10372.904,5380.315)"
         clip-rule="evenodd"
         id="path22" />
    </clipPath>
    <clipPath
       clipPathUnits="userSpaceOnUse"
       id="clipPath24">
      <path
         d="m 547.46808,157.47644 h 74.98871 v 44.99324 h -74.98871 z"
         transform="matrix(18.75748,0,0,-18.519514,-10269.122,3599.5136)"
         clip-rule="evenodd"
         id="path24" />
    </clipPath>
    <clipPath
       clipPathUnits="userSpaceOnUse"
       id="clipPath26">
      <path
         d="m 547.46808,157.47644 h 74.98871 v 44.99324 h -74.98871 z"
         transform="matrix(26.531092,0,0,-26.19451,-15943.596,5303.4154)"
         clip-rule="evenodd"
         id="path26" />
    </clipPath>
    <clipPath
       clipPathUnits="userSpaceOnUse"
       id="clipPath28">
      <path
         d="M 952.40729,1.2207031e-4 H 1057.3915 V 35.994713 H 952.40729 Z"
         transform="matrix(18.496254,0,0,-18.030484,-17616.924,441.00213)"
         clip-rule="evenodd"
         id="path28" />
    </clipPath>
    <clipPath
       clipPathUnits="userSpaceOnUse"
       id="clipPath30">
      <path
         d="M 952.40729,1.2207031e-4 H 1057.3915 V 35.994713 H 952.40729 Z"
         transform="matrix(26.161594,0,0,-25.502803,-25712.755,835.92931)"
         clip-rule="evenodd"
         id="path30" />
    </clipPath>
    <clipPath
       clipPathUnits="userSpaceOnUse"
       id="clipPath32">
      <path
         d="M 952.40729,1.2207031e-4 H 1057.3915 V 35.994713 H 952.40729 Z"
         transform="matrix(26.161594,0,0,-25.502803,-26312.755,835.92931)"
         clip-rule="evenodd"
         id="path32" />
    </clipPath>
    <clipPath
       clipPathUnits="userSpaceOnUse"
       id="clipPath34">
      <path
         d="M 952.40729,1.2207031e-4 H 1057.3915 V 35.994713 H 952.40729 Z"
         transform="matrix(26.161594,0,0,-25.502803,-27090.755,835.92931)"
         clip-rule="evenodd"
         id="path34" />
    </clipPath>
    <clipPath
       clipPathUnits="userSpaceOnUse"
       id="clipPath36">
      <path
         d="m 958.40631,326.95105 h 98.98519 v 47.9928 h -98.98519 z"
         transform="matrix(18.600281,0,0,-18.794486,-17827.253,6838.8766)"
         clip-rule="evenodd"
         id="path36" />
    </clipPath>
    <clipPath
       clipPathUnits="userSpaceOnUse"
       id="clipPath38">
      <path
         d="m 958.40631,326.95105 h 98.98519 v 47.9928 h -98.98519 z"
         transform="matrix(26.308735,0,0,-26.583437,-25868.807,9885.2592)"
         clip-rule="evenodd"
         id="path38" />
    </clipPath>
    <clipPath
       clipPathUnits="userSpaceOnUse"
       id="clipPath40">
      <path
         d="m 958.40631,326.95105 h 98.98519 v 47.9928 h -98.98519 z"
         transform="matrix(26.308735,0,0,-26.583437,-26468.809,9885.2592)"
         clip-rule="evenodd"
         id="path40" />
    </clipPath>
    <clipPath
       clipPathUnits="userSpaceOnUse"
       id="clipPath42">
      <path
         d="m 958.40631,326.95105 h 98.98519 v 47.9928 h -98.98519 z"
         transform="matrix(26.308735,0,0,-26.583437,-27246.806,9885.2592)"
         clip-rule="evenodd"
         id="path42" />
    </clipPath>
    <clipPath
       clipPathUnits="userSpaceOnUse"
       id="clipPath44">
      <path
         d="m 344.99854,1.2207031e-4 h 50.99231 V 32.995117 h -50.99231 z"
         transform="matrix(18.945325,0,0,-18.384581,-6536.3428,441.00222)"
         clip-rule="evenodd"
         id="path44" />
    </clipPath>
    <clipPath
       clipPathUnits="userSpaceOnUse"
       id="clipPath46">
      <path
         d="m 344.99854,1.2207031e-4 h 50.99231 V 32.995117 h -50.99231 z"
         transform="matrix(26.796786,0,0,-26.003659,-10040.091,835.92991)"
         clip-rule="evenodd"
         id="path46" />
    </clipPath>
    <clipPath
       clipPathUnits="userSpaceOnUse"
       id="clipPath48">
      <path
         d="m 344.99854,329.95056 h 55.49167 v 55.49167 h -55.49167 z"
         transform="matrix(15.599597,0,0,-15.490614,-5381.8616,5805.1368)"
         clip-rule="evenodd"
         id="path48" />
    </clipPath>
    <clipPath
       clipPathUnits="userSpaceOnUse"
       id="clipPath50">
      <path
         d="m 344.99854,329.95056 h 55.49167 v 55.49167 h -55.49167 z"
         transform="matrix(22.064491,0,0,-21.910349,-8265.7158,8423.1087)"
         clip-rule="evenodd"
         id="path50" />
    </clipPath>
    <clipPath
       clipPathUnits="userSpaceOnUse"
       id="clipPath52">
      <path
         d="m 560.96606,329.95056 h 47.9928 v 44.99322 h -47.9928 z"
         transform="matrix(18.036043,0,0,-18.758448,-10117.608,6883.3623)"
         clip-rule="evenodd"
         id="path52" />
    </clipPath>
    <clipPath
       clipPathUnits="userSpaceOnUse"
       id="clipPath54">
      <path
         d="m 560.96606,329.95056 h 47.9928 v 44.99322 h -47.9928 z"
         transform="matrix(25.510671,0,0,-26.532456,-14964.086,9948.178)"
         clip-rule="evenodd"
         id="path54" />
    </clipPath>
    <clipPath
       clipPathUnits="userSpaceOnUse"
       id="clipPath56">
      <path
         d="m 557.96655,1.2207031e-4 h 50.99231 V 32.995117 h -50.99231 z"
         transform="matrix(18.943856,0,0,-17.911787,-10570.233,441.00233)"
         clip-rule="evenodd"
         id="path56" />
    </clipPath>
    <clipPath
       clipPathUnits="userSpaceOnUse"
       id="clipPath58">
      <path
         d="m 557.96655,1.2207031e-4 h 50.99231 V 32.995117 h -50.99231 z"
         transform="matrix(26.7947,0,0,-25.334915,-15745.731,835.92966)"
         clip-rule="evenodd"
         id="path58" />
    </clipPath>
    <clipPath
       clipPathUnits="userSpaceOnUse"
       id="clipPath60">
      <path
         d="M 0,0 H 1085.9863 V 389.99023 H 0 Z"
         transform="matrix(0.33338341,0,0,0.33338341,99.483215,404.49997)"
         clip-rule="evenodd"
         id="path60" />
    </clipPath>
    <clipPath
       clipPathUnits="userSpaceOnUse"
       id="clipPath62">
      <path
         d="M 0,0 H 1085.9863 V 389.99023 H 0 Z"
         transform="matrix(0.33338341,0,0,0.33338341,99.483215,404.49997)"
         clip-rule="evenodd"
         id="path62" />
    </clipPath>
    <clipPath
       clipPathUnits="userSpaceOnUse"
       id="clipPath64">
      <path
         d="M 0,0 H 1085.9863 V 389.99023 H 0 Z"
         transform="matrix(0.33338341,0,0,0.33338341,99.483215,404.49997)"
         clip-rule="evenodd"
         id="path64" />
    </clipPath>
    <clipPath
       clipPathUnits="userSpaceOnUse"
       id="clipPath66">
      <path
         d="M 0,0 H 1085.9863 V 389.99023 H 0 Z"
         transform="matrix(-0.33338341,0,0,0.33338341,770.51676,404.49997)"
         clip-rule="evenodd"
         id="path66" />
    </clipPath>
    <clipPath
       clipPathUnits="userSpaceOnUse"
       id="clipPath68">
      <path
         d="m 943.40863,157.47644 h 122.98147 v 44.99324 H 943.40863 Z"
         transform="matrix(18.247737,0,0,-18.71113,-17180.073,3630.6107)"
         clip-rule="evenodd"
         id="path68" />
    </clipPath>
    <clipPath
       clipPathUnits="userSpaceOnUse"
       id="clipPath70">
      <path
         d="m 943.40863,157.47644 h 122.98147 v 44.99324 H 943.40863 Z"
         transform="matrix(25.810093,0,0,-26.465528,-25718.63,5347.3979)"
         clip-rule="evenodd"
         id="path70" />
    </clipPath>
    <clipPath
       clipPathUnits="userSpaceOnUse"
       id="clipPath72">
      <path
         d="m 943.40863,157.47644 h 122.98147 v 44.99324 H 943.40863 Z"
         transform="matrix(25.810093,0,0,-26.465528,-26318.63,5347.3979)"
         clip-rule="evenodd"
         id="path72" />
    </clipPath>
    <clipPath
       clipPathUnits="userSpaceOnUse"
       id="clipPath74">
      <path
         d="m 943.40863,157.47644 h 122.98147 v 44.99324 H 943.40863 Z"
         transform="matrix(25.810093,0,0,-26.465528,-27096.628,5347.3979)"
         clip-rule="evenodd"
         id="path74" />
    </clipPath>
    <clipPath
       clipPathUnits="userSpaceOnUse"
       id="clipPath76">
      <path
         d="M 0.05032349,145.47827 H 261.0111 v 68.98964 H 0.05032349 Z"
         transform="matrix(18.393288,0,0,-18.069866,32.659998,3441.2599)"
         clip-rule="evenodd"
         id="path76" />
    </clipPath>
    <clipPath
       clipPathUnits="userSpaceOnUse"
       id="clipPath78">
      <path
         d="M 0.05032349,145.47827 H 261.0111 v 68.98964 H 0.05032349 Z"
         transform="matrix(26.015963,0,0,-25.558512,-1563.4223,4159.2084)"
         clip-rule="evenodd"
         id="path78" />
    </clipPath>
    <clipPath
       clipPathUnits="userSpaceOnUse"
       id="clipPath80">
      <path
         d="M 0.05032349,145.47827 H 261.0111 v 68.98964 H 0.05032349 Z"
         transform="matrix(36.79768,0,0,-36.150675,-3006.2545,6095.0644)"
         clip-rule="evenodd"
         id="path80" />
    </clipPath>
    <clipPath
       clipPathUnits="userSpaceOnUse"
       id="clipPath82">
      <path
         d="M 0.05032349,145.47827 H 261.0111 v 68.98964 H 0.05032349 Z"
         transform="matrix(26.015963,0,0,-25.558512,-2529.0219,4159.2084)"
         clip-rule="evenodd"
         id="path82" />
    </clipPath>
    <clipPath
       clipPathUnits="userSpaceOnUse"
       id="clipPath84">
      <path
         d="M 0.05032349,145.47827 H 261.0111 v 68.98964 H 0.05032349 Z"
         transform="matrix(26.015963,0,0,-25.558512,-2807.022,4159.2084)"
         clip-rule="evenodd"
         id="path84" />
    </clipPath>
    <clipPath
       clipPathUnits="userSpaceOnUse"
       id="clipPath86">
      <path
         d="M 0.05032349,145.47827 H 261.0111 v 68.98964 H 0.05032349 Z"
         transform="matrix(26.015963,0,0,-25.558512,-3085.0216,4159.2084)"
         clip-rule="evenodd"
         id="path86" />
    </clipPath>
    <clipPath
       clipPathUnits="userSpaceOnUse"
       id="clipPath88">
      <path
         d="M 0.05032349,145.47827 H 261.0111 v 68.98964 H 0.05032349 Z"
         transform="matrix(26.015963,0,0,-25.558512,-3363.0217,4159.2084)"
         clip-rule="evenodd"
         id="path88" />
    </clipPath>
    <clipPath
       clipPathUnits="userSpaceOnUse"
       id="clipPath90">
      <path
         d="M 0.05032349,145.47827 H 261.0111 v 68.98964 H 0.05032349 Z"
         transform="matrix(36.79768,0,0,-36.150675,-5551.6564,6095.0644)"
         clip-rule="evenodd"
         id="path90" />
    </clipPath>
    <clipPath
       clipPathUnits="userSpaceOnUse"
       id="clipPath92">
      <path
         d="M 0.05032349,145.47827 H 261.0111 v 68.98964 H 0.05032349 Z"
         transform="matrix(36.79768,0,0,-36.150675,-6151.6562,6095.0644)"
         clip-rule="evenodd"
         id="path92" />
    </clipPath>
    <clipPath
       clipPathUnits="userSpaceOnUse"
       id="clipPath94">
      <path
         d="M 0.05032349,145.47827 H 261.0111 v 68.98964 H 0.05032349 Z"
         transform="matrix(36.79768,0,0,-36.150675,-6929.6556,6095.0644)"
         clip-rule="evenodd"
         id="path94" />
    </clipPath>
    <clipPath
       clipPathUnits="userSpaceOnUse"
       id="clipPath96">
      <path
         d="M 0.05032349,145.47827 H 261.0111 v 68.98964 H 0.05032349 Z"
         transform="matrix(26.015963,0,0,-25.558512,-1372.4747,5315.9265)"
         clip-rule="evenodd"
         id="path96" />
    </clipPath>
    <clipPath
       clipPathUnits="userSpaceOnUse"
       id="clipPath98">
      <path
         d="M 0.05032349,145.47827 H 261.0111 v 68.98964 H 0.05032349 Z"
         transform="matrix(36.79768,0,0,-36.150675,-2594.7302,7731.1594)"
         clip-rule="evenodd"
         id="path98" />
    </clipPath>
    <clipPath
       clipPathUnits="userSpaceOnUse"
       id="clipPath100">
      <path
         d="M 0.05032349,145.47827 H 261.0111 v 68.98964 H 0.05032349 Z"
         transform="matrix(26.015963,0,0,-25.558512,-2238.0743,5315.9265)"
         clip-rule="evenodd"
         id="path100" />
    </clipPath>
    <clipPath
       clipPathUnits="userSpaceOnUse"
       id="clipPath102">
      <path
         d="M 0.05032349,145.47827 H 261.0111 v 68.98964 H 0.05032349 Z"
         transform="matrix(26.015963,0,0,-25.558512,-2516.0742,5315.9265)"
         clip-rule="evenodd"
         id="path102" />
    </clipPath>
    <clipPath
       clipPathUnits="userSpaceOnUse"
       id="clipPath104">
      <path
         d="M 0.05032349,145.47827 H 261.0111 v 68.98964 H 0.05032349 Z"
         transform="matrix(26.015963,0,0,-25.558512,-2794.0742,5315.9265)"
         clip-rule="evenodd"
         id="path104" />
    </clipPath>
    <clipPath
       clipPathUnits="userSpaceOnUse"
       id="clipPath106">
      <path
         d="M 0.05032349,145.47827 H 261.0111 v 68.98964 H 0.05032349 Z"
         transform="matrix(26.015963,0,0,-25.558512,-3072.0741,5315.9265)"
         clip-rule="evenodd"
         id="path106" />
    </clipPath>
    <clipPath
       clipPathUnits="userSpaceOnUse"
       id="clipPath108">
      <path
         d="M 0.05032349,145.47827 H 261.0111 v 68.98964 H 0.05032349 Z"
         transform="matrix(36.79768,0,0,-36.150675,-4998.6894,7731.1594)"
         clip-rule="evenodd"
         id="path108" />
    </clipPath>
    <clipPath
       clipPathUnits="userSpaceOnUse"
       id="clipPath110">
      <path
         d="M 0.05032349,145.47827 H 261.0111 v 68.98964 H 0.05032349 Z"
         transform="matrix(36.79768,0,0,-36.150675,-5598.6893,7731.1594)"
         clip-rule="evenodd"
         id="path110" />
    </clipPath>
    <clipPath
       clipPathUnits="userSpaceOnUse"
       id="clipPath112">
      <path
         d="M 0.05032349,145.47827 H 261.0111 v 68.98964 H 0.05032349 Z"
         transform="matrix(36.79768,0,0,-36.150675,-6376.6888,7731.1594)"
         clip-rule="evenodd"
         id="path112" />
    </clipPath>
    <clipPath
       clipPathUnits="userSpaceOnUse"
       id="clipPath114">
      <path
         d="M 0.05032349,145.47827 H 261.0111 v 68.98964 H 0.05032349 Z"
         transform="matrix(18.393288,0,0,-18.069866,-4077.4391,3441.2599)"
         clip-rule="evenodd"
         id="path114" />
    </clipPath>
  </defs>
  <g
     id="g1">
    <path
       id="path1"
       d="m 250,465 h 20"
       style="fill:none;stroke:#000000;stroke-width:1;stroke-linecap:butt;stroke-linejoin:miter;stroke-miterlimit:10;stroke-dasharray:none;stroke-opacity:1"
       transform="matrix(0.95985577,0,0,0.95985577,-95.489538,-388.26163)"
       clip-path="url(#clipPath2)" />
    <path
       id="path3"
       d="m 225,490 v 20"
       style="fill:none;stroke:#000000;stroke-width:1;stroke-linecap:butt;stroke-linejoin:miter;stroke-miterlimit:10;stroke-dasharray:none;stroke-opacity:1"
       transform="matrix(0.95985577,0,0,0.95985577,-95.489538,-388.26163)"
       clip-path="url(#clipPath4)" />
    <path
       id="path5"
       d="M 225,440 V 420"
       style="fill:none;stroke:#000000;stroke-width:1;stroke-linecap:butt;stroke-linejoin:miter;stroke-miterlimit:10;stroke-dasharray:none;stroke-opacity:1"
       transform="matrix(0.95985577,0,0,0.95985577,-95.489538,-388.26163)"
       clip-path="url(#clipPath6)" />
    <path
       id="path7"
       d="m 250,465 c 0,0.81879 -0.0401,1.63559 -0.12039,2.45044 -0.0803,0.81482 -0.20027,1.62375 -0.36002,2.42679 -0.15973,0.80304 -0.35843,1.59631 -0.59611,2.37985 -0.23769,0.78354 -0.5132,1.5535 -0.82654,2.30994 -0.31334,0.7565 -0.66298,1.49575 -1.04894,2.21783 -0.38597,0.72214 -0.80639,1.42355 -1.26129,2.10431 -0.45488,0.68082 -0.94203,1.33768 -1.46145,1.97061 -0.51944,0.63294 -1.06865,1.23889 -1.64762,1.81784 -0.57896,0.57898 -1.1849,1.12818 -1.81782,1.64759 -0.63292,0.51944 -1.2898,1.00659 -1.9706,1.46145 -0.68078,0.4549 -1.38222,0.87534 -2.10431,1.26132 -0.7221,0.38599 -1.46139,0.73566 -2.21785,1.04898 -0.75644,0.31336 -1.52643,0.58887 -2.30995,0.82657 -0.78352,0.23767 -1.57681,0.43637 -2.37987,0.59607 -0.80304,0.15976 -1.61197,0.27976 -2.4268,0.36002 C 226.6356,489.95987 225.81879,490 225,490 c -0.81877,0 -1.63559,-0.0401 -2.45044,-0.12039 -0.81483,-0.0803 -1.62379,-0.20029 -2.42685,-0.36005 -0.80304,-0.15973 -1.59633,-0.35843 -2.37985,-0.5961 -0.78352,-0.23767 -1.55353,-0.51318 -2.30998,-0.82654 -0.75646,-0.31332 -1.49573,-0.66296 -2.21782,-1.04895 -0.72209,-0.38598 -1.42354,-0.80642 -2.10434,-1.26132 -0.68079,-0.45486 -1.33765,-0.94201 -1.97057,-1.46145 -0.63292,-0.51941 -1.23886,-1.06861 -1.81784,-1.64759 -0.57896,-0.57895 -1.12816,-1.1849 -1.6476,-1.81781 -0.51942,-0.63296 -1.00657,-1.28982 -1.46148,-1.97064 -0.45488,-0.68076 -0.87532,-1.38217 -1.2613,-2.10428 -0.38595,-0.72207 -0.73561,-1.46136 -1.04895,-2.21786 -0.31333,-0.75644 -0.58883,-1.5264 -0.8265,-2.30994 -0.23769,-0.78354 -0.43639,-1.57681 -0.59613,-2.37988 -0.15973,-0.80301 -0.27973,-1.61194 -0.35997,-2.42676 C 200.04013,466.63559 200,465.81879 200,465 c 0,-0.81876 0.0401,-1.63559 0.12038,-2.45044 0.0802,-0.81482 0.20024,-1.62378 0.35997,-2.42685 0.15974,-0.80301 0.35844,-1.59631 0.59613,-2.37985 0.23767,-0.78354 0.51317,-1.55356 0.8265,-2.31003 0.31334,-0.75644 0.66301,-1.4957 1.04899,-2.21777 0.38595,-0.72214 0.80638,-1.42359 1.26127,-2.10437 0.4549,-0.68076 0.94206,-1.33762 1.46149,-1.97055 0.51942,-0.63291 1.06862,-1.23886 1.64758,-1.81784 0.57898,-0.57895 1.18492,-1.12812 1.81784,-1.64756 0.63292,-0.51944 1.28978,-1.00662 1.97057,-1.46151 0.6808,-0.45487 1.38223,-0.87528 2.10432,-1.26126 0.72211,-0.38596 1.46138,-0.73563 2.21784,-1.04899 0.75645,-0.31332 1.52646,-0.5888 2.30998,-0.8265 0.78352,-0.23767 1.57681,-0.43637 2.37985,-0.59613 0.80306,-0.1597 1.61202,-0.2797 2.42685,-0.35993 0.81485,-0.0803 1.63167,-0.12039 2.45044,-0.12042 0.81879,3e-5 1.6356,0.0402 2.45044,0.12042 0.81483,0.0802 1.62376,0.20023 2.4268,0.35993 0.80306,0.15976 1.59635,0.35846 2.37987,0.59613 0.78352,0.2377 1.55351,0.51318 2.30995,0.8265 0.75646,0.31336 1.49575,0.66303 2.21785,1.04902 0.72208,0.38595 1.42351,0.80636 2.1043,1.26123 0.6808,0.45489 1.33767,0.94207 1.97059,1.46151 0.63292,0.51944 1.23888,1.06861 1.81784,1.64756 0.57897,0.57898 1.12818,1.18493 1.64762,1.81787 0.51942,0.6329 1.00657,1.28976 1.46145,1.97052 0.45491,0.68078 0.87534,1.38223 1.26129,2.10437 0.38598,0.72207 0.73563,1.46133 1.04895,2.21777 0.31336,0.75647 0.58887,1.52649 0.82654,2.31003 0.23767,0.78354 0.43637,1.57684 0.5961,2.37985 0.15975,0.80307 0.27976,1.61203 0.36003,2.42688 C 249.95987,463.36444 250,464.18124 250,465 Z"
       style="fill:#ffffff;fill-opacity:1;fill-rule:nonzero;stroke:#000000;stroke-width:1;stroke-linecap:butt;stroke-linejoin:miter;stroke-miterlimit:10;stroke-dasharray:none;stroke-opacity:1"
       transform="matrix(0.95985577,0,0,0.95985577,-95.489538,-388.26163)"
       clip-path="url(#clipPath8)" />
    <path
       id="path9"
       d="M 295,440 V 420"
       style="fill:none;stroke:#000000;stroke-width:1;stroke-linecap:butt;stroke-linejoin:miter;stroke-miterlimit:10;stroke-dasharray:none;stroke-opacity:1"
       transform="matrix(0.95985577,0,0,0.95985577,-95.489538,-388.26163)"
       clip-path="url(#clipPath10)" />
    <path
       id="path11"
       d="m 295,490 v 20"
       style="fill:none;stroke:#000000;stroke-width:1;stroke-linecap:butt;stroke-linejoin:miter;stroke-miterlimit:10;stroke-dasharray:none;stroke-opacity:1"
       transform="matrix(0.95985577,0,0,0.95985577,-95.489538,-388.26163)"
       clip-path="url(#clipPath12)" />
    <path
       id="path13"
       d="m 320,465 h 20"
       style="fill:none;stroke:#000000;stroke-width:1;stroke-linecap:butt;stroke-linejoin:miter;stroke-miterlimit:10;stroke-dasharray:none;stroke-opacity:1"
       transform="matrix(0.95985577,0,0,0.95985577,-95.489538,-388.26163)"
       clip-path="url(#clipPath14)" />
    <path
       id="path15"
       d="m 320,465 c 3e-5,0.81879 -0.0401,1.63559 -0.12039,2.45044 -0.0803,0.81482 -0.20026,1.62375 -0.36002,2.42679 -0.1597,0.80304 -0.3584,1.59631 -0.5961,2.37985 -0.2377,0.78354 -0.51321,1.5535 -0.82657,2.30994 -0.31332,0.7565 -0.66293,1.49575 -1.04889,2.21783 -0.38598,0.72214 -0.80642,1.42355 -1.26132,2.10431 -0.45489,0.68082 -0.94204,1.33768 -1.46145,1.97061 -0.51944,0.63294 -1.06864,1.23889 -1.64762,1.81784 -0.57895,0.57898 -1.1849,1.12818 -1.81784,1.64759 -0.6329,0.51944 -1.28979,1.00659 -1.97061,1.46145 -0.68079,0.4549 -1.38223,0.87534 -2.10431,1.26132 -0.72211,0.38599 -1.46139,0.73566 -2.21783,1.04898 -0.75644,0.31336 -1.5264,0.58887 -2.30994,0.82657 -0.78351,0.23767 -1.57681,0.43637 -2.37988,0.59607 -0.80304,0.15976 -1.61197,0.27976 -2.42679,0.36002 C 296.63559,489.95987 295.81879,490 295,490 c -0.81879,0 -1.63559,-0.0401 -2.45041,-0.12039 -0.81485,-0.0803 -1.62378,-0.20029 -2.42685,-0.36005 -0.80307,-0.15973 -1.59634,-0.35843 -2.37985,-0.5961 -0.78354,-0.23767 -1.55353,-0.51318 -2.31,-0.82654 -0.75644,-0.31332 -1.49573,-0.66296 -2.21783,-1.04895 -0.72211,-0.38598 -1.42356,-0.80642 -2.10437,-1.26132 -0.68076,-0.45486 -1.33762,-0.94201 -1.97055,-1.46145 -0.63294,-0.51941 -1.23889,-1.06861 -1.81784,-1.64759 -0.57895,-0.57895 -1.12812,-1.1849 -1.64756,-1.81781 -0.51944,-0.63296 -1.00662,-1.28982 -1.46151,-1.97064 -0.4549,-0.68076 -0.87531,-1.38217 -1.26126,-2.10428 -0.38599,-0.72207 -0.73566,-1.46136 -1.04902,-2.21786 -0.31332,-0.75644 -0.5888,-1.5264 -0.82647,-2.30994 -0.23767,-0.78354 -0.43637,-1.57681 -0.59613,-2.37988 -0.15973,-0.80301 -0.27973,-1.61194 -0.35996,-2.42676 C 270.04013,466.63559 270,465.81879 270,465 c 0,-0.81876 0.0401,-1.63559 0.12039,-2.45044 0.0802,-0.81482 0.20023,-1.62378 0.35996,-2.42685 0.15976,-0.80301 0.35846,-1.59631 0.59613,-2.37985 0.23767,-0.78354 0.51315,-1.55356 0.82647,-2.31003 0.31336,-0.75644 0.66303,-1.4957 1.04902,-2.21777 0.38595,-0.72214 0.80636,-1.42359 1.26126,-2.10437 0.45489,-0.68076 0.94207,-1.33762 1.46151,-1.97055 0.51944,-0.63291 1.06861,-1.23886 1.64756,-1.81784 0.57895,-0.57895 1.1849,-1.12812 1.81784,-1.64756 0.63293,-0.51944 1.28979,-1.00662 1.97055,-1.46151 0.68081,-0.45487 1.38226,-0.87528 2.10434,-1.26126 0.72213,-0.38596 1.46142,-0.73563 2.21786,-1.04899 0.75647,-0.31332 1.52649,-0.5888 2.31003,-0.8265 0.78348,-0.23767 1.57675,-0.43637 2.37982,-0.59613 0.80307,-0.1597 1.612,-0.2797 2.42685,-0.35993 0.81482,-0.0803 1.63162,-0.12039 2.45041,-0.12042 0.81879,3e-5 1.63559,0.0402 2.45044,0.12042 0.81482,0.0802 1.62375,0.20023 2.42679,0.35993 0.80307,0.15976 1.59637,0.35846 2.37988,0.59613 0.78354,0.2377 1.5535,0.51318 2.30994,0.8265 0.75644,0.31336 1.49572,0.66303 2.21783,1.04902 0.72208,0.38595 1.42352,0.80636 2.10431,1.26123 0.68082,0.45489 1.33771,0.94207 1.97061,1.46151 0.63294,0.51944 1.23889,1.06861 1.81784,1.64756 0.57898,0.57898 1.12818,1.18493 1.64762,1.81787 0.51941,0.6329 1.00656,1.28976 1.46145,1.97052 0.4549,0.68078 0.87534,1.38223 1.26132,2.10437 0.38596,0.72207 0.73557,1.46133 1.04889,2.21777 0.31336,0.75647 0.58887,1.52649 0.82657,2.31003 0.2377,0.78354 0.4364,1.57684 0.5961,2.37985 0.15976,0.80307 0.27976,1.61203 0.36002,2.42688 0.0803,0.81485 0.12042,1.63165 0.12039,2.45041 z"
       style="fill:#ffffff;fill-opacity:1;fill-rule:nonzero;stroke:#000000;stroke-width:1;stroke-linecap:butt;stroke-linejoin:miter;stroke-miterlimit:10;stroke-dasharray:none;stroke-opacity:1"
       transform="matrix(0.95985577,0,0,0.95985577,-95.489538,-388.26163)"
       clip-path="url(#clipPath16)" />
    <path
       id="path17"
       d="m 350,463.32999 h 3 v 3 h -3 m 12,-3 h 3 v 3 h -3 m 12,-3 h 3 v 3 h -3"
       style="fill:#000000;fill-opacity:1;fill-rule:nonzero;stroke:none"
       transform="matrix(0.95985577,0,0,0.95985577,-95.489538,-388.26163)"
       clip-path="url(#clipPath18)" />
    <path
       id="path19"
       d="m 289,629 c 0,4 -19,6.66669 -57,8 -16,0 -26.33333,0.33331 -31,1 -4.66667,0.66669 -7,4 -7,10 0,0.66669 0.66667,4.33331 2,11 0.66667,2 1.33333,4.33331 2,7 0.66667,2.66669 1,4.33331 1,5 0,0.66669 0.66667,2.33331 2,5 1.33333,2.66669 2,3.66669 2,3 0,-0.66669 1.33333,0 4,2 2.66667,2 4.33333,2.66669 5,2 0.66667,-0.66669 3.33333,-0.66669 8,0 4.66667,0.66669 8.66667,1 12,1 4,0 14,0 30,0 16,0 31,-0.33331 45,-1 52.66666,0 83,0 91,0 8,0 13.33334,-1.66669 16,-5 0.66666,-2.66669 13,-96.66663 37,-282 l 36,-279 23,37 c 16,24 37.33331,57.33333 64,100 26.66669,42.66666 56,89.33334 88,140 116.66669,186 175.66669,279.66669 177,281 0.66669,0.66669 1.66669,1.66669 3,3 1.33331,1.33331 2.66669,2.33331 4,3 l 6,2 h 96 c 11.33331,0 24.66669,0 40,0 15.3333,0 25,0.33331 29,1 22.6666,0 34,-3.66669 34,-11 0,-3.33331 -1,-9 -3,-17 -2,-8 -3,-12.33331 -3,-13 -2.6666,-4 -15,-6 -37,-6 -26.66669,-0.66669 -43.66669,-1.66669 -51,-3 -7.33331,-1.33331 -13.33331,-5 -18,-11 -2,-3.33331 -26,-97.66663 -72,-283 C 821,154.66666 797.66669,61 797,59 c 0,-2.666668 0.33331,-4.333332 1,-5 0.66669,-0.666668 3,-2 7,-4 4,-2 9.66669,-2.666668 17,-2 7.33331,0.666668 18.33331,0 33,-2 h 31 c 4,-6 6,-9.666668 6,-11 0,-10.666668 -2.33331,-20.666666 -7,-30 -3.33331,-3.3333335 -8.66669,-5 -16,-5 -3.33331,0 -17,0.33333331 -41,1 -24,0.6666667 -54.66669,1 -92,1 -40.66669,0 -71.33331,0 -92,0 -20.66669,0 -32.33331,-0.3333333 -35,-1 -11.33331,0 -17,3.333333 -17,10 0,1.333333 0.66669,6 2,14 2.66669,10.666668 5.33331,16.666668 8,18 2.66669,1.333332 10.33331,2.333332 23,3 18,0 38,1 60,3 9.33331,2 15.66669,6 19,12 1.33331,2.666668 14,51.33333 38,146 24,94.66669 47.66669,189 71,283 23.33331,94 35,141 35,141 L 654,322 C 523.33331,114 456.33334,8.333334 453,5 451.66666,4.3333335 450.33334,3.6666667 449,3 445.66666,1 440.33334,0 433,0 423,0 417,2.333333 415,7 413.66666,9.666667 400,113 374,317 L 335,624 267,354 C 222.33333,176.66666 200,85 200,79 204,57 228,46 272,46 h 10 c 4,-3.333332 6.33334,-6.333332 7,-9 0.66666,-2.666668 -0.33334,-8.666666 -3,-18 C 283.33334,8.333333 280.66666,2.3333335 278,1 275.33334,0.33333331 271.66666,0 267,0 265.66666,0 261.66666,0 255,0 248.33333,0 237,0.33333331 221,1 205,1.6666667 183.66667,2 157,2 137,2 116.33334,1.6666667 95,1 73.666664,0.33333331 61.333332,0 58,0 48,0 41.666668,0.66666663 39,2 c -2.666668,1.3333335 -4,4.333333 -4,9 0,1.333333 1,6 3,14 2,8 3.666668,13 5,15 1.333332,4 8.666664,6 22,6 46.66667,0 76.33333,13.333332 89,40 2.66667,4 25.66666,93.33333 69,268 43.33334,174.66669 65.33334,266.33331 66,275 z"
       style="fill:#000000;fill-opacity:1;fill-rule:nonzero;stroke:none"
       transform="matrix(0.01705986,0,0,-0.01696267,107.99988,61.979623)"
       clip-path="url(#clipPath20)" />
    <path
       id="path21"
       d="m 96,585 c 37.33334,54 88.33333,81 153,81 32,0 64,-8.66669 96,-26 32,-17.33331 58,-48 78,-92 24.66666,-55.33334 37,-131.33331 37,-228 C 460,216.66666 445.66666,137.66667 417,83 403.66666,55 385.33334,32.666668 362,16 338.66666,-0.66666794 318.33334,-11 301,-15 c -17.33334,-4 -34.33334,-6.333334 -51,-7 -17.33333,0 -34.66667,2 -52,6 -17.33333,4 -37.66667,14.666666 -61,32 C 113.66666,33.333336 95.333336,55.666664 82,83 53.333332,137.66667 39,216.66666 39,320 39,436 58,524.33331 96,585 Z m 225,12 c -20,21.33331 -43.66666,32 -71,32 -28,0 -52,-10.66669 -72,-32 -16.66667,-17.33331 -27.66667,-41.33331 -33,-72 -5.33333,-30.66666 -8,-94.66666 -8,-192 0,-105.33334 2.66667,-174.66666 8,-208 5.33333,-33.333336 17.33333,-59.666664 36,-79 18.66667,-20 41.66667,-30 69,-30 26.66666,0 49.33334,10 68,30 19.33334,20 31.33334,48 36,84 4.66666,36 7.33334,103.66666 8,203 0,96.66669 -2.66666,160.33334 -8,191 -5.33334,30.66669 -16.33334,55 -33,73 z"
       style="fill:#000000;fill-opacity:1;fill-rule:nonzero;stroke:none"
       transform="matrix(0.01206132,0,0,-0.01199261,125.11091,64.52402)"
       clip-path="url(#clipPath22)" />
    <path
       id="path23"
       d="m 289,629 c 0,4 -19,6.66669 -57,8 -16,0 -26.33333,0.33331 -31,1 -4.66667,0.66669 -7,4 -7,10 0,0.66669 0.66667,4.33331 2,11 0.66667,2 1.33333,4.33331 2,7 0.66667,2.66669 1,4.33331 1,5 0,0.66669 0.66667,2.33331 2,5 1.33333,2.66669 2,3.66669 2,3 0,-0.66669 1.33333,0 4,2 2.66667,2 4.33333,2.66669 5,2 0.66667,-0.66669 3.33333,-0.66669 8,0 4.66667,0.66669 8.66667,1 12,1 4,0 14,0 30,0 16,0 31,-0.33331 45,-1 52.66666,0 83,0 91,0 8,0 13.33334,-1.66669 16,-5 0.66666,-2.66669 13,-96.66663 37,-282 l 36,-279 23,37 c 16,24 37.33331,57.33333 64,100 26.66669,42.66666 56,89.33334 88,140 116.66669,186 175.66669,279.66669 177,281 0.66669,0.66669 1.66669,1.66669 3,3 1.33331,1.33331 2.66669,2.33331 4,3 l 6,2 h 96 c 11.33331,0 24.66669,0 40,0 15.3333,0 25,0.33331 29,1 22.6666,0 34,-3.66669 34,-11 0,-3.33331 -1,-9 -3,-17 -2,-8 -3,-12.33331 -3,-13 -2.6666,-4 -15,-6 -37,-6 -26.66669,-0.66669 -43.66669,-1.66669 -51,-3 -7.33331,-1.33331 -13.33331,-5 -18,-11 -2,-3.33331 -26,-97.66663 -72,-283 C 821,154.66666 797.66669,61 797,59 c 0,-2.666668 0.33331,-4.333332 1,-5 0.66669,-0.666668 3,-2 7,-4 4,-2 9.66669,-2.666668 17,-2 7.33331,0.666668 18.33331,0 33,-2 h 31 c 4,-6 6,-9.666668 6,-11 0,-10.666668 -2.33331,-20.666666 -7,-30 -3.33331,-3.3333335 -8.66669,-5 -16,-5 -3.33331,0 -17,0.33333331 -41,1 -24,0.6666667 -54.66669,1 -92,1 -40.66669,0 -71.33331,0 -92,0 -20.66669,0 -32.33331,-0.3333333 -35,-1 -11.33331,0 -17,3.333333 -17,10 0,1.333333 0.66669,6 2,14 2.66669,10.666668 5.33331,16.666668 8,18 2.66669,1.333332 10.33331,2.333332 23,3 18,0 38,1 60,3 9.33331,2 15.66669,6 19,12 1.33331,2.666668 14,51.33333 38,146 24,94.66669 47.66669,189 71,283 23.33331,94 35,141 35,141 L 654,322 C 523.33331,114 456.33334,8.333334 453,5 451.66666,4.3333335 450.33334,3.6666667 449,3 445.66666,1 440.33334,0 433,0 423,0 417,2.333333 415,7 413.66666,9.666667 400,113 374,317 L 335,624 267,354 C 222.33333,176.66666 200,85 200,79 204,57 228,46 272,46 h 10 c 4,-3.333332 6.33334,-6.333332 7,-9 0.66666,-2.666668 -0.33334,-8.666666 -3,-18 C 283.33334,8.333333 280.66666,2.3333335 278,1 275.33334,0.33333331 271.66666,0 267,0 265.66666,0 261.66666,0 255,0 248.33333,0 237,0.33333331 221,1 205,1.6666667 183.66667,2 157,2 137,2 116.33334,1.6666667 95,1 73.666664,0.33333331 61.333332,0 58,0 48,0 41.666668,0.66666663 39,2 c -2.666668,1.3333335 -4,4.333333 -4,9 0,1.333333 1,6 3,14 2,8 3.666668,13 5,15 1.333332,4 8.666664,6 22,6 46.66667,0 76.33333,13.333332 89,40 2.66667,4 25.66666,93.33333 69,268 43.33334,174.66669 65.33334,266.33331 66,275 z"
       style="fill:#000000;fill-opacity:1;fill-rule:nonzero;stroke:none"
       transform="matrix(0.01705986,0,0,-0.01727907,175.18978,62.196247)"
       clip-path="url(#clipPath24)" />
    <path
       id="path25"
       d="m 213,578 -13,-5 c -9.33333,-3.33331 -22.66667,-6.66669 -40,-10 -17.33333,-3.33331 -36.66666,-5.66669 -58,-7 H 83 v 46 h 19 c 31.33333,1.33331 60.33333,6.33331 87,15 26.66667,8.66669 45.33333,16.66669 56,24 10.66667,7.33331 20,14.66669 28,22 1.33334,2 5.33334,3 12,3 6,0 11.66666,-2 17,-6 V 361 l 1,-300 c 4.66666,-4.666668 8.66666,-7.666668 12,-9 3.33334,-1.333332 11.33334,-2.666668 24,-4 12.66666,-1.333332 33.33334,-2 62,-2 h 26 V 0 H 416 C 402,2 349,3 257,3 166.33333,3 114,2 100,0 H 88 v 46 h 26 c 14.66667,0 27.33333,0 38,0 10.66667,0 19,0.333332 25,1 6,0.666668 11.33333,1.666668 16,3 4.66667,1.333332 7.33333,2 8,2 0.66667,0 2.66667,1.666668 6,5 3.33333,3.333332 5.33333,4.666668 6,4 z"
       style="fill:#000000;fill-opacity:1;fill-rule:nonzero;stroke:none"
       transform="matrix(0.01206132,0,0,-0.0122163,192.30081,64.788113)"
       clip-path="url(#clipPath26)" />
    <path
       id="path27"
       d="m 33,157 c 0,67.33334 25.333332,131.33334 76,192 50.66667,60.66666 107.66666,91.33334 171,92 34,0 64,-16.33334 90,-49 10.66666,20 26,30 46,30 8.66666,0 16.33334,-2.66666 23,-8 6.66666,-5.33334 10,-12 10,-20 0,-8.66666 -12.33334,-62 -37,-160 -24.66666,-98 -37.33334,-153.333336 -38,-166 0,-16.666668 2.33334,-27.666668 7,-33 4.66666,-5.333334 11.66666,-8.333334 21,-9 6,0.666666 12.66666,3.666666 20,9 14,13.333336 27.66666,45.333328 41,96 4,13.33333 7.33334,20.33333 10,21 1.33334,0.66667 4.66666,1 10,1 h 4 c 12.66666,0 19,-3 19,-9 0,-4 -1.66666,-13 -5,-27 C 497.66666,103 491,85 481,63 471,41 460.33334,24.333334 449,13 440.33334,4.333333 429.66666,-2.6666665 417,-8 c -5.33334,-1.333333 -13.33334,-2 -24,-2 -22.66666,0 -41.66666,5 -57,15 -15.33334,10 -25.33334,20.333332 -30,31 l -6,15 c -0.66666,0.666668 -2,0.333332 -4,-1 -1.33334,-1.333332 -2.66666,-2.666668 -4,-4 C 252.66666,8.6666641 212.66667,-10 172,-10 135.33333,-10 103,3.3333321 75,30 47,56.666668 33,99 33,157 Z m 318,171 c 0,4 -1.66666,11.33334 -5,22 -3.33334,10.66666 -11,22.33334 -23,35 -12,12.66666 -27.33334,19.33334 -46,20 -23.33333,0 -45.66667,-10.33334 -67,-31 -21.33333,-20.66666 -38,-47.66666 -50,-81 -19.33333,-52.66667 -33,-107.33333 -41,-164 0,-2 0,-5.66666 0,-11 0,-5.33334 -0.33334,-9.33334 -1,-12 0,-30 6,-50.666664 18,-62 12,-11.333336 26.33333,-17.333334 43,-18 25.33333,0 50.33333,11 75,33 24.66666,22 39.33334,39 44,51 1.33334,2.66666 10.33334,38.33333 27,107 16.66666,68.66669 25.33334,105.66666 26,111 z"
       style="fill:#000000;fill-opacity:1;fill-rule:nonzero;stroke:none"
       transform="matrix(0.0173008,0,0,-0.01774772,304.78688,7.8267824)"
       clip-path="url(#clipPath28)" />
    <path
       id="path29"
       d="m 21,287 c 0.666666,4 1.666666,9.33334 3,16 1.333334,6.66666 5.333332,19.33334 12,38 6.666668,18.66666 13.333332,34.33334 20,47 6.666668,12.66666 17.666664,25 33,37 15.33334,12 30.66666,17.66666 46,17 24,0 44,-6 60,-18 16,-12 26,-23.33334 30,-34 4,-10.66666 6,-17.66666 6,-21 0,-1.33334 0.33333,-2 1,-2 l 11,11 c 40.66666,42.66666 87,64 139,64 36,0 65,-9 87,-27 22,-18 33.33334,-44.33334 34,-79 0.66666,-34.66666 -12,-87 -38,-157 -26,-70 -38.66666,-112.333336 -38,-127 0,-17.333336 5.66666,-26 17,-26 4,0 7,0.333334 9,1 19.33334,3.333334 36.66666,16 52,38 15.33331,22 27,48.66666 35,80 1.33331,5.33333 8,8 20,8 13.33331,0 20,-2.66667 20,-8 0,-0.66667 -1.33331,-5.66667 -4,-15 -5.33331,-19.33334 -12.66669,-38.333328 -22,-57 -9.33331,-18.666668 -24.66669,-37.333332 -46,-56 -21.33334,-18.6666679 -44.33334,-27.666667 -69,-27 -31.33334,0 -54,9 -68,27 -14,18 -21,36.666664 -21,56 0,12.666664 12,52.66666 36,120 24,67.33334 36.33334,118 37,152 0,39.33334 -14.66666,59 -44,59 h -5 C 316.66666,404 268.33334,370.33334 229,303 L 222,291 189,157 C 167,69.666664 154.33333,22.666668 151,16 c -8.66667,-18 -23,-27 -43,-27 -8.666664,0 -15.666664,2 -21,6 -5.333336,4 -9,8 -11,12 -2,4 -2.666664,7.333333 -2,10 0,8.666668 12.666664,63 38,163 25.33333,100 38.66667,154.33334 40,163 0.66667,3.33334 1,11 1,23 0,26 -8,39 -24,39 -25.33334,0 -46.333328,-33.33331 -63,-100 -4,-13.33334 -6,-20.33334 -6,-21 -1.333332,-4 -7.666664,-6 -19,-6 H 27 c -4,4 -6,7 -6,9 z"
       style="fill:#000000;fill-opacity:1;fill-rule:nonzero;stroke:none"
       transform="matrix(0.01223167,0,0,-0.01254764,314.50993,10.48894)"
       clip-path="url(#clipPath30)" />
    <path
       id="path31"
       d="m 84,237 c 0,0 0,4.33333 0,13 0,8.66666 4.666664,15.33334 14,20 h 581 c 10,-5.33334 15,-12 15,-20 0,-8 -5,-14.66667 -15,-20 H 98 c -9.333336,4.66667 -14,11.33333 -14,20 z"
       style="fill:#000000;fill-opacity:1;fill-rule:nonzero;stroke:none"
       transform="matrix(0.01223167,0,0,-0.01254764,321.84893,10.48894)"
       clip-path="url(#clipPath32)" />
    <path
       id="path33"
       d="m 213,578 -13,-5 c -9.33333,-3.33331 -22.66667,-6.66669 -40,-10 -17.33333,-3.33331 -36.66666,-5.66669 -58,-7 H 83 v 46 h 19 c 31.33333,1.33331 60.33333,6.33331 87,15 26.66667,8.66669 45.33333,16.66669 56,24 10.66667,7.33331 20,14.66669 28,22 1.33334,2 5.33334,3 12,3 6,0 11.66666,-2 17,-6 V 361 l 1,-300 c 4.66666,-4.666668 8.66666,-7.666668 12,-9 3.33334,-1.333332 11.33334,-2.666668 24,-4 12.66666,-1.333332 33.33334,-2 62,-2 h 26 V 0 H 416 C 402,2 349,3 257,3 166.33333,3 114,2 100,0 H 88 v 46 h 26 c 14.66667,0 27.33333,0 38,0 10.66667,0 19,0.333332 25,1 6,0.666668 11.33333,1.666668 16,3 4.66667,1.333332 7.33333,2 8,2 0.66667,0 2.66667,1.666668 6,5 3.33333,3.333332 5.33333,4.666668 6,4 z"
       style="fill:#000000;fill-opacity:1;fill-rule:nonzero;stroke:none"
       transform="matrix(0.01223167,0,0,-0.01254764,331.36518,10.48894)"
       clip-path="url(#clipPath34)" />
    <path
       id="path35"
       d="m 73,647 c 0,6.66669 1.333336,14.33331 4,23 2.666664,8.66669 6.666664,13 12,13 0.666664,0 24.66666,1.66669 72,5 47.33334,3.33331 71.66667,5.33331 73,6 8,0 12,-3 12,-9 0,-6 -11.33333,-53.66669 -34,-143 -5.33333,-22.66669 -11,-46 -17,-70 -6,-24 -11,-42 -15,-54 l -4,-19 c 0,-2 2,-1 6,3 32.66667,26.66666 66.33333,40 101,40 41.33334,0 74.66666,-15.33334 100,-46 25.33334,-30.66666 38.33334,-69.33334 39,-116 C 422,206 395.66666,139 343,79 290.33334,19 233.66667,-11 173,-11 139.66666,-11 109.33334,1.666666 82,27 54.666664,52.333336 40.666668,93.333328 40,150 v 9 c 0,14 2.666668,33.33333 8,58 5.333332,24.66667 21.666664,90.33331 49,197 33.33334,131.33337 50,201 50,209 0,8 -12.66667,12.66669 -38,14 -3.33334,0 -6,0 -8,0 h -5 c -6.666664,0 -11,0 -13,0 -2,0 -4.333336,1 -7,3 -2.666664,2 -3.666664,4.33331 -3,7 z M 336,325 v 6 c 0,49.33334 -20.33334,74 -61,74 -11.33334,0 -23,-2.66666 -35,-8 -12,-5.33334 -23,-12.33334 -33,-21 -10,-8.66666 -18.66667,-16.66666 -26,-24 -7.33333,-7.33334 -13.33333,-14.66666 -18,-22 l -6,-8 -21,-86 c -14.66666,-57.33334 -22,-98 -22,-122 0,-32 8,-56 24,-72 10.66667,-10.666668 24,-16 40,-16 22,0 44.33333,10.666664 67,32 16.66666,15.333336 30,34 40,56 10,22 21,57 33,105 12,48 18,83.33334 18,106 z"
       style="fill:#000000;fill-opacity:1;fill-rule:nonzero;stroke:none"
       transform="matrix(0.01720404,0,0,-0.01702627,306.70077,116.44056)"
       clip-path="url(#clipPath36)" />
    <path
       id="path37"
       d="m 21,287 c 0.666666,4 1.666666,9.33334 3,16 1.333334,6.66666 5.333332,19.33334 12,38 6.666668,18.66666 13.333332,34.33334 20,47 6.666668,12.66666 17.666664,25 33,37 15.33334,12 30.66666,17.66666 46,17 24,0 44,-6 60,-18 16,-12 26,-23.33334 30,-34 4,-10.66666 6,-17.66666 6,-21 0,-1.33334 0.33333,-2 1,-2 l 11,11 c 40.66666,42.66666 87,64 139,64 36,0 65,-9 87,-27 22,-18 33.33334,-44.33334 34,-79 0.66666,-34.66666 -12,-87 -38,-157 -26,-70 -38.66666,-112.333336 -38,-127 0,-17.333336 5.66666,-26 17,-26 4,0 7,0.333334 9,1 19.33334,3.333334 36.66666,16 52,38 15.33331,22 27,48.66666 35,80 1.33331,5.33333 8,8 20,8 13.33331,0 20,-2.66667 20,-8 0,-0.66667 -1.33331,-5.66667 -4,-15 -5.33331,-19.33334 -12.66669,-38.333328 -22,-57 -9.33331,-18.666668 -24.66669,-37.333332 -46,-56 -21.33334,-18.6666679 -44.33334,-27.666667 -69,-27 -31.33334,0 -54,9 -68,27 -14,18 -21,36.666664 -21,56 0,12.666664 12,52.66666 36,120 24,67.33334 36.33334,118 37,152 0,39.33334 -14.66666,59 -44,59 h -5 C 316.66666,404 268.33334,370.33334 229,303 L 222,291 189,157 C 167,69.666664 154.33333,22.666668 151,16 c -8.66667,-18 -23,-27 -43,-27 -8.666664,0 -15.666664,2 -21,6 -5.333336,4 -9,8 -11,12 -2,4 -2.666664,7.333333 -2,10 0,8.666668 12.666664,63 38,163 25.33333,100 38.66667,154.33334 40,163 0.66667,3.33334 1,11 1,23 0,26 -8,39 -24,39 -25.33334,0 -46.333328,-33.33331 -63,-100 -4,-13.33334 -6,-20.33334 -6,-21 -1.333332,-4 -7.666664,-6 -19,-6 H 27 c -4,4 -6,7 -6,9 z"
       style="fill:#000000;fill-opacity:1;fill-rule:nonzero;stroke:none"
       transform="matrix(0.01216326,0,0,-0.01203757,314.64903,118.9945)"
       clip-path="url(#clipPath38)" />
    <path
       id="path39"
       d="m 84,237 c 0,0 0,4.33333 0,13 0,8.66666 4.666664,15.33334 14,20 h 581 c 10,-5.33334 15,-12 15,-20 0,-8 -5,-14.66667 -15,-20 H 98 c -9.333336,4.66667 -14,11.33333 -14,20 z"
       style="fill:#000000;fill-opacity:1;fill-rule:nonzero;stroke:none"
       transform="matrix(0.01216326,0,0,-0.01203757,321.947,118.9945)"
       clip-path="url(#clipPath40)" />
    <path
       id="path41"
       d="m 213,578 -13,-5 c -9.33333,-3.33331 -22.66667,-6.66669 -40,-10 -17.33333,-3.33331 -36.66666,-5.66669 -58,-7 H 83 v 46 h 19 c 31.33333,1.33331 60.33333,6.33331 87,15 26.66667,8.66669 45.33333,16.66669 56,24 10.66667,7.33331 20,14.66669 28,22 1.33334,2 5.33334,3 12,3 6,0 11.66666,-2 17,-6 V 361 l 1,-300 c 4.66666,-4.666668 8.66666,-7.666668 12,-9 3.33334,-1.333332 11.33334,-2.666668 24,-4 12.66666,-1.333332 33.33334,-2 62,-2 h 26 V 0 H 416 C 402,2 349,3 257,3 166.33333,3 114,2 100,0 H 88 v 46 h 26 c 14.66667,0 27.33333,0 38,0 10.66667,0 19,0.333332 25,1 6,0.666668 11.33333,1.666668 16,3 4.66667,1.333332 7.33333,2 8,2 0.66667,0 2.66667,1.666668 6,5 3.33333,3.333332 5.33333,4.666668 6,4 z"
       style="fill:#000000;fill-opacity:1;fill-rule:nonzero;stroke:none"
       transform="matrix(0.01216326,0,0,-0.01203757,331.40999,118.9945)"
       clip-path="url(#clipPath42)" />
    <path
       id="path43"
       d="m 33,157 c 0,67.33334 25.333332,131.33334 76,192 50.66667,60.66666 107.66666,91.33334 171,92 34,0 64,-16.33334 90,-49 10.66666,20 26,30 46,30 8.66666,0 16.33334,-2.66666 23,-8 6.66666,-5.33334 10,-12 10,-20 0,-8.66666 -12.33334,-62 -37,-160 -24.66666,-98 -37.33334,-153.333336 -38,-166 0,-16.666668 2.33334,-27.666668 7,-33 4.66666,-5.333334 11.66666,-8.333334 21,-9 6,0.666666 12.66666,3.666666 20,9 14,13.333336 27.66666,45.333328 41,96 4,13.33333 7.33334,20.33333 10,21 1.33334,0.66667 4.66666,1 10,1 h 4 c 12.66666,0 19,-3 19,-9 0,-4 -1.66666,-13 -5,-27 C 497.66666,103 491,85 481,63 471,41 460.33334,24.333334 449,13 440.33334,4.333333 429.66666,-2.6666665 417,-8 c -5.33334,-1.333333 -13.33334,-2 -24,-2 -22.66666,0 -41.66666,5 -57,15 -15.33334,10 -25.33334,20.333332 -30,31 l -6,15 c -0.66666,0.666668 -2,0.333332 -4,-1 -1.33334,-1.333332 -2.66666,-2.666668 -4,-4 C 252.66666,8.6666641 212.66667,-10 172,-10 135.33333,-10 103,3.3333321 75,30 47,56.666668 33,99 33,157 Z m 318,171 c 0,4 -1.66666,11.33334 -5,22 -3.33334,10.66666 -11,22.33334 -23,35 -12,12.66666 -27.33334,19.33334 -46,20 -23.33333,0 -45.66667,-10.33334 -67,-31 -21.33333,-20.66666 -38,-47.66666 -50,-81 -19.33333,-52.66667 -33,-107.33333 -41,-164 0,-2 0,-5.66666 0,-11 0,-5.33334 -0.33334,-9.33334 -1,-12 0,-30 6,-50.666664 18,-62 12,-11.333336 26.33333,-17.333334 43,-18 25.33333,0 50.33333,11 75,33 24.66666,22 39.33334,39 44,51 1.33334,2.66666 10.33334,38.33333 27,107 16.66666,68.66669 25.33334,105.66666 26,111 z"
       style="fill:#000000;fill-opacity:1;fill-rule:nonzero;stroke:none"
       transform="matrix(0.01689071,0,0,-0.01740589,110.40347,7.6760362)"
       clip-path="url(#clipPath44)" />
    <path
       id="path45"
       d="m 96,585 c 37.33334,54 88.33333,81 153,81 32,0 64,-8.66669 96,-26 32,-17.33331 58,-48 78,-92 24.66666,-55.33334 37,-131.33331 37,-228 C 460,216.66666 445.66666,137.66667 417,83 403.66666,55 385.33334,32.666668 362,16 338.66666,-0.66666794 318.33334,-11 301,-15 c -17.33334,-4 -34.33334,-6.333334 -51,-7 -17.33333,0 -34.66667,2 -52,6 -17.33333,4 -37.66667,14.666666 -61,32 C 113.66666,33.333336 95.333336,55.666664 82,83 53.333332,137.66667 39,216.66666 39,320 39,436 58,524.33331 96,585 Z m 225,12 c -20,21.33331 -43.66666,32 -71,32 -28,0 -52,-10.66669 -72,-32 -16.66667,-17.33331 -27.66667,-41.33331 -33,-72 -5.33333,-30.66666 -8,-94.66666 -8,-192 0,-105.33334 2.66667,-174.66666 8,-208 5.33333,-33.333336 17.33333,-59.666664 36,-79 18.66667,-20 41.66667,-30 69,-30 26.66666,0 49.33334,10 68,30 19.33334,20 31.33334,48 36,84 4.66666,36 7.33334,103.66666 8,203 0,96.66669 -2.66666,160.33334 -8,191 -5.33334,30.66669 -16.33334,55 -33,73 z"
       style="fill:#000000;fill-opacity:1;fill-rule:nonzero;stroke:none"
       transform="matrix(0.01194173,0,0,-0.01230596,119.89605,10.28692)"
       clip-path="url(#clipPath46)" />
    <path
       id="path47"
       d="m 73,647 c 0,6.66669 1.333336,14.33331 4,23 2.666664,8.66669 6.666664,13 12,13 0.666664,0 24.66666,1.66669 72,5 47.33334,3.33331 71.66667,5.33331 73,6 8,0 12,-3 12,-9 0,-6 -11.33333,-53.66669 -34,-143 -5.33333,-22.66669 -11,-46 -17,-70 -6,-24 -11,-42 -15,-54 l -4,-19 c 0,-2 2,-1 6,3 32.66667,26.66666 66.33333,40 101,40 41.33334,0 74.66666,-15.33334 100,-46 25.33334,-30.66666 38.33334,-69.33334 39,-116 C 422,206 395.66666,139 343,79 290.33334,19 233.66667,-11 173,-11 139.66666,-11 109.33334,1.666666 82,27 54.666664,52.333336 40.666668,93.333328 40,150 v 9 c 0,14 2.666668,33.33333 8,58 5.333332,24.66667 21.666664,90.33331 49,197 33.33334,131.33337 50,201 50,209 0,8 -12.66667,12.66669 -38,14 -3.33334,0 -6,0 -8,0 h -5 c -6.666664,0 -11,0 -13,0 -2,0 -4.333336,1 -7,3 -2.666664,2 -3.666664,4.33331 -3,7 z M 336,325 v 6 c 0,49.33334 -20.33334,74 -61,74 -11.33334,0 -23,-2.66666 -35,-8 -12,-5.33334 -23,-12.33334 -33,-21 -10,-8.66666 -18.66667,-16.66666 -26,-24 -7.33333,-7.33334 -13.33333,-14.66666 -18,-22 l -6,-8 -21,-86 c -14.66666,-57.33334 -22,-98 -22,-122 0,-32 8,-56 24,-72 10.66667,-10.666668 24,-16 40,-16 22,0 44.33333,10.666664 67,32 16.66666,15.333336 30,34 40,56 10,22 21,57 33,105 12,48 18,83.33334 18,106 z"
       style="fill:#000000;fill-opacity:1;fill-rule:nonzero;stroke:none"
       transform="matrix(0.02051335,0,0,-0.02065767,110.40001,119.9206)"
       clip-path="url(#clipPath48)" />
    <path
       id="path49"
       d="m 96,585 c 37.33334,54 88.33333,81 153,81 32,0 64,-8.66669 96,-26 32,-17.33331 58,-48 78,-92 24.66666,-55.33334 37,-131.33331 37,-228 C 460,216.66666 445.66666,137.66667 417,83 403.66666,55 385.33334,32.666668 362,16 338.66666,-0.66666794 318.33334,-11 301,-15 c -17.33334,-4 -34.33334,-6.333334 -51,-7 -17.33333,0 -34.66667,2 -52,6 -17.33333,4 -37.66667,14.666666 -61,32 C 113.66666,33.333336 95.333336,55.666664 82,83 53.333332,137.66667 39,216.66666 39,320 39,436 58,524.33331 96,585 Z m 225,12 c -20,21.33331 -43.66666,32 -71,32 -28,0 -52,-10.66669 -72,-32 -16.66667,-17.33331 -27.66667,-41.33331 -33,-72 -5.33333,-30.66666 -8,-94.66666 -8,-192 0,-105.33334 2.66667,-174.66666 8,-208 5.33333,-33.333336 17.33333,-59.666664 36,-79 18.66667,-20 41.66667,-30 69,-30 26.66666,0 49.33334,10 68,30 19.33334,20 31.33334,48 36,84 4.66666,36 7.33334,103.66666 8,203 0,96.66669 -2.66666,160.33334 -8,191 -5.33334,30.66669 -16.33334,55 -33,73 z"
       style="fill:#000000;fill-opacity:1;fill-rule:nonzero;stroke:none"
       transform="matrix(0.01450294,0,0,-0.01460497,119.87718,123.01925)"
       clip-path="url(#clipPath50)" />
    <path
       id="path51"
       d="m 73,647 c 0,6.66669 1.333336,14.33331 4,23 2.666664,8.66669 6.666664,13 12,13 0.666664,0 24.66666,1.66669 72,5 47.33334,3.33331 71.66667,5.33331 73,6 8,0 12,-3 12,-9 0,-6 -11.33333,-53.66669 -34,-143 -5.33333,-22.66669 -11,-46 -17,-70 -6,-24 -11,-42 -15,-54 l -4,-19 c 0,-2 2,-1 6,3 32.66667,26.66666 66.33333,40 101,40 41.33334,0 74.66666,-15.33334 100,-46 25.33334,-30.66666 38.33334,-69.33334 39,-116 C 422,206 395.66666,139 343,79 290.33334,19 233.66667,-11 173,-11 139.66666,-11 109.33334,1.666666 82,27 54.666664,52.333336 40.666668,93.333328 40,150 v 9 c 0,14 2.666668,33.33333 8,58 5.333332,24.66667 21.666664,90.33331 49,197 33.33334,131.33337 50,201 50,209 0,8 -12.66667,12.66669 -38,14 -3.33334,0 -6,0 -8,0 h -5 c -6.666664,0 -11,0 -13,0 -2,0 -4.333336,1 -7,3 -2.666664,2 -3.666664,4.33331 -3,7 z M 336,325 v 6 c 0,49.33334 -20.33334,74 -61,74 -11.33334,0 -23,-2.66666 -35,-8 -12,-5.33334 -23,-12.33334 -33,-21 -10,-8.66666 -18.66667,-16.66666 -26,-24 -7.33333,-7.33334 -13.33333,-14.66666 -18,-22 l -6,-8 -21,-86 c -14.66666,-57.33334 -22,-98 -22,-122 0,-32 8,-56 24,-72 10.66667,-10.666668 24,-16 40,-16 22,0 44.33333,10.666664 67,32 16.66666,15.333336 30,34 40,56 10,22 21,57 33,105 12,48 18,83.33334 18,106 z"
       style="fill:#000000;fill-opacity:1;fill-rule:nonzero;stroke:none"
       transform="matrix(0.01774225,0,0,-0.01705898,179.50913,117.42314)"
       clip-path="url(#clipPath52)" />
    <path
       id="path53"
       d="m 213,578 -13,-5 c -9.33333,-3.33331 -22.66667,-6.66669 -40,-10 -17.33333,-3.33331 -36.66666,-5.66669 -58,-7 H 83 v 46 h 19 c 31.33333,1.33331 60.33333,6.33331 87,15 26.66667,8.66669 45.33333,16.66669 56,24 10.66667,7.33331 20,14.66669 28,22 1.33334,2 5.33334,3 12,3 6,0 11.66666,-2 17,-6 V 361 l 1,-300 c 4.66666,-4.666668 8.66666,-7.666668 12,-9 3.33334,-1.333332 11.33334,-2.666668 24,-4 12.66666,-1.333332 33.33334,-2 62,-2 h 26 V 0 H 416 C 402,2 349,3 257,3 166.33333,3 114,2 100,0 H 88 v 46 h 26 c 14.66667,0 27.33333,0 38,0 10.66667,0 19,0.333332 25,1 6,0.666668 11.33333,1.666668 16,3 4.66667,1.333332 7.33333,2 8,2 0.66667,0 2.66667,1.666668 6,5 3.33333,3.333332 5.33333,4.666668 6,4 z"
       style="fill:#000000;fill-opacity:1;fill-rule:nonzero;stroke:none"
       transform="matrix(0.01254377,0,0,-0.0120607,187.70605,119.98199)"
       clip-path="url(#clipPath54)" />
    <path
       id="path55"
       d="m 33,157 c 0,67.33334 25.333332,131.33334 76,192 50.66667,60.66666 107.66666,91.33334 171,92 34,0 64,-16.33334 90,-49 10.66666,20 26,30 46,30 8.66666,0 16.33334,-2.66666 23,-8 6.66666,-5.33334 10,-12 10,-20 0,-8.66666 -12.33334,-62 -37,-160 -24.66666,-98 -37.33334,-153.333336 -38,-166 0,-16.666668 2.33334,-27.666668 7,-33 4.66666,-5.333334 11.66666,-8.333334 21,-9 6,0.666666 12.66666,3.666666 20,9 14,13.333336 27.66666,45.333328 41,96 4,13.33333 7.33334,20.33333 10,21 1.33334,0.66667 4.66666,1 10,1 h 4 c 12.66666,0 19,-3 19,-9 0,-4 -1.66666,-13 -5,-27 C 497.66666,103 491,85 481,63 471,41 460.33334,24.333334 449,13 440.33334,4.333333 429.66666,-2.6666665 417,-8 c -5.33334,-1.333333 -13.33334,-2 -24,-2 -22.66666,0 -41.66666,5 -57,15 -15.33334,10 -25.33334,20.333332 -30,31 l -6,15 c -0.66666,0.666668 -2,0.333332 -4,-1 -1.33334,-1.333332 -2.66666,-2.666668 -4,-4 C 252.66666,8.6666641 212.66667,-10 172,-10 135.33333,-10 103,3.3333321 75,30 47,56.666668 33,99 33,157 Z m 318,171 c 0,4 -1.66666,11.33334 -5,22 -3.33334,10.66666 -11,22.33334 -23,35 -12,12.66666 -27.33334,19.33334 -46,20 -23.33333,0 -45.66667,-10.33334 -67,-31 -21.33333,-20.66666 -38,-47.66666 -50,-81 -19.33333,-52.66667 -33,-107.33333 -41,-164 0,-2 0,-5.66666 0,-11 0,-5.33334 -0.33334,-9.33334 -1,-12 0,-30 6,-50.666664 18,-62 12,-11.333336 26.33333,-17.333334 43,-18 25.33333,0 50.33333,11 75,33 24.66666,22 39.33334,39 44,51 1.33334,2.66666 10.33334,38.33333 27,107 16.66666,68.66669 25.33334,105.66666 26,111 z"
       style="fill:#000000;fill-opacity:1;fill-rule:nonzero;stroke:none"
       transform="matrix(0.01689202,0,0,-0.01786533,178.55259,7.8786522)"
       clip-path="url(#clipPath56)" />
    <path
       id="path57"
       d="m 213,578 -13,-5 c -9.33333,-3.33331 -22.66667,-6.66669 -40,-10 -17.33333,-3.33331 -36.66666,-5.66669 -58,-7 H 83 v 46 h 19 c 31.33333,1.33331 60.33333,6.33331 87,15 26.66667,8.66669 45.33333,16.66669 56,24 10.66667,7.33331 20,14.66669 28,22 1.33334,2 5.33334,3 12,3 6,0 11.66666,-2 17,-6 V 361 l 1,-300 c 4.66666,-4.666668 8.66666,-7.666668 12,-9 3.33334,-1.333332 11.33334,-2.666668 24,-4 12.66666,-1.333332 33.33334,-2 62,-2 h 26 V 0 H 416 C 402,2 349,3 257,3 166.33333,3 114,2 100,0 H 88 v 46 h 26 c 14.66667,0 27.33333,0 38,0 10.66667,0 19,0.333332 25,1 6,0.666668 11.33333,1.666668 16,3 4.66667,1.333332 7.33333,2 8,2 0.66667,0 2.66667,1.666668 6,5 3.33333,3.333332 5.33333,4.666668 6,4 z"
       style="fill:#000000;fill-opacity:1;fill-rule:nonzero;stroke:none"
       transform="matrix(0.01194266,0,0,-0.01263079,188.04591,10.558452)"
       clip-path="url(#clipPath58)" />
    <path
       id="path59"
       d="M 410,465 H 390"
       style="fill:none;stroke:#000000;stroke-width:1;stroke-linecap:butt;stroke-linejoin:miter;stroke-miterlimit:10;stroke-dasharray:none;stroke-opacity:1"
       transform="matrix(0.95985577,0,0,0.95985577,-95.489538,-388.26163)"
       clip-path="url(#clipPath60)" />
    <path
       id="path61"
       d="m 435,490 v 20"
       style="fill:none;stroke:#000000;stroke-width:1;stroke-linecap:butt;stroke-linejoin:miter;stroke-miterlimit:10;stroke-dasharray:none;stroke-opacity:1"
       transform="matrix(0.95985577,0,0,0.95985577,-95.489538,-388.26163)"
       clip-path="url(#clipPath62)" />
    <path
       id="path63"
       d="M 435,440 V 420"
       style="fill:none;stroke:#000000;stroke-width:1;stroke-linecap:butt;stroke-linejoin:miter;stroke-miterlimit:10;stroke-dasharray:none;stroke-opacity:1"
       transform="matrix(0.95985577,0,0,0.95985577,-95.489538,-388.26163)"
       clip-path="url(#clipPath64)" />
    <path
       id="path65"
       d="m 460,465 c 0,0.81879 -0.0401,1.63559 -0.12042,2.45044 -0.0802,0.81482 -0.20023,1.62375 -0.35999,2.42679 -0.15973,0.80304 -0.35843,1.59631 -0.5961,2.37985 -0.23767,0.78354 -0.51318,1.5535 -0.82657,2.30994 -0.31329,0.7565 -0.66293,1.49575 -1.04889,2.21783 -0.38598,0.72214 -0.80642,1.42355 -1.26132,2.10431 -0.45486,0.68082 -0.94201,1.33768 -1.46145,1.97061 -0.51944,0.63294 -1.06864,1.23889 -1.64762,1.81784 -0.57895,0.57898 -1.18487,1.12818 -1.81781,1.64759 -0.63293,0.51944 -1.28982,1.00659 -1.97064,1.46145 -0.68075,0.4549 -1.38217,0.87534 -2.10431,1.26132 -0.72207,0.38599 -1.46133,0.73566 -2.21783,1.04898 -0.75644,0.31336 -1.52643,0.58887 -2.30997,0.82657 -0.78351,0.23767 -1.57678,0.43637 -2.37985,0.59607 -0.80304,0.15976 -1.61197,0.27976 -2.42679,0.36002 C 436.63559,489.95987 435.81876,490 435,490 c -0.81876,0 -1.63556,-0.0401 -2.45041,-0.12039 -0.81485,-0.0803 -1.62381,-0.20029 -2.42688,-0.36005 -0.80301,-0.15973 -1.59628,-0.35843 -2.37982,-0.5961 -0.78354,-0.23767 -1.55353,-0.51318 -2.31,-0.82654 -0.75644,-0.31332 -1.49573,-0.66296 -2.2178,-1.04895 -0.72214,-0.38598 -1.42359,-0.80642 -2.1044,-1.26132 -0.68076,-0.45486 -1.33762,-0.94201 -1.97055,-1.46145 -0.63291,-0.51941 -1.23886,-1.06861 -1.81781,-1.64759 -0.57898,-0.57895 -1.12818,-1.1849 -1.64759,-1.81781 -0.51944,-0.63296 -1.00662,-1.28982 -1.46151,-1.97064 -0.45487,-0.68076 -0.87531,-1.38217 -1.2613,-2.10428 -0.38595,-0.72207 -0.73562,-1.46136 -1.04895,-2.21786 -0.31332,-0.75644 -0.5888,-1.5264 -0.82647,-2.30994 -0.23767,-0.78354 -0.43637,-1.57681 -0.59613,-2.37988 -0.15973,-0.80301 -0.27973,-1.61194 -0.35999,-2.42676 C 410.04013,466.63559 410,465.81879 410,465 c 0,-0.81876 0.0401,-1.63559 0.12039,-2.45044 0.0802,-0.81482 0.20023,-1.62378 0.35996,-2.42685 0.15976,-0.80301 0.35846,-1.59631 0.59616,-2.37985 0.23767,-0.78354 0.51315,-1.55356 0.82647,-2.31003 0.31333,-0.75644 0.663,-1.4957 1.04899,-2.21777 0.38598,-0.72214 0.80642,-1.42359 1.26129,-2.10437 0.45489,-0.68076 0.94204,-1.33762 1.46145,-1.97055 0.51944,-0.63291 1.06864,-1.23886 1.64762,-1.81784 0.57895,-0.57895 1.1849,-1.12812 1.81784,-1.64756 0.6329,-0.51944 1.28976,-1.00662 1.97052,-1.46151 0.68081,-0.45487 1.38226,-0.87528 2.10437,-1.26126 0.7221,-0.38596 1.46139,-0.73563 2.21783,-1.04899 0.75647,-0.31332 1.52646,-0.5888 2.31,-0.8265 0.78354,-0.23767 1.57681,-0.43637 2.37982,-0.59613 0.80307,-0.1597 1.61203,-0.2797 2.42688,-0.35993 0.81485,-0.0803 1.63165,-0.12039 2.45041,-0.12042 0.81876,3e-5 1.63556,0.0402 2.45041,0.12042 0.81482,0.0802 1.62375,0.20023 2.42679,0.35993 0.80307,0.15976 1.59634,0.35846 2.37988,0.59613 0.78354,0.2377 1.55353,0.51318 2.30997,0.8265 0.7565,0.31336 1.49576,0.66303 2.21783,1.04902 0.72214,0.38595 1.42356,0.80636 2.10431,1.26123 0.68082,0.45489 1.33771,0.94207 1.97064,1.46151 0.63294,0.51944 1.23886,1.06861 1.81781,1.64756 0.57898,0.57898 1.12818,1.18493 1.64762,1.81787 0.51944,0.6329 1.00659,1.28976 1.46145,1.97052 0.4549,0.68078 0.87534,1.38223 1.26129,2.10437 0.38599,0.72207 0.73563,1.46133 1.04892,2.21777 0.31339,0.75647 0.5889,1.52649 0.82657,2.31003 0.23767,0.78354 0.43637,1.57684 0.5961,2.37985 0.15976,0.80307 0.27979,1.61203 0.36002,2.42688 C 459.95987,463.36444 460,464.18124 460,465 Z"
       style="fill:#ffffff;fill-opacity:1;fill-rule:nonzero;stroke:#000000;stroke-width:1;stroke-linecap:butt;stroke-linejoin:miter;stroke-miterlimit:10;stroke-dasharray:none;stroke-opacity:1"
       transform="matrix(-0.95985577,0,0,0.95985577,739.58496,-388.26163)"
       clip-path="url(#clipPath66)" />
    <path
       id="path67"
       d="m 289,629 c 0,4 -19,6.66669 -57,8 -16,0 -26.33333,0.33331 -31,1 -4.66667,0.66669 -7,4 -7,10 0,0.66669 0.66667,4.33331 2,11 0.66667,2 1.33333,4.33331 2,7 0.66667,2.66669 1,4.33331 1,5 0,0.66669 0.66667,2.33331 2,5 1.33333,2.66669 2,3.66669 2,3 0,-0.66669 1.33333,0 4,2 2.66667,2 4.33333,2.66669 5,2 0.66667,-0.66669 3.33333,-0.66669 8,0 4.66667,0.66669 8.66667,1 12,1 4,0 14,0 30,0 16,0 31,-0.33331 45,-1 52.66666,0 83,0 91,0 8,0 13.33334,-1.66669 16,-5 0.66666,-2.66669 13,-96.66663 37,-282 l 36,-279 23,37 c 16,24 37.33331,57.33333 64,100 26.66669,42.66666 56,89.33334 88,140 116.66669,186 175.66669,279.66669 177,281 0.66669,0.66669 1.66669,1.66669 3,3 1.33331,1.33331 2.66669,2.33331 4,3 l 6,2 h 96 c 11.33331,0 24.66669,0 40,0 15.3333,0 25,0.33331 29,1 22.6666,0 34,-3.66669 34,-11 0,-3.33331 -1,-9 -3,-17 -2,-8 -3,-12.33331 -3,-13 -2.6666,-4 -15,-6 -37,-6 -26.66669,-0.66669 -43.66669,-1.66669 -51,-3 -7.33331,-1.33331 -13.33331,-5 -18,-11 -2,-3.33331 -26,-97.66663 -72,-283 C 821,154.66666 797.66669,61 797,59 c 0,-2.666668 0.33331,-4.333332 1,-5 0.66669,-0.666668 3,-2 7,-4 4,-2 9.66669,-2.666668 17,-2 7.33331,0.666668 18.33331,0 33,-2 h 31 c 4,-6 6,-9.666668 6,-11 0,-10.666668 -2.33331,-20.666666 -7,-30 -3.33331,-3.3333335 -8.66669,-5 -16,-5 -3.33331,0 -17,0.33333331 -41,1 -24,0.6666667 -54.66669,1 -92,1 -40.66669,0 -71.33331,0 -92,0 -20.66669,0 -32.33331,-0.3333333 -35,-1 -11.33331,0 -17,3.333333 -17,10 0,1.333333 0.66669,6 2,14 2.66669,10.666668 5.33331,16.666668 8,18 2.66669,1.333332 10.33331,2.333332 23,3 18,0 38,1 60,3 9.33331,2 15.66669,6 19,12 1.33331,2.666668 14,51.33333 38,146 24,94.66669 47.66669,189 71,283 23.33331,94 35,141 35,141 L 654,322 C 523.33331,114 456.33334,8.333334 453,5 451.66666,4.3333335 450.33334,3.6666667 449,3 445.66666,1 440.33334,0 433,0 423,0 417,2.333333 415,7 413.66666,9.666667 400,113 374,317 L 335,624 267,354 C 222.33333,176.66666 200,85 200,79 204,57 228,46 272,46 h 10 c 4,-3.333332 6.33334,-6.333332 7,-9 0.66666,-2.666668 -0.33334,-8.666666 -3,-18 C 283.33334,8.333333 280.66666,2.3333335 278,1 275.33334,0.33333331 271.66666,0 267,0 265.66666,0 261.66666,0 255,0 248.33333,0 237,0.33333331 221,1 205,1.6666667 183.66667,2 157,2 137,2 116.33334,1.6666667 95,1 73.666664,0.33333331 61.333332,0 58,0 48,0 41.666668,0.66666663 39,2 c -2.666668,1.3333335 -4,4.333333 -4,9 0,1.333333 1,6 3,14 2,8 3.666668,13 5,15 1.333332,4 8.666664,6 22,6 46.66667,0 76.33333,13.333332 89,40 2.66667,4 25.66666,93.33333 69,268 43.33334,174.66669 65.33334,266.33331 66,275 z"
       style="fill:#000000;fill-opacity:1;fill-rule:nonzero;stroke:none"
       transform="matrix(0.01753642,0,0,-0.01710212,301.27698,62.09114)"
       clip-path="url(#clipPath68)" />
    <path
       id="path69"
       d="m 21,287 c 0.666666,4 1.666666,9.33334 3,16 1.333334,6.66666 5.333332,19.33334 12,38 6.666668,18.66666 13.333332,34.33334 20,47 6.666668,12.66666 17.666664,25 33,37 15.33334,12 30.66666,17.66666 46,17 24,0 44,-6 60,-18 16,-12 26,-23.33334 30,-34 4,-10.66666 6,-17.66666 6,-21 0,-1.33334 0.33333,-2 1,-2 l 11,11 c 40.66666,42.66666 87,64 139,64 36,0 65,-9 87,-27 22,-18 33.33334,-44.33334 34,-79 0.66666,-34.66666 -12,-87 -38,-157 -26,-70 -38.66666,-112.333336 -38,-127 0,-17.333336 5.66666,-26 17,-26 4,0 7,0.333334 9,1 19.33334,3.333334 36.66666,16 52,38 15.33331,22 27,48.66666 35,80 1.33331,5.33333 8,8 20,8 13.33331,0 20,-2.66667 20,-8 0,-0.66667 -1.33331,-5.66667 -4,-15 -5.33331,-19.33334 -12.66669,-38.333328 -22,-57 -9.33331,-18.666668 -24.66669,-37.333332 -46,-56 -21.33334,-18.6666679 -44.33334,-27.666667 -69,-27 -31.33334,0 -54,9 -68,27 -14,18 -21,36.666664 -21,56 0,12.666664 12,52.66666 36,120 24,67.33334 36.33334,118 37,152 0,39.33334 -14.66666,59 -44,59 h -5 C 316.66666,404 268.33334,370.33334 229,303 L 222,291 189,157 C 167,69.666664 154.33333,22.666668 151,16 c -8.66667,-18 -23,-27 -43,-27 -8.666664,0 -15.666664,2 -21,6 -5.333336,4 -9,8 -11,12 -2,4 -2.666664,7.333333 -2,10 0,8.666668 12.666664,63 38,163 25.33333,100 38.66667,154.33334 40,163 0.66667,3.33334 1,11 1,23 0,26 -8,39 -24,39 -25.33334,0 -46.333328,-33.33331 -63,-100 -4,-13.33334 -6,-20.33334 -6,-21 -1.333332,-4 -7.666664,-6 -19,-6 H 27 c -4,4 -6,7 -6,9 z"
       style="fill:#000000;fill-opacity:1;fill-rule:nonzero;stroke:none"
       transform="matrix(0.01239825,0,0,-0.0120912,318.866,64.656458)"
       clip-path="url(#clipPath70)" />
    <path
       id="path71"
       d="m 84,237 c 0,0 0,4.33333 0,13 0,8.66666 4.666664,15.33334 14,20 h 581 c 10,-5.33334 15,-12 15,-20 0,-8 -5,-14.66667 -15,-20 H 98 c -9.333336,4.66667 -14,11.33333 -14,20 z"
       style="fill:#000000;fill-opacity:1;fill-rule:nonzero;stroke:none"
       transform="matrix(0.01239825,0,0,-0.0120912,326.30495,64.656458)"
       clip-path="url(#clipPath72)" />
    <path
       id="path73"
       d="m 213,578 -13,-5 c -9.33333,-3.33331 -22.66667,-6.66669 -40,-10 -17.33333,-3.33331 -36.66666,-5.66669 -58,-7 H 83 v 46 h 19 c 31.33333,1.33331 60.33333,6.33331 87,15 26.66667,8.66669 45.33333,16.66669 56,24 10.66667,7.33331 20,14.66669 28,22 1.33334,2 5.33334,3 12,3 6,0 11.66666,-2 17,-6 V 361 l 1,-300 c 4.66666,-4.666668 8.66666,-7.666668 12,-9 3.33334,-1.333332 11.33334,-2.666668 24,-4 12.66666,-1.333332 33.33334,-2 62,-2 h 26 V 0 H 416 C 402,2 349,3 257,3 166.33333,3 114,2 100,0 H 88 v 46 h 26 c 14.66667,0 27.33333,0 38,0 10.66667,0 19,0.333332 25,1 6,0.666668 11.33333,1.666668 16,3 4.66667,1.333332 7.33333,2 8,2 0.66667,0 2.66667,1.666668 6,5 3.33333,3.333332 5.33333,4.666668 6,4 z"
       style="fill:#000000;fill-opacity:1;fill-rule:nonzero;stroke:none"
       transform="matrix(0.01239825,0,0,-0.0120912,335.95077,64.656458)"
       clip-path="url(#clipPath74)" />
    <path
       id="path75"
       d="m 289,629 c 0,4 -19,6.66669 -57,8 -16,0 -26.33333,0.33331 -31,1 -4.66667,0.66669 -7,4 -7,10 0,0.66669 0.66667,4.33331 2,11 0.66667,2 1.33333,4.33331 2,7 0.66667,2.66669 1,4.33331 1,5 0,0.66669 0.66667,2.33331 2,5 1.33333,2.66669 2,3.66669 2,3 0,-0.66669 1.33333,0 4,2 2.66667,2 4.33333,2.66669 5,2 0.66667,-0.66669 3.33333,-0.66669 8,0 4.66667,0.66669 8.66667,1 12,1 4,0 14,0 30,0 16,0 31,-0.33331 45,-1 52.66666,0 83,0 91,0 8,0 13.33334,-1.66669 16,-5 0.66666,-2.66669 13,-96.66663 37,-282 l 36,-279 23,37 c 16,24 37.33331,57.33333 64,100 26.66669,42.66666 56,89.33334 88,140 116.66669,186 175.66669,279.66669 177,281 0.66669,0.66669 1.66669,1.66669 3,3 1.33331,1.33331 2.66669,2.33331 4,3 l 6,2 h 96 c 11.33331,0 24.66669,0 40,0 15.3333,0 25,0.33331 29,1 22.6666,0 34,-3.66669 34,-11 0,-3.33331 -1,-9 -3,-17 -2,-8 -3,-12.33331 -3,-13 -2.6666,-4 -15,-6 -37,-6 -26.66669,-0.66669 -43.66669,-1.66669 -51,-3 -7.33331,-1.33331 -13.33331,-5 -18,-11 -2,-3.33331 -26,-97.66663 -72,-283 C 821,154.66666 797.66669,61 797,59 c 0,-2.666668 0.33331,-4.333332 1,-5 0.66669,-0.666668 3,-2 7,-4 4,-2 9.66669,-2.666668 17,-2 7.33331,0.666668 18.33331,0 33,-2 h 31 c 4,-6 6,-9.666668 6,-11 0,-10.666668 -2.33331,-20.666666 -7,-30 -3.33331,-3.3333335 -8.66669,-5 -16,-5 -3.33331,0 -17,0.33333331 -41,1 -24,0.6666667 -54.66669,1 -92,1 -40.66669,0 -71.33331,0 -92,0 -20.66669,0 -32.33331,-0.3333333 -35,-1 -11.33331,0 -17,3.333333 -17,10 0,1.333333 0.66669,6 2,14 2.66669,10.666668 5.33331,16.666668 8,18 2.66669,1.333332 10.33331,2.333332 23,3 18,0 38,1 60,3 9.33331,2 15.66669,6 19,12 1.33331,2.666668 14,51.33333 38,146 24,94.66669 47.66669,189 71,283 23.33331,94 35,141 35,141 L 654,322 C 523.33331,114 456.33334,8.333334 453,5 451.66666,4.3333335 450.33334,3.6666667 449,3 445.66666,1 440.33334,0 433,0 423,0 417,2.333333 415,7 413.66666,9.666667 400,113 374,317 L 335,624 267,354 C 222.33333,176.66666 200,85 200,79 204,57 228,46 272,46 h 10 c 4,-3.333332 6.33334,-6.333332 7,-9 0.66666,-2.666668 -0.33334,-8.666666 -3,-18 C 283.33334,8.333333 280.66666,2.3333335 278,1 275.33334,0.33333331 271.66666,0 267,0 265.66666,0 261.66666,0 255,0 248.33333,0 237,0.33333331 221,1 205,1.6666667 183.66667,2 157,2 137,2 116.33334,1.6666667 95,1 73.666664,0.33333331 61.333332,0 58,0 48,0 41.666668,0.66666663 39,2 c -2.666668,1.3333335 -4,4.333333 -4,9 0,1.333333 1,6 3,14 2,8 3.666668,13 5,15 1.333332,4 8.666664,6 22,6 46.66667,0 76.33333,13.333332 89,40 2.66667,4 25.66666,93.33333 69,268 43.33334,174.66669 65.33334,266.33331 66,275 z"
       style="fill:#000000;fill-opacity:1;fill-rule:nonzero;stroke:none"
       transform="matrix(0.01739765,0,0,-0.01770904,-0.56820721,60.941409)"
       clip-path="url(#clipPath76)" />
    <path
       id="path77"
       d="m 33,157 c 0,67.33334 25.333332,131.33334 76,192 50.66667,60.66666 107.66666,91.33334 171,92 34,0 64,-16.33334 90,-49 10.66666,20 26,30 46,30 8.66666,0 16.33334,-2.66666 23,-8 6.66666,-5.33334 10,-12 10,-20 0,-8.66666 -12.33334,-62 -37,-160 -24.66666,-98 -37.33334,-153.333336 -38,-166 0,-16.666668 2.33334,-27.666668 7,-33 4.66666,-5.333334 11.66666,-8.333334 21,-9 6,0.666666 12.66666,3.666666 20,9 14,13.333336 27.66666,45.333328 41,96 4,13.33333 7.33334,20.33333 10,21 1.33334,0.66667 4.66666,1 10,1 h 4 c 12.66666,0 19,-3 19,-9 0,-4 -1.66666,-13 -5,-27 C 497.66666,103 491,85 481,63 471,41 460.33334,24.333334 449,13 440.33334,4.333333 429.66666,-2.6666665 417,-8 c -5.33334,-1.333333 -13.33334,-2 -24,-2 -22.66666,0 -41.66666,5 -57,15 -15.33334,10 -25.33334,20.333332 -30,31 l -6,15 c -0.66666,0.666668 -2,0.333332 -4,-1 -1.33334,-1.333332 -2.66666,-2.666668 -4,-4 C 252.66666,8.6666641 212.66667,-10 172,-10 135.33333,-10 103,3.3333321 75,30 47,56.666668 33,99 33,157 Z m 318,171 c 0,4 -1.66666,11.33334 -5,22 -3.33334,10.66666 -11,22.33334 -23,35 -12,12.66666 -27.33334,19.33334 -46,20 -23.33333,0 -45.66667,-10.33334 -67,-31 -21.33333,-20.66666 -38,-47.66666 -50,-81 -19.33333,-52.66667 -33,-107.33333 -41,-164 0,-2 0,-5.66666 0,-11 0,-5.33334 -0.33334,-9.33334 -1,-12 0,-30 6,-50.666664 18,-62 12,-11.333336 26.33333,-17.333334 43,-18 25.33333,0 50.33333,11 75,33 24.66666,22 39.33334,39 44,51 1.33334,2.66666 10.33334,38.33333 27,107 16.66666,68.66669 25.33334,105.66666 26,111 z"
       style="fill:#000000;fill-opacity:1;fill-rule:nonzero;stroke:none"
       transform="matrix(0.01230014,0,0,-0.01252029,19.230313,52.074495)"
       clip-path="url(#clipPath78)" />
    <path
       id="path79"
       d="m 96,585 c 37.33334,54 88.33333,81 153,81 32,0 64,-8.66669 96,-26 32,-17.33331 58,-48 78,-92 24.66666,-55.33334 37,-131.33331 37,-228 C 460,216.66666 445.66666,137.66667 417,83 403.66666,55 385.33334,32.666668 362,16 338.66666,-0.66666794 318.33334,-11 301,-15 c -17.33334,-4 -34.33334,-6.333334 -51,-7 -17.33333,0 -34.66667,2 -52,6 -17.33333,4 -37.66667,14.666666 -61,32 C 113.66666,33.333336 95.333336,55.666664 82,83 53.333332,137.66667 39,216.66666 39,320 39,436 58,524.33331 96,585 Z m 225,12 c -20,21.33331 -43.66666,32 -71,32 -28,0 -52,-10.66669 -72,-32 -16.66667,-17.33331 -27.66667,-41.33331 -33,-72 -5.33333,-30.66666 -8,-94.66666 -8,-192 0,-105.33334 2.66667,-174.66666 8,-208 5.33333,-33.333336 17.33333,-59.666664 36,-79 18.66667,-20 41.66667,-30 69,-30 26.66666,0 49.33334,10 68,30 19.33334,20 31.33334,48 36,84 4.66666,36 7.33334,103.66666 8,203 0,96.66669 -2.66666,160.33334 -8,191 -5.33334,30.66669 -16.33334,55 -33,73 z"
       style="fill:#000000;fill-opacity:1;fill-rule:nonzero;stroke:none"
       transform="matrix(0.0086962,0,0,-0.00885184,26.14299,53.952535)"
       clip-path="url(#clipPath80)" />
    <path
       id="path81"
       d="m 78,60 c 0,16 5.666664,30 17,42 11.33334,12 25.66666,18 43,18 16,0 30,-5.33334 42,-16 C 192,93.333336 198.33333,79 199,61 199,44.333332 193.33333,30 182,18 170.66667,6 156.33333,0 139,0 121.66666,0 107.33334,5.666666 96,17 84.666664,28.333334 78.666664,42.666664 78,60 Z"
       style="fill:#000000;fill-opacity:1;fill-rule:nonzero;stroke:none"
       transform="matrix(0.01230014,0,0,-0.01252029,31.107323,52.074495)"
       clip-path="url(#clipPath82)" />
    <path
       id="path83"
       d="m 78,60 c 0,16 5.666664,30 17,42 11.33334,12 25.66666,18 43,18 16,0 30,-5.33334 42,-16 C 192,93.333336 198.33333,79 199,61 199,44.333332 193.33333,30 182,18 170.66667,6 156.33333,0 139,0 121.66666,0 107.33334,5.666666 96,17 84.666664,28.333334 78.666664,42.666664 78,60 Z"
       style="fill:#000000;fill-opacity:1;fill-rule:nonzero;stroke:none"
       transform="matrix(0.01230014,0,0,-0.01252029,34.526764,52.074495)"
       clip-path="url(#clipPath84)" />
    <path
       id="path85"
       d="m 78,60 c 0,16 5.666664,30 17,42 11.33334,12 25.66666,18 43,18 16,0 30,-5.33334 42,-16 C 192,93.333336 198.33333,79 199,61 199,44.333332 193.33333,30 182,18 170.66667,6 156.33333,0 139,0 121.66666,0 107.33334,5.666666 96,17 84.666664,28.333334 78.666664,42.666664 78,60 Z"
       style="fill:#000000;fill-opacity:1;fill-rule:nonzero;stroke:none"
       transform="matrix(0.01230014,0,0,-0.01252029,37.946197,52.074495)"
       clip-path="url(#clipPath86)" />
    <path
       id="path87"
       d="m 33,157 c 0,67.33334 25.333332,131.33334 76,192 50.66667,60.66666 107.66666,91.33334 171,92 34,0 64,-16.33334 90,-49 10.66666,20 26,30 46,30 8.66666,0 16.33334,-2.66666 23,-8 6.66666,-5.33334 10,-12 10,-20 0,-8.66666 -12.33334,-62 -37,-160 -24.66666,-98 -37.33334,-153.333336 -38,-166 0,-16.666668 2.33334,-27.666668 7,-33 4.66666,-5.333334 11.66666,-8.333334 21,-9 6,0.666666 12.66666,3.666666 20,9 14,13.333336 27.66666,45.333328 41,96 4,13.33333 7.33334,20.33333 10,21 1.33334,0.66667 4.66666,1 10,1 h 4 c 12.66666,0 19,-3 19,-9 0,-4 -1.66666,-13 -5,-27 C 497.66666,103 491,85 481,63 471,41 460.33334,24.333334 449,13 440.33334,4.333333 429.66666,-2.6666665 417,-8 c -5.33334,-1.333333 -13.33334,-2 -24,-2 -22.66666,0 -41.66666,5 -57,15 -15.33334,10 -25.33334,20.333332 -30,31 l -6,15 c -0.66666,0.666668 -2,0.333332 -4,-1 -1.33334,-1.333332 -2.66666,-2.666668 -4,-4 C 252.66666,8.6666641 212.66667,-10 172,-10 135.33333,-10 103,3.3333321 75,30 47,56.666668 33,99 33,157 Z m 318,171 c 0,4 -1.66666,11.33334 -5,22 -3.33334,10.66666 -11,22.33334 -23,35 -12,12.66666 -27.33334,19.33334 -46,20 -23.33333,0 -45.66667,-10.33334 -67,-31 -21.33333,-20.66666 -38,-47.66666 -50,-81 -19.33333,-52.66667 -33,-107.33333 -41,-164 0,-2 0,-5.66666 0,-11 0,-5.33334 -0.33334,-9.33334 -1,-12 0,-30 6,-50.666664 18,-62 12,-11.333336 26.33333,-17.333334 43,-18 25.33333,0 50.33333,11 75,33 24.66666,22 39.33334,39 44,51 1.33334,2.66666 10.33334,38.33333 27,107 16.66666,68.66669 25.33334,105.66666 26,111 z"
       style="fill:#000000;fill-opacity:1;fill-rule:nonzero;stroke:none"
       transform="matrix(0.01230014,0,0,-0.01252029,41.365638,52.074495)"
       clip-path="url(#clipPath88)" />
    <path
       id="path89"
       d="m 21,287 c 0.666666,4 1.666666,9.33334 3,16 1.333334,6.66666 5.333332,19.33334 12,38 6.666668,18.66666 13.333332,34.33334 20,47 6.666668,12.66666 17.666664,25 33,37 15.33334,12 30.66666,17.66666 46,17 24,0 44,-6 60,-18 16,-12 26,-23.33334 30,-34 4,-10.66666 6,-17.66666 6,-21 0,-1.33334 0.33333,-2 1,-2 l 11,11 c 40.66666,42.66666 87,64 139,64 36,0 65,-9 87,-27 22,-18 33.33334,-44.33334 34,-79 0.66666,-34.66666 -12,-87 -38,-157 -26,-70 -38.66666,-112.333336 -38,-127 0,-17.333336 5.66666,-26 17,-26 4,0 7,0.333334 9,1 19.33334,3.333334 36.66666,16 52,38 15.33331,22 27,48.66666 35,80 1.33331,5.33333 8,8 20,8 13.33331,0 20,-2.66667 20,-8 0,-0.66667 -1.33331,-5.66667 -4,-15 -5.33331,-19.33334 -12.66669,-38.333328 -22,-57 -9.33331,-18.666668 -24.66669,-37.333332 -46,-56 -21.33334,-18.6666679 -44.33334,-27.666667 -69,-27 -31.33334,0 -54,9 -68,27 -14,18 -21,36.666664 -21,56 0,12.666664 12,52.66666 36,120 24,67.33334 36.33334,118 37,152 0,39.33334 -14.66666,59 -44,59 h -5 C 316.66666,404 268.33334,370.33334 229,303 L 222,291 189,157 C 167,69.666664 154.33333,22.666668 151,16 c -8.66667,-18 -23,-27 -43,-27 -8.666664,0 -15.666664,2 -21,6 -5.333336,4 -9,8 -11,12 -2,4 -2.666664,7.333333 -2,10 0,8.666668 12.666664,63 38,163 25.33333,100 38.66667,154.33334 40,163 0.66667,3.33334 1,11 1,23 0,26 -8,39 -24,39 -25.33334,0 -46.333328,-33.33331 -63,-100 -4,-13.33334 -6,-20.33334 -6,-21 -1.333332,-4 -7.666664,-6 -19,-6 H 27 c -4,4 -6,7 -6,9 z"
       style="fill:#000000;fill-opacity:1;fill-rule:nonzero;stroke:none"
       transform="matrix(0.0086962,0,0,-0.00885184,48.278314,53.952535)"
       clip-path="url(#clipPath90)" />
    <path
       id="path91"
       d="m 84,237 c 0,0 0,4.33333 0,13 0,8.66666 4.666664,15.33334 14,20 h 581 c 10,-5.33334 15,-12 15,-20 0,-8 -5,-14.66667 -15,-20 H 98 c -9.333336,4.66667 -14,11.33333 -14,20 z"
       style="fill:#000000;fill-opacity:1;fill-rule:nonzero;stroke:none"
       transform="matrix(0.0086962,0,0,-0.00885184,53.496033,53.952535)"
       clip-path="url(#clipPath92)" />
    <path
       id="path93"
       d="m 213,578 -13,-5 c -9.33333,-3.33331 -22.66667,-6.66669 -40,-10 -17.33333,-3.33331 -36.66666,-5.66669 -58,-7 H 83 v 46 h 19 c 31.33333,1.33331 60.33333,6.33331 87,15 26.66667,8.66669 45.33333,16.66669 56,24 10.66667,7.33331 20,14.66669 28,22 1.33334,2 5.33334,3 12,3 6,0 11.66666,-2 17,-6 V 361 l 1,-300 c 4.66666,-4.666668 8.66666,-7.666668 12,-9 3.33334,-1.333332 11.33334,-2.666668 24,-4 12.66666,-1.333332 33.33334,-2 62,-2 h 26 V 0 H 416 C 402,2 349,3 257,3 166.33333,3 114,2 100,0 H 88 v 46 h 26 c 14.66667,0 27.33333,0 38,0 10.66667,0 19,0.333332 25,1 6,0.666668 11.33333,1.666668 16,3 4.66667,1.333332 7.33333,2 8,2 0.66667,0 2.66667,1.666668 6,5 3.33333,3.333332 5.33333,4.666668 6,4 z"
       style="fill:#000000;fill-opacity:1;fill-rule:nonzero;stroke:none"
       transform="matrix(0.0086962,0,0,-0.00885184,60.261671,53.952535)"
       clip-path="url(#clipPath94)" />
    <path
       id="path95"
       d="m 73,647 c 0,6.66669 1.333336,14.33331 4,23 2.666664,8.66669 6.666664,13 12,13 0.666664,0 24.66666,1.66669 72,5 47.33334,3.33331 71.66667,5.33331 73,6 8,0 12,-3 12,-9 0,-6 -11.33333,-53.66669 -34,-143 -5.33333,-22.66669 -11,-46 -17,-70 -6,-24 -11,-42 -15,-54 l -4,-19 c 0,-2 2,-1 6,3 32.66667,26.66666 66.33333,40 101,40 41.33334,0 74.66666,-15.33334 100,-46 25.33334,-30.66666 38.33334,-69.33334 39,-116 C 422,206 395.66666,139 343,79 290.33334,19 233.66667,-11 173,-11 139.66666,-11 109.33334,1.666666 82,27 54.666664,52.333336 40.666668,93.333328 40,150 v 9 c 0,14 2.666668,33.33333 8,58 5.333332,24.66667 21.666664,90.33331 49,197 33.33334,131.33337 50,201 50,209 0,8 -12.66667,12.66669 -38,14 -3.33334,0 -6,0 -8,0 h -5 c -6.666664,0 -11,0 -13,0 -2,0 -4.333336,1 -7,3 -2.666664,2 -3.666664,4.33331 -3,7 z M 336,325 v 6 c 0,49.33334 -20.33334,74 -61,74 -11.33334,0 -23,-2.66666 -35,-8 -12,-5.33334 -23,-12.33334 -33,-21 -10,-8.66666 -18.66667,-16.66666 -26,-24 -7.33333,-7.33334 -13.33333,-14.66666 -18,-22 l -6,-8 -21,-86 c -14.66666,-57.33334 -22,-98 -22,-122 0,-32 8,-56 24,-72 10.66667,-10.666668 24,-16 40,-16 22,0 44.33333,10.666664 67,32 16.66666,15.333336 30,34 40,56 10,22 21,57 33,105 12,48 18,83.33334 18,106 z"
       style="fill:#000000;fill-opacity:1;fill-rule:nonzero;stroke:none"
       transform="matrix(0.01230014,0,0,-0.01252029,16.881631,66.556941)"
       clip-path="url(#clipPath96)" />
    <path
       id="path97"
       d="m 96,585 c 37.33334,54 88.33333,81 153,81 32,0 64,-8.66669 96,-26 32,-17.33331 58,-48 78,-92 24.66666,-55.33334 37,-131.33331 37,-228 C 460,216.66666 445.66666,137.66667 417,83 403.66666,55 385.33334,32.666668 362,16 338.66666,-0.66666794 318.33334,-11 301,-15 c -17.33334,-4 -34.33334,-6.333334 -51,-7 -17.33333,0 -34.66667,2 -52,6 -17.33333,4 -37.66667,14.666666 -61,32 C 113.66666,33.333336 95.333336,55.666664 82,83 53.333332,137.66667 39,216.66666 39,320 39,436 58,524.33331 96,585 Z m 225,12 c -20,21.33331 -43.66666,32 -71,32 -28,0 -52,-10.66669 -72,-32 -16.66667,-17.33331 -27.66667,-41.33331 -33,-72 -5.33333,-30.66666 -8,-94.66666 -8,-192 0,-105.33334 2.66667,-174.66666 8,-208 5.33333,-33.333336 17.33333,-59.666664 36,-79 18.66667,-20 41.66667,-30 69,-30 26.66666,0 49.33334,10 68,30 19.33334,20 31.33334,48 36,84 4.66666,36 7.33334,103.66666 8,203 0,96.66669 -2.66666,160.33334 -8,191 -5.33334,30.66669 -16.33334,55 -33,73 z"
       style="fill:#000000;fill-opacity:1;fill-rule:nonzero;stroke:none"
       transform="matrix(0.0086962,0,0,-0.00885184,22.564293,68.434986)"
       clip-path="url(#clipPath98)" />
    <path
       id="path99"
       d="m 78,60 c 0,16 5.666664,30 17,42 11.33334,12 25.66666,18 43,18 16,0 30,-5.33334 42,-16 C 192,93.333336 198.33333,79 199,61 199,44.333332 193.33333,30 182,18 170.66667,6 156.33333,0 139,0 121.66666,0 107.33334,5.666666 96,17 84.666664,28.333334 78.666664,42.666664 78,60 Z"
       style="fill:#000000;fill-opacity:1;fill-rule:nonzero;stroke:none"
       transform="matrix(0.01230014,0,0,-0.01252029,27.528627,66.556941)"
       clip-path="url(#clipPath100)" />
    <path
       id="path101"
       d="m 78,60 c 0,16 5.666664,30 17,42 11.33334,12 25.66666,18 43,18 16,0 30,-5.33334 42,-16 C 192,93.333336 198.33333,79 199,61 199,44.333332 193.33333,30 182,18 170.66667,6 156.33333,0 139,0 121.66666,0 107.33334,5.666666 96,17 84.666664,28.333334 78.666664,42.666664 78,60 Z"
       style="fill:#000000;fill-opacity:1;fill-rule:nonzero;stroke:none"
       transform="matrix(0.01230014,0,0,-0.01252029,30.948065,66.556941)"
       clip-path="url(#clipPath102)" />
    <path
       id="path103"
       d="m 78,60 c 0,16 5.666664,30 17,42 11.33334,12 25.66666,18 43,18 16,0 30,-5.33334 42,-16 C 192,93.333336 198.33333,79 199,61 199,44.333332 193.33333,30 182,18 170.66667,6 156.33333,0 139,0 121.66666,0 107.33334,5.666666 96,17 84.666664,28.333334 78.666664,42.666664 78,60 Z"
       style="fill:#000000;fill-opacity:1;fill-rule:nonzero;stroke:none"
       transform="matrix(0.01230014,0,0,-0.01252029,34.367504,66.556941)"
       clip-path="url(#clipPath104)" />
    <path
       id="path105"
       d="m 73,647 c 0,6.66669 1.333336,14.33331 4,23 2.666664,8.66669 6.666664,13 12,13 0.666664,0 24.66666,1.66669 72,5 47.33334,3.33331 71.66667,5.33331 73,6 8,0 12,-3 12,-9 0,-6 -11.33333,-53.66669 -34,-143 -5.33333,-22.66669 -11,-46 -17,-70 -6,-24 -11,-42 -15,-54 l -4,-19 c 0,-2 2,-1 6,3 32.66667,26.66666 66.33333,40 101,40 41.33334,0 74.66666,-15.33334 100,-46 25.33334,-30.66666 38.33334,-69.33334 39,-116 C 422,206 395.66666,139 343,79 290.33334,19 233.66667,-11 173,-11 139.66666,-11 109.33334,1.666666 82,27 54.666664,52.333336 40.666668,93.333328 40,150 v 9 c 0,14 2.666668,33.33333 8,58 5.333332,24.66667 21.666664,90.33331 49,197 33.33334,131.33337 50,201 50,209 0,8 -12.66667,12.66669 -38,14 -3.33334,0 -6,0 -8,0 h -5 c -6.666664,0 -11,0 -13,0 -2,0 -4.333336,1 -7,3 -2.666664,2 -3.666664,4.33331 -3,7 z M 336,325 v 6 c 0,49.33334 -20.33334,74 -61,74 -11.33334,0 -23,-2.66666 -35,-8 -12,-5.33334 -23,-12.33334 -33,-21 -10,-8.66666 -18.66667,-16.66666 -26,-24 -7.33333,-7.33334 -13.33333,-14.66666 -18,-22 l -6,-8 -21,-86 c -14.66666,-57.33334 -22,-98 -22,-122 0,-32 8,-56 24,-72 10.66667,-10.666668 24,-16 40,-16 22,0 44.33333,10.666664 67,32 16.66666,15.333336 30,34 40,56 10,22 21,57 33,105 12,48 18,83.33334 18,106 z"
       style="fill:#000000;fill-opacity:1;fill-rule:nonzero;stroke:none"
       transform="matrix(0.01230014,0,0,-0.01252029,37.786942,66.556941)"
       clip-path="url(#clipPath106)" />
    <path
       id="path107"
       d="m 21,287 c 0.666666,4 1.666666,9.33334 3,16 1.333334,6.66666 5.333332,19.33334 12,38 6.666668,18.66666 13.333332,34.33334 20,47 6.666668,12.66666 17.666664,25 33,37 15.33334,12 30.66666,17.66666 46,17 24,0 44,-6 60,-18 16,-12 26,-23.33334 30,-34 4,-10.66666 6,-17.66666 6,-21 0,-1.33334 0.33333,-2 1,-2 l 11,11 c 40.66666,42.66666 87,64 139,64 36,0 65,-9 87,-27 22,-18 33.33334,-44.33334 34,-79 0.66666,-34.66666 -12,-87 -38,-157 -26,-70 -38.66666,-112.333336 -38,-127 0,-17.333336 5.66666,-26 17,-26 4,0 7,0.333334 9,1 19.33334,3.333334 36.66666,16 52,38 15.33331,22 27,48.66666 35,80 1.33331,5.33333 8,8 20,8 13.33331,0 20,-2.66667 20,-8 0,-0.66667 -1.33331,-5.66667 -4,-15 -5.33331,-19.33334 -12.66669,-38.333328 -22,-57 -9.33331,-18.666668 -24.66669,-37.333332 -46,-56 -21.33334,-18.6666679 -44.33334,-27.666667 -69,-27 -31.33334,0 -54,9 -68,27 -14,18 -21,36.666664 -21,56 0,12.666664 12,52.66666 36,120 24,67.33334 36.33334,118 37,152 0,39.33334 -14.66666,59 -44,59 h -5 C 316.66666,404 268.33334,370.33334 229,303 L 222,291 189,157 C 167,69.666664 154.33333,22.666668 151,16 c -8.66667,-18 -23,-27 -43,-27 -8.666664,0 -15.666664,2 -21,6 -5.333336,4 -9,8 -11,12 -2,4 -2.666664,7.333333 -2,10 0,8.666668 12.666664,63 38,163 25.33333,100 38.66667,154.33334 40,163 0.66667,3.33334 1,11 1,23 0,26 -8,39 -24,39 -25.33334,0 -46.333328,-33.33331 -63,-100 -4,-13.33334 -6,-20.33334 -6,-21 -1.333332,-4 -7.666664,-6 -19,-6 H 27 c -4,4 -6,7 -6,9 z"
       style="fill:#000000;fill-opacity:1;fill-rule:nonzero;stroke:none"
       transform="matrix(0.0086962,0,0,-0.00885184,43.469603,68.434986)"
       clip-path="url(#clipPath108)" />
    <path
       id="path109"
       d="m 84,237 c 0,0 0,4.33333 0,13 0,8.66666 4.666664,15.33334 14,20 h 581 c 10,-5.33334 15,-12 15,-20 0,-8 -5,-14.66667 -15,-20 H 98 c -9.333336,4.66667 -14,11.33333 -14,20 z"
       style="fill:#000000;fill-opacity:1;fill-rule:nonzero;stroke:none"
       transform="matrix(0.0086962,0,0,-0.00885184,48.687322,68.434986)"
       clip-path="url(#clipPath110)" />
    <path
       id="path111"
       d="m 213,578 -13,-5 c -9.33333,-3.33331 -22.66667,-6.66669 -40,-10 -17.33333,-3.33331 -36.66666,-5.66669 -58,-7 H 83 v 46 h 19 c 31.33333,1.33331 60.33333,6.33331 87,15 26.66667,8.66669 45.33333,16.66669 56,24 10.66667,7.33331 20,14.66669 28,22 1.33334,2 5.33334,3 12,3 6,0 11.66666,-2 17,-6 V 361 l 1,-300 c 4.66666,-4.666668 8.66666,-7.666668 12,-9 3.33334,-1.333332 11.33334,-2.666668 24,-4 12.66666,-1.333332 33.33334,-2 62,-2 h 26 V 0 H 416 C 402,2 349,3 257,3 166.33333,3 114,2 100,0 H 88 v 46 h 26 c 14.66667,0 27.33333,0 38,0 10.66667,0 19,0.333332 25,1 6,0.666668 11.33333,1.666668 16,3 4.66667,1.333332 7.33333,2 8,2 0.66667,0 2.66667,1.666668 6,5 3.33333,3.333332 5.33333,4.666668 6,4 z"
       style="fill:#000000;fill-opacity:1;fill-rule:nonzero;stroke:none"
       transform="matrix(0.0086962,0,0,-0.00885184,55.452961,68.434986)"
       clip-path="url(#clipPath112)" />
    <path
       id="path113"
       d="m 56,347 c 0,8.66666 4.666664,15.33334 14,20 h 637 c 10,-5.33334 15,-12 15,-20 0,-7.33334 -4.66669,-13.66666 -14,-19 L 390,327 H 72 c -10.666668,3.33334 -16,10 -16,20 z m 0,-194 c 0,10 5.333332,16.66667 16,20 h 636 c 9.33331,-6.66667 14,-13.33333 14,-20 0,-8.66667 -5,-15.33333 -15,-20 H 70 c -9.333336,4.66667 -14,11.33333 -14,20 z"
       style="fill:#000000;fill-opacity:1;fill-rule:nonzero;stroke:none"
       transform="matrix(0.01739765,0,0,-0.01770904,70.937859,60.941409)"
       clip-path="url(#clipPath114)" />
  </g>
</svg>
