<?xml version="1.0" encoding="UTF-8" standalone="no"?>
<!-- Created with Inkscape (http://www.inkscape.org/) -->

<svg
   version="1.1"
   id="svg1"
   width="259.84"
   height="72"
   viewBox="0 0 259.84 72"
   xmlns="http://www.w3.org/2000/svg"
   xmlns:svg="http://www.w3.org/2000/svg">
  <defs
     id="defs1">
    <clipPath
       clipPathUnits="userSpaceOnUse"
       id="clipPath2">
      <path
         d="M 0,0 H 812.98828 V 225 H 0 Z"
         transform="matrix(0.33360605,0,0,0.33360605,439.47253,229.49998)"
         clip-rule="evenodd"
         id="path2" />
    </clipPath>
    <clipPath
       clipPathUnits="userSpaceOnUse"
       id="clipPath4">
      <path
         d="M 0,0 H 812.98828 V 225 H 0 Z"
         transform="matrix(0.33360605,0,0,0.33360605,439.47253,229.49998)"
         clip-rule="evenodd"
         id="path4" />
    </clipPath>
    <clipPath
       clipPathUnits="userSpaceOnUse"
       id="clipPath6">
      <path
         d="M 0,0 H 812.98828 V 225 H 0 Z"
         transform="matrix(0.33360605,0,0,0.33360605,439.47253,229.49998)"
         clip-rule="evenodd"
         id="path6" />
    </clipPath>
    <clipPath
       clipPathUnits="userSpaceOnUse"
       id="clipPath8">
      <path
         d="M 0,0 H 812.98828 V 225 H 0 Z"
         transform="matrix(0.33360605,0,0,0.33360605,439.47253,229.49998)"
         clip-rule="evenodd"
         id="path8" />
    </clipPath>
    <clipPath
       clipPathUnits="userSpaceOnUse"
       id="clipPath10">
      <path
         d="M 0,0 H 812.98828 V 225 H 0 Z"
         transform="matrix(0.33360605,0,0,0.33360605,439.47253,229.49998)"
         clip-rule="evenodd"
         id="path10" />
    </clipPath>
    <clipPath
       clipPathUnits="userSpaceOnUse"
       id="clipPath12">
      <path
         d="M 0,0 H 812.98828 V 225 H 0 Z"
         transform="matrix(0.33360605,0,0,0.33360605,439.47253,229.49998)"
         clip-rule="evenodd"
         id="path12" />
    </clipPath>
    <clipPath
       clipPathUnits="userSpaceOnUse"
       id="clipPath14">
      <path
         d="M 0,0 H 812.98828 V 225 H 0 Z"
         transform="matrix(0.33360605,0,0,0.33360605,439.47253,229.49998)"
         clip-rule="evenodd"
         id="path14" />
    </clipPath>
    <clipPath
       clipPathUnits="userSpaceOnUse"
       id="clipPath16">
      <path
         d="M 0,0 H 812.98828 V 225 H 0 Z"
         transform="matrix(0.33360605,0,0,0.33360605,439.47253,229.49998)"
         clip-rule="evenodd"
         id="path16" />
    </clipPath>
    <clipPath
       clipPathUnits="userSpaceOnUse"
       id="clipPath18">
      <path
         d="M 0,0 H 812.98828 V 225 H 0 Z"
         transform="matrix(0.33360605,0,0,0.33360605,439.47253,229.49998)"
         clip-rule="evenodd"
         id="path18" />
    </clipPath>
    <clipPath
       clipPathUnits="userSpaceOnUse"
       id="clipPath20">
      <path
         d="M 0,0 H 812.98828 V 225 H 0 Z"
         transform="matrix(0.33360605,0,0,0.33360605,439.97258,230.00001)"
         clip-rule="evenodd"
         id="path20" />
    </clipPath>
    <clipPath
       clipPathUnits="userSpaceOnUse"
       id="clipPath22">
      <path
         d="M 274.35779,0 H 325.3161 V 32.973022 H 274.35779 Z"
         transform="matrix(18.957985,0,0,-18.396862,-5201.5041,441.00011)"
         clip-rule="evenodd"
         id="path22" />
    </clipPath>
    <clipPath
       clipPathUnits="userSpaceOnUse"
       id="clipPath24">
      <path
         d="M 274.35779,0 H 325.3161 V 32.973022 H 274.35779 Z"
         transform="matrix(26.814683,0,0,-26.021019,-8152.0555,835.92657)"
         clip-rule="evenodd"
         id="path24" />
    </clipPath>
    <clipPath
       clipPathUnits="userSpaceOnUse"
       id="clipPath26">
      <path
         d="m 452.71191,0 h 50.95825 v 32.973022 h -50.95825 z"
         transform="matrix(18.956503,0,0,-17.923746,-8582.0304,441.00006)"
         clip-rule="evenodd"
         id="path26" />
    </clipPath>
    <clipPath
       clipPathUnits="userSpaceOnUse"
       id="clipPath28">
      <path
         d="m 452.71191,0 h 50.95825 v 32.973022 h -50.95825 z"
         transform="matrix(26.812593,0,0,-25.351835,-12933.565,835.92664)"
         clip-rule="evenodd"
         id="path28" />
    </clipPath>
    <clipPath
       clipPathUnits="userSpaceOnUse"
       id="clipPath30">
      <path
         d="m 716.49609,0 h 62.94849 v 32.973022 h -62.94849 z"
         transform="matrix(18.379195,0,0,-17.923746,-13135.685,441.00006)"
         clip-rule="evenodd"
         id="path30" />
    </clipPath>
    <clipPath
       clipPathUnits="userSpaceOnUse"
       id="clipPath32">
      <path
         d="m 716.49609,0 h 62.94849 v 32.973022 h -62.94849 z"
         transform="matrix(25.996033,0,0,-25.351835,-19374.378,835.92664)"
         clip-rule="evenodd"
         id="path32" />
    </clipPath>
    <clipPath
       clipPathUnits="userSpaceOnUse"
       id="clipPath34">
      <path
         d="m 269.86145,133.39087 h 59.95096 v 47.96075 h -59.95096 z"
         transform="matrix(18.150281,0,0,-18.744493,-4898.325,3194.3443)"
         clip-rule="evenodd"
         id="path34" />
    </clipPath>
    <clipPath
       clipPathUnits="userSpaceOnUse"
       id="clipPath36">
      <path
         d="m 269.86145,133.39087 h 59.95096 v 47.96075 h -59.95096 z"
         transform="matrix(25.672251,0,0,-26.512715,-7895.7919,4730.3305)"
         clip-rule="evenodd"
         id="path36" />
    </clipPath>
    <clipPath
       clipPathUnits="userSpaceOnUse"
       id="clipPath38">
      <path
         d="m 448.21558,133.39087 h 59.95096 v 47.96075 h -59.95096 z"
         transform="matrix(18.150281,0,0,-18.744493,-8135.5026,3194.3443)"
         clip-rule="evenodd"
         id="path38" />
    </clipPath>
    <clipPath
       clipPathUnits="userSpaceOnUse"
       id="clipPath40">
      <path
         d="m 448.21558,133.39087 h 59.95096 v 47.96075 h -59.95096 z"
         transform="matrix(25.672251,0,0,-26.512715,-12474.544,4730.3305)"
         clip-rule="evenodd"
         id="path40" />
    </clipPath>
    <clipPath
       clipPathUnits="userSpaceOnUse"
       id="clipPath42">
      <path
         d="m 713.49854,133.39087 h 68.9436 v 47.96075 h -68.9436 z"
         transform="matrix(18.726481,0,0,-18.744493,-13340.444,3194.3443)"
         clip-rule="evenodd"
         id="path42" />
    </clipPath>
    <clipPath
       clipPathUnits="userSpaceOnUse"
       id="clipPath44">
      <path
         d="m 713.49854,133.39087 h 68.9436 v 47.96075 h -68.9436 z"
         transform="matrix(26.487237,0,0,-26.512715,-19836.549,4730.3305)"
         clip-rule="evenodd"
         id="path44" />
    </clipPath>
    <clipPath
       clipPathUnits="userSpaceOnUse"
       id="clipPath46">
      <path
         d="M 0.08215332,133.39087 H 209.91049 v 50.95831 H 0.08215332 Z"
         transform="matrix(18.405518,0,0,-18.247945,19.487922,3158.9451)"
         clip-rule="evenodd"
         id="path46" />
    </clipPath>
    <clipPath
       clipPathUnits="userSpaceOnUse"
       id="clipPath48">
      <path
         d="M 0.08215332,133.39087 H 209.91049 v 50.95831 H 0.08215332 Z"
         transform="matrix(26.033276,0,0,-25.810385,-939.90421,3883.9387)"
         clip-rule="evenodd"
         id="path48" />
    </clipPath>
    <clipPath
       clipPathUnits="userSpaceOnUse"
       id="clipPath50">
      <path
         d="M 0.08215332,133.39087 H 209.91049 v 50.95831 H 0.08215332 Z"
         transform="matrix(36.822154,0,0,-36.506925,-2124.3331,5705.7144)"
         clip-rule="evenodd"
         id="path50" />
    </clipPath>
    <clipPath
       clipPathUnits="userSpaceOnUse"
       id="clipPath52">
      <path
         d="M 0.08215332,133.39087 H 209.91049 v 50.95831 H 0.08215332 Z"
         transform="matrix(26.033276,0,0,-25.810385,-1905.5044,3883.9387)"
         clip-rule="evenodd"
         id="path52" />
    </clipPath>
    <clipPath
       clipPathUnits="userSpaceOnUse"
       id="clipPath54">
      <path
         d="M 0.08215332,133.39087 H 209.91049 v 50.95831 H 0.08215332 Z"
         transform="matrix(26.033276,0,0,-25.810385,-2183.5047,3883.9387)"
         clip-rule="evenodd"
         id="path54" />
    </clipPath>
    <clipPath
       clipPathUnits="userSpaceOnUse"
       id="clipPath56">
      <path
         d="M 0.08215332,133.39087 H 209.91049 v 50.95831 H 0.08215332 Z"
         transform="matrix(26.033276,0,0,-25.810385,-2461.5047,3883.9387)"
         clip-rule="evenodd"
         id="path56" />
    </clipPath>
    <clipPath
       clipPathUnits="userSpaceOnUse"
       id="clipPath58">
      <path
         d="M 0.08215332,133.39087 H 209.91049 v 50.95831 H 0.08215332 Z"
         transform="matrix(26.033276,0,0,-25.810385,-2739.5046,3883.9387)"
         clip-rule="evenodd"
         id="path58" />
    </clipPath>
    <clipPath
       clipPathUnits="userSpaceOnUse"
       id="clipPath60">
      <path
         d="M 0.08215332,133.39087 H 209.91049 v 50.95831 H 0.08215332 Z"
         transform="matrix(36.822154,0,0,-36.506925,-4669.7359,5705.7144)"
         clip-rule="evenodd"
         id="path60" />
    </clipPath>
    <clipPath
       clipPathUnits="userSpaceOnUse"
       id="clipPath62">
      <path
         d="M 0.08215332,133.39087 H 209.91049 v 50.95831 H 0.08215332 Z"
         transform="matrix(18.405518,0,0,-18.247945,-3141.5116,3158.9451)"
         clip-rule="evenodd"
         id="path62" />
    </clipPath>
  </defs>
  <g
     id="g1">
    <path
       id="path1"
       d="m 560,283 h 20"
       style="fill:none;stroke:#000000;stroke-width:1;stroke-linecap:butt;stroke-linejoin:miter;stroke-miterlimit:10;stroke-dasharray:none;stroke-opacity:1"
       transform="matrix(0.95921519,0,0,0.95921519,-421.54873,-220.13987)"
       clip-path="url(#clipPath2)" />
    <path
       id="path3"
       d="M 540,263 V 243"
       style="fill:none;stroke:#000000;stroke-width:1;stroke-linecap:butt;stroke-linejoin:miter;stroke-miterlimit:10;stroke-dasharray:none;stroke-opacity:1"
       transform="matrix(0.95921519,0,0,0.95921519,-421.54873,-220.13987)"
       clip-path="url(#clipPath4)" />
    <path
       id="path5"
       d="m 560,283 c 0,1.3132 -0.12811,2.6138 -0.38434,3.90179 -0.25616,1.288 -0.63556,2.53861 -1.13812,3.75184 -0.50256,1.21328 -1.11865,2.36584 -1.84821,3.45773 -0.72955,1.09192 -1.55865,2.10217 -2.48724,3.03076 -0.92865,0.92859 -1.9389,1.75766 -3.03076,2.48724 -1.09192,0.72959 -2.24451,1.34565 -3.45777,1.84818 -1.21319,0.50253 -2.4638,0.88193 -3.75183,1.13812 -1.2879,0.2562 -2.5885,0.38431 -3.90173,0.38434 -1.31323,-3e-5 -2.61389,-0.12814 -3.90192,-0.38434 -1.28802,-0.25619 -2.53863,-0.63559 -3.75183,-1.13812 -1.21325,-0.50253 -2.36584,-1.11859 -3.4577,-1.84818 -1.09192,-0.72958 -2.10217,-1.55865 -3.0307,-2.48724 -0.92865,-0.92859 -1.75775,-1.93884 -2.48731,-3.03073 -0.72955,-1.09189 -1.34564,-2.24448 -1.84814,-3.45776 -0.50256,-1.21323 -0.88196,-2.46384 -1.13812,-3.75184 C 520.12805,285.6138 519.99994,284.3132 520,283 c -6e-5,-1.31323 0.12805,-2.61386 0.38428,-3.90186 0.25616,-1.28796 0.63556,-2.53857 1.13812,-3.75183 0.5025,-1.21325 1.11859,-2.36584 1.84814,-3.45776 0.72956,-1.09189 1.55866,-2.10211 2.48731,-3.0307 0.92853,-0.92859 1.93878,-1.75769 3.0307,-2.48728 1.09186,-0.72958 2.24445,-1.34567 3.4577,-1.8482 1.2132,-0.50253 2.46381,-0.8819 3.75183,-1.13809 C 537.38611,263.12808 538.68677,263 540,263 c 1.31323,0 2.61383,0.12811 3.90173,0.38431 1.28803,0.25619 2.53864,0.63556 3.75183,1.13809 1.21326,0.50253 2.36585,1.11859 3.45777,1.84817 1.09186,0.72959 2.10211,1.55869 3.03076,2.48728 0.92859,0.92859 1.75769,1.93881 2.48724,3.0307 0.72956,1.09192 1.34565,2.24451 1.84821,3.45776 0.50256,1.21326 0.88196,2.46387 1.13812,3.75183 C 559.87189,280.38614 560,281.68677 560,283 Z"
       style="fill:#ffffff;fill-opacity:1;fill-rule:nonzero;stroke:#000000;stroke-width:1;stroke-linecap:butt;stroke-linejoin:miter;stroke-miterlimit:10;stroke-dasharray:none;stroke-opacity:1"
       transform="matrix(0.95921519,0,0,0.95921519,-421.54873,-220.13987)"
       clip-path="url(#clipPath6)" />
    <path
       id="path7"
       d="M 600,263 V 243"
       style="fill:none;stroke:#000000;stroke-width:1;stroke-linecap:butt;stroke-linejoin:miter;stroke-miterlimit:10;stroke-dasharray:none;stroke-opacity:1"
       transform="matrix(0.95921519,0,0,0.95921519,-421.54873,-220.13987)"
       clip-path="url(#clipPath8)" />
    <path
       id="path9"
       d="m 620,283 h 10"
       style="fill:none;stroke:#000000;stroke-width:1;stroke-linecap:butt;stroke-linejoin:miter;stroke-miterlimit:10;stroke-dasharray:none;stroke-opacity:1"
       transform="matrix(0.95921519,0,0,0.95921519,-421.54873,-220.13987)"
       clip-path="url(#clipPath10)" />
    <path
       id="path11"
       d="m 620,283 c 0,1.3132 -0.12811,2.6138 -0.38428,3.90179 -0.25622,1.288 -0.63562,2.53861 -1.13812,3.75184 -0.50256,1.21328 -1.11865,2.36584 -1.84821,3.45773 -0.72961,1.09192 -1.55871,2.10217 -2.48724,3.03076 -0.92865,0.92859 -1.9389,1.75766 -3.03082,2.48724 -1.09192,0.72959 -2.24451,1.34565 -3.4577,1.84818 -1.21326,0.50253 -2.46387,0.88193 -3.75184,1.13812 -1.28796,0.2562 -2.58856,0.38431 -3.90179,0.38434 -1.31323,-3e-5 -2.61383,-0.12814 -3.90186,-0.38434 -1.28802,-0.25619 -2.53863,-0.63559 -3.75189,-1.13812 -1.21325,-0.50253 -2.36584,-1.11859 -3.4577,-1.84818 -1.09192,-0.72958 -2.10217,-1.55865 -3.0307,-2.48724 -0.92853,-0.92859 -1.75763,-1.93884 -2.48724,-3.03073 -0.72962,-1.09189 -1.34571,-2.24448 -1.84827,-3.45776 -0.50256,-1.21323 -0.88196,-2.46384 -1.13812,-3.75184 C 580.12805,285.6138 580,284.3132 580,283 c 0,-1.31323 0.12805,-2.61386 0.38422,-3.90186 0.25616,-1.28796 0.63556,-2.53857 1.13812,-3.75183 0.50256,-1.21325 1.11865,-2.36584 1.8482,-3.45776 0.72968,-1.09189 1.55878,-2.10211 2.48731,-3.0307 0.92853,-0.92859 1.93878,-1.75769 3.03064,-2.48728 1.09192,-0.72958 2.24451,-1.34567 3.45776,-1.8482 1.21326,-0.50253 2.46387,-0.8819 3.75189,-1.13809 C 597.38617,263.12808 598.68677,263 600,263 c 1.31323,0 2.61383,0.12811 3.90179,0.38431 1.28797,0.25619 2.53858,0.63556 3.75184,1.13809 1.21319,0.50253 2.36578,1.11859 3.4577,1.84817 1.09192,0.72959 2.10217,1.55869 3.03082,2.48728 0.92853,0.92859 1.75763,1.93881 2.48724,3.0307 0.72956,1.09192 1.34565,2.24451 1.84821,3.45776 0.5025,1.21326 0.8819,2.46387 1.13812,3.75183 C 619.87189,280.38614 620,281.68677 620,283 Z"
       style="fill:#ffffff;fill-opacity:1;fill-rule:nonzero;stroke:#000000;stroke-width:1;stroke-linecap:butt;stroke-linejoin:miter;stroke-miterlimit:10;stroke-dasharray:none;stroke-opacity:1"
       transform="matrix(0.95921519,0,0,0.95921519,-421.54873,-220.13987)"
       clip-path="url(#clipPath12)" />
    <path
       id="path13"
       d="M 670,282.5 H 660"
       style="fill:none;stroke:#000000;stroke-width:1;stroke-linecap:butt;stroke-linejoin:miter;stroke-miterlimit:10;stroke-dasharray:none;stroke-opacity:1"
       transform="matrix(0.95921519,0,0,0.95921519,-421.54873,-220.13987)"
       clip-path="url(#clipPath14)" />
    <path
       id="path15"
       d="m 689.5,263 0.16998,-20"
       style="fill:none;stroke:#000000;stroke-width:1;stroke-linecap:butt;stroke-linejoin:miter;stroke-miterlimit:10;stroke-dasharray:none;stroke-opacity:1"
       transform="matrix(0.95921519,0,0,0.95921519,-421.54873,-220.13987)"
       clip-path="url(#clipPath16)" />
    <path
       id="path17"
       d="m 709,282.5 c -6e-5,1.28036 -0.12494,2.54843 -0.37476,3.8042 -0.24981,1.2558 -0.61975,2.47516 -1.10968,3.65808 -0.48999,1.18292 -1.09063,2.3067 -1.802,3.37131 -0.71136,1.0646 -1.51971,2.04959 -2.42505,2.95498 -0.90533,0.90537 -1.89038,1.71372 -2.95501,2.42505 -1.06458,0.71134 -2.18836,1.31201 -3.37128,1.80201 -1.18292,0.48999 -2.40228,0.85989 -3.65802,1.10968 C 692.0484,301.87509 690.78033,302 689.5,302 c -1.28046,0 -2.54858,-0.12491 -3.80438,-0.37469 -1.2558,-0.24979 -2.47516,-0.61969 -3.65808,-1.10968 -1.18293,-0.49 -2.30664,-1.09067 -3.37122,-1.80201 -1.06464,-0.71133 -2.04962,-1.51968 -2.95496,-2.42505 -0.90539,-0.90539 -1.71374,-1.89038 -2.42511,-2.95498 -0.71136,-1.06461 -1.31201,-2.18839 -1.802,-3.37131 -0.48999,-1.18292 -0.85986,-2.40228 -1.10968,-3.65808 -0.24975,-1.25577 -0.37463,-2.52384 -0.37457,-3.8042 -6e-5,-1.2804 0.12482,-2.54849 0.37457,-3.80429 0.24982,-1.25577 0.61969,-2.47513 1.10968,-3.65805 0.48999,-1.18295 1.09064,-2.30673 1.802,-3.37134 0.71137,-1.0646 1.51972,-2.04956 2.42511,-2.95492 0.90534,-0.90537 1.89032,-1.71375 2.95496,-2.42508 1.06458,-0.71134 2.18829,-1.31202 3.37122,-1.80201 1.18292,-0.48996 2.40228,-0.85983 3.65808,-1.10962 C 686.95142,263.12491 688.21954,263 689.5,263 c 1.28033,0 2.5484,0.12491 3.8042,0.37469 1.25574,0.24979 2.4751,0.61969 3.65802,1.10965 1.18292,0.48999 2.3067,1.09064 3.37134,1.80198 1.06463,0.71133 2.04962,1.51971 2.95495,2.42508 0.90534,0.90536 1.71369,1.89032 2.42505,2.95492 0.71137,1.06461 1.31201,2.18839 1.802,3.37134 0.48993,1.18292 0.85981,2.40228 1.10962,3.65805 0.24982,1.2558 0.37476,2.52389 0.37482,3.80429 z"
       style="fill:#ffffff;fill-opacity:1;fill-rule:nonzero;stroke:#000000;stroke-width:1;stroke-linecap:butt;stroke-linejoin:miter;stroke-miterlimit:10;stroke-dasharray:none;stroke-opacity:1"
       transform="matrix(0.95921519,0,0,0.95921519,-421.54873,-220.13987)"
       clip-path="url(#clipPath18)" />
    <path
       id="path19"
       d="m 636,281.82999 h 2 v 2 h -2 m 8,-2 h 2 v 2 h -2 m 8,-2 h 2 v 2 h -2"
       style="fill:#000000;fill-opacity:1;fill-rule:nonzero;stroke:none"
       transform="matrix(0.95921519,0,0,0.95921519,-422.02838,-220.6195)"
       clip-path="url(#clipPath20)" />
    <path
       id="path21"
       d="m 33,157 c 0,67.33334 25.333332,131.33334 76,192 50.66667,60.66666 107.66666,91.33334 171,92 34,0 64,-16.33334 90,-49 10.66666,20 26,30 46,30 8.66666,0 16.33334,-2.66666 23,-8 6.66666,-5.33334 10,-12 10,-20 0,-8.66666 -12.33334,-62 -37,-160 -24.66666,-98 -37.33334,-153.333336 -38,-166 0,-16.666668 2.33334,-27.666668 7,-33 4.66666,-5.333334 11.66666,-8.333334 21,-9 6,0.666666 12.66666,3.666666 20,9 14,13.333336 27.66666,45.333328 41,96 4,13.33333 7.33334,20.33333 10,21 1.33334,0.66667 4.66666,1 10,1 h 4 c 12.66666,0 19,-3 19,-9 0,-4 -1.66666,-13 -5,-27 C 497.66666,103 491,85 481,63 471,41 460.33334,24.333334 449,13 440.33334,4.333333 429.66666,-2.6666665 417,-8 c -5.33334,-1.333333 -13.33334,-2 -24,-2 -22.66666,0 -41.66666,5 -57,15 -15.33334,10 -25.33334,20.333332 -30,31 l -6,15 c -0.66666,0.666668 -2,0.333332 -4,-1 -1.33334,-1.333332 -2.66666,-2.666668 -4,-4 C 252.66666,8.6666641 212.66667,-10 172,-10 135.33333,-10 103,3.3333321 75,30 47,56.666668 33,99 33,157 Z m 318,171 c 0,4 -1.66666,11.33334 -5,22 -3.33334,10.66666 -11,22.33334 -23,35 -12,12.66666 -27.33334,19.33334 -46,20 -23.33333,0 -45.66667,-10.33334 -67,-31 -21.33333,-20.66666 -38,-47.66666 -50,-81 -19.33333,-52.66667 -33,-107.33333 -41,-164 0,-2 0,-5.66666 0,-11 0,-5.33334 -0.33334,-9.33334 -1,-12 0,-30 6,-50.666664 18,-62 12,-11.333336 26.33333,-17.333334 43,-18 25.33333,0 50.33333,11 75,33 24.66666,22 39.33334,39 44,51 1.33334,2.66666 10.33334,38.33333 27,107 16.66666,68.66669 25.33334,105.66666 26,111 z"
       style="fill:#000000;fill-opacity:1;fill-rule:nonzero;stroke:none"
       transform="matrix(0.01687943,0,0,-0.01739427,87.798425,7.6708749)"
       clip-path="url(#clipPath22)" />
    <path
       id="path23"
       d="m 96,585 c 37.33334,54 88.33333,81 153,81 32,0 64,-8.66669 96,-26 32,-17.33331 58,-48 78,-92 24.66666,-55.33334 37,-131.33331 37,-228 C 460,216.66666 445.66666,137.66667 417,83 403.66666,55 385.33334,32.666668 362,16 338.66666,-0.66666794 318.33334,-11 301,-15 c -17.33334,-4 -34.33334,-6.333334 -51,-7 -17.33333,0 -34.66667,2 -52,6 -17.33333,4 -37.66667,14.666666 -61,32 C 113.66666,33.333336 95.333336,55.666664 82,83 53.333332,137.66667 39,216.66666 39,320 39,436 58,524.33331 96,585 Z m 225,12 c -20,21.33331 -43.66666,32 -71,32 -28,0 -52,-10.66669 -72,-32 -16.66667,-17.33331 -27.66667,-41.33331 -33,-72 -5.33333,-30.66666 -8,-94.66666 -8,-192 0,-105.33334 2.66667,-174.66666 8,-208 5.33333,-33.333336 17.33333,-59.666664 36,-79 18.66667,-20 41.66667,-30 69,-30 26.66666,0 49.33334,10 68,30 19.33334,20 31.33334,48 36,84 4.66666,36 7.33334,103.66666 8,203 0,96.66669 -2.66666,160.33334 -8,191 -5.33334,30.66669 -16.33334,55 -33,73 z"
       style="fill:#000000;fill-opacity:1;fill-rule:nonzero;stroke:none"
       transform="matrix(0.01193376,0,0,-0.01229775,97.284674,10.280016)"
       clip-path="url(#clipPath24)" />
    <path
       id="path25"
       d="m 33,157 c 0,67.33334 25.333332,131.33334 76,192 50.66667,60.66666 107.66666,91.33334 171,92 34,0 64,-16.33334 90,-49 10.66666,20 26,30 46,30 8.66666,0 16.33334,-2.66666 23,-8 6.66666,-5.33334 10,-12 10,-20 0,-8.66666 -12.33334,-62 -37,-160 -24.66666,-98 -37.33334,-153.333336 -38,-166 0,-16.666668 2.33334,-27.666668 7,-33 4.66666,-5.333334 11.66666,-8.333334 21,-9 6,0.666666 12.66666,3.666666 20,9 14,13.333336 27.66666,45.333328 41,96 4,13.33333 7.33334,20.33333 10,21 1.33334,0.66667 4.66666,1 10,1 h 4 c 12.66666,0 19,-3 19,-9 0,-4 -1.66666,-13 -5,-27 C 497.66666,103 491,85 481,63 471,41 460.33334,24.333334 449,13 440.33334,4.333333 429.66666,-2.6666665 417,-8 c -5.33334,-1.333333 -13.33334,-2 -24,-2 -22.66666,0 -41.66666,5 -57,15 -15.33334,10 -25.33334,20.333332 -30,31 l -6,15 c -0.66666,0.666668 -2,0.333332 -4,-1 -1.33334,-1.333332 -2.66666,-2.666668 -4,-4 C 252.66666,8.6666641 212.66667,-10 172,-10 135.33333,-10 103,3.3333321 75,30 47,56.666668 33,99 33,157 Z m 318,171 c 0,4 -1.66666,11.33334 -5,22 -3.33334,10.66666 -11,22.33334 -23,35 -12,12.66666 -27.33334,19.33334 -46,20 -23.33333,0 -45.66667,-10.33334 -67,-31 -21.33333,-20.66666 -38,-47.66666 -50,-81 -19.33333,-52.66667 -33,-107.33333 -41,-164 0,-2 0,-5.66666 0,-11 0,-5.33334 -0.33334,-9.33334 -1,-12 0,-30 6,-50.666664 18,-62 12,-11.333336 26.33333,-17.333334 43,-18 25.33333,0 50.33333,11 75,33 24.66666,22 39.33334,39 44,51 1.33334,2.66666 10.33334,38.33333 27,107 16.66666,68.66669 25.33334,105.66666 26,111 z"
       style="fill:#000000;fill-opacity:1;fill-rule:nonzero;stroke:none"
       transform="matrix(0.01688075,0,0,-0.01785341,144.87111,7.8733549)"
       clip-path="url(#clipPath26)" />
    <path
       id="path27"
       d="m 213,578 -13,-5 c -9.33333,-3.33331 -22.66667,-6.66669 -40,-10 -17.33333,-3.33331 -36.66666,-5.66669 -58,-7 H 83 v 46 h 19 c 31.33333,1.33331 60.33333,6.33331 87,15 26.66667,8.66669 45.33333,16.66669 56,24 10.66667,7.33331 20,14.66669 28,22 1.33334,2 5.33334,3 12,3 6,0 11.66666,-2 17,-6 V 361 l 1,-300 c 4.66666,-4.666668 8.66666,-7.666668 12,-9 3.33334,-1.333332 11.33334,-2.666668 24,-4 12.66666,-1.333332 33.33334,-2 62,-2 h 26 V 0 H 416 C 402,2 349,3 257,3 166.33333,3 114,2 100,0 H 88 v 46 h 26 c 14.66667,0 27.33333,0 38,0 10.66667,0 19,0.333332 25,1 6,0.666668 11.33333,1.666668 16,3 4.66667,1.333332 7.33333,2 8,2 0.66667,0 2.66667,1.666668 6,5 3.33333,3.333332 5.33333,4.666668 6,4 z"
       style="fill:#000000;fill-opacity:1;fill-rule:nonzero;stroke:none"
       transform="matrix(0.01193469,0,0,-0.01262236,154.35809,10.551367)"
       clip-path="url(#clipPath28)" />
    <path
       id="path29"
       d="m 33,157 c 0,67.33334 25.333332,131.33334 76,192 50.66667,60.66666 107.66666,91.33334 171,92 34,0 64,-16.33334 90,-49 10.66666,20 26,30 46,30 8.66666,0 16.33334,-2.66666 23,-8 6.66666,-5.33334 10,-12 10,-20 0,-8.66666 -12.33334,-62 -37,-160 -24.66666,-98 -37.33334,-153.333336 -38,-166 0,-16.666668 2.33334,-27.666668 7,-33 4.66666,-5.333334 11.66666,-8.333334 21,-9 6,0.666666 12.66666,3.666666 20,9 14,13.333336 27.66666,45.333328 41,96 4,13.33333 7.33334,20.33333 10,21 1.33334,0.66667 4.66666,1 10,1 h 4 c 12.66666,0 19,-3 19,-9 0,-4 -1.66666,-13 -5,-27 C 497.66666,103 491,85 481,63 471,41 460.33334,24.333334 449,13 440.33334,4.333333 429.66666,-2.6666665 417,-8 c -5.33334,-1.333333 -13.33334,-2 -24,-2 -22.66666,0 -41.66666,5 -57,15 -15.33334,10 -25.33334,20.333332 -30,31 l -6,15 c -0.66666,0.666668 -2,0.333332 -4,-1 -1.33334,-1.333332 -2.66666,-2.666668 -4,-4 C 252.66666,8.6666641 212.66667,-10 172,-10 135.33333,-10 103,3.3333321 75,30 47,56.666668 33,99 33,157 Z m 318,171 c 0,4 -1.66666,11.33334 -5,22 -3.33334,10.66666 -11,22.33334 -23,35 -12,12.66666 -27.33334,19.33334 -46,20 -23.33333,0 -45.66667,-10.33334 -67,-31 -21.33333,-20.66666 -38,-47.66666 -50,-81 -19.33333,-52.66667 -33,-107.33333 -41,-164 0,-2 0,-5.66666 0,-11 0,-5.33334 -0.33334,-9.33334 -1,-12 0,-30 6,-50.666664 18,-62 12,-11.333336 26.33333,-17.333334 43,-18 25.33333,0 50.33333,11 75,33 24.66666,22 39.33334,39 44,51 1.33334,2.66666 10.33334,38.33333 27,107 16.66666,68.66669 25.33334,105.66666 26,111 z"
       style="fill:#000000;fill-opacity:1;fill-rule:nonzero;stroke:none"
       transform="matrix(0.01741099,0,0,-0.01785341,228.70528,7.8733549)"
       clip-path="url(#clipPath30)" />
    <path
       id="path31"
       d="m 234,637 c -2,0 -4.66667,0 -8,0 -16.66667,0 -26.66667,0.33331 -30,1 -3.33333,0.66669 -5,4.33331 -5,11 0,18 3.66667,29 11,33 1.33333,0.66669 33.66666,1 97,1 51.33334,0 80.66666,0 88,0 7.33334,0 12,-2 14,-6 C 541.66669,346.33331 613.33331,176.66667 616,168 l 54,213 c 35.33331,140.66669 53,215.66669 53,225 0,18 -21.33331,28.33331 -64,31 -16,0 -24,3.66669 -24,11 0,1.33331 0.66669,5.33331 2,12 2.66669,10.66669 4.66669,17 6,19 1.33331,2 4.66669,3.33331 10,4 2,0 12.33331,-0.33331 31,-1 18.66669,-0.66669 46.33331,-1.33331 83,-2 33.33331,0 58.66669,0.33331 76,1 17.33331,0.66669 27.33331,1 30,1 10,0 15,-3.33331 15,-10 0,-14.66669 -2.66669,-24.66669 -8,-30 -1.33331,-3.33331 -8.66669,-5 -22,-5 -47.33331,-2.66669 -77,-16 -89,-40 L 620,7 C 618.66669,2.333333 611.66669,0 599,0 589.66669,0 584,0.66666663 582,2 580,4 537,105 453,305 L 326,604 261,344 C 217.66666,173.33333 196,85 196,79 199.33333,57 223.33333,46 268,46 h 10 c 4,-3.333332 6,-6 6,-8 0,-2 -0.66666,-8.333332 -2,-19 C 279.33334,10.333333 276,4 272,0 H 259 C 238.33333,1.3333334 202.33334,2 151,2 132.33333,2 115.33334,2 100,2 84.666664,2 72.333336,2 63,2 53.666664,2 48,1.6666667 46,1 36,1 31,4 31,10 c 0,2.666667 1,8 3,16 2,8 3.666668,12.666668 5,14 1.333332,4 9,6 23,6 45.33334,2 74.66667,15 88,39 2.66667,4 26.33333,96.33333 71,277 l 68,272 c -1.33334,0.66669 -19.66666,1.66669 -55,3 z"
       style="fill:#000000;fill-opacity:1;fill-rule:nonzero;stroke:none"
       transform="matrix(0.01230957,0,0,-0.01262236,238.49026,10.551367)"
       clip-path="url(#clipPath32)" />
    <path
       id="path33"
       d="m 161,441 c 27.33333,0 49,-8 65,-24 16,-16 24,-35.66666 24,-59 0,-13.33334 -10.66667,-48.66666 -32,-106 -21.33333,-57.33334 -31.66667,-99 -31,-125 2,-28 11,-50 27,-66 14,-12 28.33333,-20 43,-24 12,-5.333334 22.33334,-8 31,-8 h 1 l 82,331 c 56,220.66669 84.33334,331.33331 85,332 2,1.33331 7.33334,2 16,2 13.33334,0 20,-2.33331 20,-7 0,-6 -27,-116.33331 -81,-331 C 356.33334,137.33333 329,27.666666 329,27 c 0,-0.666666 2,-1 6,-1 57.33334,0 111.66666,29.333332 163,88 51.33331,58.66667 77.33331,113.33333 78,164 0,16 -2.66669,29.66666 -8,41 -5.33331,11.33334 -11.33331,19.33334 -18,24 -6.66669,4.66666 -12.66669,10.66666 -18,18 -5.33331,7.33334 -8,15 -8,23 0,14 5.66669,27.33334 17,40 11.33331,12.66666 25.33331,19 42,19 12.66669,0 24.33331,-6 35,-18 10.66669,-12 16,-31.66666 16,-59 0,-19.33334 -3.66669,-45.33334 -11,-78 -7.33331,-32.66667 -13.33331,-55.33333 -18,-68 C 583.66669,156.66666 546,102.33334 492,57 438,11.666664 383.66666,-11 329,-11 h -10 l -23,-93 c -16,-62.66667 -24,-94.33333 -24,-95 -1.33334,-4 -8,-6 -20,-6 h -13 c -4,4 -6,6.66667 -6,8 0,3.33333 7.66667,35 23,95 15.33334,60 23,91 23,93 -4.66666,0.666667 -9.33334,1 -14,1 -106,14.666667 -159,63.666664 -159,147 0,23.33333 11,65 33,125 22,60 33.33333,98.33334 34,115 0,0.66666 0,1.33334 0,2 0,6 0,10 0,12 0,2 -1.33333,4.33334 -4,7 -2.66667,2.66666 -6.33333,4 -11,4 h -4 c -15.33333,0 -29.33334,-6.33334 -42,-19 C 99.333336,372.33334 89.333336,358.66666 82,344 74.666664,329.33334 69,315.33334 65,302 61,288.66666 58.333332,281.33334 57,280 55.666668,278.66666 50.333336,278 41,278 H 27 c -4,4 -6,7 -6,9 0,8 4.333332,23.33334 13,46 8.666668,22.66666 24.666664,46.33334 48,71 23.33334,24.66666 49.66667,37 79,37 z"
       style="fill:#000000;fill-opacity:1;fill-rule:nonzero;stroke:none"
       transform="matrix(0.01763058,0,0,-0.01707168,86.36031,54.532823)"
       clip-path="url(#clipPath34)" />
    <path
       id="path35"
       d="m 96,585 c 37.33334,54 88.33333,81 153,81 32,0 64,-8.66669 96,-26 32,-17.33331 58,-48 78,-92 24.66666,-55.33334 37,-131.33331 37,-228 C 460,216.66666 445.66666,137.66667 417,83 403.66666,55 385.33334,32.666668 362,16 338.66666,-0.66666794 318.33334,-11 301,-15 c -17.33334,-4 -34.33334,-6.333334 -51,-7 -17.33333,0 -34.66667,2 -52,6 -17.33333,4 -37.66667,14.666666 -61,32 C 113.66666,33.333336 95.333336,55.666664 82,83 53.333332,137.66667 39,216.66666 39,320 39,436 58,524.33331 96,585 Z m 225,12 c -20,21.33331 -43.66666,32 -71,32 -28,0 -52,-10.66669 -72,-32 -16.66667,-17.33331 -27.66667,-41.33331 -33,-72 -5.33333,-30.66666 -8,-94.66666 -8,-192 0,-105.33334 2.66667,-174.66666 8,-208 5.33333,-33.333336 17.33333,-59.666664 36,-79 18.66667,-20 41.66667,-30 69,-30 26.66666,0 49.33334,10 68,30 19.33334,20 31.33334,48 36,84 4.66666,36 7.33334,103.66666 8,203 0,96.66669 -2.66666,160.33334 -8,191 -5.33334,30.66669 -16.33334,55 -33,73 z"
       style="fill:#000000;fill-opacity:1;fill-rule:nonzero;stroke:none"
       transform="matrix(0.01246482,0,0,-0.01206968,98.419625,57.093575)"
       clip-path="url(#clipPath36)" />
    <path
       id="path37"
       d="m 161,441 c 27.33333,0 49,-8 65,-24 16,-16 24,-35.66666 24,-59 0,-13.33334 -10.66667,-48.66666 -32,-106 -21.33333,-57.33334 -31.66667,-99 -31,-125 2,-28 11,-50 27,-66 14,-12 28.33333,-20 43,-24 12,-5.333334 22.33334,-8 31,-8 h 1 l 82,331 c 56,220.66669 84.33334,331.33331 85,332 2,1.33331 7.33334,2 16,2 13.33334,0 20,-2.33331 20,-7 0,-6 -27,-116.33331 -81,-331 C 356.33334,137.33333 329,27.666666 329,27 c 0,-0.666666 2,-1 6,-1 57.33334,0 111.66666,29.333332 163,88 51.33331,58.66667 77.33331,113.33333 78,164 0,16 -2.66669,29.66666 -8,41 -5.33331,11.33334 -11.33331,19.33334 -18,24 -6.66669,4.66666 -12.66669,10.66666 -18,18 -5.33331,7.33334 -8,15 -8,23 0,14 5.66669,27.33334 17,40 11.33331,12.66666 25.33331,19 42,19 12.66669,0 24.33331,-6 35,-18 10.66669,-12 16,-31.66666 16,-59 0,-19.33334 -3.66669,-45.33334 -11,-78 -7.33331,-32.66667 -13.33331,-55.33333 -18,-68 C 583.66669,156.66666 546,102.33334 492,57 438,11.666664 383.66666,-11 329,-11 h -10 l -23,-93 c -16,-62.66667 -24,-94.33333 -24,-95 -1.33334,-4 -8,-6 -20,-6 h -13 c -4,4 -6,6.66667 -6,8 0,3.33333 7.66667,35 23,95 15.33334,60 23,91 23,93 -4.66666,0.666667 -9.33334,1 -14,1 -106,14.666667 -159,63.666664 -159,147 0,23.33333 11,65 33,125 22,60 33.33333,98.33334 34,115 0,0.66666 0,1.33334 0,2 0,6 0,10 0,12 0,2 -1.33333,4.33334 -4,7 -2.66667,2.66666 -6.33333,4 -11,4 h -4 c -15.33333,0 -29.33334,-6.33334 -42,-19 C 99.333336,372.33334 89.333336,358.66666 82,344 74.666664,329.33334 69,315.33334 65,302 61,288.66666 58.333332,281.33334 57,280 55.666668,278.66666 50.333336,278 41,278 H 27 c -4,4 -6,7 -6,9 0,8 4.333332,23.33334 13,46 8.666668,22.66666 24.666664,46.33334 48,71 23.33334,24.66666 49.66667,37 79,37 z"
       style="fill:#000000;fill-opacity:1;fill-rule:nonzero;stroke:none"
       transform="matrix(0.01763058,0,0,-0.01707168,143.43363,54.532823)"
       clip-path="url(#clipPath38)" />
    <path
       id="path39"
       d="m 213,578 -13,-5 c -9.33333,-3.33331 -22.66667,-6.66669 -40,-10 -17.33333,-3.33331 -36.66666,-5.66669 -58,-7 H 83 v 46 h 19 c 31.33333,1.33331 60.33333,6.33331 87,15 26.66667,8.66669 45.33333,16.66669 56,24 10.66667,7.33331 20,14.66669 28,22 1.33334,2 5.33334,3 12,3 6,0 11.66666,-2 17,-6 V 361 l 1,-300 c 4.66666,-4.666668 8.66666,-7.666668 12,-9 3.33334,-1.333332 11.33334,-2.666668 24,-4 12.66666,-1.333332 33.33334,-2 62,-2 h 26 V 0 H 416 C 402,2 349,3 257,3 166.33333,3 114,2 100,0 H 88 v 46 h 26 c 14.66667,0 27.33333,0 38,0 10.66667,0 19,0.333332 25,1 6,0.666668 11.33333,1.666668 16,3 4.66667,1.333332 7.33333,2 8,2 0.66667,0 2.66667,1.666668 6,5 3.33333,3.333332 5.33333,4.666668 6,4 z"
       style="fill:#000000;fill-opacity:1;fill-rule:nonzero;stroke:none"
       transform="matrix(0.01246482,0,0,-0.01206968,155.49294,57.093575)"
       clip-path="url(#clipPath40)" />
    <path
       id="path41"
       d="m 161,441 c 27.33333,0 49,-8 65,-24 16,-16 24,-35.66666 24,-59 0,-13.33334 -10.66667,-48.66666 -32,-106 -21.33333,-57.33334 -31.66667,-99 -31,-125 2,-28 11,-50 27,-66 14,-12 28.33333,-20 43,-24 12,-5.333334 22.33334,-8 31,-8 h 1 l 82,331 c 56,220.66669 84.33334,331.33331 85,332 2,1.33331 7.33334,2 16,2 13.33334,0 20,-2.33331 20,-7 0,-6 -27,-116.33331 -81,-331 C 356.33334,137.33333 329,27.666666 329,27 c 0,-0.666666 2,-1 6,-1 57.33334,0 111.66666,29.333332 163,88 51.33331,58.66667 77.33331,113.33333 78,164 0,16 -2.66669,29.66666 -8,41 -5.33331,11.33334 -11.33331,19.33334 -18,24 -6.66669,4.66666 -12.66669,10.66666 -18,18 -5.33331,7.33334 -8,15 -8,23 0,14 5.66669,27.33334 17,40 11.33331,12.66666 25.33331,19 42,19 12.66669,0 24.33331,-6 35,-18 10.66669,-12 16,-31.66666 16,-59 0,-19.33334 -3.66669,-45.33334 -11,-78 -7.33331,-32.66667 -13.33331,-55.33333 -18,-68 C 583.66669,156.66666 546,102.33334 492,57 438,11.666664 383.66666,-11 329,-11 h -10 l -23,-93 c -16,-62.66667 -24,-94.33333 -24,-95 -1.33334,-4 -8,-6 -20,-6 h -13 c -4,4 -6,6.66667 -6,8 0,3.33333 7.66667,35 23,95 15.33334,60 23,91 23,93 -4.66666,0.666667 -9.33334,1 -14,1 -106,14.666667 -159,63.666664 -159,147 0,23.33333 11,65 33,125 22,60 33.33333,98.33334 34,115 0,0.66666 0,1.33334 0,2 0,6 0,10 0,12 0,2 -1.33333,4.33334 -4,7 -2.66667,2.66666 -6.33333,4 -11,4 h -4 c -15.33333,0 -29.33334,-6.33334 -42,-19 C 99.333336,372.33334 89.333336,358.66666 82,344 74.666664,329.33334 69,315.33334 65,302 61,288.66666 58.333332,281.33334 57,280 55.666668,278.66666 50.333336,278 41,278 H 27 c -4,4 -6,7 -6,9 0,8 4.333332,23.33334 13,46 8.666668,22.66666 24.666664,46.33334 48,71 23.33334,24.66666 49.66667,37 79,37 z"
       style="fill:#000000;fill-opacity:1;fill-rule:nonzero;stroke:none"
       transform="matrix(0.0170881,0,0,-0.01707168,227.96284,54.532823)"
       clip-path="url(#clipPath42)" />
    <path
       id="path43"
       d="m 234,637 c -2,0 -4.66667,0 -8,0 -16.66667,0 -26.66667,0.33331 -30,1 -3.33333,0.66669 -5,4.33331 -5,11 0,18 3.66667,29 11,33 1.33333,0.66669 33.66666,1 97,1 51.33334,0 80.66666,0 88,0 7.33334,0 12,-2 14,-6 C 541.66669,346.33331 613.33331,176.66667 616,168 l 54,213 c 35.33331,140.66669 53,215.66669 53,225 0,18 -21.33331,28.33331 -64,31 -16,0 -24,3.66669 -24,11 0,1.33331 0.66669,5.33331 2,12 2.66669,10.66669 4.66669,17 6,19 1.33331,2 4.66669,3.33331 10,4 2,0 12.33331,-0.33331 31,-1 18.66669,-0.66669 46.33331,-1.33331 83,-2 33.33331,0 58.66669,0.33331 76,1 17.33331,0.66669 27.33331,1 30,1 10,0 15,-3.33331 15,-10 0,-14.66669 -2.66669,-24.66669 -8,-30 -1.33331,-3.33331 -8.66669,-5 -22,-5 -47.33331,-2.66669 -77,-16 -89,-40 L 620,7 C 618.66669,2.333333 611.66669,0 599,0 589.66669,0 584,0.66666663 582,2 580,4 537,105 453,305 L 326,604 261,344 C 217.66666,173.33333 196,85 196,79 199.33333,57 223.33333,46 268,46 h 10 c 4,-3.333332 6,-6 6,-8 0,-2 -0.66666,-8.333332 -2,-19 C 279.33334,10.333333 276,4 272,0 H 259 C 238.33333,1.3333334 202.33334,2 151,2 132.33333,2 115.33334,2 100,2 84.666664,2 72.333336,2 63,2 53.666664,2 48,1.6666667 46,1 36,1 31,4 31,10 c 0,2.666667 1,8 3,16 2,8 3.666668,12.666668 5,14 1.333332,4 9,6 23,6 45.33334,2 74.66667,15 88,39 2.66667,4 26.33333,96.33333 71,277 l 68,272 c -1.33334,0.66669 -19.66666,1.66669 -55,3 z"
       style="fill:#000000;fill-opacity:1;fill-rule:nonzero;stroke:none"
       transform="matrix(0.01208129,0,0,-0.01206968,239.6511,57.093575)"
       clip-path="url(#clipPath44)" />
    <path
       id="path45"
       d="m 161,441 c 27.33333,0 49,-8 65,-24 16,-16 24,-35.66666 24,-59 0,-13.33334 -10.66667,-48.66666 -32,-106 -21.33333,-57.33334 -31.66667,-99 -31,-125 2,-28 11,-50 27,-66 14,-12 28.33333,-20 43,-24 12,-5.333334 22.33334,-8 31,-8 h 1 l 82,331 c 56,220.66669 84.33334,331.33331 85,332 2,1.33331 7.33334,2 16,2 13.33334,0 20,-2.33331 20,-7 0,-6 -27,-116.33331 -81,-331 C 356.33334,137.33333 329,27.666666 329,27 c 0,-0.666666 2,-1 6,-1 57.33334,0 111.66666,29.333332 163,88 51.33331,58.66667 77.33331,113.33333 78,164 0,16 -2.66669,29.66666 -8,41 -5.33331,11.33334 -11.33331,19.33334 -18,24 -6.66669,4.66666 -12.66669,10.66666 -18,18 -5.33331,7.33334 -8,15 -8,23 0,14 5.66669,27.33334 17,40 11.33331,12.66666 25.33331,19 42,19 12.66669,0 24.33331,-6 35,-18 10.66669,-12 16,-31.66666 16,-59 0,-19.33334 -3.66669,-45.33334 -11,-78 -7.33331,-32.66667 -13.33331,-55.33333 -18,-68 C 583.66669,156.66666 546,102.33334 492,57 438,11.666664 383.66666,-11 329,-11 h -10 l -23,-93 c -16,-62.66667 -24,-94.33333 -24,-95 -1.33334,-4 -8,-6 -20,-6 h -13 c -4,4 -6,6.66667 -6,8 0,3.33333 7.66667,35 23,95 15.33334,60 23,91 23,93 -4.66666,0.666667 -9.33334,1 -14,1 -106,14.666667 -159,63.666664 -159,147 0,23.33333 11,65 33,125 22,60 33.33333,98.33334 34,115 0,0.66666 0,1.33334 0,2 0,6 0,10 0,12 0,2 -1.33333,4.33334 -4,7 -2.66667,2.66666 -6.33333,4 -11,4 h -4 c -15.33333,0 -29.33334,-6.33334 -42,-19 C 99.333336,372.33334 89.333336,358.66666 82,344 74.666664,329.33334 69,315.33334 65,302 61,288.66666 58.333332,281.33334 57,280 55.666668,278.66666 50.333336,278 41,278 H 27 c -4,4 -6,7 -6,9 0,8 4.333332,23.33334 13,46 8.666668,22.66666 24.666664,46.33334 48,71 23.33334,24.66666 49.66667,37 79,37 z"
       style="fill:#000000;fill-opacity:1;fill-rule:nonzero;stroke:none"
       transform="matrix(0.01738609,0,0,-0.01753622,-0.33881876,55.395956)"
       clip-path="url(#clipPath46)" />
    <path
       id="path47"
       d="m 33,157 c 0,67.33334 25.333332,131.33334 76,192 50.66667,60.66666 107.66666,91.33334 171,92 34,0 64,-16.33334 90,-49 10.66666,20 26,30 46,30 8.66666,0 16.33334,-2.66666 23,-8 6.66666,-5.33334 10,-12 10,-20 0,-8.66666 -12.33334,-62 -37,-160 -24.66666,-98 -37.33334,-153.333336 -38,-166 0,-16.666668 2.33334,-27.666668 7,-33 4.66666,-5.333334 11.66666,-8.333334 21,-9 6,0.666666 12.66666,3.666666 20,9 14,13.333336 27.66666,45.333328 41,96 4,13.33333 7.33334,20.33333 10,21 1.33334,0.66667 4.66666,1 10,1 h 4 c 12.66666,0 19,-3 19,-9 0,-4 -1.66666,-13 -5,-27 C 497.66666,103 491,85 481,63 471,41 460.33334,24.333334 449,13 440.33334,4.333333 429.66666,-2.6666665 417,-8 c -5.33334,-1.333333 -13.33334,-2 -24,-2 -22.66666,0 -41.66666,5 -57,15 -15.33334,10 -25.33334,20.333332 -30,31 l -6,15 c -0.66666,0.666668 -2,0.333332 -4,-1 -1.33334,-1.333332 -2.66666,-2.666668 -4,-4 C 252.66666,8.6666641 212.66667,-10 172,-10 135.33333,-10 103,3.3333321 75,30 47,56.666668 33,99 33,157 Z m 318,171 c 0,4 -1.66666,11.33334 -5,22 -3.33334,10.66666 -11,22.33334 -23,35 -12,12.66666 -27.33334,19.33334 -46,20 -23.33333,0 -45.66667,-10.33334 -67,-31 -21.33333,-20.66666 -38,-47.66666 -50,-81 -19.33333,-52.66667 -33,-107.33333 -41,-164 0,-2 0,-5.66666 0,-11 0,-5.33334 -0.33334,-9.33334 -1,-12 0,-30 6,-50.666664 18,-62 12,-11.333336 26.33333,-17.333334 43,-18 25.33333,0 50.33333,11 75,33 24.66666,22 39.33334,39 44,51 1.33334,2.66666 10.33334,38.33333 27,107 16.66666,68.66669 25.33334,105.66666 26,111 z"
       style="fill:#000000;fill-opacity:1;fill-rule:nonzero;stroke:none"
       transform="matrix(0.01229196,0,0,-0.01239811,11.553265,48.153499)"
       clip-path="url(#clipPath48)" />
    <path
       id="path49"
       d="m 96,585 c 37.33334,54 88.33333,81 153,81 32,0 64,-8.66669 96,-26 32,-17.33331 58,-48 78,-92 24.66666,-55.33334 37,-131.33331 37,-228 C 460,216.66666 445.66666,137.66667 417,83 403.66666,55 385.33334,32.666668 362,16 338.66666,-0.66666794 318.33334,-11 301,-15 c -17.33334,-4 -34.33334,-6.333334 -51,-7 -17.33333,0 -34.66667,2 -52,6 -17.33333,4 -37.66667,14.666666 -61,32 C 113.66666,33.333336 95.333336,55.666664 82,83 53.333332,137.66667 39,216.66666 39,320 39,436 58,524.33331 96,585 Z m 225,12 c -20,21.33331 -43.66666,32 -71,32 -28,0 -52,-10.66669 -72,-32 -16.66667,-17.33331 -27.66667,-41.33331 -33,-72 -5.33333,-30.66666 -8,-94.66666 -8,-192 0,-105.33334 2.66667,-174.66666 8,-208 5.33333,-33.333336 17.33333,-59.666664 36,-79 18.66667,-20 41.66667,-30 69,-30 26.66666,0 49.33334,10 68,30 19.33334,20 31.33334,48 36,84 4.66666,36 7.33334,103.66666 8,203 0,96.66669 -2.66666,160.33334 -8,191 -5.33334,30.66669 -16.33334,55 -33,73 z"
       style="fill:#000000;fill-opacity:1;fill-rule:nonzero;stroke:none"
       transform="matrix(0.00869042,0,0,-0.00876546,18.461347,50.013211)"
       clip-path="url(#clipPath50)" />
    <path
       id="path51"
       d="m 78,60 c 0,16 5.666664,30 17,42 11.33334,12 25.66666,18 43,18 16,0 30,-5.33334 42,-16 C 192,93.333336 198.33333,79 199,61 199,44.333332 193.33333,30 182,18 170.66667,6 156.33333,0 139,0 121.66666,0 107.33334,5.666666 96,17 84.666664,28.333334 78.666664,42.666664 78,60 Z"
       style="fill:#000000;fill-opacity:1;fill-rule:nonzero;stroke:none"
       transform="matrix(0.01229196,0,0,-0.01239811,23.422384,48.153499)"
       clip-path="url(#clipPath52)" />
    <path
       id="path53"
       d="m 78,60 c 0,16 5.666664,30 17,42 11.33334,12 25.66666,18 43,18 16,0 30,-5.33334 42,-16 C 192,93.333336 198.33333,79 199,61 199,44.333332 193.33333,30 182,18 170.66667,6 156.33333,0 139,0 121.66666,0 107.33334,5.666666 96,17 84.666664,28.333334 78.666664,42.666664 78,60 Z"
       style="fill:#000000;fill-opacity:1;fill-rule:nonzero;stroke:none"
       transform="matrix(0.01229196,0,0,-0.01239811,26.839552,48.153499)"
       clip-path="url(#clipPath54)" />
    <path
       id="path55"
       d="m 78,60 c 0,16 5.666664,30 17,42 11.33334,12 25.66666,18 43,18 16,0 30,-5.33334 42,-16 C 192,93.333336 198.33333,79 199,61 199,44.333332 193.33333,30 182,18 170.66667,6 156.33333,0 139,0 121.66666,0 107.33334,5.666666 96,17 84.666664,28.333334 78.666664,42.666664 78,60 Z"
       style="fill:#000000;fill-opacity:1;fill-rule:nonzero;stroke:none"
       transform="matrix(0.01229196,0,0,-0.01239811,30.256717,48.153499)"
       clip-path="url(#clipPath56)" />
    <path
       id="path57"
       d="m 33,157 c 0,67.33334 25.333332,131.33334 76,192 50.66667,60.66666 107.66666,91.33334 171,92 34,0 64,-16.33334 90,-49 10.66666,20 26,30 46,30 8.66666,0 16.33334,-2.66666 23,-8 6.66666,-5.33334 10,-12 10,-20 0,-8.66666 -12.33334,-62 -37,-160 -24.66666,-98 -37.33334,-153.333336 -38,-166 0,-16.666668 2.33334,-27.666668 7,-33 4.66666,-5.333334 11.66666,-8.333334 21,-9 6,0.666666 12.66666,3.666666 20,9 14,13.333336 27.66666,45.333328 41,96 4,13.33333 7.33334,20.33333 10,21 1.33334,0.66667 4.66666,1 10,1 h 4 c 12.66666,0 19,-3 19,-9 0,-4 -1.66666,-13 -5,-27 C 497.66666,103 491,85 481,63 471,41 460.33334,24.333334 449,13 440.33334,4.333333 429.66666,-2.6666665 417,-8 c -5.33334,-1.333333 -13.33334,-2 -24,-2 -22.66666,0 -41.66666,5 -57,15 -15.33334,10 -25.33334,20.333332 -30,31 l -6,15 c -0.66666,0.666668 -2,0.333332 -4,-1 -1.33334,-1.333332 -2.66666,-2.666668 -4,-4 C 252.66666,8.6666641 212.66667,-10 172,-10 135.33333,-10 103,3.3333321 75,30 47,56.666668 33,99 33,157 Z m 318,171 c 0,4 -1.66666,11.33334 -5,22 -3.33334,10.66666 -11,22.33334 -23,35 -12,12.66666 -27.33334,19.33334 -46,20 -23.33333,0 -45.66667,-10.33334 -67,-31 -21.33333,-20.66666 -38,-47.66666 -50,-81 -19.33333,-52.66667 -33,-107.33333 -41,-164 0,-2 0,-5.66666 0,-11 0,-5.33334 -0.33334,-9.33334 -1,-12 0,-30 6,-50.666664 18,-62 12,-11.333336 26.33333,-17.333334 43,-18 25.33333,0 50.33333,11 75,33 24.66666,22 39.33334,39 44,51 1.33334,2.66666 10.33334,38.33333 27,107 16.66666,68.66669 25.33334,105.66666 26,111 z"
       style="fill:#000000;fill-opacity:1;fill-rule:nonzero;stroke:none"
       transform="matrix(0.01229196,0,0,-0.01239811,33.673881,48.153499)"
       clip-path="url(#clipPath58)" />
    <path
       id="path59"
       d="m 234,637 c -2,0 -4.66667,0 -8,0 -16.66667,0 -26.66667,0.33331 -30,1 -3.33333,0.66669 -5,4.33331 -5,11 0,18 3.66667,29 11,33 1.33333,0.66669 33.66666,1 97,1 51.33334,0 80.66666,0 88,0 7.33334,0 12,-2 14,-6 C 541.66669,346.33331 613.33331,176.66667 616,168 l 54,213 c 35.33331,140.66669 53,215.66669 53,225 0,18 -21.33331,28.33331 -64,31 -16,0 -24,3.66669 -24,11 0,1.33331 0.66669,5.33331 2,12 2.66669,10.66669 4.66669,17 6,19 1.33331,2 4.66669,3.33331 10,4 2,0 12.33331,-0.33331 31,-1 18.66669,-0.66669 46.33331,-1.33331 83,-2 33.33331,0 58.66669,0.33331 76,1 17.33331,0.66669 27.33331,1 30,1 10,0 15,-3.33331 15,-10 0,-14.66669 -2.66669,-24.66669 -8,-30 -1.33331,-3.33331 -8.66669,-5 -22,-5 -47.33331,-2.66669 -77,-16 -89,-40 L 620,7 C 618.66669,2.333333 611.66669,0 599,0 589.66669,0 584,0.66666663 582,2 580,4 537,105 453,305 L 326,604 261,344 C 217.66666,173.33333 196,85 196,79 199.33333,57 223.33333,46 268,46 h 10 c 4,-3.333332 6,-6 6,-8 0,-2 -0.66666,-8.333332 -2,-19 C 279.33334,10.333333 276,4 272,0 H 259 C 238.33333,1.3333334 202.33334,2 151,2 132.33333,2 115.33334,2 100,2 84.666664,2 72.333336,2 63,2 53.666664,2 48,1.6666667 46,1 36,1 31,4 31,10 c 0,2.666667 1,8 3,16 2,8 3.666668,12.666668 5,14 1.333332,4 9,6 23,6 45.33334,2 74.66667,15 88,39 2.66667,4 26.33333,96.33333 71,277 l 68,272 c -1.33334,0.66669 -19.66666,1.66669 -55,3 z"
       style="fill:#000000;fill-opacity:1;fill-rule:nonzero;stroke:none"
       transform="matrix(0.00869042,0,0,-0.00876546,40.581966,50.013211)"
       clip-path="url(#clipPath60)" />
    <path
       id="path61"
       d="m 56,347 c 0,8.66666 4.666664,15.33334 14,20 h 637 c 10,-5.33334 15,-12 15,-20 0,-7.33334 -4.66669,-13.66666 -14,-19 L 390,327 H 72 c -10.666668,3.33334 -16,10 -16,20 z m 0,-194 c 0,10 5.333332,16.66667 16,20 h 636 c 9.33331,-6.66667 14,-13.33333 14,-20 0,-8.66667 -5,-15.33333 -15,-20 H 70 c -9.333336,4.66667 -14,11.33333 -14,20 z"
       style="fill:#000000;fill-opacity:1;fill-rule:nonzero;stroke:none"
       transform="matrix(0.01738609,0,0,-0.01753622,54.618603,55.395956)"
       clip-path="url(#clipPath62)" />
  </g>
</svg>
