<?xml version="1.0" encoding="UTF-8" standalone="no"?>
<svg
   xmlns:dc="http://purl.org/dc/elements/1.1/"
   xmlns:cc="http://creativecommons.org/ns#"
   xmlns:rdf="http://www.w3.org/1999/02/22-rdf-syntax-ns#"
   xmlns:svg="http://www.w3.org/2000/svg"
   xmlns="http://www.w3.org/2000/svg"
   viewBox="0 0 259.84 108.15999"
   height="108.15999"
   width="259.84"
   xml:space="preserve"
   id="svg2"
   version="1.1"><metadata
     id="metadata8"><rdf:RDF><cc:Work
         rdf:about=""><dc:format>image/svg+xml</dc:format><dc:type
           rdf:resource="http://purl.org/dc/dcmitype/StillImage" /></cc:Work></rdf:RDF></metadata><defs
     id="defs6"><clipPath
       id="clipPath18"
       clipPathUnits="userSpaceOnUse"><path
         style="clip-rule:evenodd"
         id="path16"
         d="M 0,0 H 812.98828 V 339 H 0 Z" /></clipPath><clipPath
       id="clipPath62"
       clipPathUnits="userSpaceOnUse"><path
         style="clip-rule:evenodd"
         id="path60"
         d="m 448.05469,135.89603 h 59.7345 v 44.80087 h -59.7345 z" /></clipPath><clipPath
       id="clipPath78"
       clipPathUnits="userSpaceOnUse"><path
         style="clip-rule:evenodd"
         id="path76"
         d="m 268.85114,135.89603 h 59.73453 v 44.80087 h -59.73453 z" /></clipPath><clipPath
       id="clipPath94"
       clipPathUnits="userSpaceOnUse"><path
         style="clip-rule:evenodd"
         id="path92"
         d="m 273.33124,0 h 50.77435 v 32.853981 h -50.77435 z" /></clipPath><clipPath
       id="clipPath110"
       clipPathUnits="userSpaceOnUse"><path
         style="clip-rule:evenodd"
         id="path108"
         d="m 451.04138,0 h 50.77435 v 32.853981 h -50.77435 z" /></clipPath><clipPath
       id="clipPath126"
       clipPathUnits="userSpaceOnUse"><path
         style="clip-rule:evenodd"
         id="path124"
         d="m 274.82458,285.23233 h 47.7876 v 47.7876 h -47.7876 z" /></clipPath><clipPath
       id="clipPath142"
       clipPathUnits="userSpaceOnUse"><path
         style="clip-rule:evenodd"
         id="path140"
         d="m 454.0282,285.23233 h 47.7876 v 44.80084 h -47.7876 z" /></clipPath><clipPath
       id="clipPath158"
       clipPathUnits="userSpaceOnUse"><path
         style="clip-rule:evenodd"
         id="path156"
         d="M 0.0458374,128.4292 H 209.11664 v 65.70798 H 0.0458374 Z" /></clipPath><clipPath
       id="clipPath230"
       clipPathUnits="userSpaceOnUse"><path
         style="clip-rule:evenodd"
         id="path228"
         d="m 710.8866,132.90927 h 68.6947 v 44.80089 h -68.6947 z" /></clipPath><clipPath
       id="clipPath246"
       clipPathUnits="userSpaceOnUse"><path
         style="clip-rule:evenodd"
         id="path244"
         d="m 713.87329,0 h 62.72119 v 32.853981 h -62.72119 z" /></clipPath><clipPath
       id="clipPath262"
       clipPathUnits="userSpaceOnUse"><path
         style="clip-rule:evenodd"
         id="path260"
         d="m 719.84668,285.23233 h 56.7478 v 44.80084 h -56.7478 z" /></clipPath></defs><g
     transform="scale(0.31999998)"
     id="g10"><g
       id="g12"><g
         clip-path="url(#clipPath18)"
         id="g14"><g
           transform="matrix(2.9867258,0,0,2.9867258,-697.35468,-295.68585)"
           id="g20"><path
             id="path22"
             style="fill:none;stroke:#000000;stroke-width:1;stroke-linecap:butt;stroke-linejoin:miter;stroke-miterlimit:10;stroke-dasharray:none;stroke-opacity:1"
             d="m 354,152.5 h 20" /><path
             id="path24"
             style="fill:none;stroke:#000000;stroke-width:1;stroke-linecap:butt;stroke-linejoin:miter;stroke-miterlimit:10;stroke-dasharray:none;stroke-opacity:1"
             d="m 334,132.5 v -20" /><path
             id="path26"
             style="fill:none;stroke:#000000;stroke-width:1;stroke-linecap:butt;stroke-linejoin:miter;stroke-miterlimit:10;stroke-dasharray:none;stroke-opacity:1"
             d="m 334,172.5 v 20" /><path
             id="path28"
             style="fill:#ffffff;fill-opacity:1;fill-rule:nonzero;stroke:none"
             d="m 354,152.5 c 0,1.31322 -0.12811,2.61381 -0.38431,3.90179 -0.25619,1.28798 -0.63559,2.53859 -1.13815,3.75185 -0.50256,1.21326 -1.11862,2.36584 -1.84821,3.45775 -0.72958,1.09189 -1.55865,2.10213 -2.48721,3.03073 -0.92859,0.92857 -1.93884,1.75766 -3.03073,2.48724 -1.09192,0.72959 -2.24451,1.34566 -3.45776,1.84821 -1.21326,0.50255 -2.46387,0.88193 -3.75187,1.13812 -1.28799,0.2562 -2.58856,0.38429 -3.90176,0.38431 -1.31323,-2e-5 -2.61386,-0.12811 -3.90186,-0.38431 -1.28799,-0.25619 -2.5386,-0.63557 -3.75186,-1.13812 -1.21325,-0.50255 -2.36584,-1.11862 -3.45773,-1.84821 -1.09189,-0.72958 -2.10214,-1.55867 -3.03073,-2.48724 -0.92859,-0.9286 -1.75769,-1.93884 -2.48731,-3.03075 -0.72958,-1.0919 -1.34564,-2.24447 -1.84817,-3.45773 -0.50253,-1.21326 -0.8819,-2.46387 -1.13809,-3.75185 -0.2562,-1.28798 -0.38428,-2.58857 -0.38425,-3.90179 -3e-5,-1.31322 0.12805,-2.61383 0.38425,-3.90183 0.25619,-1.28797 0.63556,-2.53858 1.13809,-3.75184 0.50253,-1.21326 1.11859,-2.36585 1.84817,-3.45775 0.72962,-1.09189 1.55872,-2.10213 2.48731,-3.03072 0.92859,-0.92858 1.93884,-1.75767 3.03076,-2.48726 1.09189,-0.72958 2.24445,-1.34565 3.4577,-1.84821 1.21326,-0.50255 2.46387,-0.88192 3.75186,-1.13811 1.288,-0.25618 2.58863,-0.38428 3.90186,-0.38428 1.3132,0 2.61377,0.1281 3.90176,0.38428 1.288,0.25619 2.53861,0.63556 3.75187,1.13811 1.21325,0.50256 2.36584,1.11863 3.45776,1.84821 1.09189,0.72959 2.10214,1.55868 3.03073,2.48726 0.92856,0.92859 1.75763,1.93883 2.48721,3.03072 0.72959,1.0919 1.34565,2.24449 1.84821,3.45775 0.50256,1.21326 0.88196,2.46387 1.13815,3.75184 0.2562,1.288 0.38431,2.58861 0.38431,3.90183 z" /><path
             id="path30"
             style="fill:none;stroke:#000000;stroke-width:1;stroke-linecap:butt;stroke-linejoin:miter;stroke-miterlimit:10;stroke-dasharray:none;stroke-opacity:1"
             d="m 354,152.5 c 0,1.31322 -0.12811,2.61381 -0.38431,3.90179 -0.25619,1.28798 -0.63559,2.53859 -1.13815,3.75185 -0.50256,1.21326 -1.11862,2.36584 -1.84821,3.45775 -0.72958,1.09189 -1.55865,2.10213 -2.48721,3.03073 -0.92859,0.92857 -1.93884,1.75766 -3.03073,2.48724 -1.09192,0.72959 -2.24451,1.34566 -3.45776,1.84821 -1.21326,0.50255 -2.46387,0.88193 -3.75187,1.13812 -1.28799,0.2562 -2.58856,0.38429 -3.90176,0.38431 -1.31323,-2e-5 -2.61386,-0.12811 -3.90186,-0.38431 -1.28799,-0.25619 -2.5386,-0.63557 -3.75186,-1.13812 -1.21325,-0.50255 -2.36584,-1.11862 -3.45773,-1.84821 -1.09189,-0.72958 -2.10214,-1.55867 -3.03073,-2.48724 -0.92859,-0.9286 -1.75769,-1.93884 -2.48731,-3.03075 -0.72958,-1.0919 -1.34564,-2.24447 -1.84817,-3.45773 -0.50253,-1.21326 -0.8819,-2.46387 -1.13809,-3.75185 -0.2562,-1.28798 -0.38428,-2.58857 -0.38425,-3.90179 -3e-5,-1.31322 0.12805,-2.61383 0.38425,-3.90183 0.25619,-1.28797 0.63556,-2.53858 1.13809,-3.75184 0.50253,-1.21326 1.11859,-2.36585 1.84817,-3.45775 0.72962,-1.09189 1.55872,-2.10213 2.48731,-3.03072 0.92859,-0.92858 1.93884,-1.75767 3.03076,-2.48726 1.09189,-0.72958 2.24445,-1.34565 3.4577,-1.84821 1.21326,-0.50255 2.46387,-0.88192 3.75186,-1.13811 1.288,-0.25618 2.58863,-0.38428 3.90186,-0.38428 1.3132,0 2.61377,0.1281 3.90176,0.38428 1.288,0.25619 2.53861,0.63556 3.75187,1.13811 1.21325,0.50256 2.36584,1.11863 3.45776,1.84821 1.09189,0.72959 2.10214,1.55868 3.03073,2.48726 0.92856,0.92859 1.75763,1.93883 2.48721,3.03072 0.72959,1.0919 1.34565,2.24449 1.84821,3.45775 0.50256,1.21326 0.88196,2.46387 1.13815,3.75184 0.2562,1.288 0.38431,2.58861 0.38431,3.90183 z" /><path
             id="path32"
             style="fill:none;stroke:#000000;stroke-width:1;stroke-linecap:butt;stroke-linejoin:miter;stroke-miterlimit:10;stroke-dasharray:none;stroke-opacity:1"
             d="m 394,132.5 v -20" /><path
             id="path34"
             style="fill:none;stroke:#000000;stroke-width:1;stroke-linecap:butt;stroke-linejoin:miter;stroke-miterlimit:10;stroke-dasharray:none;stroke-opacity:1"
             d="m 394,172.5 v 20" /><path
             id="path36"
             style="fill:none;stroke:#000000;stroke-width:1;stroke-linecap:butt;stroke-linejoin:miter;stroke-miterlimit:10;stroke-dasharray:none;stroke-opacity:1"
             d="m 414,152.5 h 10" /><path
             id="path38"
             style="fill:#ffffff;fill-opacity:1;fill-rule:nonzero;stroke:none"
             d="m 414,152.5 c -3e-5,1.31322 -0.12814,2.61381 -0.38434,3.90179 -0.25619,1.28798 -0.63559,2.53859 -1.13815,3.75185 -0.50253,1.21326 -1.11859,2.36584 -1.84818,3.45775 -0.72958,1.09189 -1.55868,2.10213 -2.48724,3.03073 -0.92859,0.92857 -1.93884,1.75766 -3.03076,2.48724 -1.09189,0.72959 -2.24445,1.34566 -3.4577,1.84821 -1.21323,0.50255 -2.46384,0.88193 -3.75184,1.13812 -1.28799,0.2562 -2.58859,0.38429 -3.90179,0.38431 -1.31323,-2e-5 -2.61383,-0.12811 -3.90182,-0.38431 -1.288,-0.25619 -2.53861,-0.63557 -3.75187,-1.13812 -1.21325,-0.50255 -2.36584,-1.11862 -3.45776,-1.84821 -1.09189,-0.72958 -2.10214,-1.55867 -3.0307,-2.48724 -0.92859,-0.9286 -1.75769,-1.93884 -2.48731,-3.03075 -0.72958,-1.0919 -1.34564,-2.24447 -1.84817,-3.45773 -0.50253,-1.21326 -0.88193,-2.46387 -1.13812,-3.75185 -0.2562,-1.28798 -0.38428,-2.58857 -0.38425,-3.90179 -3e-5,-1.31322 0.12805,-2.61383 0.38425,-3.90183 0.25619,-1.28797 0.63559,-2.53858 1.13812,-3.75184 0.50253,-1.21326 1.11862,-2.36585 1.8482,-3.45775 0.72959,-1.09189 1.55869,-2.10213 2.48728,-3.03072 0.92856,-0.92858 1.93881,-1.75767 3.0307,-2.48726 1.09192,-0.72958 2.24451,-1.34565 3.45776,-1.84821 1.21326,-0.50255 2.46387,-0.88192 3.75187,-1.13811 C 391.38617,132.6281 392.68677,132.5 394,132.5 c 1.3132,0 2.6138,0.1281 3.90176,0.38428 1.288,0.25619 2.53864,0.63556 3.75187,1.13811 1.21325,0.50256 2.36581,1.11863 3.4577,1.84821 1.09192,0.72959 2.10217,1.55868 3.03076,2.48726 0.92856,0.92859 1.75766,1.93883 2.48724,3.03072 0.72959,1.0919 1.34565,2.24449 1.84818,3.45775 0.50256,1.21326 0.88196,2.46387 1.13815,3.75184 0.2562,1.288 0.38431,2.58861 0.38434,3.90183 z" /><path
             id="path40"
             style="fill:none;stroke:#000000;stroke-width:1;stroke-linecap:butt;stroke-linejoin:miter;stroke-miterlimit:10;stroke-dasharray:none;stroke-opacity:1"
             d="m 414,152.5 c -3e-5,1.31322 -0.12814,2.61381 -0.38434,3.90179 -0.25619,1.28798 -0.63559,2.53859 -1.13815,3.75185 -0.50253,1.21326 -1.11859,2.36584 -1.84818,3.45775 -0.72958,1.09189 -1.55868,2.10213 -2.48724,3.03073 -0.92859,0.92857 -1.93884,1.75766 -3.03076,2.48724 -1.09189,0.72959 -2.24445,1.34566 -3.4577,1.84821 -1.21323,0.50255 -2.46384,0.88193 -3.75184,1.13812 -1.28799,0.2562 -2.58859,0.38429 -3.90179,0.38431 -1.31323,-2e-5 -2.61383,-0.12811 -3.90182,-0.38431 -1.288,-0.25619 -2.53861,-0.63557 -3.75187,-1.13812 -1.21325,-0.50255 -2.36584,-1.11862 -3.45776,-1.84821 -1.09189,-0.72958 -2.10214,-1.55867 -3.0307,-2.48724 -0.92859,-0.9286 -1.75769,-1.93884 -2.48731,-3.03075 -0.72958,-1.0919 -1.34564,-2.24447 -1.84817,-3.45773 -0.50253,-1.21326 -0.88193,-2.46387 -1.13812,-3.75185 -0.2562,-1.28798 -0.38428,-2.58857 -0.38425,-3.90179 -3e-5,-1.31322 0.12805,-2.61383 0.38425,-3.90183 0.25619,-1.28797 0.63559,-2.53858 1.13812,-3.75184 0.50253,-1.21326 1.11862,-2.36585 1.8482,-3.45775 0.72959,-1.09189 1.55869,-2.10213 2.48728,-3.03072 0.92856,-0.92858 1.93881,-1.75767 3.0307,-2.48726 1.09192,-0.72958 2.24451,-1.34565 3.45776,-1.84821 1.21326,-0.50255 2.46387,-0.88192 3.75187,-1.13811 C 391.38617,132.6281 392.68677,132.5 394,132.5 c 1.3132,0 2.6138,0.1281 3.90176,0.38428 1.288,0.25619 2.53864,0.63556 3.75187,1.13811 1.21325,0.50256 2.36581,1.11863 3.4577,1.84821 1.09192,0.72959 2.10217,1.55868 3.03076,2.48726 0.92856,0.92859 1.75766,1.93883 2.48724,3.03072 0.72959,1.0919 1.34565,2.24449 1.84818,3.45775 0.50256,1.21326 0.88196,2.46387 1.13815,3.75184 0.2562,1.288 0.38431,2.58861 0.38434,3.90183 z" /><path
             id="path42"
             style="fill:none;stroke:#000000;stroke-width:1;stroke-linecap:butt;stroke-linejoin:miter;stroke-miterlimit:10;stroke-dasharray:none;stroke-opacity:1"
             d="M 464,152 H 454" /><path
             id="path44"
             style="fill:none;stroke:#000000;stroke-width:1;stroke-linecap:butt;stroke-linejoin:miter;stroke-miterlimit:10;stroke-dasharray:none;stroke-opacity:1"
             d="m 483.5,132.5 0.17001,-20" /><path
             id="path46"
             style="fill:none;stroke:#000000;stroke-width:1;stroke-linecap:butt;stroke-linejoin:miter;stroke-miterlimit:10;stroke-dasharray:none;stroke-opacity:1"
             d="m 483.5,171.5 0.17001,21" /><path
             id="path48"
             style="fill:#ffffff;fill-opacity:1;fill-rule:nonzero;stroke:none"
             d="m 503,152 c -3e-5,1.28038 -0.12494,2.54846 -0.37473,3.80426 -0.24978,1.25578 -0.61969,2.47513 -1.10968,3.65804 -0.49002,1.18292 -1.09069,2.30668 -1.80203,3.37129 -0.71133,1.06462 -1.51965,2.0496 -2.42502,2.95497 -0.90536,0.90536 -1.89038,1.71371 -2.95498,2.42506 -1.06461,0.71135 -2.18839,1.31201 -3.37131,1.80201 -1.18289,0.48997 -2.40225,0.85986 -3.65802,1.10966 -1.25577,0.2498 -2.52387,0.37469 -3.80423,0.37471 -1.2804,-2e-5 -2.54849,-0.12491 -3.80429,-0.37471 -1.2558,-0.2498 -2.47516,-0.61969 -3.65808,-1.10966 -1.18295,-0.49 -2.3067,-1.09066 -3.37128,-1.80201 -1.0646,-0.71135 -2.04959,-1.5197 -2.95495,-2.42506 -0.90537,-0.90537 -1.71375,-1.89035 -2.42511,-2.95497 -0.71137,-1.06461 -1.31205,-2.18837 -1.80201,-3.37129 -0.48999,-1.18291 -0.85986,-2.40226 -1.10965,-3.65804 C 464.12485,154.54846 463.99997,153.28038 464,152 c -3e-5,-1.2804 0.12485,-2.54849 0.37463,-3.80428 0.24979,-1.25578 0.61966,-2.47514 1.10965,-3.65806 0.48996,-1.18292 1.09064,-2.30669 1.80201,-3.37129 0.71136,-1.06459 1.51974,-2.04958 2.42511,-2.95496 0.90536,-0.90536 1.89032,-1.71373 2.95492,-2.42508 1.06461,-0.71135 2.18836,-1.31201 3.37131,-1.802 1.18292,-0.48998 2.40228,-0.85986 3.65808,-1.10965 1.2558,-0.24979 2.52389,-0.37468 3.80429,-0.37468 1.28036,0 2.54846,0.12489 3.80423,0.37468 1.25577,0.24979 2.47513,0.61967 3.65805,1.10965 1.18289,0.48999 2.30667,1.09067 3.37131,1.80202 1.0646,0.71135 2.04959,1.5197 2.95495,2.42506 0.90537,0.90538 1.71369,1.89037 2.42502,2.95496 0.71134,1.0646 1.31201,2.18837 1.80203,3.37129 0.48999,1.18292 0.8599,2.40228 1.10968,3.65806 0.24979,1.25579 0.3747,2.52388 0.37473,3.80428 z" /><path
             id="path50"
             style="fill:none;stroke:#000000;stroke-width:1;stroke-linecap:butt;stroke-linejoin:miter;stroke-miterlimit:10;stroke-dasharray:none;stroke-opacity:1"
             d="m 503,152 c -3e-5,1.28038 -0.12494,2.54846 -0.37473,3.80426 -0.24978,1.25578 -0.61969,2.47513 -1.10968,3.65804 -0.49002,1.18292 -1.09069,2.30668 -1.80203,3.37129 -0.71133,1.06462 -1.51965,2.0496 -2.42502,2.95497 -0.90536,0.90536 -1.89038,1.71371 -2.95498,2.42506 -1.06461,0.71135 -2.18839,1.31201 -3.37131,1.80201 -1.18289,0.48997 -2.40225,0.85986 -3.65802,1.10966 -1.25577,0.2498 -2.52387,0.37469 -3.80423,0.37471 -1.2804,-2e-5 -2.54849,-0.12491 -3.80429,-0.37471 -1.2558,-0.2498 -2.47516,-0.61969 -3.65808,-1.10966 -1.18295,-0.49 -2.3067,-1.09066 -3.37128,-1.80201 -1.0646,-0.71135 -2.04959,-1.5197 -2.95495,-2.42506 -0.90537,-0.90537 -1.71375,-1.89035 -2.42511,-2.95497 -0.71137,-1.06461 -1.31205,-2.18837 -1.80201,-3.37129 -0.48999,-1.18291 -0.85986,-2.40226 -1.10965,-3.65804 C 464.12485,154.54846 463.99997,153.28038 464,152 c -3e-5,-1.2804 0.12485,-2.54849 0.37463,-3.80428 0.24979,-1.25578 0.61966,-2.47514 1.10965,-3.65806 0.48996,-1.18292 1.09064,-2.30669 1.80201,-3.37129 0.71136,-1.06459 1.51974,-2.04958 2.42511,-2.95496 0.90536,-0.90536 1.89032,-1.71373 2.95492,-2.42508 1.06461,-0.71135 2.18836,-1.31201 3.37131,-1.802 1.18292,-0.48998 2.40228,-0.85986 3.65808,-1.10965 1.2558,-0.24979 2.52389,-0.37468 3.80429,-0.37468 1.28036,0 2.54846,0.12489 3.80423,0.37468 1.25577,0.24979 2.47513,0.61967 3.65805,1.10965 1.18289,0.48999 2.30667,1.09067 3.37131,1.80202 1.0646,0.71135 2.04959,1.5197 2.95495,2.42506 0.90537,0.90538 1.71369,1.89037 2.42502,2.95496 0.71134,1.0646 1.31201,2.18837 1.80203,3.37129 0.48999,1.18292 0.8599,2.40228 1.10968,3.65806 0.24979,1.25579 0.3747,2.52388 0.37473,3.80428 z" /></g><g
           transform="matrix(2.9867258,0,0,2.9867258,-698.84802,-297.17923)"
           id="g52"><path
             id="path54"
             style="fill:#000000;fill-opacity:1;fill-rule:nonzero;stroke:none"
             d="m 430,151.33 h 2 v 2 h -2 m 8,-2 h 2 v 2 h -2 m 8,-2 h 2 v 2 h -2" /></g></g></g><g
       id="g56"><g
         clip-path="url(#clipPath62)"
         id="g58"><g
           transform="matrix(0.05417606,0,0,-0.05356041,448.05469,172.65067)"
           id="g64"><path
             id="path66"
             style="fill:#000000;fill-opacity:1;fill-rule:nonzero;stroke:none"
             d="m 251,231 c 0,15.33333 -15,52 -45,110 -30,58 -45.33333,100.33334 -46,127 0,40.66666 26,86.33331 78,137 50,48 112.33331,74.66669 187,80 l 7,1 c 5.33334,0 9.66666,0 13,0 50,0 83.33331,-9.66669 100,-29 16.66669,-19.33331 25.33331,-46.33331 26,-81 0,-18.66669 -1,-38.33331 -3,-59 -2,-20.66666 -3.33331,-33 -4,-37 0,-9.33334 2.66669,-16 8,-20 5.33331,-4 17.33331,-6.66666 36,-8 h 15 v -21 l -4,-1 c -0.66669,0 -3.33331,-0.66666 -8,-2 -4.66669,-1.33334 -11.33331,-3 -20,-5 -8.66669,-2 -17,-4 -25,-6 l -50,-13 c -12.66666,7.33334 -21,12.33334 -25,15 -4,2.66666 -7.66666,7.33334 -11,14 -3.33334,6.66666 -5,16 -5,28 0,6 0.66666,18.33334 2,37 1.33334,18.66669 2.33334,34.66669 3,48 0,10 0,17.66669 0,23 0,5.33331 -2,13 -6,23 -4,10 -9,17.66669 -15,23 -6,5.33331 -16,10.66669 -30,16 -14,5.33331 -30.66666,7.66669 -50,7 -38,0 -70,-10.66669 -96,-32 -26,-21.33331 -40.66667,-48 -44,-80 -1.33333,-30.66666 12.33333,-74.66666 41,-132 26,-56 39.33334,-98 40,-126 v -18 c -8,-10 -33.33334,-37 -76,-81 l -41,-41 h 7 c 3.33333,0 18.66667,-5.33334 46,-16 27.33334,-10.66666 61,-21.333336 101,-32 40,-10.666664 76.33334,-16 109,-16 40,0 72.66669,8 98,24 25.33331,16 45.66669,48.66666 61,98 l 4,10 c 9.33331,-6 14.33331,-9.33333 15,-10 C 626.66669,108.66666 613.33331,60.333336 604,41 586,3.6666641 555.66669,-18 513,-24 c -11.33334,-1.333334 -23.66666,-2 -37,-2 -38.66666,0 -82.66666,7.666666 -132,23 C 294.66666,12.333334 250.33334,28.333332 211,45 171.66666,61.666668 145.66667,69.666664 133,69 121,69 109,62.666668 97,50 85,37.333332 74.333336,23 65,7 55.666664,-9 50.333332,-18 49,-20 l -4,4 c -2.666668,3.333334 -5.333332,6.666666 -8,10 -2.666668,3.3333335 -4,5.33333331 -4,6 0,5.3333335 11,28.333332 33,69 22,40.66667 37,62.33333 45,65 93.33334,14.66667 140,47 140,97 z" /></g><g
           transform="matrix(0.03830247,0,0,-0.03786722,485.92377,180.68472)"
           id="g68"><path
             id="path70"
             style="fill:#000000;fill-opacity:1;fill-rule:nonzero;stroke:none"
             d="m 213,578 -13,-5 c -9.33333,-3.33331 -22.66667,-6.66669 -40,-10 -17.33333,-3.33331 -36.66666,-5.66669 -58,-7 H 83 v 46 h 19 c 31.33333,1.33331 60.33333,6.33331 87,15 26.66667,8.66669 45.33333,16.66669 56,24 10.66667,7.33331 20,14.66669 28,22 1.33334,2 5.33334,3 12,3 6,0 11.66666,-2 17,-6 V 361 l 1,-300 c 4.66666,-4.666668 8.66666,-7.666668 12,-9 3.33334,-1.333332 11.33334,-2.666668 24,-4 12.66666,-1.333332 33.33334,-2 62,-2 h 26 V 0 H 416 C 402,2 349,3 257,3 166.33333,3 114,2 100,0 H 88 v 46 h 26 c 14.66667,0 27.33333,0 38,0 10.66667,0 19,0.333332 25,1 6,0.666668 11.33333,1.666668 16,3 4.66667,1.333332 7.33333,2 8,2 0.66667,0 2.66667,1.666668 6,5 3.33333,3.333332 5.33333,4.666668 6,4 z" /></g></g></g><g
       id="g72"><g
         clip-path="url(#clipPath78)"
         id="g74"><g
           transform="matrix(0.05417606,0,0,-0.05258264,268.85114,171.97847)"
           id="g80"><path
             id="path82"
             style="fill:#000000;fill-opacity:1;fill-rule:nonzero;stroke:none"
             d="m 251,231 c 0,15.33333 -15,52 -45,110 -30,58 -45.33333,100.33334 -46,127 0,40.66666 26,86.33331 78,137 50,48 112.33331,74.66669 187,80 l 7,1 c 5.33334,0 9.66666,0 13,0 50,0 83.33331,-9.66669 100,-29 16.66669,-19.33331 25.33331,-46.33331 26,-81 0,-18.66669 -1,-38.33331 -3,-59 -2,-20.66666 -3.33331,-33 -4,-37 0,-9.33334 2.66669,-16 8,-20 5.33331,-4 17.33331,-6.66666 36,-8 h 15 v -21 l -4,-1 c -0.66669,0 -3.33331,-0.66666 -8,-2 -4.66669,-1.33334 -11.33331,-3 -20,-5 -8.66669,-2 -17,-4 -25,-6 l -50,-13 c -12.66666,7.33334 -21,12.33334 -25,15 -4,2.66666 -7.66666,7.33334 -11,14 -3.33334,6.66666 -5,16 -5,28 0,6 0.66666,18.33334 2,37 1.33334,18.66669 2.33334,34.66669 3,48 0,10 0,17.66669 0,23 0,5.33331 -2,13 -6,23 -4,10 -9,17.66669 -15,23 -6,5.33331 -16,10.66669 -30,16 -14,5.33331 -30.66666,7.66669 -50,7 -38,0 -70,-10.66669 -96,-32 -26,-21.33331 -40.66667,-48 -44,-80 -1.33333,-30.66666 12.33333,-74.66666 41,-132 26,-56 39.33334,-98 40,-126 v -18 c -8,-10 -33.33334,-37 -76,-81 l -41,-41 h 7 c 3.33333,0 18.66667,-5.33334 46,-16 27.33334,-10.66666 61,-21.333336 101,-32 40,-10.666664 76.33334,-16 109,-16 40,0 72.66669,8 98,24 25.33331,16 45.66669,48.66666 61,98 l 4,10 c 9.33331,-6 14.33331,-9.33333 15,-10 C 626.66669,108.66666 613.33331,60.333336 604,41 586,3.6666641 555.66669,-18 513,-24 c -11.33334,-1.333334 -23.66666,-2 -37,-2 -38.66666,0 -82.66666,7.666666 -132,23 C 294.66666,12.333334 250.33334,28.333332 211,45 171.66666,61.666668 145.66667,69.666664 133,69 121,69 109,62.666668 97,50 85,37.333332 74.333336,23 65,7 55.666664,-9 50.333332,-18 49,-20 l -4,4 c -2.666668,3.333334 -5.333332,6.666666 -8,10 -2.666668,3.3333335 -4,5.33333331 -4,6 0,5.3333335 11,28.333332 33,69 22,40.66667 37,62.33333 45,65 93.33334,14.66667 140,47 140,97 z" /></g><g
           transform="matrix(0.03830247,0,0,-0.03717593,306.72021,179.86588)"
           id="g84"><path
             id="path86"
             style="fill:#000000;fill-opacity:1;fill-rule:nonzero;stroke:none"
             d="m 96,585 c 37.33334,54 88.33333,81 153,81 32,0 64,-8.66669 96,-26 32,-17.33331 58,-48 78,-92 24.66666,-55.33334 37,-131.33331 37,-228 C 460,216.66666 445.66666,137.66667 417,83 403.66666,55 385.33334,32.666668 362,16 338.66666,-0.66666794 318.33334,-11 301,-15 c -17.33334,-4 -34.33334,-6.333334 -51,-7 -17.33333,0 -34.66667,2 -52,6 -17.33333,4 -37.66667,14.666666 -61,32 C 113.66666,33.333336 95.333336,55.666664 82,83 53.333332,137.66667 39,216.66666 39,320 39,436 58,524.33331 96,585 Z m 225,12 c -20,21.33331 -43.66666,32 -71,32 -28,0 -52,-10.66669 -72,-32 -16.66667,-17.33331 -27.66667,-41.33331 -33,-72 -5.33333,-30.66666 -8,-94.66666 -8,-192 0,-105.33334 2.66667,-174.66666 8,-208 5.33333,-33.333336 17.33333,-59.666664 36,-79 18.66667,-20 41.66667,-30 69,-30 26.66666,0 49.33334,10 68,30 19.33334,20 31.33334,48 36,84 4.66666,36 7.33334,103.66666 8,203 0,96.66669 -2.66666,160.33334 -8,191 -5.33334,30.66669 -16.33334,55 -33,73 z" /></g></g></g><g
       id="g88"><g
         clip-path="url(#clipPath94)"
         id="g90"><g
           transform="matrix(0.0525578,0,0,-0.05416087,273.34351,23.884941)"
           id="g96"><path
             id="path98"
             style="fill:#000000;fill-opacity:1;fill-rule:nonzero;stroke:none"
             d="m 33,157 c 0,67.33334 25.333332,131.33334 76,192 50.66667,60.66666 107.66666,91.33334 171,92 34,0 64,-16.33334 90,-49 10.66666,20 26,30 46,30 8.66666,0 16.33334,-2.66666 23,-8 6.66666,-5.33334 10,-12 10,-20 0,-8.66666 -12.33334,-62 -37,-160 -24.66666,-98 -37.33334,-153.333336 -38,-166 0,-16.666668 2.33334,-27.666668 7,-33 4.66666,-5.333334 11.66666,-8.333334 21,-9 6,0.666666 12.66666,3.666666 20,9 14,13.333336 27.66666,45.333328 41,96 4,13.33333 7.33334,20.33333 10,21 1.33334,0.66667 4.66666,1 10,1 h 4 c 12.66666,0 19,-3 19,-9 0,-4 -1.66666,-13 -5,-27 C 497.66666,103 491,85 481,63 471,41 460.33334,24.333334 449,13 440.33334,4.333333 429.66666,-2.6666665 417,-8 c -5.33334,-1.333333 -13.33334,-2 -24,-2 -22.66666,0 -41.66666,5 -57,15 -15.33334,10 -25.33334,20.333332 -30,31 l -6,15 c -0.66666,0.666668 -2,0.333332 -4,-1 -1.33334,-1.333332 -2.66666,-2.666668 -4,-4 C 252.66666,8.6666641 212.66667,-10 172,-10 135.33333,-10 103,3.3333321 75,30 47,56.666668 33,99 33,157 Z m 318,171 c 0,4 -1.66666,11.33334 -5,22 -3.33334,10.66666 -11,22.33334 -23,35 -12,12.66666 -27.33334,19.33334 -46,20 -23.33333,0 -45.66667,-10.33334 -67,-31 -21.33333,-20.66666 -38,-47.66666 -50,-81 -19.33333,-52.66667 -33,-107.33333 -41,-164 0,-2 0,-5.66666 0,-11 0,-5.33334 -0.33334,-9.33334 -1,-12 0,-30 6,-50.666664 18,-62 12,-11.333336 26.33333,-17.333334 43,-18 25.33333,0 50.33333,11 75,33 24.66666,22 39.33334,39 44,51 1.33334,2.66666 10.33334,38.33333 27,107 16.66666,68.66669 25.33334,105.66666 26,111 z" /></g><g
           transform="matrix(0.03715837,0,0,-0.03829173,302.88098,32.009071)"
           id="g100"><path
             id="path102"
             style="fill:#000000;fill-opacity:1;fill-rule:nonzero;stroke:none"
             d="m 96,585 c 37.33334,54 88.33333,81 153,81 32,0 64,-8.66669 96,-26 32,-17.33331 58,-48 78,-92 24.66666,-55.33334 37,-131.33331 37,-228 C 460,216.66666 445.66666,137.66667 417,83 403.66666,55 385.33334,32.666668 362,16 338.66666,-0.66666794 318.33334,-11 301,-15 c -17.33334,-4 -34.33334,-6.333334 -51,-7 -17.33333,0 -34.66667,2 -52,6 -17.33333,4 -37.66667,14.666666 -61,32 C 113.66666,33.333336 95.333336,55.666664 82,83 53.333332,137.66667 39,216.66666 39,320 39,436 58,524.33331 96,585 Z m 225,12 c -20,21.33331 -43.66666,32 -71,32 -28,0 -52,-10.66669 -72,-32 -16.66667,-17.33331 -27.66667,-41.33331 -33,-72 -5.33333,-30.66666 -8,-94.66666 -8,-192 0,-105.33334 2.66667,-174.66666 8,-208 5.33333,-33.333336 17.33333,-59.666664 36,-79 18.66667,-20 41.66667,-30 69,-30 26.66666,0 49.33334,10 68,30 19.33334,20 31.33334,48 36,84 4.66666,36 7.33334,103.66666 8,203 0,96.66669 -2.66666,160.33334 -8,191 -5.33334,30.66669 -16.33334,55 -33,73 z" /></g></g></g><g
       id="g104"><g
         clip-path="url(#clipPath110)"
         id="g106"><g
           transform="matrix(0.0525619,0,0,-0.05559049,451.05167,24.515409)"
           id="g112"><path
             id="path114"
             style="fill:#000000;fill-opacity:1;fill-rule:nonzero;stroke:none"
             d="m 33,157 c 0,67.33334 25.333332,131.33334 76,192 50.66667,60.66666 107.66666,91.33334 171,92 34,0 64,-16.33334 90,-49 10.66666,20 26,30 46,30 8.66666,0 16.33334,-2.66666 23,-8 6.66666,-5.33334 10,-12 10,-20 0,-8.66666 -12.33334,-62 -37,-160 -24.66666,-98 -37.33334,-153.333336 -38,-166 0,-16.666668 2.33334,-27.666668 7,-33 4.66666,-5.333334 11.66666,-8.333334 21,-9 6,0.666666 12.66666,3.666666 20,9 14,13.333336 27.66666,45.333328 41,96 4,13.33333 7.33334,20.33333 10,21 1.33334,0.66667 4.66666,1 10,1 h 4 c 12.66666,0 19,-3 19,-9 0,-4 -1.66666,-13 -5,-27 C 497.66666,103 491,85 481,63 471,41 460.33334,24.333334 449,13 440.33334,4.333333 429.66666,-2.6666665 417,-8 c -5.33334,-1.333333 -13.33334,-2 -24,-2 -22.66666,0 -41.66666,5 -57,15 -15.33334,10 -25.33334,20.333332 -30,31 l -6,15 c -0.66666,0.666668 -2,0.333332 -4,-1 -1.33334,-1.333332 -2.66666,-2.666668 -4,-4 C 252.66666,8.6666641 212.66667,-10 172,-10 135.33333,-10 103,3.3333321 75,30 47,56.666668 33,99 33,157 Z m 318,171 c 0,4 -1.66666,11.33334 -5,22 -3.33334,10.66666 -11,22.33334 -23,35 -12,12.66666 -27.33334,19.33334 -46,20 -23.33333,0 -45.66667,-10.33334 -67,-31 -21.33333,-20.66666 -38,-47.66666 -50,-81 -19.33333,-52.66667 -33,-107.33333 -41,-164 0,-2 0,-5.66666 0,-11 0,-5.33334 -0.33334,-9.33334 -1,-12 0,-30 6,-50.666664 18,-62 12,-11.333336 26.33333,-17.333334 43,-18 25.33333,0 50.33333,11 75,33 24.66666,22 39.33334,39 44,51 1.33334,2.66666 10.33334,38.33333 27,107 16.66666,68.66669 25.33334,105.66666 26,111 z" /></g><g
           transform="matrix(0.03716127,0,0,-0.03930248,480.59146,32.853981)"
           id="g116"><path
             id="path118"
             style="fill:#000000;fill-opacity:1;fill-rule:nonzero;stroke:none"
             d="m 213,578 -13,-5 c -9.33333,-3.33331 -22.66667,-6.66669 -40,-10 -17.33333,-3.33331 -36.66666,-5.66669 -58,-7 H 83 v 46 h 19 c 31.33333,1.33331 60.33333,6.33331 87,15 26.66667,8.66669 45.33333,16.66669 56,24 10.66667,7.33331 20,14.66669 28,22 1.33334,2 5.33334,3 12,3 6,0 11.66666,-2 17,-6 V 361 l 1,-300 c 4.66666,-4.666668 8.66666,-7.666668 12,-9 3.33334,-1.333332 11.33334,-2.666668 24,-4 12.66666,-1.333332 33.33334,-2 62,-2 h 26 V 0 H 416 C 402,2 349,3 257,3 166.33333,3 114,2 100,0 H 88 v 46 h 26 c 14.66667,0 27.33333,0 38,0 10.66667,0 19,0.333332 25,1 6,0.666668 11.33333,1.666668 16,3 4.66667,1.333332 7.33333,2 8,2 0.66667,0 2.66667,1.666668 6,5 3.33333,3.333332 5.33333,4.666668 6,4 z" /></g></g></g><g
       id="g120"><g
         clip-path="url(#clipPath126)"
         id="g122"><g
           transform="matrix(0.05520448,0,0,-0.05559285,274.8259,323.81378)"
           id="g128"><path
             id="path130"
             style="fill:#000000;fill-opacity:1;fill-rule:nonzero;stroke:none"
             d="m 73,647 c 0,6.66669 1.333336,14.33331 4,23 2.666664,8.66669 6.666664,13 12,13 0.666664,0 24.66666,1.66669 72,5 47.33334,3.33331 71.66667,5.33331 73,6 8,0 12,-3 12,-9 0,-6 -11.33333,-53.66669 -34,-143 -5.33333,-22.66669 -11,-46 -17,-70 -6,-24 -11,-42 -15,-54 l -4,-19 c 0,-2 2,-1 6,3 32.66667,26.66666 66.33333,40 101,40 41.33334,0 74.66666,-15.33334 100,-46 25.33334,-30.66666 38.33334,-69.33334 39,-116 C 422,206 395.66666,139 343,79 290.33334,19 233.66667,-11 173,-11 139.66666,-11 109.33334,1.666666 82,27 54.666664,52.333336 40.666668,93.333328 40,150 v 9 c 0,14 2.666668,33.33333 8,58 5.333332,24.66667 21.666664,90.33331 49,197 33.33334,131.33337 50,201 50,209 0,8 -12.66667,12.66669 -38,14 -3.33334,0 -6,0 -8,0 h -5 c -6.666664,0 -11,0 -13,0 -2,0 -4.333336,1 -7,3 -2.666664,2 -3.666664,4.33331 -3,7 z M 336,325 v 6 c 0,49.33334 -20.33334,74 -61,74 -11.33334,0 -23,-2.66666 -35,-8 -12,-5.33334 -23,-12.33334 -33,-21 -10,-8.66666 -18.66667,-16.66666 -26,-24 -7.33333,-7.33334 -13.33333,-14.66666 -18,-22 l -6,-8 -21,-86 c -14.66666,-57.33334 -22,-98 -22,-122 0,-32 8,-56 24,-72 10.66667,-10.666668 24,-16 40,-16 22,0 44.33333,10.666664 67,32 16.66666,15.333336 30,34 40,56 10,22 21,57 33,105 12,48 18,83.33334 18,106 z" /></g><g
           transform="matrix(0.03902957,0,0,-0.03930415,300.33035,332.15271)"
           id="g132"><path
             id="path134"
             style="fill:#000000;fill-opacity:1;fill-rule:nonzero;stroke:none"
             d="m 96,585 c 37.33334,54 88.33333,81 153,81 32,0 64,-8.66669 96,-26 32,-17.33331 58,-48 78,-92 24.66666,-55.33334 37,-131.33331 37,-228 C 460,216.66666 445.66666,137.66667 417,83 403.66666,55 385.33334,32.666668 362,16 338.66666,-0.66666794 318.33334,-11 301,-15 c -17.33334,-4 -34.33334,-6.333334 -51,-7 -17.33333,0 -34.66667,2 -52,6 -17.33333,4 -37.66667,14.666666 -61,32 C 113.66666,33.333336 95.333336,55.666664 82,83 53.333332,137.66667 39,216.66666 39,320 39,436 58,524.33331 96,585 Z m 225,12 c -20,21.33331 -43.66666,32 -71,32 -28,0 -52,-10.66669 -72,-32 -16.66667,-17.33331 -27.66667,-41.33331 -33,-72 -5.33333,-30.66666 -8,-94.66666 -8,-192 0,-105.33334 2.66667,-174.66666 8,-208 5.33333,-33.333336 17.33333,-59.666664 36,-79 18.66667,-20 41.66667,-30 69,-30 26.66666,0 49.33334,10 68,30 19.33334,20 31.33334,48 36,84 4.66666,36 7.33334,103.66666 8,203 0,96.66669 -2.66666,160.33334 -8,191 -5.33334,30.66669 -16.33334,55 -33,73 z" /></g></g></g><g
       id="g136"><g
         clip-path="url(#clipPath142)"
         id="g138"><g
           transform="matrix(0.0552075,0,0,-0.05308142,454.0282,322.07092)"
           id="g144"><path
             id="path146"
             style="fill:#000000;fill-opacity:1;fill-rule:nonzero;stroke:none"
             d="m 73,647 c 0,6.66669 1.333336,14.33331 4,23 2.666664,8.66669 6.666664,13 12,13 0.666664,0 24.66666,1.66669 72,5 47.33334,3.33331 71.66667,5.33331 73,6 8,0 12,-3 12,-9 0,-6 -11.33333,-53.66669 -34,-143 -5.33333,-22.66669 -11,-46 -17,-70 -6,-24 -11,-42 -15,-54 l -4,-19 c 0,-2 2,-1 6,3 32.66667,26.66666 66.33333,40 101,40 41.33334,0 74.66666,-15.33334 100,-46 25.33334,-30.66666 38.33334,-69.33334 39,-116 C 422,206 395.66666,139 343,79 290.33334,19 233.66667,-11 173,-11 139.66666,-11 109.33334,1.666666 82,27 54.666664,52.333336 40.666668,93.333328 40,150 v 9 c 0,14 2.666668,33.33333 8,58 5.333332,24.66667 21.666664,90.33331 49,197 33.33334,131.33337 50,201 50,209 0,8 -12.66667,12.66669 -38,14 -3.33334,0 -6,0 -8,0 h -5 c -6.666664,0 -11,0 -13,0 -2,0 -4.333336,1 -7,3 -2.666664,2 -3.666664,4.33331 -3,7 z M 336,325 v 6 c 0,49.33334 -20.33334,74 -61,74 -11.33334,0 -23,-2.66666 -35,-8 -12,-5.33334 -23,-12.33334 -33,-21 -10,-8.66666 -18.66667,-16.66666 -26,-24 -7.33333,-7.33334 -13.33333,-14.66666 -18,-22 l -6,-8 -21,-86 c -14.66666,-57.33334 -22,-98 -22,-122 0,-32 8,-56 24,-72 10.66667,-10.666668 24,-16 40,-16 22,0 44.33333,10.666664 67,32 16.66666,15.333336 30,34 40,56 10,22 21,57 33,105 12,48 18,83.33334 18,106 z" /></g><g
           transform="matrix(0.03903171,0,0,-0.03752857,479.53406,330.03314)"
           id="g148"><path
             id="path150"
             style="fill:#000000;fill-opacity:1;fill-rule:nonzero;stroke:none"
             d="m 213,578 -13,-5 c -9.33333,-3.33331 -22.66667,-6.66669 -40,-10 -17.33333,-3.33331 -36.66666,-5.66669 -58,-7 H 83 v 46 h 19 c 31.33333,1.33331 60.33333,6.33331 87,15 26.66667,8.66669 45.33333,16.66669 56,24 10.66667,7.33331 20,14.66669 28,22 1.33334,2 5.33334,3 12,3 6,0 11.66666,-2 17,-6 V 361 l 1,-300 c 4.66666,-4.666668 8.66666,-7.666668 12,-9 3.33334,-1.333332 11.33334,-2.666668 24,-4 12.66666,-1.333332 33.33334,-2 62,-2 h 26 V 0 H 416 C 402,2 349,3 257,3 166.33333,3 114,2 100,0 H 88 v 46 h 26 c 14.66667,0 27.33333,0 38,0 10.66667,0 19,0.333332 25,1 6,0.666668 11.33333,1.666668 16,3 4.66667,1.333332 7.33333,2 8,2 0.66667,0 2.66667,1.666668 6,5 3.33333,3.333332 5.33333,4.666668 6,4 z" /></g></g></g><g
       id="g152"><g
         clip-path="url(#clipPath158)"
         id="g154"><g
           transform="matrix(0.05408258,0,0,-0.05400801,-1.7180748,170.68976)"
           id="g160"><path
             id="path162"
             style="fill:#000000;fill-opacity:1;fill-rule:nonzero;stroke:none"
             d="m 251,231 c 0,15.33333 -15,52 -45,110 -30,58 -45.33333,100.33334 -46,127 0,40.66666 26,86.33331 78,137 50,48 112.33331,74.66669 187,80 l 7,1 c 5.33334,0 9.66666,0 13,0 50,0 83.33331,-9.66669 100,-29 16.66669,-19.33331 25.33331,-46.33331 26,-81 0,-18.66669 -1,-38.33331 -3,-59 -2,-20.66666 -3.33331,-33 -4,-37 0,-9.33334 2.66669,-16 8,-20 5.33331,-4 17.33331,-6.66666 36,-8 h 15 v -21 l -4,-1 c -0.66669,0 -3.33331,-0.66666 -8,-2 -4.66669,-1.33334 -11.33331,-3 -20,-5 -8.66669,-2 -17,-4 -25,-6 l -50,-13 c -12.66666,7.33334 -21,12.33334 -25,15 -4,2.66666 -7.66666,7.33334 -11,14 -3.33334,6.66666 -5,16 -5,28 0,6 0.66666,18.33334 2,37 1.33334,18.66669 2.33334,34.66669 3,48 0,10 0,17.66669 0,23 0,5.33331 -2,13 -6,23 -4,10 -9,17.66669 -15,23 -6,5.33331 -16,10.66669 -30,16 -14,5.33331 -30.66666,7.66669 -50,7 -38,0 -70,-10.66669 -96,-32 -26,-21.33331 -40.66667,-48 -44,-80 -1.33333,-30.66666 12.33333,-74.66666 41,-132 26,-56 39.33334,-98 40,-126 v -18 c -8,-10 -33.33334,-37 -76,-81 l -41,-41 h 7 c 3.33333,0 18.66667,-5.33334 46,-16 27.33334,-10.66666 61,-21.333336 101,-32 40,-10.666664 76.33334,-16 109,-16 40,0 72.66669,8 98,24 25.33331,16 45.66669,48.66666 61,98 l 4,10 c 9.33331,-6 14.33331,-9.33333 15,-10 C 626.66669,108.66666 613.33331,60.333336 604,41 586,3.6666641 555.66669,-18 513,-24 c -11.33334,-1.333334 -23.66666,-2 -37,-2 -38.66666,0 -82.66666,7.666666 -132,23 C 294.66666,12.333334 250.33334,28.333332 211,45 171.66666,61.666668 145.66667,69.666664 133,69 121,69 109,62.666668 97,50 85,37.333332 74.333336,23 65,7 55.666664,-9 50.333332,-18 49,-20 l -4,4 c -2.666668,3.333334 -5.333332,6.666666 -8,10 -2.666668,3.3333335 -4,5.33333331 -4,6 0,5.3333335 11,28.333332 33,69 22,40.66667 37,62.33333 45,65 93.33334,14.66667 140,47 140,97 z" /></g><g
           transform="matrix(0.03823639,0,0,-0.03818366,36.085651,145.26819)"
           id="g164"><path
             id="path166"
             style="fill:#000000;fill-opacity:1;fill-rule:nonzero;stroke:none"
             d="m 33,157 c 0,67.33334 25.333332,131.33334 76,192 50.66667,60.66666 107.66666,91.33334 171,92 34,0 64,-16.33334 90,-49 10.66666,20 26,30 46,30 8.66666,0 16.33334,-2.66666 23,-8 6.66666,-5.33334 10,-12 10,-20 0,-8.66666 -12.33334,-62 -37,-160 -24.66666,-98 -37.33334,-153.333336 -38,-166 0,-16.666668 2.33334,-27.666668 7,-33 4.66666,-5.333334 11.66666,-8.333334 21,-9 6,0.666666 12.66666,3.666666 20,9 14,13.333336 27.66666,45.333328 41,96 4,13.33333 7.33334,20.33333 10,21 1.33334,0.66667 4.66666,1 10,1 h 4 c 12.66666,0 19,-3 19,-9 0,-4 -1.66666,-13 -5,-27 C 497.66666,103 491,85 481,63 471,41 460.33334,24.333334 449,13 440.33334,4.333333 429.66666,-2.6666665 417,-8 c -5.33334,-1.333333 -13.33334,-2 -24,-2 -22.66666,0 -41.66666,5 -57,15 -15.33334,10 -25.33334,20.333332 -30,31 l -6,15 c -0.66666,0.666668 -2,0.333332 -4,-1 -1.33334,-1.333332 -2.66666,-2.666668 -4,-4 C 252.66666,8.6666641 212.66667,-10 172,-10 135.33333,-10 103,3.3333321 75,30 47,56.666668 33,99 33,157 Z m 318,171 c 0,4 -1.66666,11.33334 -5,22 -3.33334,10.66666 -11,22.33334 -23,35 -12,12.66666 -27.33334,19.33334 -46,20 -23.33333,0 -45.66667,-10.33334 -67,-31 -21.33333,-20.66666 -38,-47.66666 -50,-81 -19.33333,-52.66667 -33,-107.33333 -41,-164 0,-2 0,-5.66666 0,-11 0,-5.33334 -0.33334,-9.33334 -1,-12 0,-30 6,-50.666664 18,-62 12,-11.333336 26.33333,-17.333334 43,-18 25.33333,0 50.33333,11 75,33 24.66666,22 39.33334,39 44,51 1.33334,2.66666 10.33334,38.33333 27,107 16.66666,68.66669 25.33334,105.66666 26,111 z" /></g><g
           transform="matrix(0.02703312,0,0,-0.02699585,57.574501,150.99574)"
           id="g168"><path
             id="path170"
             style="fill:#000000;fill-opacity:1;fill-rule:nonzero;stroke:none"
             d="m 96,585 c 37.33334,54 88.33333,81 153,81 32,0 64,-8.66669 96,-26 32,-17.33331 58,-48 78,-92 24.66666,-55.33334 37,-131.33331 37,-228 C 460,216.66666 445.66666,137.66667 417,83 403.66666,55 385.33334,32.666668 362,16 338.66666,-0.66666794 318.33334,-11 301,-15 c -17.33334,-4 -34.33334,-6.333334 -51,-7 -17.33333,0 -34.66667,2 -52,6 -17.33333,4 -37.66667,14.666666 -61,32 C 113.66666,33.333336 95.333336,55.666664 82,83 53.333332,137.66667 39,216.66666 39,320 39,436 58,524.33331 96,585 Z m 225,12 c -20,21.33331 -43.66666,32 -71,32 -28,0 -52,-10.66669 -72,-32 -16.66667,-17.33331 -27.66667,-41.33331 -33,-72 -5.33333,-30.66666 -8,-94.66666 -8,-192 0,-105.33334 2.66667,-174.66666 8,-208 5.33333,-33.333336 17.33333,-59.666664 36,-79 18.66667,-20 41.66667,-30 69,-30 26.66666,0 49.33334,10 68,30 19.33334,20 31.33334,48 36,84 4.66666,36 7.33334,103.66666 8,203 0,96.66669 -2.66666,160.33334 -8,191 -5.33334,30.66669 -16.33334,55 -33,73 z" /></g><g
           transform="matrix(0.03823639,0,0,-0.03818366,73.006699,145.26819)"
           id="g172"><path
             id="path174"
             style="fill:#000000;fill-opacity:1;fill-rule:nonzero;stroke:none"
             d="m 78,60 c 0,16 5.666664,30 17,42 11.33334,12 25.66666,18 43,18 16,0 30,-5.33334 42,-16 C 192,93.333336 198.33333,79 199,61 199,44.333332 193.33333,30 182,18 170.66667,6 156.33333,0 139,0 121.66666,0 107.33334,5.666666 96,17 84.666664,28.333334 78.666664,42.666664 78,60 Z" /></g><g
           transform="matrix(0.03823639,0,0,-0.03818366,83.636421,145.26819)"
           id="g176"><path
             id="path178"
             style="fill:#000000;fill-opacity:1;fill-rule:nonzero;stroke:none"
             d="m 78,60 c 0,16 5.666664,30 17,42 11.33334,12 25.66666,18 43,18 16,0 30,-5.33334 42,-16 C 192,93.333336 198.33333,79 199,61 199,44.333332 193.33333,30 182,18 170.66667,6 156.33333,0 139,0 121.66666,0 107.33334,5.666666 96,17 84.666664,28.333334 78.666664,42.666664 78,60 Z" /></g><g
           transform="matrix(0.03823639,0,0,-0.03818366,94.266129,145.26819)"
           id="g180"><path
             id="path182"
             style="fill:#000000;fill-opacity:1;fill-rule:nonzero;stroke:none"
             d="m 78,60 c 0,16 5.666664,30 17,42 11.33334,12 25.66666,18 43,18 16,0 30,-5.33334 42,-16 C 192,93.333336 198.33333,79 199,61 199,44.333332 193.33333,30 182,18 170.66667,6 156.33333,0 139,0 121.66666,0 107.33334,5.666666 96,17 84.666664,28.333334 78.666664,42.666664 78,60 Z" /></g><g
           transform="matrix(0.03823639,0,0,-0.03818366,104.89585,145.26819)"
           id="g184"><path
             id="path186"
             style="fill:#000000;fill-opacity:1;fill-rule:nonzero;stroke:none"
             d="m 33,157 c 0,67.33334 25.333332,131.33334 76,192 50.66667,60.66666 107.66666,91.33334 171,92 34,0 64,-16.33334 90,-49 10.66666,20 26,30 46,30 8.66666,0 16.33334,-2.66666 23,-8 6.66666,-5.33334 10,-12 10,-20 0,-8.66666 -12.33334,-62 -37,-160 -24.66666,-98 -37.33334,-153.333336 -38,-166 0,-16.666668 2.33334,-27.666668 7,-33 4.66666,-5.333334 11.66666,-8.333334 21,-9 6,0.666666 12.66666,3.666666 20,9 14,13.333336 27.66666,45.333328 41,96 4,13.33333 7.33334,20.33333 10,21 1.33334,0.66667 4.66666,1 10,1 h 4 c 12.66666,0 19,-3 19,-9 0,-4 -1.66666,-13 -5,-27 C 497.66666,103 491,85 481,63 471,41 460.33334,24.333334 449,13 440.33334,4.333333 429.66666,-2.6666665 417,-8 c -5.33334,-1.333333 -13.33334,-2 -24,-2 -22.66666,0 -41.66666,5 -57,15 -15.33334,10 -25.33334,20.333332 -30,31 l -6,15 c -0.66666,0.666668 -2,0.333332 -4,-1 -1.33334,-1.333332 -2.66666,-2.666668 -4,-4 C 252.66666,8.6666641 212.66667,-10 172,-10 135.33333,-10 103,3.3333321 75,30 47,56.666668 33,99 33,157 Z m 318,171 c 0,4 -1.66666,11.33334 -5,22 -3.33334,10.66666 -11,22.33334 -23,35 -12,12.66666 -27.33334,19.33334 -46,20 -23.33333,0 -45.66667,-10.33334 -67,-31 -21.33333,-20.66666 -38,-47.66666 -50,-81 -19.33333,-52.66667 -33,-107.33333 -41,-164 0,-2 0,-5.66666 0,-11 0,-5.33334 -0.33334,-9.33334 -1,-12 0,-30 6,-50.666664 18,-62 12,-11.333336 26.33333,-17.333334 43,-18 25.33333,0 50.33333,11 75,33 24.66666,22 39.33334,39 44,51 1.33334,2.66666 10.33334,38.33333 27,107 16.66666,68.66669 25.33334,105.66666 26,111 z" /></g><g
           transform="matrix(0.02703312,0,0,-0.02699585,126.3847,150.99574)"
           id="g188"><path
             id="path190"
             style="fill:#000000;fill-opacity:1;fill-rule:nonzero;stroke:none"
             d="m 234,637 c -2,0 -4.66667,0 -8,0 -16.66667,0 -26.66667,0.33331 -30,1 -3.33333,0.66669 -5,4.33331 -5,11 0,18 3.66667,29 11,33 1.33333,0.66669 33.66666,1 97,1 51.33334,0 80.66666,0 88,0 7.33334,0 12,-2 14,-6 C 541.66669,346.33331 613.33331,176.66667 616,168 l 54,213 c 35.33331,140.66669 53,215.66669 53,225 0,18 -21.33331,28.33331 -64,31 -16,0 -24,3.66669 -24,11 0,1.33331 0.66669,5.33331 2,12 2.66669,10.66669 4.66669,17 6,19 1.33331,2 4.66669,3.33331 10,4 2,0 12.33331,-0.33331 31,-1 18.66669,-0.66669 46.33331,-1.33331 83,-2 33.33331,0 58.66669,0.33331 76,1 17.33331,0.66669 27.33331,1 30,1 10,0 15,-3.33331 15,-10 0,-14.66669 -2.66669,-24.66669 -8,-30 -1.33331,-3.33331 -8.66669,-5 -22,-5 -47.33331,-2.66669 -77,-16 -89,-40 L 620,7 C 618.66669,2.333333 611.66669,0 599,0 589.66669,0 584,0.66666663 582,2 580,4 537,105 453,305 L 326,604 261,344 C 217.66666,173.33333 196,85 196,79 199.33333,57 223.33333,46 268,46 h 10 c 4,-3.333332 6,-6 6,-8 0,-2 -0.66666,-8.333332 -2,-19 C 279.33334,10.333333 276,4 272,0 H 259 C 238.33333,1.3333334 202.33334,2 151,2 132.33333,2 115.33334,2 100,2 84.666664,2 72.333336,2 63,2 53.666664,2 48,1.6666667 46,1 36,1 31,4 31,10 c 0,2.666667 1,8 3,16 2,8 3.666668,12.666668 5,14 1.333332,4 9,6 23,6 45.33334,2 74.66667,15 88,39 2.66667,4 26.33333,96.33333 71,277 l 68,272 c -1.33334,0.66669 -19.66666,1.66669 -55,3 z" /></g><g
           transform="matrix(0.03823639,0,0,-0.03818366,36.085651,187.8157)"
           id="g192"><path
             id="path194"
             style="fill:#000000;fill-opacity:1;fill-rule:nonzero;stroke:none"
             d="m 73,647 c 0,6.66669 1.333336,14.33331 4,23 2.666664,8.66669 6.666664,13 12,13 0.666664,0 24.66666,1.66669 72,5 47.33334,3.33331 71.66667,5.33331 73,6 8,0 12,-3 12,-9 0,-6 -11.33333,-53.66669 -34,-143 -5.33333,-22.66669 -11,-46 -17,-70 -6,-24 -11,-42 -15,-54 l -4,-19 c 0,-2 2,-1 6,3 32.66667,26.66666 66.33333,40 101,40 41.33334,0 74.66666,-15.33334 100,-46 25.33334,-30.66666 38.33334,-69.33334 39,-116 C 422,206 395.66666,139 343,79 290.33334,19 233.66667,-11 173,-11 139.66666,-11 109.33334,1.666666 82,27 54.666664,52.333336 40.666668,93.333328 40,150 v 9 c 0,14 2.666668,33.33333 8,58 5.333332,24.66667 21.666664,90.33331 49,197 33.33334,131.33337 50,201 50,209 0,8 -12.66667,12.66669 -38,14 -3.33334,0 -6,0 -8,0 h -5 c -6.666664,0 -11,0 -13,0 -2,0 -4.333336,1 -7,3 -2.666664,2 -3.666664,4.33331 -3,7 z M 336,325 v 6 c 0,49.33334 -20.33334,74 -61,74 -11.33334,0 -23,-2.66666 -35,-8 -12,-5.33334 -23,-12.33334 -33,-21 -10,-8.66666 -18.66667,-16.66666 -26,-24 -7.33333,-7.33334 -13.33333,-14.66666 -18,-22 l -6,-8 -21,-86 c -14.66666,-57.33334 -22,-98 -22,-122 0,-32 8,-56 24,-72 10.66667,-10.666668 24,-16 40,-16 22,0 44.33333,10.666664 67,32 16.66666,15.333336 30,34 40,56 10,22 21,57 33,105 12,48 18,83.33334 18,106 z" /></g><g
           transform="matrix(0.02703312,0,0,-0.02699585,53.750858,193.54324)"
           id="g196"><path
             id="path198"
             style="fill:#000000;fill-opacity:1;fill-rule:nonzero;stroke:none"
             d="m 96,585 c 37.33334,54 88.33333,81 153,81 32,0 64,-8.66669 96,-26 32,-17.33331 58,-48 78,-92 24.66666,-55.33334 37,-131.33331 37,-228 C 460,216.66666 445.66666,137.66667 417,83 403.66666,55 385.33334,32.666668 362,16 338.66666,-0.66666794 318.33334,-11 301,-15 c -17.33334,-4 -34.33334,-6.333334 -51,-7 -17.33333,0 -34.66667,2 -52,6 -17.33333,4 -37.66667,14.666666 -61,32 C 113.66666,33.333336 95.333336,55.666664 82,83 53.333332,137.66667 39,216.66666 39,320 39,436 58,524.33331 96,585 Z m 225,12 c -20,21.33331 -43.66666,32 -71,32 -28,0 -52,-10.66669 -72,-32 -16.66667,-17.33331 -27.66667,-41.33331 -33,-72 -5.33333,-30.66666 -8,-94.66666 -8,-192 0,-105.33334 2.66667,-174.66666 8,-208 5.33333,-33.333336 17.33333,-59.666664 36,-79 18.66667,-20 41.66667,-30 69,-30 26.66666,0 49.33334,10 68,30 19.33334,20 31.33334,48 36,84 4.66666,36 7.33334,103.66666 8,203 0,96.66669 -2.66666,160.33334 -8,191 -5.33334,30.66669 -16.33334,55 -33,73 z" /></g><g
           transform="matrix(0.03823639,0,0,-0.03818366,69.183067,187.8157)"
           id="g200"><path
             id="path202"
             style="fill:#000000;fill-opacity:1;fill-rule:nonzero;stroke:none"
             d="m 78,60 c 0,16 5.666664,30 17,42 11.33334,12 25.66666,18 43,18 16,0 30,-5.33334 42,-16 C 192,93.333336 198.33333,79 199,61 199,44.333332 193.33333,30 182,18 170.66667,6 156.33333,0 139,0 121.66666,0 107.33334,5.666666 96,17 84.666664,28.333334 78.666664,42.666664 78,60 Z" /></g><g
           transform="matrix(0.03823639,0,0,-0.03818366,79.812782,187.8157)"
           id="g204"><path
             id="path206"
             style="fill:#000000;fill-opacity:1;fill-rule:nonzero;stroke:none"
             d="m 78,60 c 0,16 5.666664,30 17,42 11.33334,12 25.66666,18 43,18 16,0 30,-5.33334 42,-16 C 192,93.333336 198.33333,79 199,61 199,44.333332 193.33333,30 182,18 170.66667,6 156.33333,0 139,0 121.66666,0 107.33334,5.666666 96,17 84.666664,28.333334 78.666664,42.666664 78,60 Z" /></g><g
           transform="matrix(0.03823639,0,0,-0.03818366,90.44249,187.8157)"
           id="g208"><path
             id="path210"
             style="fill:#000000;fill-opacity:1;fill-rule:nonzero;stroke:none"
             d="m 78,60 c 0,16 5.666664,30 17,42 11.33334,12 25.66666,18 43,18 16,0 30,-5.33334 42,-16 C 192,93.333336 198.33333,79 199,61 199,44.333332 193.33333,30 182,18 170.66667,6 156.33333,0 139,0 121.66666,0 107.33334,5.666666 96,17 84.666664,28.333334 78.666664,42.666664 78,60 Z" /></g><g
           transform="matrix(0.03823639,0,0,-0.03818366,101.0722,187.8157)"
           id="g212"><path
             id="path214"
             style="fill:#000000;fill-opacity:1;fill-rule:nonzero;stroke:none"
             d="m 73,647 c 0,6.66669 1.333336,14.33331 4,23 2.666664,8.66669 6.666664,13 12,13 0.666664,0 24.66666,1.66669 72,5 47.33334,3.33331 71.66667,5.33331 73,6 8,0 12,-3 12,-9 0,-6 -11.33333,-53.66669 -34,-143 -5.33333,-22.66669 -11,-46 -17,-70 -6,-24 -11,-42 -15,-54 l -4,-19 c 0,-2 2,-1 6,3 32.66667,26.66666 66.33333,40 101,40 41.33334,0 74.66666,-15.33334 100,-46 25.33334,-30.66666 38.33334,-69.33334 39,-116 C 422,206 395.66666,139 343,79 290.33334,19 233.66667,-11 173,-11 139.66666,-11 109.33334,1.666666 82,27 54.666664,52.333336 40.666668,93.333328 40,150 v 9 c 0,14 2.666668,33.33333 8,58 5.333332,24.66667 21.666664,90.33331 49,197 33.33334,131.33337 50,201 50,209 0,8 -12.66667,12.66669 -38,14 -3.33334,0 -6,0 -8,0 h -5 c -6.666664,0 -11,0 -13,0 -2,0 -4.333336,1 -7,3 -2.666664,2 -3.666664,4.33331 -3,7 z M 336,325 v 6 c 0,49.33334 -20.33334,74 -61,74 -11.33334,0 -23,-2.66666 -35,-8 -12,-5.33334 -23,-12.33334 -33,-21 -10,-8.66666 -18.66667,-16.66666 -26,-24 -7.33333,-7.33334 -13.33333,-14.66666 -18,-22 l -6,-8 -21,-86 c -14.66666,-57.33334 -22,-98 -22,-122 0,-32 8,-56 24,-72 10.66667,-10.666668 24,-16 40,-16 22,0 44.33333,10.666664 67,32 16.66666,15.333336 30,34 40,56 10,22 21,57 33,105 12,48 18,83.33334 18,106 z" /></g><g
           transform="matrix(0.02703312,0,0,-0.02699585,118.73743,193.54324)"
           id="g216"><path
             id="path218"
             style="fill:#000000;fill-opacity:1;fill-rule:nonzero;stroke:none"
             d="m 234,637 c -2,0 -4.66667,0 -8,0 -16.66667,0 -26.66667,0.33331 -30,1 -3.33333,0.66669 -5,4.33331 -5,11 0,18 3.66667,29 11,33 1.33333,0.66669 33.66666,1 97,1 51.33334,0 80.66666,0 88,0 7.33334,0 12,-2 14,-6 C 541.66669,346.33331 613.33331,176.66667 616,168 l 54,213 c 35.33331,140.66669 53,215.66669 53,225 0,18 -21.33331,28.33331 -64,31 -16,0 -24,3.66669 -24,11 0,1.33331 0.66669,5.33331 2,12 2.66669,10.66669 4.66669,17 6,19 1.33331,2 4.66669,3.33331 10,4 2,0 12.33331,-0.33331 31,-1 18.66669,-0.66669 46.33331,-1.33331 83,-2 33.33331,0 58.66669,0.33331 76,1 17.33331,0.66669 27.33331,1 30,1 10,0 15,-3.33331 15,-10 0,-14.66669 -2.66669,-24.66669 -8,-30 -1.33331,-3.33331 -8.66669,-5 -22,-5 -47.33331,-2.66669 -77,-16 -89,-40 L 620,7 C 618.66669,2.333333 611.66669,0 599,0 589.66669,0 584,0.66666663 582,2 580,4 537,105 453,305 L 326,604 261,344 C 217.66666,173.33333 196,85 196,79 199.33333,57 223.33333,46 268,46 h 10 c 4,-3.333332 6,-6 6,-8 0,-2 -0.66666,-8.333332 -2,-19 C 279.33334,10.333333 276,4 272,0 H 259 C 238.33333,1.3333334 202.33334,2 151,2 132.33333,2 115.33334,2 100,2 84.666664,2 72.333336,2 63,2 53.666664,2 48,1.6666667 46,1 36,1 31,4 31,10 c 0,2.666667 1,8 3,16 2,8 3.666668,12.666668 5,14 1.333332,4 9,6 23,6 45.33334,2 74.66667,15 88,39 2.66667,4 26.33333,96.33333 71,277 l 68,272 c -1.33334,0.66669 -19.66666,1.66669 -55,3 z" /></g><g
           transform="matrix(0.05408258,0,0,-0.05400801,170.0482,170.68976)"
           id="g220"><path
             id="path222"
             style="fill:#000000;fill-opacity:1;fill-rule:nonzero;stroke:none"
             d="m 56,347 c 0,8.66666 4.666664,15.33334 14,20 h 637 c 10,-5.33334 15,-12 15,-20 0,-7.33334 -4.66669,-13.66666 -14,-19 L 390,327 H 72 c -10.666668,3.33334 -16,10 -16,20 z m 0,-194 c 0,10 5.333332,16.66667 16,20 h 636 c 9.33331,-6.66667 14,-13.33333 14,-20 0,-8.66667 -5,-15.33333 -15,-20 H 70 c -9.333336,4.66667 -14,11.33333 -14,20 z" /></g></g></g><g
       id="g224"><g
         clip-path="url(#clipPath230)"
         id="g226"><g
           transform="matrix(0.05309464,0,0,-0.0535859,709.13446,169.67073)"
           id="g232"><path
             id="path234"
             style="fill:#000000;fill-opacity:1;fill-rule:nonzero;stroke:none"
             d="m 251,231 c 0,15.33333 -15,52 -45,110 -30,58 -45.33333,100.33334 -46,127 0,40.66666 26,86.33331 78,137 50,48 112.33331,74.66669 187,80 l 7,1 c 5.33334,0 9.66666,0 13,0 50,0 83.33331,-9.66669 100,-29 16.66669,-19.33331 25.33331,-46.33331 26,-81 0,-18.66669 -1,-38.33331 -3,-59 -2,-20.66666 -3.33331,-33 -4,-37 0,-9.33334 2.66669,-16 8,-20 5.33331,-4 17.33331,-6.66666 36,-8 h 15 v -21 l -4,-1 c -0.66669,0 -3.33331,-0.66666 -8,-2 -4.66669,-1.33334 -11.33331,-3 -20,-5 -8.66669,-2 -17,-4 -25,-6 l -50,-13 c -12.66666,7.33334 -21,12.33334 -25,15 -4,2.66666 -7.66666,7.33334 -11,14 -3.33334,6.66666 -5,16 -5,28 0,6 0.66666,18.33334 2,37 1.33334,18.66669 2.33334,34.66669 3,48 0,10 0,17.66669 0,23 0,5.33331 -2,13 -6,23 -4,10 -9,17.66669 -15,23 -6,5.33331 -16,10.66669 -30,16 -14,5.33331 -30.66666,7.66669 -50,7 -38,0 -70,-10.66669 -96,-32 -26,-21.33331 -40.66667,-48 -44,-80 -1.33333,-30.66666 12.33333,-74.66666 41,-132 26,-56 39.33334,-98 40,-126 v -18 c -8,-10 -33.33334,-37 -76,-81 l -41,-41 h 7 c 3.33333,0 18.66667,-5.33334 46,-16 27.33334,-10.66666 61,-21.333336 101,-32 40,-10.666664 76.33334,-16 109,-16 40,0 72.66669,8 98,24 25.33331,16 45.66669,48.66666 61,98 l 4,10 c 9.33331,-6 14.33331,-9.33333 15,-10 C 626.66669,108.66666 613.33331,60.333336 604,41 586,3.6666641 555.66669,-18 513,-24 c -11.33334,-1.333334 -23.66666,-2 -37,-2 -38.66666,0 -82.66666,7.666666 -132,23 C 294.66666,12.333334 250.33334,28.333332 211,45 171.66666,61.666668 145.66667,69.666664 133,69 121,69 109,62.666668 97,50 85,37.333332 74.333336,23 65,7 55.666664,-9 50.333332,-18 49,-20 l -4,4 c -2.666668,3.333334 -5.333332,6.666666 -8,10 -2.666668,3.3333335 -4,5.33333331 -4,6 0,5.3333335 11,28.333332 33,69 22,40.66667 37,62.33333 45,65 93.33334,14.66667 140,47 140,97 z" /></g><g
           transform="matrix(0.03753791,0,0,-0.03788523,746.24762,177.70862)"
           id="g236"><path
             id="path238"
             style="fill:#000000;fill-opacity:1;fill-rule:nonzero;stroke:none"
             d="m 234,637 c -2,0 -4.66667,0 -8,0 -16.66667,0 -26.66667,0.33331 -30,1 -3.33333,0.66669 -5,4.33331 -5,11 0,18 3.66667,29 11,33 1.33333,0.66669 33.66666,1 97,1 51.33334,0 80.66666,0 88,0 7.33334,0 12,-2 14,-6 C 541.66669,346.33331 613.33331,176.66667 616,168 l 54,213 c 35.33331,140.66669 53,215.66669 53,225 0,18 -21.33331,28.33331 -64,31 -16,0 -24,3.66669 -24,11 0,1.33331 0.66669,5.33331 2,12 2.66669,10.66669 4.66669,17 6,19 1.33331,2 4.66669,3.33331 10,4 2,0 12.33331,-0.33331 31,-1 18.66669,-0.66669 46.33331,-1.33331 83,-2 33.33331,0 58.66669,0.33331 76,1 17.33331,0.66669 27.33331,1 30,1 10,0 15,-3.33331 15,-10 0,-14.66669 -2.66669,-24.66669 -8,-30 -1.33331,-3.33331 -8.66669,-5 -22,-5 -47.33331,-2.66669 -77,-16 -89,-40 L 620,7 C 618.66669,2.333333 611.66669,0 599,0 589.66669,0 584,0.66666663 582,2 580,4 537,105 453,305 L 326,604 261,344 C 217.66666,173.33333 196,85 196,79 199.33333,57 223.33333,46 268,46 h 10 c 4,-3.333332 6,-6 6,-8 0,-2 -0.66666,-8.333332 -2,-19 C 279.33334,10.333333 276,4 272,0 H 259 C 238.33333,1.3333334 202.33334,2 151,2 132.33333,2 115.33334,2 100,2 84.666664,2 72.333336,2 63,2 53.666664,2 48,1.6666667 46,1 36,1 31,4 31,10 c 0,2.666667 1,8 3,16 2,8 3.666668,12.666668 5,14 1.333332,4 9,6 23,6 45.33334,2 74.66667,15 88,39 2.66667,4 26.33333,96.33333 71,277 l 68,272 c -1.33334,0.66669 -19.66666,1.66669 -55,3 z" /></g></g></g><g
       id="g240"><g
         clip-path="url(#clipPath246)"
         id="g242"><g
           transform="matrix(0.05421291,0,0,-0.05559049,712.08771,24.515409)"
           id="g248"><path
             id="path250"
             style="fill:#000000;fill-opacity:1;fill-rule:nonzero;stroke:none"
             d="m 33,157 c 0,67.33334 25.333332,131.33334 76,192 50.66667,60.66666 107.66666,91.33334 171,92 34,0 64,-16.33334 90,-49 10.66666,20 26,30 46,30 8.66666,0 16.33334,-2.66666 23,-8 6.66666,-5.33334 10,-12 10,-20 0,-8.66666 -12.33334,-62 -37,-160 -24.66666,-98 -37.33334,-153.333336 -38,-166 0,-16.666668 2.33334,-27.666668 7,-33 4.66666,-5.333334 11.66666,-8.333334 21,-9 6,0.666666 12.66666,3.666666 20,9 14,13.333336 27.66666,45.333328 41,96 4,13.33333 7.33334,20.33333 10,21 1.33334,0.66667 4.66666,1 10,1 h 4 c 12.66666,0 19,-3 19,-9 0,-4 -1.66666,-13 -5,-27 C 497.66666,103 491,85 481,63 471,41 460.33334,24.333334 449,13 440.33334,4.333333 429.66666,-2.6666665 417,-8 c -5.33334,-1.333333 -13.33334,-2 -24,-2 -22.66666,0 -41.66666,5 -57,15 -15.33334,10 -25.33334,20.333332 -30,31 l -6,15 c -0.66666,0.666668 -2,0.333332 -4,-1 -1.33334,-1.333332 -2.66666,-2.666668 -4,-4 C 252.66666,8.6666641 212.66667,-10 172,-10 135.33333,-10 103,3.3333321 75,30 47,56.666668 33,99 33,157 Z m 318,171 c 0,4 -1.66666,11.33334 -5,22 -3.33334,10.66666 -11,22.33334 -23,35 -12,12.66666 -27.33334,19.33334 -46,20 -23.33333,0 -45.66667,-10.33334 -67,-31 -21.33333,-20.66666 -38,-47.66666 -50,-81 -19.33333,-52.66667 -33,-107.33333 -41,-164 0,-2 0,-5.66666 0,-11 0,-5.33334 -0.33334,-9.33334 -1,-12 0,-30 6,-50.666664 18,-62 12,-11.333336 26.33333,-17.333334 43,-18 25.33333,0 50.33333,11 75,33 24.66666,22 39.33334,39 44,51 1.33334,2.66666 10.33334,38.33333 27,107 16.66666,68.66669 25.33334,105.66666 26,111 z" /></g><g
           transform="matrix(0.03832853,0,0,-0.03930248,742.55536,32.853981)"
           id="g252"><path
             id="path254"
             style="fill:#000000;fill-opacity:1;fill-rule:nonzero;stroke:none"
             d="m 234,637 c -2,0 -4.66667,0 -8,0 -16.66667,0 -26.66667,0.33331 -30,1 -3.33333,0.66669 -5,4.33331 -5,11 0,18 3.66667,29 11,33 1.33333,0.66669 33.66666,1 97,1 51.33334,0 80.66666,0 88,0 7.33334,0 12,-2 14,-6 C 541.66669,346.33331 613.33331,176.66667 616,168 l 54,213 c 35.33331,140.66669 53,215.66669 53,225 0,18 -21.33331,28.33331 -64,31 -16,0 -24,3.66669 -24,11 0,1.33331 0.66669,5.33331 2,12 2.66669,10.66669 4.66669,17 6,19 1.33331,2 4.66669,3.33331 10,4 2,0 12.33331,-0.33331 31,-1 18.66669,-0.66669 46.33331,-1.33331 83,-2 33.33331,0 58.66669,0.33331 76,1 17.33331,0.66669 27.33331,1 30,1 10,0 15,-3.33331 15,-10 0,-14.66669 -2.66669,-24.66669 -8,-30 -1.33331,-3.33331 -8.66669,-5 -22,-5 -47.33331,-2.66669 -77,-16 -89,-40 L 620,7 C 618.66669,2.333333 611.66669,0 599,0 589.66669,0 584,0.66666663 582,2 580,4 537,105 453,305 L 326,604 261,344 C 217.66666,173.33333 196,85 196,79 199.33333,57 223.33333,46 268,46 h 10 c 4,-3.333332 6,-6 6,-8 0,-2 -0.66666,-8.333332 -2,-19 C 279.33334,10.333333 276,4 272,0 H 259 C 238.33333,1.3333334 202.33334,2 151,2 132.33333,2 115.33334,2 100,2 84.666664,2 72.333336,2 63,2 53.666664,2 48,1.6666667 46,1 36,1 31,4 31,10 c 0,2.666667 1,8 3,16 2,8 3.666668,12.666668 5,14 1.333332,4 9,6 23,6 45.33334,2 74.66667,15 88,39 2.66667,4 26.33333,96.33333 71,277 l 68,272 c -1.33334,0.66669 -19.66666,1.66669 -55,3 z" /></g></g></g><g
       id="g256"><g
         clip-path="url(#clipPath262)"
         id="g258"><g
           transform="matrix(0.0540216,0,0,-0.05308162,717.70331,322.07098)"
           id="g264"><path
             id="path266"
             style="fill:#000000;fill-opacity:1;fill-rule:nonzero;stroke:none"
             d="m 73,647 c 0,6.66669 1.333336,14.33331 4,23 2.666664,8.66669 6.666664,13 12,13 0.666664,0 24.66666,1.66669 72,5 47.33334,3.33331 71.66667,5.33331 73,6 8,0 12,-3 12,-9 0,-6 -11.33333,-53.66669 -34,-143 -5.33333,-22.66669 -11,-46 -17,-70 -6,-24 -11,-42 -15,-54 l -4,-19 c 0,-2 2,-1 6,3 32.66667,26.66666 66.33333,40 101,40 41.33334,0 74.66666,-15.33334 100,-46 25.33334,-30.66666 38.33334,-69.33334 39,-116 C 422,206 395.66666,139 343,79 290.33334,19 233.66667,-11 173,-11 139.66666,-11 109.33334,1.666666 82,27 54.666664,52.333336 40.666668,93.333328 40,150 v 9 c 0,14 2.666668,33.33333 8,58 5.333332,24.66667 21.666664,90.33331 49,197 33.33334,131.33337 50,201 50,209 0,8 -12.66667,12.66669 -38,14 -3.33334,0 -6,0 -8,0 h -5 c -6.666664,0 -11,0 -13,0 -2,0 -4.333336,1 -7,3 -2.666664,2 -3.666664,4.33331 -3,7 z M 336,325 v 6 c 0,49.33334 -20.33334,74 -61,74 -11.33334,0 -23,-2.66666 -35,-8 -12,-5.33334 -23,-12.33334 -33,-21 -10,-8.66666 -18.66667,-16.66666 -26,-24 -7.33333,-7.33334 -13.33333,-14.66666 -18,-22 l -6,-8 -21,-86 c -14.66666,-57.33334 -22,-98 -22,-122 0,-32 8,-56 24,-72 10.66667,-10.666668 24,-16 40,-16 22,0 44.33333,10.666664 67,32 16.66666,15.333336 30,34 40,56 10,22 21,57 33,105 12,48 18,83.33334 18,106 z" /></g><g
           transform="matrix(0.03819328,0,0,-0.0375287,742.66132,330.0332)"
           id="g268"><path
             id="path270"
             style="fill:#000000;fill-opacity:1;fill-rule:nonzero;stroke:none"
             d="m 234,637 c -2,0 -4.66667,0 -8,0 -16.66667,0 -26.66667,0.33331 -30,1 -3.33333,0.66669 -5,4.33331 -5,11 0,18 3.66667,29 11,33 1.33333,0.66669 33.66666,1 97,1 51.33334,0 80.66666,0 88,0 7.33334,0 12,-2 14,-6 C 541.66669,346.33331 613.33331,176.66667 616,168 l 54,213 c 35.33331,140.66669 53,215.66669 53,225 0,18 -21.33331,28.33331 -64,31 -16,0 -24,3.66669 -24,11 0,1.33331 0.66669,5.33331 2,12 2.66669,10.66669 4.66669,17 6,19 1.33331,2 4.66669,3.33331 10,4 2,0 12.33331,-0.33331 31,-1 18.66669,-0.66669 46.33331,-1.33331 83,-2 33.33331,0 58.66669,0.33331 76,1 17.33331,0.66669 27.33331,1 30,1 10,0 15,-3.33331 15,-10 0,-14.66669 -2.66669,-24.66669 -8,-30 -1.33331,-3.33331 -8.66669,-5 -22,-5 -47.33331,-2.66669 -77,-16 -89,-40 L 620,7 C 618.66669,2.333333 611.66669,0 599,0 589.66669,0 584,0.66666663 582,2 580,4 537,105 453,305 L 326,604 261,344 C 217.66666,173.33333 196,85 196,79 199.33333,57 223.33333,46 268,46 h 10 c 4,-3.333332 6,-6 6,-8 0,-2 -0.66666,-8.333332 -2,-19 C 279.33334,10.333333 276,4 272,0 H 259 C 238.33333,1.3333334 202.33334,2 151,2 132.33333,2 115.33334,2 100,2 84.666664,2 72.333336,2 63,2 53.666664,2 48,1.6666667 46,1 36,1 31,4 31,10 c 0,2.666667 1,8 3,16 2,8 3.666668,12.666668 5,14 1.333332,4 9,6 23,6 45.33334,2 74.66667,15 88,39 2.66667,4 26.33333,96.33333 71,277 l 68,272 c -1.33334,0.66669 -19.66666,1.66669 -55,3 z" /></g></g></g></g></svg>