<?xml version="1.0" encoding="UTF-8" standalone="no"?>
<svg
   xmlns:dc="http://purl.org/dc/elements/1.1/"
   xmlns:cc="http://creativecommons.org/ns#"
   xmlns:rdf="http://www.w3.org/1999/02/22-rdf-syntax-ns#"
   xmlns:svg="http://www.w3.org/2000/svg"
   xmlns="http://www.w3.org/2000/svg"
   viewBox="0 0 320 88"
   height="88"
   width="320"
   xml:space="preserve"
   id="svg2"
   version="1.1"><metadata
     id="metadata8"><rdf:RDF><cc:Work
         rdf:about=""><dc:format>image/svg+xml</dc:format><dc:type
           rdf:resource="http://purl.org/dc/dcmitype/StillImage" /></cc:Work></rdf:RDF></metadata><defs
     id="defs6"><clipPath
       id="clipPath18"
       clipPathUnits="userSpaceOnUse"><path
         style="clip-rule:evenodd"
         id="path16"
         d="M 0,0 H 999.02344 V 275.97656 H 0 Z" /></clipPath><clipPath
       id="clipPath58"
       clipPathUnits="userSpaceOnUse"><path
         style="clip-rule:evenodd"
         id="path56"
         d="m 351.37195,0 h 48.04138 v 32.880432 h -48.04138 z" /></clipPath><clipPath
       id="clipPath74"
       clipPathUnits="userSpaceOnUse"><path
         style="clip-rule:evenodd"
         id="path72"
         d="m 561.55304,0 h 48.04138 v 32.880432 h -48.04138 z" /></clipPath><clipPath
       id="clipPath90"
       clipPathUnits="userSpaceOnUse"><path
         style="clip-rule:evenodd"
         id="path88"
         d="m 866.31555,0 h 99.08533 v 32.880432 h -99.08533 z" /></clipPath><clipPath
       id="clipPath114"
       clipPathUnits="userSpaceOnUse"><path
         style="clip-rule:evenodd"
         id="path112"
         d="M 854.30518,161.41309 H 977.4112 v 56.79345 H 854.30518 Z" /></clipPath><clipPath
       id="clipPath142"
       clipPathUnits="userSpaceOnUse"><path
         style="clip-rule:evenodd"
         id="path140"
         d="m 551.04395,161.41309 h 69.05951 v 56.79345 h -69.05951 z" /></clipPath><clipPath
       id="clipPath162"
       clipPathUnits="userSpaceOnUse"><path
         style="clip-rule:evenodd"
         id="path160"
         d="m 340.86288,161.41309 h 69.05948 v 56.79345 h -69.05948 z" /></clipPath><clipPath
       id="clipPath182"
       clipPathUnits="userSpaceOnUse"><path
         style="clip-rule:evenodd"
         id="path180"
         d="M 0.06933975,161.41309 H 264.29694 v 47.82605 H 0.06933975 Z" /></clipPath></defs><g
     transform="matrix(0.31999998,0,0,0.31999998,0,2.2e-6)"
     id="g10"><g
       id="g12"><g
         clip-path="url(#clipPath18)"
         id="g14"><g
           transform="matrix(3.0025864,0,0,2.9891305,-58.481098,-715.89673)"
           id="g20"><path
             id="path22"
             style="fill:none;stroke:#000000;stroke-width:1;stroke-linecap:butt;stroke-linejoin:miter;stroke-miterlimit:10;stroke-dasharray:none;stroke-opacity:1"
             d="m 170,305 h 20" /><path
             id="path24"
             style="fill:none;stroke:#000000;stroke-width:1;stroke-linecap:butt;stroke-linejoin:miter;stroke-miterlimit:10;stroke-dasharray:none;stroke-opacity:1"
             d="M 145,280 V 260" /><path
             id="path26"
             style="fill:#ffffff;fill-opacity:1;fill-rule:nonzero;stroke:none"
             d="m 170,305 c 0,0.81876 -0.0401,1.63556 -0.12038,2.45041 -0.0803,0.81485 -0.20025,1.62378 -0.36,2.42682 -0.15973,0.80307 -0.35843,1.59634 -0.59611,2.37988 -0.23769,0.78351 -0.5132,1.5535 -0.82654,2.30994 -0.31332,0.75644 -0.66296,1.49572 -1.04894,2.21783 -0.38597,0.72211 -0.80641,1.42356 -1.2613,2.10434 -0.45488,0.68079 -0.94205,1.33765 -1.46147,1.97058 -0.51943,0.63291 -1.06864,1.23886 -1.6476,1.81784 -0.57897,0.57895 -1.18491,1.12818 -1.81784,1.64762 -0.63292,0.51941 -1.28978,1.00656 -1.97058,1.46142 -0.68079,0.45493 -1.38224,0.87537 -2.10433,1.26135 -0.72211,0.38596 -1.46139,0.7356 -2.21785,1.04892 -0.75645,0.31333 -1.52643,0.58884 -2.30995,0.82654 -0.78352,0.2377 -1.57681,0.4364 -2.37987,0.5961 -0.80304,0.15976 -1.61198,0.27979 -2.42682,0.36002 C 146.63559,329.95987 145.81877,330 145,330 c -0.81877,0 -1.63557,-0.0401 -2.45042,-0.12039 -0.81484,-0.0802 -1.6238,-0.20026 -2.42685,-0.36002 -0.80306,-0.1597 -1.59633,-0.3584 -2.37984,-0.59607 -0.78354,-0.2377 -1.55353,-0.51324 -2.30998,-0.82657 -0.75646,-0.31332 -1.49573,-0.66299 -2.21784,-1.04895 -0.72209,-0.38595 -1.42354,-0.80639 -2.10434,-1.26132 -0.68078,-0.45486 -1.33764,-0.94201 -1.97056,-1.46142 -0.63294,-0.51944 -1.23889,-1.06867 -1.81785,-1.64762 -0.57896,-0.57898 -1.12815,-1.18493 -1.64758,-1.81784 -0.51944,-0.63293 -1.0066,-1.28979 -1.4615,-1.97058 -0.45489,-0.68078 -0.87531,-1.38223 -1.26128,-2.10434 -0.38597,-0.72211 -0.73562,-1.46139 -1.04896,-2.21783 -0.31333,-0.75644 -0.58883,-1.52643 -0.82651,-2.30994 -0.23768,-0.78354 -0.4364,-1.57681 -0.59614,-2.37988 -0.15973,-0.80304 -0.27972,-1.61197 -0.35997,-2.42682 C 120.04012,306.63556 120,305.81876 120,305 c 0,-0.81879 0.0401,-1.63559 0.12038,-2.45044 0.0803,-0.81485 0.20024,-1.62378 0.35997,-2.42682 0.15974,-0.80304 0.35846,-1.59631 0.59614,-2.37985 0.23768,-0.78354 0.51318,-1.55353 0.82651,-2.31 0.31334,-0.75644 0.66299,-1.49573 1.04896,-2.21783 0.38597,-0.72211 0.8064,-1.42356 1.26129,-2.10434 0.45489,-0.68076 0.94206,-1.33762 1.46149,-1.97052 0.51943,-0.63294 1.06862,-1.23889 1.64758,-1.81787 0.57896,-0.57895 1.18491,-1.12818 1.81785,-1.64762 0.63292,-0.51941 1.28978,-1.00656 1.97056,-1.46148 0.6808,-0.45487 1.38225,-0.87531 2.10436,-1.26126 0.72209,-0.38599 1.46136,-0.73566 2.21782,-1.04899 0.75645,-0.31332 1.52644,-0.58883 2.30998,-0.8265 0.78351,-0.23767 1.57678,-0.43637 2.37984,-0.59613 0.80305,-0.1597 1.61201,-0.2797 2.42685,-0.35996 0.81485,-0.0802 1.63165,-0.12036 2.45042,-0.12039 0.81877,3e-5 1.63559,0.0402 2.45042,0.12039 0.81484,0.0803 1.62378,0.20026 2.42682,0.35996 0.80306,0.15976 1.59635,0.35846 2.37987,0.59613 0.78352,0.23767 1.5535,0.51318 2.30995,0.8265 0.75646,0.31333 1.49574,0.663 2.21784,1.04899 0.7221,0.38595 1.42355,0.80639 2.10434,1.26129 0.6808,0.45489 1.33766,0.94204 1.97059,1.46148 0.63292,0.51944 1.23886,1.06864 1.81783,1.64759 0.57896,0.57898 1.12817,1.18493 1.6476,1.81787 0.51942,0.6329 1.00659,1.28976 1.46147,1.97055 0.45489,0.68078 0.87533,1.38223 1.2613,2.10431 0.38598,0.7221 0.73562,1.46139 1.04894,2.21783 0.31334,0.75647 0.58885,1.52646 0.82654,2.31 0.23768,0.78354 0.43638,1.57681 0.59611,2.37985 0.15975,0.80304 0.27974,1.61197 0.36,2.42682 C 169.95987,303.36441 170,304.18121 170,305 Z" /><path
             id="path28"
             style="fill:none;stroke:#000000;stroke-width:1;stroke-linecap:butt;stroke-linejoin:miter;stroke-miterlimit:10;stroke-dasharray:none;stroke-opacity:1"
             d="m 170,305 c 0,0.81876 -0.0401,1.63556 -0.12038,2.45041 -0.0803,0.81485 -0.20025,1.62378 -0.36,2.42682 -0.15973,0.80307 -0.35843,1.59634 -0.59611,2.37988 -0.23769,0.78351 -0.5132,1.5535 -0.82654,2.30994 -0.31332,0.75644 -0.66296,1.49572 -1.04894,2.21783 -0.38597,0.72211 -0.80641,1.42356 -1.2613,2.10434 -0.45488,0.68079 -0.94205,1.33765 -1.46147,1.97058 -0.51943,0.63291 -1.06864,1.23886 -1.6476,1.81784 -0.57897,0.57895 -1.18491,1.12818 -1.81784,1.64762 -0.63292,0.51941 -1.28978,1.00656 -1.97058,1.46142 -0.68079,0.45493 -1.38224,0.87537 -2.10433,1.26135 -0.72211,0.38596 -1.46139,0.7356 -2.21785,1.04892 -0.75645,0.31333 -1.52643,0.58884 -2.30995,0.82654 -0.78352,0.2377 -1.57681,0.4364 -2.37987,0.5961 -0.80304,0.15976 -1.61198,0.27979 -2.42682,0.36002 C 146.63559,329.95987 145.81877,330 145,330 c -0.81877,0 -1.63557,-0.0401 -2.45042,-0.12039 -0.81484,-0.0802 -1.6238,-0.20026 -2.42685,-0.36002 -0.80306,-0.1597 -1.59633,-0.3584 -2.37984,-0.59607 -0.78354,-0.2377 -1.55353,-0.51324 -2.30998,-0.82657 -0.75646,-0.31332 -1.49573,-0.66299 -2.21784,-1.04895 -0.72209,-0.38595 -1.42354,-0.80639 -2.10434,-1.26132 -0.68078,-0.45486 -1.33764,-0.94201 -1.97056,-1.46142 -0.63294,-0.51944 -1.23889,-1.06867 -1.81785,-1.64762 -0.57896,-0.57898 -1.12815,-1.18493 -1.64758,-1.81784 -0.51944,-0.63293 -1.0066,-1.28979 -1.4615,-1.97058 -0.45489,-0.68078 -0.87531,-1.38223 -1.26128,-2.10434 -0.38597,-0.72211 -0.73562,-1.46139 -1.04896,-2.21783 -0.31333,-0.75644 -0.58883,-1.52643 -0.82651,-2.30994 -0.23768,-0.78354 -0.4364,-1.57681 -0.59614,-2.37988 -0.15973,-0.80304 -0.27972,-1.61197 -0.35997,-2.42682 C 120.04012,306.63556 120,305.81876 120,305 c 0,-0.81879 0.0401,-1.63559 0.12038,-2.45044 0.0803,-0.81485 0.20024,-1.62378 0.35997,-2.42682 0.15974,-0.80304 0.35846,-1.59631 0.59614,-2.37985 0.23768,-0.78354 0.51318,-1.55353 0.82651,-2.31 0.31334,-0.75644 0.66299,-1.49573 1.04896,-2.21783 0.38597,-0.72211 0.8064,-1.42356 1.26129,-2.10434 0.45489,-0.68076 0.94206,-1.33762 1.46149,-1.97052 0.51943,-0.63294 1.06862,-1.23889 1.64758,-1.81787 0.57896,-0.57895 1.18491,-1.12818 1.81785,-1.64762 0.63292,-0.51941 1.28978,-1.00656 1.97056,-1.46148 0.6808,-0.45487 1.38225,-0.87531 2.10436,-1.26126 0.72209,-0.38599 1.46136,-0.73566 2.21782,-1.04899 0.75645,-0.31332 1.52644,-0.58883 2.30998,-0.8265 0.78351,-0.23767 1.57678,-0.43637 2.37984,-0.59613 0.80305,-0.1597 1.61201,-0.2797 2.42685,-0.35996 0.81485,-0.0802 1.63165,-0.12036 2.45042,-0.12039 0.81877,3e-5 1.63559,0.0402 2.45042,0.12039 0.81484,0.0803 1.62378,0.20026 2.42682,0.35996 0.80306,0.15976 1.59635,0.35846 2.37987,0.59613 0.78352,0.23767 1.5535,0.51318 2.30995,0.8265 0.75646,0.31333 1.49574,0.663 2.21784,1.04899 0.7221,0.38595 1.42355,0.80639 2.10434,1.26129 0.6808,0.45489 1.33766,0.94204 1.97059,1.46148 0.63292,0.51944 1.23886,1.06864 1.81783,1.64759 0.57896,0.57898 1.12817,1.18493 1.6476,1.81787 0.51942,0.6329 1.00659,1.28976 1.46147,1.97055 0.45489,0.68078 0.87533,1.38223 1.2613,2.10431 0.38598,0.7221 0.73562,1.46139 1.04894,2.21783 0.31334,0.75647 0.58885,1.52646 0.82654,2.31 0.23768,0.78354 0.43638,1.57681 0.59611,2.37985 0.15975,0.80304 0.27974,1.61197 0.36,2.42682 C 169.95987,303.36441 170,304.18121 170,305 Z" /><path
             id="path30"
             style="fill:none;stroke:#000000;stroke-width:1;stroke-linecap:butt;stroke-linejoin:miter;stroke-miterlimit:10;stroke-dasharray:none;stroke-opacity:1"
             d="m 240,305 h 10" /><path
             id="path32"
             style="fill:none;stroke:#000000;stroke-width:1;stroke-linecap:butt;stroke-linejoin:miter;stroke-miterlimit:10;stroke-dasharray:none;stroke-opacity:1"
             d="M 215,280 V 270 260" /><path
             id="path34"
             style="fill:#ffffff;fill-opacity:1;fill-rule:nonzero;stroke:none"
             d="m 240,305 c 0,0.81876 -0.0401,1.63556 -0.12039,2.45041 -0.0803,0.81485 -0.20026,1.62378 -0.36,2.42682 -0.15975,0.80307 -0.35845,1.59634 -0.59612,2.37988 -0.23767,0.78351 -0.51318,1.5535 -0.82652,2.30994 -0.31334,0.75644 -0.66298,1.49572 -1.04894,2.21783 -0.38597,0.72211 -0.80641,1.42356 -1.2613,2.10434 -0.4549,0.68079 -0.94205,1.33765 -1.46147,1.97058 -0.51944,0.63291 -1.06864,1.23886 -1.6476,1.81784 -0.57897,0.57895 -1.18491,1.12818 -1.81783,1.64762 -0.63293,0.51941 -1.28979,1.00656 -1.97059,1.46142 -0.68077,0.45493 -1.38222,0.87537 -2.10431,1.26135 -0.72211,0.38596 -1.4614,0.7356 -2.21787,1.04892 -0.75645,0.31333 -1.52644,0.58884 -2.30996,0.82654 -0.78353,0.2377 -1.5768,0.4364 -2.37986,0.5961 -0.80304,0.15976 -1.61197,0.27979 -2.4268,0.36002 C 216.6356,329.95987 215.81879,330 215,330 c -0.81877,0 -1.63559,-0.0401 -2.45042,-0.12039 -0.81484,-0.0802 -1.62378,-0.20026 -2.42685,-0.36002 -0.80306,-0.1597 -1.59635,-0.3584 -2.37987,-0.59607 -0.78352,-0.2377 -1.55351,-0.51324 -2.30997,-0.82657 -0.75645,-0.31332 -1.49571,-0.66299 -2.2178,-1.04895 -0.72211,-0.38595 -1.42357,-0.80639 -2.10437,-1.26132 -0.68079,-0.45486 -1.33763,-0.94201 -1.97055,-1.46142 -0.63292,-0.51944 -1.23888,-1.06867 -1.81786,-1.64762 -0.57896,-0.57898 -1.12814,-1.18493 -1.64757,-1.81784 -0.51944,-0.63293 -1.0066,-1.28979 -1.4615,-1.97058 -0.45488,-0.68078 -0.8753,-1.38223 -1.26127,-2.10434 -0.38598,-0.72211 -0.73563,-1.46139 -1.04897,-2.21783 -0.31332,-0.75644 -0.58882,-1.52643 -0.82651,-2.30994 -0.23768,-0.78354 -0.43638,-1.57681 -0.59613,-2.37988 -0.15974,-0.80304 -0.27974,-1.61197 -0.35998,-2.42682 C 190.04013,306.63556 190,305.81876 190,305 c 0,-0.81879 0.0401,-1.63559 0.12038,-2.45044 0.0802,-0.81485 0.20024,-1.62378 0.35998,-2.42682 0.15975,-0.80304 0.35845,-1.59631 0.59613,-2.37985 0.23769,-0.78354 0.51319,-1.55353 0.82651,-2.31 0.31334,-0.75644 0.66299,-1.49573 1.04897,-2.21783 0.38597,-0.72211 0.80639,-1.42356 1.26127,-2.10434 0.4549,-0.68076 0.94206,-1.33762 1.4615,-1.97052 0.51943,-0.63294 1.06861,-1.23889 1.64757,-1.81787 0.57898,-0.57895 1.18494,-1.12818 1.81786,-1.64762 0.63292,-0.51941 1.28976,-1.00656 1.97055,-1.46148 0.6808,-0.45487 1.38225,-0.87531 2.10434,-1.26126 0.72209,-0.38599 1.46136,-0.73566 2.21782,-1.04899 0.75647,-0.31332 1.52647,-0.58883 2.30999,-0.8265 0.78353,-0.23767 1.5768,-0.43637 2.37986,-0.59613 0.80307,-0.1597 1.61201,-0.2797 2.42685,-0.35996 0.81483,-0.0802 1.63165,-0.12036 2.45042,-0.12039 0.81879,3e-5 1.6356,0.0402 2.45044,0.12039 0.81483,0.0803 1.62376,0.20026 2.4268,0.35996 0.80306,0.15976 1.59633,0.35846 2.37986,0.59613 0.78352,0.23767 1.55351,0.51318 2.30996,0.8265 0.75647,0.31333 1.49576,0.663 2.21785,1.04899 0.72211,0.38595 1.42356,0.80639 2.10433,1.26129 0.6808,0.45489 1.33766,0.94204 1.97059,1.46148 0.63292,0.51944 1.23886,1.06864 1.81783,1.64759 0.57896,0.57898 1.12816,1.18493 1.6476,1.81787 0.51942,0.6329 1.00657,1.28976 1.46147,1.97055 0.45489,0.68078 0.87533,1.38223 1.2613,2.10431 0.38596,0.7221 0.7356,1.46139 1.04894,2.21783 0.31334,0.75647 0.58885,1.52646 0.82652,2.31 0.23767,0.78354 0.43637,1.57681 0.59612,2.37985 0.15974,0.80304 0.27974,1.61197 0.36,2.42682 C 239.95987,303.36441 240,304.18121 240,305 Z" /><path
             id="path36"
             style="fill:none;stroke:#000000;stroke-width:1;stroke-linecap:butt;stroke-linejoin:miter;stroke-miterlimit:10;stroke-dasharray:none;stroke-opacity:1"
             d="m 240,305 c 0,0.81876 -0.0401,1.63556 -0.12039,2.45041 -0.0803,0.81485 -0.20026,1.62378 -0.36,2.42682 -0.15975,0.80307 -0.35845,1.59634 -0.59612,2.37988 -0.23767,0.78351 -0.51318,1.5535 -0.82652,2.30994 -0.31334,0.75644 -0.66298,1.49572 -1.04894,2.21783 -0.38597,0.72211 -0.80641,1.42356 -1.2613,2.10434 -0.4549,0.68079 -0.94205,1.33765 -1.46147,1.97058 -0.51944,0.63291 -1.06864,1.23886 -1.6476,1.81784 -0.57897,0.57895 -1.18491,1.12818 -1.81783,1.64762 -0.63293,0.51941 -1.28979,1.00656 -1.97059,1.46142 -0.68077,0.45493 -1.38222,0.87537 -2.10431,1.26135 -0.72211,0.38596 -1.4614,0.7356 -2.21787,1.04892 -0.75645,0.31333 -1.52644,0.58884 -2.30996,0.82654 -0.78353,0.2377 -1.5768,0.4364 -2.37986,0.5961 -0.80304,0.15976 -1.61197,0.27979 -2.4268,0.36002 C 216.6356,329.95987 215.81879,330 215,330 c -0.81877,0 -1.63559,-0.0401 -2.45042,-0.12039 -0.81484,-0.0802 -1.62378,-0.20026 -2.42685,-0.36002 -0.80306,-0.1597 -1.59635,-0.3584 -2.37987,-0.59607 -0.78352,-0.2377 -1.55351,-0.51324 -2.30997,-0.82657 -0.75645,-0.31332 -1.49571,-0.66299 -2.2178,-1.04895 -0.72211,-0.38595 -1.42357,-0.80639 -2.10437,-1.26132 -0.68079,-0.45486 -1.33763,-0.94201 -1.97055,-1.46142 -0.63292,-0.51944 -1.23888,-1.06867 -1.81786,-1.64762 -0.57896,-0.57898 -1.12814,-1.18493 -1.64757,-1.81784 -0.51944,-0.63293 -1.0066,-1.28979 -1.4615,-1.97058 -0.45488,-0.68078 -0.8753,-1.38223 -1.26127,-2.10434 -0.38598,-0.72211 -0.73563,-1.46139 -1.04897,-2.21783 -0.31332,-0.75644 -0.58882,-1.52643 -0.82651,-2.30994 -0.23768,-0.78354 -0.43638,-1.57681 -0.59613,-2.37988 -0.15974,-0.80304 -0.27974,-1.61197 -0.35998,-2.42682 C 190.04013,306.63556 190,305.81876 190,305 c 0,-0.81879 0.0401,-1.63559 0.12038,-2.45044 0.0802,-0.81485 0.20024,-1.62378 0.35998,-2.42682 0.15975,-0.80304 0.35845,-1.59631 0.59613,-2.37985 0.23769,-0.78354 0.51319,-1.55353 0.82651,-2.31 0.31334,-0.75644 0.66299,-1.49573 1.04897,-2.21783 0.38597,-0.72211 0.80639,-1.42356 1.26127,-2.10434 0.4549,-0.68076 0.94206,-1.33762 1.4615,-1.97052 0.51943,-0.63294 1.06861,-1.23889 1.64757,-1.81787 0.57898,-0.57895 1.18494,-1.12818 1.81786,-1.64762 0.63292,-0.51941 1.28976,-1.00656 1.97055,-1.46148 0.6808,-0.45487 1.38225,-0.87531 2.10434,-1.26126 0.72209,-0.38599 1.46136,-0.73566 2.21782,-1.04899 0.75647,-0.31332 1.52647,-0.58883 2.30999,-0.8265 0.78353,-0.23767 1.5768,-0.43637 2.37986,-0.59613 0.80307,-0.1597 1.61201,-0.2797 2.42685,-0.35996 0.81483,-0.0802 1.63165,-0.12036 2.45042,-0.12039 0.81879,3e-5 1.6356,0.0402 2.45044,0.12039 0.81483,0.0803 1.62376,0.20026 2.4268,0.35996 0.80306,0.15976 1.59633,0.35846 2.37986,0.59613 0.78352,0.23767 1.55351,0.51318 2.30996,0.8265 0.75647,0.31333 1.49576,0.663 2.21785,1.04899 0.72211,0.38595 1.42356,0.80639 2.10433,1.26129 0.6808,0.45489 1.33766,0.94204 1.97059,1.46148 0.63292,0.51944 1.23886,1.06864 1.81783,1.64759 0.57896,0.57898 1.12816,1.18493 1.6476,1.81787 0.51942,0.6329 1.00657,1.28976 1.46147,1.97055 0.45489,0.68078 0.87533,1.38223 1.2613,2.10431 0.38596,0.7221 0.7356,1.46139 1.04894,2.21783 0.31334,0.75647 0.58885,1.52646 0.82652,2.31 0.23767,0.78354 0.43637,1.57681 0.59612,2.37985 0.15974,0.80304 0.27974,1.61197 0.36,2.42682 C 239.95987,303.36441 240,304.18121 240,305 Z" /><path
             id="path38"
             style="fill:none;stroke:#000000;stroke-width:1;stroke-linecap:butt;stroke-linejoin:miter;stroke-miterlimit:10;stroke-dasharray:none;stroke-opacity:1"
             d="m 290,305 h 10" /><path
             id="path40"
             style="fill:none;stroke:#000000;stroke-width:1;stroke-linecap:butt;stroke-linejoin:miter;stroke-miterlimit:10;stroke-dasharray:none;stroke-opacity:1"
             d="m 325,280 0.20001,-20" /></g><g
           transform="matrix(-3.0025864,0,0,2.9891305,1893.2001,-715.89673)"
           id="g42"><path
             id="path44"
             style="fill:#ffffff;fill-opacity:1;fill-rule:nonzero;stroke:none"
             d="m 350,305 c 0,0.81876 -0.0401,1.63556 -0.12039,2.45041 -0.0803,0.81485 -0.20029,1.62378 -0.36005,2.42682 -0.1597,0.80307 -0.3584,1.59634 -0.5961,2.37988 -0.23767,0.78351 -0.51318,1.5535 -0.82651,2.30994 -0.31332,0.75644 -0.66299,1.49572 -1.04895,2.21783 -0.38598,0.72211 -0.80642,1.42356 -1.26132,2.10434 -0.45486,0.68079 -0.94201,1.33765 -1.46145,1.97058 -0.51944,0.63291 -1.06864,1.23886 -1.64759,1.81784 -0.57895,0.57895 -1.1849,1.12818 -1.81784,1.64762 -0.6329,0.51941 -1.28976,1.00656 -1.97058,1.46142 -0.68078,0.45493 -1.38223,0.87537 -2.10431,1.26135 -0.7221,0.38596 -1.46139,0.7356 -2.21786,1.04892 -0.75644,0.31333 -1.52643,0.58884 -2.30994,0.82654 -0.78354,0.2377 -1.57681,0.4364 -2.37988,0.5961 -0.80301,0.15976 -1.61197,0.27979 -2.42682,0.36002 C 326.63559,329.95987 325.81879,330 325,330 c -0.81876,0 -1.63556,-0.0401 -2.45041,-0.12039 -0.81485,-0.0802 -1.62381,-0.20026 -2.42688,-0.36002 -0.80304,-0.1597 -1.59631,-0.3584 -2.37985,-0.59607 -0.78354,-0.2377 -1.55353,-0.51324 -2.31,-0.82657 -0.75644,-0.31332 -1.49573,-0.66299 -2.21783,-1.04895 -0.72208,-0.38595 -1.42353,-0.80639 -2.10434,-1.26132 -0.68076,-0.45486 -1.33762,-0.94201 -1.97055,-1.46142 -0.63291,-0.51944 -1.23886,-1.06867 -1.81784,-1.64762 -0.57895,-0.57898 -1.12818,-1.18493 -1.64762,-1.81784 -0.51941,-0.63293 -1.00656,-1.28979 -1.46148,-1.97058 -0.45487,-0.68078 -0.87528,-1.38223 -1.26123,-2.10434 -0.38596,-0.72211 -0.73563,-1.46139 -1.04899,-2.21783 -0.31332,-0.75644 -0.58883,-1.52643 -0.8265,-2.30994 -0.2377,-0.78354 -0.4364,-1.57681 -0.59616,-2.37988 -0.1597,-0.80304 -0.2797,-1.61197 -0.35996,-2.42682 C 300.04013,306.63556 300.00003,305.81876 300,305 c 3e-5,-0.81879 0.0401,-1.63559 0.12036,-2.45044 0.0803,-0.81485 0.20026,-1.62378 0.35996,-2.42682 0.15976,-0.80304 0.35846,-1.59631 0.59616,-2.37985 0.23767,-0.78354 0.51318,-1.55353 0.8265,-2.31 0.31336,-0.75644 0.66303,-1.49573 1.04899,-2.21783 0.38595,-0.72211 0.80636,-1.42356 1.26123,-2.10434 0.45492,-0.68076 0.94207,-1.33762 1.46151,-1.97052 0.51944,-0.63294 1.06864,-1.23889 1.64759,-1.81787 0.57898,-0.57895 1.18493,-1.12818 1.81787,-1.64762 0.6329,-0.51941 1.28976,-1.00656 1.97052,-1.46148 0.68081,-0.45487 1.38226,-0.87531 2.10434,-1.26126 0.7221,-0.38599 1.46139,-0.73566 2.21783,-1.04899 0.75647,-0.31332 1.52646,-0.58883 2.31,-0.8265 0.78354,-0.23767 1.57681,-0.43637 2.37985,-0.59613 0.80307,-0.1597 1.61203,-0.2797 2.42688,-0.35996 0.81485,-0.0802 1.63165,-0.12036 2.45041,-0.12039 0.81879,3e-5 1.63559,0.0402 2.45041,0.12039 0.81485,0.0803 1.62381,0.20026 2.42682,0.35996 0.80307,0.15976 1.59634,0.35846 2.37988,0.59613 0.78351,0.23767 1.5535,0.51318 2.30994,0.8265 0.75647,0.31333 1.49576,0.663 2.21783,1.04899 0.72211,0.38595 1.42356,0.80639 2.10434,1.26129 0.68082,0.45489 1.33768,0.94204 1.97058,1.46148 0.63294,0.51944 1.23889,1.06864 1.81784,1.64759 0.57895,0.57898 1.12818,1.18493 1.64762,1.81787 0.51941,0.6329 1.00656,1.28976 1.46142,1.97055 0.4549,0.68078 0.87534,1.38223 1.26132,2.10431 0.38596,0.7221 0.73563,1.46139 1.04895,2.21783 0.31333,0.75647 0.58884,1.52646 0.82651,2.31 0.2377,0.78354 0.4364,1.57681 0.59613,2.37985 0.15976,0.80304 0.27976,1.61197 0.36005,2.42682 C 349.95987,303.36441 350,304.18121 350,305 Z" /><path
             id="path46"
             style="fill:none;stroke:#000000;stroke-width:1;stroke-linecap:butt;stroke-linejoin:miter;stroke-miterlimit:10;stroke-dasharray:none;stroke-opacity:1"
             d="m 350,305 c 0,0.81876 -0.0401,1.63556 -0.12039,2.45041 -0.0803,0.81485 -0.20029,1.62378 -0.36005,2.42682 -0.1597,0.80307 -0.3584,1.59634 -0.5961,2.37988 -0.23767,0.78351 -0.51318,1.5535 -0.82651,2.30994 -0.31332,0.75644 -0.66299,1.49572 -1.04895,2.21783 -0.38598,0.72211 -0.80642,1.42356 -1.26132,2.10434 -0.45486,0.68079 -0.94201,1.33765 -1.46145,1.97058 -0.51944,0.63291 -1.06864,1.23886 -1.64759,1.81784 -0.57895,0.57895 -1.1849,1.12818 -1.81784,1.64762 -0.6329,0.51941 -1.28976,1.00656 -1.97058,1.46142 -0.68078,0.45493 -1.38223,0.87537 -2.10431,1.26135 -0.7221,0.38596 -1.46139,0.7356 -2.21786,1.04892 -0.75644,0.31333 -1.52643,0.58884 -2.30994,0.82654 -0.78354,0.2377 -1.57681,0.4364 -2.37988,0.5961 -0.80301,0.15976 -1.61197,0.27979 -2.42682,0.36002 C 326.63559,329.95987 325.81879,330 325,330 c -0.81876,0 -1.63556,-0.0401 -2.45041,-0.12039 -0.81485,-0.0802 -1.62381,-0.20026 -2.42688,-0.36002 -0.80304,-0.1597 -1.59631,-0.3584 -2.37985,-0.59607 -0.78354,-0.2377 -1.55353,-0.51324 -2.31,-0.82657 -0.75644,-0.31332 -1.49573,-0.66299 -2.21783,-1.04895 -0.72208,-0.38595 -1.42353,-0.80639 -2.10434,-1.26132 -0.68076,-0.45486 -1.33762,-0.94201 -1.97055,-1.46142 -0.63291,-0.51944 -1.23886,-1.06867 -1.81784,-1.64762 -0.57895,-0.57898 -1.12818,-1.18493 -1.64762,-1.81784 -0.51941,-0.63293 -1.00656,-1.28979 -1.46148,-1.97058 -0.45487,-0.68078 -0.87528,-1.38223 -1.26123,-2.10434 -0.38596,-0.72211 -0.73563,-1.46139 -1.04899,-2.21783 -0.31332,-0.75644 -0.58883,-1.52643 -0.8265,-2.30994 -0.2377,-0.78354 -0.4364,-1.57681 -0.59616,-2.37988 -0.1597,-0.80304 -0.2797,-1.61197 -0.35996,-2.42682 C 300.04013,306.63556 300.00003,305.81876 300,305 c 3e-5,-0.81879 0.0401,-1.63559 0.12036,-2.45044 0.0803,-0.81485 0.20026,-1.62378 0.35996,-2.42682 0.15976,-0.80304 0.35846,-1.59631 0.59616,-2.37985 0.23767,-0.78354 0.51318,-1.55353 0.8265,-2.31 0.31336,-0.75644 0.66303,-1.49573 1.04899,-2.21783 0.38595,-0.72211 0.80636,-1.42356 1.26123,-2.10434 0.45492,-0.68076 0.94207,-1.33762 1.46151,-1.97052 0.51944,-0.63294 1.06864,-1.23889 1.64759,-1.81787 0.57898,-0.57895 1.18493,-1.12818 1.81787,-1.64762 0.6329,-0.51941 1.28976,-1.00656 1.97052,-1.46148 0.68081,-0.45487 1.38226,-0.87531 2.10434,-1.26126 0.7221,-0.38599 1.46139,-0.73566 2.21783,-1.04899 0.75647,-0.31332 1.52646,-0.58883 2.31,-0.8265 0.78354,-0.23767 1.57681,-0.43637 2.37985,-0.59613 0.80307,-0.1597 1.61203,-0.2797 2.42688,-0.35996 0.81485,-0.0802 1.63165,-0.12036 2.45041,-0.12039 0.81879,3e-5 1.63559,0.0402 2.45041,0.12039 0.81485,0.0803 1.62381,0.20026 2.42682,0.35996 0.80307,0.15976 1.59634,0.35846 2.37988,0.59613 0.78351,0.23767 1.5535,0.51318 2.30994,0.8265 0.75647,0.31333 1.49576,0.663 2.21783,1.04899 0.72211,0.38595 1.42356,0.80639 2.10434,1.26129 0.68082,0.45489 1.33768,0.94204 1.97058,1.46148 0.63294,0.51944 1.23889,1.06864 1.81784,1.64759 0.57895,0.57898 1.12818,1.18493 1.64762,1.81787 0.51941,0.6329 1.00656,1.28976 1.46142,1.97055 0.4549,0.68078 0.87534,1.38223 1.26132,2.10431 0.38596,0.7221 0.73563,1.46139 1.04895,2.21783 0.31333,0.75647 0.58884,1.52646 0.82651,2.31 0.2377,0.78354 0.4364,1.57681 0.59613,2.37985 0.15976,0.80304 0.27976,1.61197 0.36005,2.42682 C 349.95987,303.36441 350,304.18121 350,305 Z" /></g><g
           transform="matrix(3.0025864,0,0,2.9891305,-58.481098,-715.89673)"
           id="g48"><path
             id="path50"
             style="fill:#000000;fill-opacity:1;fill-rule:nonzero;stroke:none"
             d="m 256,303.5 h 3 v 3 h -3 m 12,-3 h 3 v 3 h -3 m 12,-3 h 3 v 3 h -3" /></g></g></g><g
       id="g52"><g
         clip-path="url(#clipPath58)"
         id="g54"><g
           transform="matrix(0.05360523,0,0,-0.05411937,349.52222,23.920757)"
           id="g60"><path
             id="path62"
             style="fill:#000000;fill-opacity:1;fill-rule:nonzero;stroke:none"
             d="m 52,289 c 4.666668,28 22.666664,60.33334 54,97 31.33333,36.66666 70,55.33334 116,56 23.33333,0 44.66666,-6 64,-18 19.33334,-12 33.66666,-27 43,-45 28,42 61.66666,63 101,63 24.66666,0 46,-7.33334 64,-22 18,-14.66666 27.33331,-34.33334 28,-59 0,-19.33334 -4.66669,-35 -14,-47 -9.33334,-12 -18.33334,-19.33334 -27,-22 -8.66666,-2.66666 -16.33334,-4 -23,-4 -12.66666,0 -23,3.66666 -31,11 -8,7.33334 -12,17 -12,29 0,30.66666 16.66666,51.66666 50,63 -7.33334,8.66666 -20.66666,13 -40,13 -8.66666,0 -15,-0.66666 -19,-2 -25.33334,-10.66666 -44,-32.66666 -56,-66 -40,-147.33334 -60,-233.33333 -60,-258 0,-18.666668 5.33334,-32 16,-40 10.66666,-8 22.33334,-12 35,-12 24.66666,0 49,11 73,33 24,22 40.33334,49 49,81 2,6.66667 4,10.33333 6,11 2,0.66667 7.33334,1.33333 16,2 h 4 c 10,0 15,-2.66667 15,-8 0,-0.66667 -0.66666,-4.33333 -2,-11 C 491.33334,96 470.66666,62.333336 440,33 409.33334,3.666666 373.66666,-11 333,-11 286.33334,-11 251,10 227,52 199.66667,10.666664 168.33334,-10 133,-10 h -6 C 94.333328,-10 71,-1.333334 57,16 43,33.333336 35.666668,51.666664 35,71 c 0,21.333336 6.333332,38.66666 19,52 12.666664,13.33333 27.666664,20 45,20 28.66667,0 43,-14 43,-42 C 142,87.666664 138,76 130,66 122,56 114.33334,49.333332 107,46 99.666664,42.666668 95.333336,41 94,41 l -3,-1 c 0,-0.666668 2,-2 6,-4 4,-2 9.33334,-4.333334 16,-7 6.66666,-2.666666 13,-3.666666 19,-3 24,0 44.66667,15 62,45 6,10.666664 13.66667,33.33333 23,68 9.33333,34.66667 18.66667,70.66666 28,108 9.33333,37.33334 14.66666,59.33334 16,66 3.33334,18 5,31 5,39 0,18.66666 -5,32 -15,40 -10,8 -21.33333,12 -34,12 -26.66667,0 -51.66667,-10.66666 -75,-32 -23.33334,-21.33334 -39.66666,-48.66666 -49,-82 -1.333336,-6 -3,-9.33334 -5,-10 -2,-0.66666 -7.333336,-1.33334 -16,-2 H 58 c -4,4 -6,7.66666 -6,11 z" /></g><g
           transform="matrix(0.0378989,0,0,-0.03826239,381.95337,32.038666)"
           id="g64"><path
             id="path66"
             style="fill:#000000;fill-opacity:1;fill-rule:nonzero;stroke:none"
             d="m 96,585 c 37.33334,54 88.33333,81 153,81 32,0 64,-8.66669 96,-26 32,-17.33331 58,-48 78,-92 24.66666,-55.33334 37,-131.33331 37,-228 C 460,216.66666 445.66666,137.66667 417,83 403.66666,55 385.33334,32.666668 362,16 338.66666,-0.66666794 318.33334,-11 301,-15 c -17.33334,-4 -34.33334,-6.333334 -51,-7 -17.33333,0 -34.66667,2 -52,6 -17.33333,4 -37.66667,14.666666 -61,32 C 113.66666,33.333336 95.333336,55.666664 82,83 53.333332,137.66667 39,216.66666 39,320 39,436 58,524.33331 96,585 Z m 225,12 c -20,21.33331 -43.66666,32 -71,32 -28,0 -52,-10.66669 -72,-32 -16.66667,-17.33331 -27.66667,-41.33331 -33,-72 -5.33333,-30.66666 -8,-94.66666 -8,-192 0,-105.33334 2.66667,-174.66666 8,-208 5.33333,-33.333336 17.33333,-59.666664 36,-79 18.66667,-20 41.66667,-30 69,-30 26.66666,0 49.33334,10 68,30 19.33334,20 31.33334,48 36,84 4.66666,36 7.33334,103.66666 8,203 0,96.66669 -2.66666,160.33334 -8,191 -5.33334,30.66669 -16.33334,55 -33,73 z" /></g></g></g><g
       id="g68"><g
         clip-path="url(#clipPath74)"
         id="g70"><g
           transform="matrix(0.05503805,0,0,-0.05554128,559.65387,24.549246)"
           id="g76"><path
             id="path78"
             style="fill:#000000;fill-opacity:1;fill-rule:nonzero;stroke:none"
             d="m 52,289 c 4.666668,28 22.666664,60.33334 54,97 31.33333,36.66666 70,55.33334 116,56 23.33333,0 44.66666,-6 64,-18 19.33334,-12 33.66666,-27 43,-45 28,42 61.66666,63 101,63 24.66666,0 46,-7.33334 64,-22 18,-14.66666 27.33331,-34.33334 28,-59 0,-19.33334 -4.66669,-35 -14,-47 -9.33334,-12 -18.33334,-19.33334 -27,-22 -8.66666,-2.66666 -16.33334,-4 -23,-4 -12.66666,0 -23,3.66666 -31,11 -8,7.33334 -12,17 -12,29 0,30.66666 16.66666,51.66666 50,63 -7.33334,8.66666 -20.66666,13 -40,13 -8.66666,0 -15,-0.66666 -19,-2 -25.33334,-10.66666 -44,-32.66666 -56,-66 -40,-147.33334 -60,-233.33333 -60,-258 0,-18.666668 5.33334,-32 16,-40 10.66666,-8 22.33334,-12 35,-12 24.66666,0 49,11 73,33 24,22 40.33334,49 49,81 2,6.66667 4,10.33333 6,11 2,0.66667 7.33334,1.33333 16,2 h 4 c 10,0 15,-2.66667 15,-8 0,-0.66667 -0.66666,-4.33333 -2,-11 C 491.33334,96 470.66666,62.333336 440,33 409.33334,3.666666 373.66666,-11 333,-11 286.33334,-11 251,10 227,52 199.66667,10.666664 168.33334,-10 133,-10 h -6 C 94.333328,-10 71,-1.333334 57,16 43,33.333336 35.666668,51.666664 35,71 c 0,21.333336 6.333332,38.66666 19,52 12.666664,13.33333 27.666664,20 45,20 28.66667,0 43,-14 43,-42 C 142,87.666664 138,76 130,66 122,56 114.33334,49.333332 107,46 99.666664,42.666668 95.333336,41 94,41 l -3,-1 c 0,-0.666668 2,-2 6,-4 4,-2 9.33334,-4.333334 16,-7 6.66666,-2.666666 13,-3.666666 19,-3 24,0 44.66667,15 62,45 6,10.666664 13.66667,33.33333 23,68 9.33333,34.66667 18.66667,70.66666 28,108 9.33333,37.33334 14.66666,59.33334 16,66 3.33334,18 5,31 5,39 0,18.66666 -5,32 -15,40 -10,8 -21.33333,12 -34,12 -26.66667,0 -51.66667,-10.66666 -75,-32 -23.33334,-21.33334 -39.66666,-48.66666 -49,-82 -1.333336,-6 -3,-9.33334 -5,-10 -2,-0.66666 -7.333336,-1.33334 -16,-2 H 58 c -4,4 -6,7.66666 -6,11 z" /></g><g
           transform="matrix(0.03891191,0,0,-0.03926769,592.9519,32.880436)"
           id="g80"><path
             id="path82"
             style="fill:#000000;fill-opacity:1;fill-rule:nonzero;stroke:none"
             d="m 213,578 -13,-5 c -9.33333,-3.33331 -22.66667,-6.66669 -40,-10 -17.33333,-3.33331 -36.66666,-5.66669 -58,-7 H 83 v 46 h 19 c 31.33333,1.33331 60.33333,6.33331 87,15 26.66667,8.66669 45.33333,16.66669 56,24 10.66667,7.33331 20,14.66669 28,22 1.33334,2 5.33334,3 12,3 6,0 11.66666,-2 17,-6 V 361 l 1,-300 c 4.66666,-4.666668 8.66666,-7.666668 12,-9 3.33334,-1.333332 11.33334,-2.666668 24,-4 12.66666,-1.333332 33.33334,-2 62,-2 h 26 V 0 H 416 C 402,2 349,3 257,3 166.33333,3 114,2 100,0 H 88 v 46 h 26 c 14.66667,0 27.33333,0 38,0 10.66667,0 19,0.333332 25,1 6,0.666668 11.33333,1.666668 16,3 4.66667,1.333332 7.33333,2 8,2 0.66667,0 2.66667,1.666668 6,5 3.33333,3.333332 5.33333,4.666668 6,4 z" /></g></g></g><g
       id="g84"><g
         clip-path="url(#clipPath90)"
         id="g86"><g
           transform="matrix(0.05362551,0,0,-0.0548211,864.48138,24.230927)"
           id="g92"><path
             id="path94"
             style="fill:#000000;fill-opacity:1;fill-rule:nonzero;stroke:none"
             d="m 52,289 c 4.666668,28 22.666664,60.33334 54,97 31.33333,36.66666 70,55.33334 116,56 23.33333,0 44.66666,-6 64,-18 19.33334,-12 33.66666,-27 43,-45 28,42 61.66666,63 101,63 24.66666,0 46,-7.33334 64,-22 18,-14.66666 27.33331,-34.33334 28,-59 0,-19.33334 -4.66669,-35 -14,-47 -9.33334,-12 -18.33334,-19.33334 -27,-22 -8.66666,-2.66666 -16.33334,-4 -23,-4 -12.66666,0 -23,3.66666 -31,11 -8,7.33334 -12,17 -12,29 0,30.66666 16.66666,51.66666 50,63 -7.33334,8.66666 -20.66666,13 -40,13 -8.66666,0 -15,-0.66666 -19,-2 -25.33334,-10.66666 -44,-32.66666 -56,-66 -40,-147.33334 -60,-233.33333 -60,-258 0,-18.666668 5.33334,-32 16,-40 10.66666,-8 22.33334,-12 35,-12 24.66666,0 49,11 73,33 24,22 40.33334,49 49,81 2,6.66667 4,10.33333 6,11 2,0.66667 7.33334,1.33333 16,2 h 4 c 10,0 15,-2.66667 15,-8 0,-0.66667 -0.66666,-4.33333 -2,-11 C 491.33334,96 470.66666,62.333336 440,33 409.33334,3.666666 373.66666,-11 333,-11 286.33334,-11 251,10 227,52 199.66667,10.666664 168.33334,-10 133,-10 h -6 C 94.333328,-10 71,-1.333334 57,16 43,33.333336 35.666668,51.666664 35,71 c 0,21.333336 6.333332,38.66666 19,52 12.666664,13.33333 27.666664,20 45,20 28.66667,0 43,-14 43,-42 C 142,87.666664 138,76 130,66 122,56 114.33334,49.333332 107,46 99.666664,42.666668 95.333336,41 94,41 l -3,-1 c 0,-0.666668 2,-2 6,-4 4,-2 9.33334,-4.333334 16,-7 6.66666,-2.666666 13,-3.666666 19,-3 24,0 44.66667,15 62,45 6,10.666664 13.66667,33.33333 23,68 9.33333,34.66667 18.66667,70.66666 28,108 9.33333,37.33334 14.66666,59.33334 16,66 3.33334,18 5,31 5,39 0,18.66666 -5,32 -15,40 -10,8 -21.33333,12 -34,12 -26.66667,0 -51.66667,-10.66666 -75,-32 -23.33334,-21.33334 -39.66666,-48.66666 -49,-82 -1.333336,-6 -3,-9.33334 -5,-10 -2,-0.66666 -7.333336,-1.33334 -16,-2 H 58 c -4,4 -6,7.66666 -6,11 z" /></g><g
           transform="matrix(0.03791324,0,0,-0.03875852,896.9248,32.45409)"
           id="g96"><path
             id="path98"
             style="fill:#000000;fill-opacity:1;fill-rule:nonzero;stroke:none"
             d="m 21,287 c 0.666666,4 1.666666,9.33334 3,16 1.333334,6.66666 5.333332,19.33334 12,38 6.666668,18.66666 13.333332,34.33334 20,47 6.666668,12.66666 17.666664,25 33,37 15.33334,12 30.66666,17.66666 46,17 24,0 44,-6 60,-18 16,-12 26,-23.33334 30,-34 4,-10.66666 6,-17.66666 6,-21 0,-1.33334 0.33333,-2 1,-2 l 11,11 c 40.66666,42.66666 87,64 139,64 36,0 65,-9 87,-27 22,-18 33.33334,-44.33334 34,-79 0.66666,-34.66666 -12,-87 -38,-157 -26,-70 -38.66666,-112.333336 -38,-127 0,-17.333336 5.66666,-26 17,-26 4,0 7,0.333334 9,1 19.33334,3.333334 36.66666,16 52,38 15.33331,22 27,48.66666 35,80 1.33331,5.33333 8,8 20,8 13.33331,0 20,-2.66667 20,-8 0,-0.66667 -1.33331,-5.66667 -4,-15 -5.33331,-19.33334 -12.66669,-38.333328 -22,-57 -9.33331,-18.666668 -24.66669,-37.333332 -46,-56 -21.33334,-18.6666679 -44.33334,-27.666667 -69,-27 -31.33334,0 -54,9 -68,27 -14,18 -21,36.666664 -21,56 0,12.666664 12,52.66666 36,120 24,67.33334 36.33334,118 37,152 0,39.33334 -14.66666,59 -44,59 h -5 C 316.66666,404 268.33334,370.33334 229,303 L 222,291 189,157 C 167,69.666664 154.33333,22.666668 151,16 c -8.66667,-18 -23,-27 -43,-27 -8.666664,0 -15.666664,2 -21,6 -5.333336,4 -9,8 -11,12 -2,4 -2.666664,7.333333 -2,10 0,8.666668 12.666664,63 38,163 25.33333,100 38.66667,154.33334 40,163 0.66667,3.33334 1,11 1,23 0,26 -8,39 -24,39 -25.33334,0 -46.333328,-33.33331 -63,-100 -4,-13.33334 -6,-20.33334 -6,-21 -1.333332,-4 -7.666664,-6 -19,-6 H 27 c -4,4 -6,7 -6,9 z" /></g><g
           transform="matrix(0.03791324,0,0,-0.03875852,919.67273,32.45409)"
           id="g100"><path
             id="path102"
             style="fill:#000000;fill-opacity:1;fill-rule:nonzero;stroke:none"
             d="m 84,237 c 0,0 0,4.33333 0,13 0,8.66666 4.666664,15.33334 14,20 h 581 c 10,-5.33334 15,-12 15,-20 0,-8 -5,-14.66667 -15,-20 H 98 c -9.333336,4.66667 -14,11.33333 -14,20 z" /></g><g
           transform="matrix(0.03791324,0,0,-0.03875852,949.16925,32.45409)"
           id="g104"><path
             id="path106"
             style="fill:#000000;fill-opacity:1;fill-rule:nonzero;stroke:none"
             d="m 213,578 -13,-5 c -9.33333,-3.33331 -22.66667,-6.66669 -40,-10 -17.33333,-3.33331 -36.66666,-5.66669 -58,-7 H 83 v 46 h 19 c 31.33333,1.33331 60.33333,6.33331 87,15 26.66667,8.66669 45.33333,16.66669 56,24 10.66667,7.33331 20,14.66669 28,22 1.33334,2 5.33334,3 12,3 6,0 11.66666,-2 17,-6 V 361 l 1,-300 c 4.66666,-4.666668 8.66666,-7.666668 12,-9 3.33334,-1.333332 11.33334,-2.666668 24,-4 12.66666,-1.333332 33.33334,-2 62,-2 h 26 V 0 H 416 C 402,2 349,3 257,3 166.33333,3 114,2 100,0 H 88 v 46 h 26 c 14.66667,0 27.33333,0 38,0 10.66667,0 19,0.333332 25,1 6,0.666668 11.33333,1.666668 16,3 4.66667,1.333332 7.33333,2 8,2 0.66667,0 2.66667,1.666668 6,5 3.33333,3.333332 5.33333,4.666668 6,4 z" /></g></g></g><g
       id="g108"><g
         clip-path="url(#clipPath114)"
         id="g110"><g
           transform="matrix(0.05485679,0,0,-0.05413517,852.38519,209.6564)"
           id="g116"><path
             id="path118"
             style="fill:#000000;fill-opacity:1;fill-rule:nonzero;stroke:none"
             d="m 289,629 c 0,4 -19,6.66669 -57,8 -16,0 -26.33333,0.33331 -31,1 -4.66667,0.66669 -7,4 -7,10 0,0.66669 0.66667,4.33331 2,11 0.66667,2 1.33333,4.33331 2,7 0.66667,2.66669 1,4.33331 1,5 0,0.66669 0.66667,2.33331 2,5 1.33333,2.66669 2,3.66669 2,3 0,-0.66669 1.33333,0 4,2 2.66667,2 4.33333,2.66669 5,2 0.66667,-0.66669 3.33333,-0.66669 8,0 4.66667,0.66669 8.66667,1 12,1 4,0 14,0 30,0 16,0 31,-0.33331 45,-1 52.66666,0 83,0 91,0 8,0 13.33334,-1.66669 16,-5 0.66666,-2.66669 13,-96.66663 37,-282 l 36,-279 23,37 c 16,24 37.33331,57.33333 64,100 26.66669,42.66666 56,89.33334 88,140 116.66669,186 175.66669,279.66669 177,281 0.66669,0.66669 1.66669,1.66669 3,3 1.33331,1.33331 2.66669,2.33331 4,3 l 6,2 h 96 c 11.33331,0 24.66669,0 40,0 15.3333,0 25,0.33331 29,1 22.6666,0 34,-3.66669 34,-11 0,-3.33331 -1,-9 -3,-17 -2,-8 -3,-12.33331 -3,-13 -2.6666,-4 -15,-6 -37,-6 -26.66669,-0.66669 -43.66669,-1.66669 -51,-3 -7.33331,-1.33331 -13.33331,-5 -18,-11 -2,-3.33331 -26,-97.66663 -72,-283 C 821,154.66666 797.66669,61 797,59 c 0,-2.666668 0.33331,-4.333332 1,-5 0.66669,-0.666668 3,-2 7,-4 4,-2 9.66669,-2.666668 17,-2 7.33331,0.666668 18.33331,0 33,-2 h 31 c 4,-6 6,-9.666668 6,-11 0,-10.666668 -2.33331,-20.666666 -7,-30 -3.33331,-3.3333335 -8.66669,-5 -16,-5 -3.33331,0 -17,0.33333331 -41,1 -24,0.6666667 -54.66669,1 -92,1 -40.66669,0 -71.33331,0 -92,0 -20.66669,0 -32.33331,-0.3333333 -35,-1 -11.33331,0 -17,3.333333 -17,10 0,1.333333 0.66669,6 2,14 2.66669,10.666668 5.33331,16.666668 8,18 2.66669,1.333332 10.33331,2.333332 23,3 18,0 38,1 60,3 9.33331,2 15.66669,6 19,12 1.33331,2.666668 14,51.33333 38,146 24,94.66669 47.66669,189 71,283 23.33331,94 35,141 35,141 L 654,322 C 523.33331,114 456.33334,8.333334 453,5 451.66666,4.3333335 450.33334,3.6666667 449,3 445.66666,1 440.33334,0 433,0 423,0 417,2.333333 415,7 413.66666,9.666667 400,113 374,317 L 335,624 267,354 C 222.33333,176.66666 200,85 200,79 204,57 228,46 272,46 h 10 c 4,-3.333332 6.33334,-6.333332 7,-9 0.66666,-2.666668 -0.33334,-8.666666 -3,-18 C 283.33334,8.333333 280.66666,2.3333335 278,1 275.33334,0.33333331 271.66666,0 267,0 265.66666,0 261.66666,0 255,0 248.33333,0 237,0.33333331 221,1 205,1.6666667 183.66667,2 157,2 137,2 116.33334,1.6666667 95,1 73.666664,0.33333331 61.333332,0 58,0 48,0 41.666668,0.66666663 39,2 c -2.666668,1.3333335 -4,4.333333 -4,9 0,1.333333 1,6 3,14 2,8 3.666668,13 5,15 1.333332,4 8.666664,6 22,6 46.66667,0 76.33333,13.333332 89,40 2.66667,4 25.66666,93.33333 69,268 43.33334,174.66669 65.33334,266.33331 66,275 z" /></g><g
           transform="matrix(0.05485679,0,0,-0.05413517,873.1759,178.63695)"
           id="g120"><path
             id="path122"
             style="fill:#000000;fill-opacity:1;fill-rule:nonzero;stroke:none"
             d="m 179,251 c -10,0 -19.33333,-2 -28,-6 -8.66667,-4 -15.33333,-7.66667 -20,-11 -4.66666,-3.33333 -11.33334,-9.66667 -20,-19 l -14,12 -14,11 c 0,0.66667 4,5.66667 12,15 8,9.33334 16.66666,19.33334 26,30 9.33333,10.66666 16.33333,17.66666 21,21 15.33333,9.33334 30.33333,14 45,14 14.66667,0 36.66667,-6 66,-18 29.33334,-12 51.66666,-18 67,-18 10,0 19.33334,2 28,6 8.66666,4 15.33334,7.66666 20,11 4.66666,3.33334 11.33334,9.66666 20,19 l 14,-12 14,-11 c -27.33334,-39.33334 -51.33334,-63.66667 -72,-73 -9.33334,-4.66667 -19.66666,-7 -31,-7 -14,0 -35.66666,6 -65,18 -29.33333,12 -52.33333,18 -69,18 z" /></g><g
           transform="matrix(0.03878376,0,0,-0.03827357,907.40656,217.77667)"
           id="g124"><path
             id="path126"
             style="fill:#000000;fill-opacity:1;fill-rule:nonzero;stroke:none"
             d="m 21,287 c 0.666666,4 1.666666,9.33334 3,16 1.333334,6.66666 5.333332,19.33334 12,38 6.666668,18.66666 13.333332,34.33334 20,47 6.666668,12.66666 17.666664,25 33,37 15.33334,12 30.66666,17.66666 46,17 24,0 44,-6 60,-18 16,-12 26,-23.33334 30,-34 4,-10.66666 6,-17.66666 6,-21 0,-1.33334 0.33333,-2 1,-2 l 11,11 c 40.66666,42.66666 87,64 139,64 36,0 65,-9 87,-27 22,-18 33.33334,-44.33334 34,-79 0.66666,-34.66666 -12,-87 -38,-157 -26,-70 -38.66666,-112.333336 -38,-127 0,-17.333336 5.66666,-26 17,-26 4,0 7,0.333334 9,1 19.33334,3.333334 36.66666,16 52,38 15.33331,22 27,48.66666 35,80 1.33331,5.33333 8,8 20,8 13.33331,0 20,-2.66667 20,-8 0,-0.66667 -1.33331,-5.66667 -4,-15 -5.33331,-19.33334 -12.66669,-38.333328 -22,-57 -9.33331,-18.666668 -24.66669,-37.333332 -46,-56 -21.33334,-18.6666679 -44.33334,-27.666667 -69,-27 -31.33334,0 -54,9 -68,27 -14,18 -21,36.666664 -21,56 0,12.666664 12,52.66666 36,120 24,67.33334 36.33334,118 37,152 0,39.33334 -14.66666,59 -44,59 h -5 C 316.66666,404 268.33334,370.33334 229,303 L 222,291 189,157 C 167,69.666664 154.33333,22.666668 151,16 c -8.66667,-18 -23,-27 -43,-27 -8.666664,0 -15.666664,2 -21,6 -5.333336,4 -9,8 -11,12 -2,4 -2.666664,7.333333 -2,10 0,8.666668 12.666664,63 38,163 25.33333,100 38.66667,154.33334 40,163 0.66667,3.33334 1,11 1,23 0,26 -8,39 -24,39 -25.33334,0 -46.333328,-33.33331 -63,-100 -4,-13.33334 -6,-20.33334 -6,-21 -1.333332,-4 -7.666664,-6 -19,-6 H 27 c -4,4 -6,7 -6,9 z" /></g><g
           transform="matrix(0.03878376,0,0,-0.03827357,930.67682,217.77667)"
           id="g128"><path
             id="path130"
             style="fill:#000000;fill-opacity:1;fill-rule:nonzero;stroke:none"
             d="m 84,237 c 0,0 0,4.33333 0,13 0,8.66666 4.666664,15.33334 14,20 h 581 c 10,-5.33334 15,-12 15,-20 0,-8 -5,-14.66667 -15,-20 H 98 c -9.333336,4.66667 -14,11.33333 -14,20 z" /></g><g
           transform="matrix(0.03878376,0,0,-0.03827357,960.85059,217.77667)"
           id="g132"><path
             id="path134"
             style="fill:#000000;fill-opacity:1;fill-rule:nonzero;stroke:none"
             d="m 213,578 -13,-5 c -9.33333,-3.33331 -22.66667,-6.66669 -40,-10 -17.33333,-3.33331 -36.66666,-5.66669 -58,-7 H 83 v 46 h 19 c 31.33333,1.33331 60.33333,6.33331 87,15 26.66667,8.66669 45.33333,16.66669 56,24 10.66667,7.33331 20,14.66669 28,22 1.33334,2 5.33334,3 12,3 6,0 11.66666,-2 17,-6 V 361 l 1,-300 c 4.66666,-4.666668 8.66666,-7.666668 12,-9 3.33334,-1.333332 11.33334,-2.666668 24,-4 12.66666,-1.333332 33.33334,-2 62,-2 h 26 V 0 H 416 C 402,2 349,3 257,3 166.33333,3 114,2 100,0 H 88 v 46 h 26 c 14.66667,0 27.33333,0 38,0 10.66667,0 19,0.333332 25,1 6,0.666668 11.33333,1.666668 16,3 4.66667,1.333332 7.33333,2 8,2 0.66667,0 2.66667,1.666668 6,5 3.33333,3.333332 5.33333,4.666668 6,4 z" /></g></g></g><g
       id="g136"><g
         clip-path="url(#clipPath142)"
         id="g138"><g
           transform="matrix(0.05438039,0,0,-0.05455666,549.14185,210.02307)"
           id="g144"><path
             id="path146"
             style="fill:#000000;fill-opacity:1;fill-rule:nonzero;stroke:none"
             d="m 289,629 c 0,4 -19,6.66669 -57,8 -16,0 -26.33333,0.33331 -31,1 -4.66667,0.66669 -7,4 -7,10 0,0.66669 0.66667,4.33331 2,11 0.66667,2 1.33333,4.33331 2,7 0.66667,2.66669 1,4.33331 1,5 0,0.66669 0.66667,2.33331 2,5 1.33333,2.66669 2,3.66669 2,3 0,-0.66669 1.33333,0 4,2 2.66667,2 4.33333,2.66669 5,2 0.66667,-0.66669 3.33333,-0.66669 8,0 4.66667,0.66669 8.66667,1 12,1 4,0 14,0 30,0 16,0 31,-0.33331 45,-1 52.66666,0 83,0 91,0 8,0 13.33334,-1.66669 16,-5 0.66666,-2.66669 13,-96.66663 37,-282 l 36,-279 23,37 c 16,24 37.33331,57.33333 64,100 26.66669,42.66666 56,89.33334 88,140 116.66669,186 175.66669,279.66669 177,281 0.66669,0.66669 1.66669,1.66669 3,3 1.33331,1.33331 2.66669,2.33331 4,3 l 6,2 h 96 c 11.33331,0 24.66669,0 40,0 15.3333,0 25,0.33331 29,1 22.6666,0 34,-3.66669 34,-11 0,-3.33331 -1,-9 -3,-17 -2,-8 -3,-12.33331 -3,-13 -2.6666,-4 -15,-6 -37,-6 -26.66669,-0.66669 -43.66669,-1.66669 -51,-3 -7.33331,-1.33331 -13.33331,-5 -18,-11 -2,-3.33331 -26,-97.66663 -72,-283 C 821,154.66666 797.66669,61 797,59 c 0,-2.666668 0.33331,-4.333332 1,-5 0.66669,-0.666668 3,-2 7,-4 4,-2 9.66669,-2.666668 17,-2 7.33331,0.666668 18.33331,0 33,-2 h 31 c 4,-6 6,-9.666668 6,-11 0,-10.666668 -2.33331,-20.666666 -7,-30 -3.33331,-3.3333335 -8.66669,-5 -16,-5 -3.33331,0 -17,0.33333331 -41,1 -24,0.6666667 -54.66669,1 -92,1 -40.66669,0 -71.33331,0 -92,0 -20.66669,0 -32.33331,-0.3333333 -35,-1 -11.33331,0 -17,3.333333 -17,10 0,1.333333 0.66669,6 2,14 2.66669,10.666668 5.33331,16.666668 8,18 2.66669,1.333332 10.33331,2.333332 23,3 18,0 38,1 60,3 9.33331,2 15.66669,6 19,12 1.33331,2.666668 14,51.33333 38,146 24,94.66669 47.66669,189 71,283 23.33331,94 35,141 35,141 L 654,322 C 523.33331,114 456.33334,8.333334 453,5 451.66666,4.3333335 450.33334,3.6666667 449,3 445.66666,1 440.33334,0 433,0 423,0 417,2.333333 415,7 413.66666,9.666667 400,113 374,317 L 335,624 267,354 C 222.33333,176.66666 200,85 200,79 204,57 228,46 272,46 h 10 c 4,-3.333332 6.33334,-6.333332 7,-9 0.66666,-2.666668 -0.33334,-8.666666 -3,-18 C 283.33334,8.333333 280.66666,2.3333335 278,1 275.33334,0.33333331 271.66666,0 267,0 265.66666,0 261.66666,0 255,0 248.33333,0 237,0.33333331 221,1 205,1.6666667 183.66667,2 157,2 137,2 116.33334,1.6666667 95,1 73.666664,0.33333331 61.333332,0 58,0 48,0 41.666668,0.66666663 39,2 c -2.666668,1.3333335 -4,4.333333 -4,9 0,1.333333 1,6 3,14 2,8 3.666668,13 5,15 1.333332,4 8.666664,6 22,6 46.66667,0 76.33333,13.333332 89,40 2.66667,4 25.66666,93.33333 69,268 43.33334,174.66669 65.33334,266.33331 66,275 z" /></g><g
           transform="matrix(0.05438039,0,0,-0.05455666,569.75201,178.7621)"
           id="g148"><path
             id="path150"
             style="fill:#000000;fill-opacity:1;fill-rule:nonzero;stroke:none"
             d="m 179,251 c -10,0 -19.33333,-2 -28,-6 -8.66667,-4 -15.33333,-7.66667 -20,-11 -4.66666,-3.33333 -11.33334,-9.66667 -20,-19 l -14,12 -14,11 c 0,0.66667 4,5.66667 12,15 8,9.33334 16.66666,19.33334 26,30 9.33333,10.66666 16.33333,17.66666 21,21 15.33333,9.33334 30.33333,14 45,14 14.66667,0 36.66667,-6 66,-18 29.33334,-12 51.66666,-18 67,-18 10,0 19.33334,2 28,6 8.66666,4 15.33334,7.66666 20,11 4.66666,3.33334 11.33334,9.66666 20,19 l 14,-12 14,-11 c -27.33334,-39.33334 -51.33334,-63.66667 -72,-73 -9.33334,-4.66667 -19.66666,-7 -31,-7 -14,0 -35.66666,6 -65,18 -29.33333,12 -52.33333,18 -69,18 z" /></g><g
           transform="matrix(0.03844694,0,0,-0.03857156,603.68536,218.20657)"
           id="g152"><path
             id="path154"
             style="fill:#000000;fill-opacity:1;fill-rule:nonzero;stroke:none"
             d="m 213,578 -13,-5 c -9.33333,-3.33331 -22.66667,-6.66669 -40,-10 -17.33333,-3.33331 -36.66666,-5.66669 -58,-7 H 83 v 46 h 19 c 31.33333,1.33331 60.33333,6.33331 87,15 26.66667,8.66669 45.33333,16.66669 56,24 10.66667,7.33331 20,14.66669 28,22 1.33334,2 5.33334,3 12,3 6,0 11.66666,-2 17,-6 V 361 l 1,-300 c 4.66666,-4.666668 8.66666,-7.666668 12,-9 3.33334,-1.333332 11.33334,-2.666668 24,-4 12.66666,-1.333332 33.33334,-2 62,-2 h 26 V 0 H 416 C 402,2 349,3 257,3 166.33333,3 114,2 100,0 H 88 v 46 h 26 c 14.66667,0 27.33333,0 38,0 10.66667,0 19,0.333332 25,1 6,0.666668 11.33333,1.666668 16,3 4.66667,1.333332 7.33333,2 8,2 0.66667,0 2.66667,1.666668 6,5 3.33333,3.333332 5.33333,4.666668 6,4 z" /></g></g></g><g
       id="g156"><g
         clip-path="url(#clipPath162)"
         id="g158"><g
           transform="matrix(0.05340119,0,0,-0.0537114,338.99384,209.29218)"
           id="g164"><path
             id="path166"
             style="fill:#000000;fill-opacity:1;fill-rule:nonzero;stroke:none"
             d="m 289,629 c 0,4 -19,6.66669 -57,8 -16,0 -26.33333,0.33331 -31,1 -4.66667,0.66669 -7,4 -7,10 0,0.66669 0.66667,4.33331 2,11 0.66667,2 1.33333,4.33331 2,7 0.66667,2.66669 1,4.33331 1,5 0,0.66669 0.66667,2.33331 2,5 1.33333,2.66669 2,3.66669 2,3 0,-0.66669 1.33333,0 4,2 2.66667,2 4.33333,2.66669 5,2 0.66667,-0.66669 3.33333,-0.66669 8,0 4.66667,0.66669 8.66667,1 12,1 4,0 14,0 30,0 16,0 31,-0.33331 45,-1 52.66666,0 83,0 91,0 8,0 13.33334,-1.66669 16,-5 0.66666,-2.66669 13,-96.66663 37,-282 l 36,-279 23,37 c 16,24 37.33331,57.33333 64,100 26.66669,42.66666 56,89.33334 88,140 116.66669,186 175.66669,279.66669 177,281 0.66669,0.66669 1.66669,1.66669 3,3 1.33331,1.33331 2.66669,2.33331 4,3 l 6,2 h 96 c 11.33331,0 24.66669,0 40,0 15.3333,0 25,0.33331 29,1 22.6666,0 34,-3.66669 34,-11 0,-3.33331 -1,-9 -3,-17 -2,-8 -3,-12.33331 -3,-13 -2.6666,-4 -15,-6 -37,-6 -26.66669,-0.66669 -43.66669,-1.66669 -51,-3 -7.33331,-1.33331 -13.33331,-5 -18,-11 -2,-3.33331 -26,-97.66663 -72,-283 C 821,154.66666 797.66669,61 797,59 c 0,-2.666668 0.33331,-4.333332 1,-5 0.66669,-0.666668 3,-2 7,-4 4,-2 9.66669,-2.666668 17,-2 7.33331,0.666668 18.33331,0 33,-2 h 31 c 4,-6 6,-9.666668 6,-11 0,-10.666668 -2.33331,-20.666666 -7,-30 -3.33331,-3.3333335 -8.66669,-5 -16,-5 -3.33331,0 -17,0.33333331 -41,1 -24,0.6666667 -54.66669,1 -92,1 -40.66669,0 -71.33331,0 -92,0 -20.66669,0 -32.33331,-0.3333333 -35,-1 -11.33331,0 -17,3.333333 -17,10 0,1.333333 0.66669,6 2,14 2.66669,10.666668 5.33331,16.666668 8,18 2.66669,1.333332 10.33331,2.333332 23,3 18,0 38,1 60,3 9.33331,2 15.66669,6 19,12 1.33331,2.666668 14,51.33333 38,146 24,94.66669 47.66669,189 71,283 23.33331,94 35,141 35,141 L 654,322 C 523.33331,114 456.33334,8.333334 453,5 451.66666,4.3333335 450.33334,3.6666667 449,3 445.66666,1 440.33334,0 433,0 423,0 417,2.333333 415,7 413.66666,9.666667 400,113 374,317 L 335,624 267,354 C 222.33333,176.66666 200,85 200,79 204,57 228,46 272,46 h 10 c 4,-3.333332 6.33334,-6.333332 7,-9 0.66666,-2.666668 -0.33334,-8.666666 -3,-18 C 283.33334,8.333333 280.66666,2.3333335 278,1 275.33334,0.33333331 271.66666,0 267,0 265.66666,0 261.66666,0 255,0 248.33333,0 237,0.33333331 221,1 205,1.6666667 183.66667,2 157,2 137,2 116.33334,1.6666667 95,1 73.666664,0.33333331 61.333332,0 58,0 48,0 41.666668,0.66666663 39,2 c -2.666668,1.3333335 -4,4.333333 -4,9 0,1.333333 1,6 3,14 2,8 3.666668,13 5,15 1.333332,4 8.666664,6 22,6 46.66667,0 76.33333,13.333332 89,40 2.66667,4 25.66666,93.33333 69,268 43.33334,174.66669 65.33334,266.33331 66,275 z" /></g><g
           transform="matrix(0.05340119,0,0,-0.0537114,359.23291,178.51556)"
           id="g168"><path
             id="path170"
             style="fill:#000000;fill-opacity:1;fill-rule:nonzero;stroke:none"
             d="m 179,251 c -10,0 -19.33333,-2 -28,-6 -8.66667,-4 -15.33333,-7.66667 -20,-11 -4.66666,-3.33333 -11.33334,-9.66667 -20,-19 l -14,12 -14,11 c 0,0.66667 4,5.66667 12,15 8,9.33334 16.66666,19.33334 26,30 9.33333,10.66666 16.33333,17.66666 21,21 15.33333,9.33334 30.33333,14 45,14 14.66667,0 36.66667,-6 66,-18 29.33334,-12 51.66666,-18 67,-18 10,0 19.33334,2 28,6 8.66666,4 15.33334,7.66666 20,11 4.66666,3.33334 11.33334,9.66666 20,19 l 14,-12 14,-11 c -27.33334,-39.33334 -51.33334,-63.66667 -72,-73 -9.33334,-4.66667 -19.66666,-7 -31,-7 -14,0 -35.66666,6 -65,18 -29.33333,12 -52.33333,18 -69,18 z" /></g><g
           transform="matrix(0.03775464,0,0,-0.03797396,392.55524,217.34889)"
           id="g172"><path
             id="path174"
             style="fill:#000000;fill-opacity:1;fill-rule:nonzero;stroke:none"
             d="m 96,585 c 37.33334,54 88.33333,81 153,81 32,0 64,-8.66669 96,-26 32,-17.33331 58,-48 78,-92 24.66666,-55.33334 37,-131.33331 37,-228 C 460,216.66666 445.66666,137.66667 417,83 403.66666,55 385.33334,32.666668 362,16 338.66666,-0.66666794 318.33334,-11 301,-15 c -17.33334,-4 -34.33334,-6.333334 -51,-7 -17.33333,0 -34.66667,2 -52,6 -17.33333,4 -37.66667,14.666666 -61,32 C 113.66666,33.333336 95.333336,55.666664 82,83 53.333332,137.66667 39,216.66666 39,320 39,436 58,524.33331 96,585 Z m 225,12 c -20,21.33331 -43.66666,32 -71,32 -28,0 -52,-10.66669 -72,-32 -16.66667,-17.33331 -27.66667,-41.33331 -33,-72 -5.33333,-30.66666 -8,-94.66666 -8,-192 0,-105.33334 2.66667,-174.66666 8,-208 5.33333,-33.333336 17.33333,-59.666664 36,-79 18.66667,-20 41.66667,-30 69,-30 26.66666,0 49.33334,10 68,30 19.33334,20 31.33334,48 36,84 4.66666,36 7.33334,103.66666 8,203 0,96.66669 -2.66666,160.33334 -8,191 -5.33334,30.66669 -16.33334,55 -33,73 z" /></g></g></g><g
       id="g176"><g
         clip-path="url(#clipPath182)"
         id="g178"><g
           transform="matrix(0.05438802,0,0,-0.05367687,-1.8262224,209.23917)"
           id="g184"><path
             id="path186"
             style="fill:#000000;fill-opacity:1;fill-rule:nonzero;stroke:none"
             d="m 289,629 c 0,4 -19,6.66669 -57,8 -16,0 -26.33333,0.33331 -31,1 -4.66667,0.66669 -7,4 -7,10 0,0.66669 0.66667,4.33331 2,11 0.66667,2 1.33333,4.33331 2,7 0.66667,2.66669 1,4.33331 1,5 0,0.66669 0.66667,2.33331 2,5 1.33333,2.66669 2,3.66669 2,3 0,-0.66669 1.33333,0 4,2 2.66667,2 4.33333,2.66669 5,2 0.66667,-0.66669 3.33333,-0.66669 8,0 4.66667,0.66669 8.66667,1 12,1 4,0 14,0 30,0 16,0 31,-0.33331 45,-1 52.66666,0 83,0 91,0 8,0 13.33334,-1.66669 16,-5 0.66666,-2.66669 13,-96.66663 37,-282 l 36,-279 23,37 c 16,24 37.33331,57.33333 64,100 26.66669,42.66666 56,89.33334 88,140 116.66669,186 175.66669,279.66669 177,281 0.66669,0.66669 1.66669,1.66669 3,3 1.33331,1.33331 2.66669,2.33331 4,3 l 6,2 h 96 c 11.33331,0 24.66669,0 40,0 15.3333,0 25,0.33331 29,1 22.6666,0 34,-3.66669 34,-11 0,-3.33331 -1,-9 -3,-17 -2,-8 -3,-12.33331 -3,-13 -2.6666,-4 -15,-6 -37,-6 -26.66669,-0.66669 -43.66669,-1.66669 -51,-3 -7.33331,-1.33331 -13.33331,-5 -18,-11 -2,-3.33331 -26,-97.66663 -72,-283 C 821,154.66666 797.66669,61 797,59 c 0,-2.666668 0.33331,-4.333332 1,-5 0.66669,-0.666668 3,-2 7,-4 4,-2 9.66669,-2.666668 17,-2 7.33331,0.666668 18.33331,0 33,-2 h 31 c 4,-6 6,-9.666668 6,-11 0,-10.666668 -2.33331,-20.666666 -7,-30 -3.33331,-3.3333335 -8.66669,-5 -16,-5 -3.33331,0 -17,0.33333331 -41,1 -24,0.6666667 -54.66669,1 -92,1 -40.66669,0 -71.33331,0 -92,0 -20.66669,0 -32.33331,-0.3333333 -35,-1 -11.33331,0 -17,3.333333 -17,10 0,1.333333 0.66669,6 2,14 2.66669,10.666668 5.33331,16.666668 8,18 2.66669,1.333332 10.33331,2.333332 23,3 18,0 38,1 60,3 9.33331,2 15.66669,6 19,12 1.33331,2.666668 14,51.33333 38,146 24,94.66669 47.66669,189 71,283 23.33331,94 35,141 35,141 L 654,322 C 523.33331,114 456.33334,8.333334 453,5 451.66666,4.3333335 450.33334,3.6666667 449,3 445.66666,1 440.33334,0 433,0 423,0 417,2.333333 415,7 413.66666,9.666667 400,113 374,317 L 335,624 267,354 C 222.33333,176.66666 200,85 200,79 204,57 228,46 272,46 h 10 c 4,-3.333332 6.33334,-6.333332 7,-9 0.66666,-2.666668 -0.33334,-8.666666 -3,-18 C 283.33334,8.333333 280.66666,2.3333335 278,1 275.33334,0.33333331 271.66666,0 267,0 265.66666,0 261.66666,0 255,0 248.33333,0 237,0.33333331 221,1 205,1.6666667 183.66667,2 157,2 137,2 116.33334,1.6666667 95,1 73.666664,0.33333331 61.333332,0 58,0 48,0 41.666668,0.66666663 39,2 c -2.666668,1.3333335 -4,4.333333 -4,9 0,1.333333 1,6 3,14 2,8 3.666668,13 5,15 1.333332,4 8.666664,6 22,6 46.66667,0 76.33333,13.333332 89,40 2.66667,4 25.66666,93.33333 69,268 43.33334,174.66669 65.33334,266.33331 66,275 z" /></g><g
           transform="matrix(0.05438802,0,0,-0.05367687,18.786839,178.48233)"
           id="g188"><path
             id="path190"
             style="fill:#000000;fill-opacity:1;fill-rule:nonzero;stroke:none"
             d="m 179,251 c -10,0 -19.33333,-2 -28,-6 -8.66667,-4 -15.33333,-7.66667 -20,-11 -4.66666,-3.33333 -11.33334,-9.66667 -20,-19 l -14,12 -14,11 c 0,0.66667 4,5.66667 12,15 8,9.33334 16.66666,19.33334 26,30 9.33333,10.66666 16.33333,17.66666 21,21 15.33333,9.33334 30.33333,14 45,14 14.66667,0 36.66667,-6 66,-18 29.33334,-12 51.66666,-18 67,-18 10,0 19.33334,2 28,6 8.66666,4 15.33334,7.66666 20,11 4.66666,3.33334 11.33334,9.66666 20,19 l 14,-12 14,-11 c -27.33334,-39.33334 -51.33334,-63.66667 -72,-73 -9.33334,-4.66667 -19.66666,-7 -31,-7 -14,0 -35.66666,6 -65,18 -29.33333,12 -52.33333,18 -69,18 z" /></g><g
           transform="matrix(0.03845233,0,0,-0.03794955,60.067348,187.07063)"
           id="g192"><path
             id="path194"
             style="fill:#000000;fill-opacity:1;fill-rule:nonzero;stroke:none"
             d="m 52,289 c 4.666668,28 22.666664,60.33334 54,97 31.33333,36.66666 70,55.33334 116,56 23.33333,0 44.66666,-6 64,-18 19.33334,-12 33.66666,-27 43,-45 28,42 61.66666,63 101,63 24.66666,0 46,-7.33334 64,-22 18,-14.66666 27.33331,-34.33334 28,-59 0,-19.33334 -4.66669,-35 -14,-47 -9.33334,-12 -18.33334,-19.33334 -27,-22 -8.66666,-2.66666 -16.33334,-4 -23,-4 -12.66666,0 -23,3.66666 -31,11 -8,7.33334 -12,17 -12,29 0,30.66666 16.66666,51.66666 50,63 -7.33334,8.66666 -20.66666,13 -40,13 -8.66666,0 -15,-0.66666 -19,-2 -25.33334,-10.66666 -44,-32.66666 -56,-66 -40,-147.33334 -60,-233.33333 -60,-258 0,-18.666668 5.33334,-32 16,-40 10.66666,-8 22.33334,-12 35,-12 24.66666,0 49,11 73,33 24,22 40.33334,49 49,81 2,6.66667 4,10.33333 6,11 2,0.66667 7.33334,1.33333 16,2 h 4 c 10,0 15,-2.66667 15,-8 0,-0.66667 -0.66666,-4.33333 -2,-11 C 491.33334,96 470.66666,62.333336 440,33 409.33334,3.666666 373.66666,-11 333,-11 286.33334,-11 251,10 227,52 199.66667,10.666664 168.33334,-10 133,-10 h -6 C 94.333328,-10 71,-1.333334 57,16 43,33.333336 35.666668,51.666664 35,71 c 0,21.333336 6.333332,38.66666 19,52 12.666664,13.33333 27.666664,20 45,20 28.66667,0 43,-14 43,-42 C 142,87.666664 138,76 130,66 122,56 114.33334,49.333332 107,46 99.666664,42.666668 95.333336,41 94,41 l -3,-1 c 0,-0.666668 2,-2 6,-4 4,-2 9.33334,-4.333334 16,-7 6.66666,-2.666666 13,-3.666666 19,-3 24,0 44.66667,15 62,45 6,10.666664 13.66667,33.33333 23,68 9.33333,34.66667 18.66667,70.66666 28,108 9.33333,37.33334 14.66666,59.33334 16,66 3.33334,18 5,31 5,39 0,18.66666 -5,32 -15,40 -10,8 -21.33333,12 -34,12 -26.66667,0 -51.66667,-10.66666 -75,-32 -23.33334,-21.33334 -39.66666,-48.66666 -49,-82 -1.333336,-6 -3,-9.33334 -5,-10 -2,-0.66666 -7.333336,-1.33334 -16,-2 H 58 c -4,4 -6,7.66666 -6,11 z" /></g><g
           transform="matrix(0.0271858,0,0,-0.02683033,83.331009,192.76306)"
           id="g196"><path
             id="path198"
             style="fill:#000000;fill-opacity:1;fill-rule:nonzero;stroke:none"
             d="m 96,585 c 37.33334,54 88.33333,81 153,81 32,0 64,-8.66669 96,-26 32,-17.33331 58,-48 78,-92 24.66666,-55.33334 37,-131.33331 37,-228 C 460,216.66666 445.66666,137.66667 417,83 403.66666,55 385.33334,32.666668 362,16 338.66666,-0.66666794 318.33334,-11 301,-15 c -17.33334,-4 -34.33334,-6.333334 -51,-7 -17.33333,0 -34.66667,2 -52,6 -17.33333,4 -37.66667,14.666666 -61,32 C 113.66666,33.333336 95.333336,55.666664 82,83 53.333332,137.66667 39,216.66666 39,320 39,436 58,524.33331 96,585 Z m 225,12 c -20,21.33331 -43.66666,32 -71,32 -28,0 -52,-10.66669 -72,-32 -16.66667,-17.33331 -27.66667,-41.33331 -33,-72 -5.33333,-30.66666 -8,-94.66666 -8,-192 0,-105.33334 2.66667,-174.66666 8,-208 5.33333,-33.333336 17.33333,-59.666664 36,-79 18.66667,-20 41.66667,-30 69,-30 26.66666,0 49.33334,10 68,30 19.33334,20 31.33334,48 36,84 4.66666,36 7.33334,103.66666 8,203 0,96.66669 -2.66666,160.33334 -8,191 -5.33334,30.66669 -16.33334,55 -33,73 z" /></g><g
           transform="matrix(0.03845233,0,0,-0.03794955,98.850372,187.07063)"
           id="g200"><path
             id="path202"
             style="fill:#000000;fill-opacity:1;fill-rule:nonzero;stroke:none"
             d="m 78,60 c 0,16 5.666664,30 17,42 11.33334,12 25.66666,18 43,18 16,0 30,-5.33334 42,-16 C 192,93.333336 198.33333,79 199,61 199,44.333332 193.33333,30 182,18 170.66667,6 156.33333,0 139,0 121.66666,0 107.33334,5.666666 96,17 84.666664,28.333334 78.666664,42.666664 78,60 Z" /></g><g
           transform="matrix(0.03845233,0,0,-0.03794955,109.54012,187.07063)"
           id="g204"><path
             id="path206"
             style="fill:#000000;fill-opacity:1;fill-rule:nonzero;stroke:none"
             d="m 78,60 c 0,16 5.666664,30 17,42 11.33334,12 25.66666,18 43,18 16,0 30,-5.33334 42,-16 C 192,93.333336 198.33333,79 199,61 199,44.333332 193.33333,30 182,18 170.66667,6 156.33333,0 139,0 121.66666,0 107.33334,5.666666 96,17 84.666664,28.333334 78.666664,42.666664 78,60 Z" /></g><g
           transform="matrix(0.03845233,0,0,-0.03794955,120.22987,187.07063)"
           id="g208"><path
             id="path210"
             style="fill:#000000;fill-opacity:1;fill-rule:nonzero;stroke:none"
             d="m 78,60 c 0,16 5.666664,30 17,42 11.33334,12 25.66666,18 43,18 16,0 30,-5.33334 42,-16 C 192,93.333336 198.33333,79 199,61 199,44.333332 193.33333,30 182,18 170.66667,6 156.33333,0 139,0 121.66666,0 107.33334,5.666666 96,17 84.666664,28.333334 78.666664,42.666664 78,60 Z" /></g><g
           transform="matrix(0.03845233,0,0,-0.03794955,130.9196,187.07063)"
           id="g212"><path
             id="path214"
             style="fill:#000000;fill-opacity:1;fill-rule:nonzero;stroke:none"
             d="m 52,289 c 4.666668,28 22.666664,60.33334 54,97 31.33333,36.66666 70,55.33334 116,56 23.33333,0 44.66666,-6 64,-18 19.33334,-12 33.66666,-27 43,-45 28,42 61.66666,63 101,63 24.66666,0 46,-7.33334 64,-22 18,-14.66666 27.33331,-34.33334 28,-59 0,-19.33334 -4.66669,-35 -14,-47 -9.33334,-12 -18.33334,-19.33334 -27,-22 -8.66666,-2.66666 -16.33334,-4 -23,-4 -12.66666,0 -23,3.66666 -31,11 -8,7.33334 -12,17 -12,29 0,30.66666 16.66666,51.66666 50,63 -7.33334,8.66666 -20.66666,13 -40,13 -8.66666,0 -15,-0.66666 -19,-2 -25.33334,-10.66666 -44,-32.66666 -56,-66 -40,-147.33334 -60,-233.33333 -60,-258 0,-18.666668 5.33334,-32 16,-40 10.66666,-8 22.33334,-12 35,-12 24.66666,0 49,11 73,33 24,22 40.33334,49 49,81 2,6.66667 4,10.33333 6,11 2,0.66667 7.33334,1.33333 16,2 h 4 c 10,0 15,-2.66667 15,-8 0,-0.66667 -0.66666,-4.33333 -2,-11 C 491.33334,96 470.66666,62.333336 440,33 409.33334,3.666666 373.66666,-11 333,-11 286.33334,-11 251,10 227,52 199.66667,10.666664 168.33334,-10 133,-10 h -6 C 94.333328,-10 71,-1.333334 57,16 43,33.333336 35.666668,51.666664 35,71 c 0,21.333336 6.333332,38.66666 19,52 12.666664,13.33333 27.666664,20 45,20 28.66667,0 43,-14 43,-42 C 142,87.666664 138,76 130,66 122,56 114.33334,49.333332 107,46 99.666664,42.666668 95.333336,41 94,41 l -3,-1 c 0,-0.666668 2,-2 6,-4 4,-2 9.33334,-4.333334 16,-7 6.66666,-2.666666 13,-3.666666 19,-3 24,0 44.66667,15 62,45 6,10.666664 13.66667,33.33333 23,68 9.33333,34.66667 18.66667,70.66666 28,108 9.33333,37.33334 14.66666,59.33334 16,66 3.33334,18 5,31 5,39 0,18.66666 -5,32 -15,40 -10,8 -21.33333,12 -34,12 -26.66667,0 -51.66667,-10.66666 -75,-32 -23.33334,-21.33334 -39.66666,-48.66666 -49,-82 -1.333336,-6 -3,-9.33334 -5,-10 -2,-0.66666 -7.333336,-1.33334 -16,-2 H 58 c -4,4 -6,7.66666 -6,11 z" /></g><g
           transform="matrix(0.0271858,0,0,-0.02683033,154.18327,192.76306)"
           id="g216"><path
             id="path218"
             style="fill:#000000;fill-opacity:1;fill-rule:nonzero;stroke:none"
             d="m 21,287 c 0.666666,4 1.666666,9.33334 3,16 1.333334,6.66666 5.333332,19.33334 12,38 6.666668,18.66666 13.333332,34.33334 20,47 6.666668,12.66666 17.666664,25 33,37 15.33334,12 30.66666,17.66666 46,17 24,0 44,-6 60,-18 16,-12 26,-23.33334 30,-34 4,-10.66666 6,-17.66666 6,-21 0,-1.33334 0.33333,-2 1,-2 l 11,11 c 40.66666,42.66666 87,64 139,64 36,0 65,-9 87,-27 22,-18 33.33334,-44.33334 34,-79 0.66666,-34.66666 -12,-87 -38,-157 -26,-70 -38.66666,-112.333336 -38,-127 0,-17.333336 5.66666,-26 17,-26 4,0 7,0.333334 9,1 19.33334,3.333334 36.66666,16 52,38 15.33331,22 27,48.66666 35,80 1.33331,5.33333 8,8 20,8 13.33331,0 20,-2.66667 20,-8 0,-0.66667 -1.33331,-5.66667 -4,-15 -5.33331,-19.33334 -12.66669,-38.333328 -22,-57 -9.33331,-18.666668 -24.66669,-37.333332 -46,-56 -21.33334,-18.6666679 -44.33334,-27.666667 -69,-27 -31.33334,0 -54,9 -68,27 -14,18 -21,36.666664 -21,56 0,12.666664 12,52.66666 36,120 24,67.33334 36.33334,118 37,152 0,39.33334 -14.66666,59 -44,59 h -5 C 316.66666,404 268.33334,370.33334 229,303 L 222,291 189,157 C 167,69.666664 154.33333,22.666668 151,16 c -8.66667,-18 -23,-27 -43,-27 -8.666664,0 -15.666664,2 -21,6 -5.333336,4 -9,8 -11,12 -2,4 -2.666664,7.333333 -2,10 0,8.666668 12.666664,63 38,163 25.33333,100 38.66667,154.33334 40,163 0.66667,3.33334 1,11 1,23 0,26 -8,39 -24,39 -25.33334,0 -46.333328,-33.33331 -63,-100 -4,-13.33334 -6,-20.33334 -6,-21 -1.333332,-4 -7.666664,-6 -19,-6 H 27 c -4,4 -6,7 -6,9 z" /></g><g
           transform="matrix(0.0271858,0,0,-0.02683033,170.49475,192.76306)"
           id="g220"><path
             id="path222"
             style="fill:#000000;fill-opacity:1;fill-rule:nonzero;stroke:none"
             d="m 84,237 c 0,0 0,4.33333 0,13 0,8.66666 4.666664,15.33334 14,20 h 581 c 10,-5.33334 15,-12 15,-20 0,-8 -5,-14.66667 -15,-20 H 98 c -9.333336,4.66667 -14,11.33333 -14,20 z" /></g><g
           transform="matrix(0.0271858,0,0,-0.02683033,191.64531,192.76306)"
           id="g224"><path
             id="path226"
             style="fill:#000000;fill-opacity:1;fill-rule:nonzero;stroke:none"
             d="m 213,578 -13,-5 c -9.33333,-3.33331 -22.66667,-6.66669 -40,-10 -17.33333,-3.33331 -36.66666,-5.66669 -58,-7 H 83 v 46 h 19 c 31.33333,1.33331 60.33333,6.33331 87,15 26.66667,8.66669 45.33333,16.66669 56,24 10.66667,7.33331 20,14.66669 28,22 1.33334,2 5.33334,3 12,3 6,0 11.66666,-2 17,-6 V 361 l 1,-300 c 4.66666,-4.666668 8.66666,-7.666668 12,-9 3.33334,-1.333332 11.33334,-2.666668 24,-4 12.66666,-1.333332 33.33334,-2 62,-2 h 26 V 0 H 416 C 402,2 349,3 257,3 166.33333,3 114,2 100,0 H 88 v 46 h 26 c 14.66667,0 27.33333,0 38,0 10.66667,0 19,0.333332 25,1 6,0.666668 11.33333,1.666668 16,3 4.66667,1.333332 7.33333,2 8,2 0.66667,0 2.66667,1.666668 6,5 3.33333,3.333332 5.33333,4.666668 6,4 z" /></g><g
           transform="matrix(0.05438802,0,0,-0.05367687,225.02077,209.23917)"
           id="g228"><path
             id="path230"
             style="fill:#000000;fill-opacity:1;fill-rule:nonzero;stroke:none"
             d="m 56,347 c 0,8.66666 4.666664,15.33334 14,20 h 637 c 10,-5.33334 15,-12 15,-20 0,-7.33334 -4.66669,-13.66666 -14,-19 L 390,327 H 72 c -10.666668,3.33334 -16,10 -16,20 z m 0,-194 c 0,10 5.333332,16.66667 16,20 h 636 c 9.33331,-6.66667 14,-13.33333 14,-20 0,-8.66667 -5,-15.33333 -15,-20 H 70 c -9.333336,4.66667 -14,11.33333 -14,20 z" /></g></g></g></g></svg>