<?xml version="1.0" encoding="UTF-8" standalone="no"?>
<svg
   xmlns:dc="http://purl.org/dc/elements/1.1/"
   xmlns:cc="http://creativecommons.org/ns#"
   xmlns:rdf="http://www.w3.org/1999/02/22-rdf-syntax-ns#"
   xmlns:svg="http://www.w3.org/2000/svg"
   xmlns="http://www.w3.org/2000/svg"
   viewBox="0 0 310.72 61.439999"
   height="61.439999"
   width="310.72"
   xml:space="preserve"
   id="svg2"
   version="1.1"><metadata
     id="metadata8"><rdf:RDF><cc:Work
         rdf:about=""><dc:format>image/svg+xml</dc:format><dc:type
           rdf:resource="http://purl.org/dc/dcmitype/StillImage" /></cc:Work></rdf:RDF></metadata><defs
     id="defs6"><clipPath
       id="clipPath18"
       clipPathUnits="userSpaceOnUse"><path
         style="clip-rule:evenodd"
         id="path16"
         d="M 0,0 H 968.99414 V 191.99219 H 0 Z" /></clipPath><clipPath
       id="clipPath36"
       clipPathUnits="userSpaceOnUse"><path
         style="clip-rule:evenodd"
         id="path34"
         d="m 898.06616,134.0332 h 66.07043 v 44.67774 h -66.07043 z" /></clipPath><clipPath
       id="clipPath52"
       clipPathUnits="userSpaceOnUse"><path
         style="clip-rule:evenodd"
         id="path50"
         d="m 898.06616,2.9785156 h 63.06726 V 47.65625 h -63.06726 z" /></clipPath><clipPath
       id="clipPath68"
       clipPathUnits="userSpaceOnUse"><path
         style="clip-rule:evenodd"
         id="path66"
         d="m 651.80359,32.763672 h 63.06726 v 44.677734 h -63.06726 z" /></clipPath><clipPath
       id="clipPath84"
       clipPathUnits="userSpaceOnUse"><path
         style="clip-rule:evenodd"
         id="path82"
         d="M 0.10870361,134.0332 H 63.175904 v 44.67774 H 0.10870361 Z" /></clipPath><clipPath
       id="clipPath100"
       clipPathUnits="userSpaceOnUse"><path
         style="clip-rule:evenodd"
         id="path98"
         d="M 0.10870361,2.9785156 H 63.175904 V 47.65625 H 0.10870361 Z" /></clipPath><clipPath
       id="clipPath116"
       clipPathUnits="userSpaceOnUse"><path
         style="clip-rule:evenodd"
         id="path114"
         d="m 405.54095,2.9785156 h 63.06726 V 47.65625 h -63.06726 z" /></clipPath><clipPath
       id="clipPath132"
       clipPathUnits="userSpaceOnUse"><path
         style="clip-rule:evenodd"
         id="path130"
         d="m 405.54095,134.0332 h 63.06726 v 44.67774 h -63.06726 z" /></clipPath><clipPath
       id="clipPath148"
       clipPathUnits="userSpaceOnUse"><path
         style="clip-rule:evenodd"
         id="path146"
         d="m 234.35846,134.0332 h 66.07043 v 44.67774 h -66.07043 z" /></clipPath><clipPath
       id="clipPath164"
       clipPathUnits="userSpaceOnUse"><path
         style="clip-rule:evenodd"
         id="path162"
         d="m 234.35846,0 h 63.06726 v 44.677734 h -63.06726 z" /></clipPath><clipPath
       id="clipPath180"
       clipPathUnits="userSpaceOnUse"><path
         style="clip-rule:evenodd"
         id="path178"
         d="M 0,0 H 968.99414 V 191.99219 H 0 Z" /></clipPath><clipPath
       id="clipPath212"
       clipPathUnits="userSpaceOnUse"><path
         style="clip-rule:evenodd"
         id="path210"
         d="m 779.4397,59.570313 h 36.03845 V 119.14063 H 779.4397 Z" /></clipPath><clipPath
       id="clipPath228"
       clipPathUnits="userSpaceOnUse"><path
         style="clip-rule:evenodd"
         id="path226"
         d="m 554.19946,65.527344 h 39.04163 v 47.656246 h -39.04163 z" /></clipPath><clipPath
       id="clipPath244"
       clipPathUnits="userSpaceOnUse"><path
         style="clip-rule:evenodd"
         id="path242"
         d="m 133.75116,64.038086 h 39.04163 v 50.634764 h -39.04163 z" /></clipPath></defs><g
     transform="matrix(0.31999998,0,0,0.31999998,0,1.2026666e-6)"
     id="g10"><g
       id="g12"><g
         clip-path="url(#clipPath18)"
         id="g14"><g
           transform="matrix(3.0032022,0,0,2.9785156,-584.01416,-740.16113)"
           id="g20"><path
             id="path22"
             style="fill:none;stroke:#000000;stroke-width:1;stroke-linecap:butt;stroke-linejoin:miter;stroke-miterlimit:10;stroke-dasharray:none;stroke-opacity:1"
             d="m 266,279 c -3e-5,1.3132 -0.12814,2.6138 -0.38434,3.90176 -0.25619,1.288 -0.63556,2.53861 -1.13809,3.7519 -0.50253,1.21322 -1.11862,2.36581 -1.84824,3.4577 -0.72955,1.09192 -1.55862,2.10217 -2.48721,3.03076 -0.92859,0.92859 -1.93884,1.75766 -3.03076,2.48724 -1.09189,0.72959 -2.24448,1.34568 -3.45772,1.84821 -1.21326,0.50253 -2.46387,0.88193 -3.75185,1.13812 -1.28797,0.2562 -2.58857,0.38428 -3.90179,0.38431 -1.31323,-3e-5 -2.61385,-0.12811 -3.90184,-0.38431 -1.28798,-0.25619 -2.5386,-0.63559 -3.75185,-1.13812 -1.21325,-0.50253 -2.36583,-1.11862 -3.45773,-1.84821 -1.09189,-0.72958 -2.10213,-1.55865 -3.03072,-2.48724 -0.92858,-0.92859 -1.75767,-1.93884 -2.48725,-3.03073 -0.7296,-1.09192 -1.34568,-2.24451 -1.84823,-3.45773 -0.50253,-1.21329 -0.88189,-2.4639 -1.13809,-3.7519 C 226.1281,281.6138 226,280.3132 226,279 c 0,-1.3132 0.1281,-2.61383 0.38429,-3.90182 0.2562,-1.288 0.63556,-2.53864 1.13809,-3.7519 0.50255,-1.21328 1.11863,-2.36584 1.84821,-3.4577 0.7296,-1.09192 1.55869,-2.10217 2.48727,-3.03073 0.92859,-0.92859 1.93883,-1.75766 3.03072,-2.48724 1.0919,-0.72959 2.24448,-1.34568 3.45773,-1.84821 1.21325,-0.50253 2.46387,-0.8819 3.75185,-1.13809 C 243.38615,259.12811 244.68677,259 246,259 c 1.31322,0 2.61382,0.12808 3.90179,0.38428 1.28798,0.25619 2.53859,0.63556 3.75185,1.13809 1.21324,0.50253 2.36583,1.11862 3.45772,1.84824 1.09192,0.72958 2.10217,1.55865 3.03076,2.48724 0.92859,0.92856 1.75766,1.93881 2.48721,3.0307 0.72962,1.09189 1.34571,2.24445 1.84824,3.45773 0.50253,1.21326 0.8819,2.4639 1.13809,3.7519 0.2562,1.28799 0.38431,2.58862 0.38434,3.90182 z" /></g><g
           transform="matrix(3.0032022,0,0,2.9785156,-585.51575,-741.65039)"
           id="g24"><text
             id="text28"
             style="font-variant:normal;font-weight:normal;font-size:12px;font-family:ArialMT;-inkscape-font-specification:ArialMT;writing-mode:lr-tb;fill:#000000;fill-opacity:1;fill-rule:nonzero;stroke:none"
             transform="translate(307,283)"><tspan
               id="tspan26"
               y="0"
               x="0">=</tspan></text>
</g></g></g><g
       id="g30"><g
         clip-path="url(#clipPath36)"
         id="g32"><g
           transform="matrix(0.05538191,0,0,-0.05359424,897.06927,170.65494)"
           id="g38"><path
             id="path40"
             style="fill:#000000;fill-opacity:1;fill-rule:nonzero;stroke:none"
             d="m 18,487 c 0,6 3.666666,16 11,30 7.333332,14 20,30.33331 38,49 18,18.66669 38,37 60,55 22,18 51.66666,32.66669 89,44 37.33334,11.33331 75.33334,17.33331 114,18 19.33334,0 34.66666,-4.66669 46,-14 11.33334,-9.33331 18.33334,-18 21,-26 2.66666,-8 3.66666,-15 3,-21 0,-25.33331 -6,-70 -18,-134 -12,-64 -23.33334,-112.33334 -34,-145 0,-0.66666 39.66666,-1 119,-1 h 120 l 7,24 c 14,49.33334 32,105.33334 54,168 22,62.66669 36,98.33331 42,107 7.33331,10 18.33331,19.33331 33,28 14.66669,8.66669 28.33331,13.33331 41,14 12.66669,0 19,-3.66669 19,-11 L 750,578 C 727.33331,516 703,438.66669 677,346 651,253.33333 633.66669,171.66667 625,101 c -0.66669,-6 -1.33331,-12.333336 -2,-19 -0.66669,-6.666664 -1,-12.333336 -1,-17 0,-4.666668 -0.33331,-7.666668 -1,-9 0,-24 12.33331,-36 37,-36 5.33331,0 19.66669,1.666666 43,5 5.33331,18 17,32.666664 35,44 18,11.333336 34.33331,17.333336 49,18 12,0 18,-4 18,-12 0,-8 -4,-18.333332 -12,-31 -8,-12.666668 -20.33331,-26.333332 -37,-41 -16.66669,-14.666667 -39.66669,-26.666666 -69,-36 -29.33331,-9.333336 -61.66669,-14.333332 -97,-15 -13.33331,0 -22,0.666668 -26,2 -26.66669,10 -40,29.666666 -40,59 v 10 c 6,70.666672 19.33331,146.33333 40,227 l 7,31 -4,-1 c -2.66669,-1.33334 -5.66669,-2.33334 -9,-3 -3.33331,-0.66666 -5.66669,-1.66666 -7,-3 L 438,273 H 328 l -7,-24 C 311.66666,217.66667 296.33334,170.33334 275,107 253.66667,43.666664 239.33333,8 232,0 c -8.66667,-10.666667 -20.66667,-20 -36,-28 -15.33333,-8 -29,-12.333332 -41,-13 -4,0 -7.33333,0.666668 -10,2 -2.66667,1.333332 -4.33333,3 -5,5 -0.66667,2 -1,3.666666 -1,5 0,3.333334 3,12 9,26 6,14 17,43.666664 33,89 16,45.33334 33.33333,99 52,161 4.66667,15.33334 7,23.66666 7,25 0,0.66666 -15.33333,1 -46,1 h -25 c -20,0 -30,4 -30,12 0,6.66666 4.66667,14.33334 14,23 9.33333,8.66666 20.66667,16.66666 34,24 12.66667,6 29,9.33334 49,10 l 24,1 4,16 c 9.33334,36.66666 17.66666,77.66666 25,123 7.33334,45.33331 11,77.33331 11,96 0,23.33331 -13.33334,35 -40,35 h -6 c -37.33334,0 -65.66667,-7 -85,-21 -14,-9.33331 -28,-25.33331 -42,-48 -14,-22.66669 -21.66666,-34.66666 -23,-36 -21.333336,-20 -43.666664,-31 -67,-33 -12.666668,0 -19,4 -19,12 z" /></g><g
           transform="matrix(0.03915501,0,0,-0.03789113,945.69458,178.69408)"
           id="g42"><path
             id="path44"
             style="fill:#000000;fill-opacity:1;fill-rule:nonzero;stroke:none"
             d="M 462,0 C 450,2 407,3 333,3 255.66666,3 211,2 199,0 h -9 v 46 h 31 c 13.33333,0 22.33333,0 27,0 4.66667,0 10.33334,0.666668 17,2 6.66666,1.333332 11.33334,3 14,5 2.66666,2 5,4.666668 7,8 0.66666,1.333332 1,19.333328 1,54 v 50 H 28 v 46 l 151,231 c 102,154.66669 153.66666,232.33331 155,233 1.33334,1.33331 8.33334,2 21,2 h 18 l 6,-6 V 211 h 92 v -46 h -92 v -51 c 0,-27.333336 0,-43.333336 0,-48 0,-4.666668 2,-8.666668 6,-12 5.33334,-4.666668 24.33334,-7.333332 57,-8 h 29 V 0 Z M 293,211 V 545 L 74,212 183,211 Z" /></g></g></g><g
       id="g46"><g
         clip-path="url(#clipPath52)"
         id="g48"><g
           transform="matrix(0.053274,0,0,-0.05265161,897.12665,38.939568)"
           id="g54"><path
             id="path56"
             style="fill:#000000;fill-opacity:1;fill-rule:nonzero;stroke:none"
             d="m 18,487 c 0,6 3.666666,16 11,30 7.333332,14 20,30.33331 38,49 18,18.66669 38,37 60,55 22,18 51.66666,32.66669 89,44 37.33334,11.33331 75.33334,17.33331 114,18 19.33334,0 34.66666,-4.66669 46,-14 11.33334,-9.33331 18.33334,-18 21,-26 2.66666,-8 3.66666,-15 3,-21 0,-25.33331 -6,-70 -18,-134 -12,-64 -23.33334,-112.33334 -34,-145 0,-0.66666 39.66666,-1 119,-1 h 120 l 7,24 c 14,49.33334 32,105.33334 54,168 22,62.66669 36,98.33331 42,107 7.33331,10 18.33331,19.33331 33,28 14.66669,8.66669 28.33331,13.33331 41,14 12.66669,0 19,-3.66669 19,-11 L 750,578 C 727.33331,516 703,438.66669 677,346 651,253.33333 633.66669,171.66667 625,101 c -0.66669,-6 -1.33331,-12.333336 -2,-19 -0.66669,-6.666664 -1,-12.333336 -1,-17 0,-4.666668 -0.33331,-7.666668 -1,-9 0,-24 12.33331,-36 37,-36 5.33331,0 19.66669,1.666666 43,5 5.33331,18 17,32.666664 35,44 18,11.333336 34.33331,17.333336 49,18 12,0 18,-4 18,-12 0,-8 -4,-18.333332 -12,-31 -8,-12.666668 -20.33331,-26.333332 -37,-41 -16.66669,-14.666667 -39.66669,-26.666666 -69,-36 -29.33331,-9.333336 -61.66669,-14.333332 -97,-15 -13.33331,0 -22,0.666668 -26,2 -26.66669,10 -40,29.666666 -40,59 v 10 c 6,70.666672 19.33331,146.33333 40,227 l 7,31 -4,-1 c -2.66669,-1.33334 -5.66669,-2.33334 -9,-3 -3.33331,-0.66666 -5.66669,-1.66666 -7,-3 L 438,273 H 328 l -7,-24 C 311.66666,217.66667 296.33334,170.33334 275,107 253.66667,43.666664 239.33333,8 232,0 c -8.66667,-10.666667 -20.66667,-20 -36,-28 -15.33333,-8 -29,-12.333332 -41,-13 -4,0 -7.33333,0.666668 -10,2 -2.66667,1.333332 -4.33333,3 -5,5 -0.66667,2 -1,3.666666 -1,5 0,3.333334 3,12 9,26 6,14 17,43.666664 33,89 16,45.33334 33.33333,99 52,161 4.66667,15.33334 7,23.66666 7,25 0,0.66666 -15.33333,1 -46,1 h -25 c -20,0 -30,4 -30,12 0,6.66666 4.66667,14.33334 14,23 9.33333,8.66666 20.66667,16.66666 34,24 12.66667,6 29,9.33334 49,10 l 24,1 4,16 c 9.33334,36.66666 17.66666,77.66666 25,123 7.33334,45.33331 11,77.33331 11,96 0,23.33331 -13.33334,35 -40,35 h -6 c -37.33334,0 -65.66667,-7 -85,-21 -14,-9.33331 -28,-25.33331 -42,-48 -14,-22.66669 -21.66666,-34.66666 -23,-36 -21.333336,-20 -43.666664,-31 -67,-33 -12.666668,0 -19,4 -19,12 z" /></g><g
           transform="matrix(0.03766471,0,0,-0.03722469,943.90125,46.837307)"
           id="g58"><path
             id="path60"
             style="fill:#000000;fill-opacity:1;fill-rule:nonzero;stroke:none"
             d="m 127,463 c -18,0 -32,5.66666 -42,17 -10,11.33334 -15.333336,26 -16,44 0,36.66669 16,69.33331 48,98 32,28.66669 70.66666,43 116,43 23.33334,0 38,-0.33331 44,-1 49.33334,-8 87,-25.66669 113,-53 26,-27.33331 39.33334,-57 40,-89 0,-34.66666 -11.33334,-68.33334 -34,-101 -22.66666,-32.66666 -54,-56.33334 -94,-71 l -3,-2 c 0,-0.66666 3,-1.66666 9,-3 6,-1.33334 15.66666,-4.33334 29,-9 13.33334,-4.66666 26,-11.66666 38,-21 54.66666,-35.33334 82,-82 82,-140 C 457,122.33333 436.33334,76.333336 395,37 353.66666,-2.3333359 301.33334,-22 238,-22 184.66666,-22 138.66667,-7.6666679 100,21 61.333332,49.666668 42,86 42,130 c 0,18.66667 6,33.66667 18,45 12,11.33333 27,17.33333 45,18 18.66667,0 34,-6 46,-18 12,-12 18,-27 18,-45 0,-7.33334 -1,-14 -3,-20 -2,-6 -4.33333,-11.333336 -7,-16 -2.66667,-4.666664 -6.33333,-8.666664 -11,-12 -4.66667,-3.333336 -8.66667,-6 -12,-8 -3.33333,-2 -6.66667,-3.333336 -10,-4 -3.33334,-0.666664 -6,-1.666664 -8,-3 l -4,-1 c 34,-30 75.33333,-45 124,-45 36.66666,0 64.33334,17.666664 83,53 11.33334,22 17,55.66666 17,101 v 20 c 0,63.33334 -21.33334,105.66666 -64,127 -10,4 -30.33333,6.33334 -61,7 l -42,1 -3,2 c -1.33333,2 -2,7.33334 -2,16 0,12 2.66667,18 8,18 18.66667,0 38,1.66666 58,5 22.66667,3.33334 43.33334,17.33334 62,42 18.66666,24.66666 28,62 28,112 v 8 c 0,38 -11.66666,64.33331 -35,79 -14.66666,9.33331 -30.33334,14 -47,14 -21.33333,0 -41,-3.66669 -59,-11 -18,-7.33331 -30.66667,-15 -38,-23 -7.33333,-8 -11,-12 -11,-12 h 3 c 2,-0.66669 4.66667,-1.33331 8,-2 3.33333,-0.66669 6.66667,-2.33331 10,-5 3.33333,-2.66669 7.33333,-5 12,-7 4.66667,-2 8,-5.66669 10,-11 2,-5.33331 4.66667,-10.33331 8,-15 3.33333,-4.66669 4.33333,-11.33331 3,-20 0,-14.66666 -4.66667,-27.66666 -14,-39 -9.33333,-11.33334 -24.33333,-17.33334 -45,-18 z" /></g></g></g><g
       id="g62"><g
         clip-path="url(#clipPath68)"
         id="g64"><g
           transform="matrix(0.05356288,0,0,-0.05359444,650.83948,69.38546)"
           id="g70"><path
             id="path72"
             style="fill:#000000;fill-opacity:1;fill-rule:nonzero;stroke:none"
             d="m 18,487 c 0,6 3.666666,16 11,30 7.333332,14 20,30.33331 38,49 18,18.66669 38,37 60,55 22,18 51.66666,32.66669 89,44 37.33334,11.33331 75.33334,17.33331 114,18 19.33334,0 34.66666,-4.66669 46,-14 11.33334,-9.33331 18.33334,-18 21,-26 2.66666,-8 3.66666,-15 3,-21 0,-25.33331 -6,-70 -18,-134 -12,-64 -23.33334,-112.33334 -34,-145 0,-0.66666 39.66666,-1 119,-1 h 120 l 7,24 c 14,49.33334 32,105.33334 54,168 22,62.66669 36,98.33331 42,107 7.33331,10 18.33331,19.33331 33,28 14.66669,8.66669 28.33331,13.33331 41,14 12.66669,0 19,-3.66669 19,-11 L 750,578 C 727.33331,516 703,438.66669 677,346 651,253.33333 633.66669,171.66667 625,101 c -0.66669,-6 -1.33331,-12.333336 -2,-19 -0.66669,-6.666664 -1,-12.333336 -1,-17 0,-4.666668 -0.33331,-7.666668 -1,-9 0,-24 12.33331,-36 37,-36 5.33331,0 19.66669,1.666666 43,5 5.33331,18 17,32.666664 35,44 18,11.333336 34.33331,17.333336 49,18 12,0 18,-4 18,-12 0,-8 -4,-18.333332 -12,-31 -8,-12.666668 -20.33331,-26.333332 -37,-41 -16.66669,-14.666667 -39.66669,-26.666666 -69,-36 -29.33331,-9.333336 -61.66669,-14.333332 -97,-15 -13.33331,0 -22,0.666668 -26,2 -26.66669,10 -40,29.666666 -40,59 v 10 c 6,70.666672 19.33331,146.33333 40,227 l 7,31 -4,-1 c -2.66669,-1.33334 -5.66669,-2.33334 -9,-3 -3.33331,-0.66666 -5.66669,-1.66666 -7,-3 L 438,273 H 328 l -7,-24 C 311.66666,217.66667 296.33334,170.33334 275,107 253.66667,43.666664 239.33333,8 232,0 c -8.66667,-10.666667 -20.66667,-20 -36,-28 -15.33333,-8 -29,-12.333332 -41,-13 -4,0 -7.33333,0.666668 -10,2 -2.66667,1.333332 -4.33333,3 -5,5 -0.66667,2 -1,3.666666 -1,5 0,3.333334 3,12 9,26 6,14 17,43.666664 33,89 16,45.33334 33.33333,99 52,161 4.66667,15.33334 7,23.66666 7,25 0,0.66666 -15.33333,1 -46,1 h -25 c -20,0 -30,4 -30,12 0,6.66666 4.66667,14.33334 14,23 9.33333,8.66666 20.66667,16.66666 34,24 12.66667,6 29,9.33334 49,10 l 24,1 4,16 c 9.33334,36.66666 17.66666,77.66666 25,123 7.33334,45.33331 11,77.33331 11,96 0,23.33331 -13.33334,35 -40,35 h -6 c -37.33334,0 -65.66667,-7 -85,-21 -14,-9.33331 -28,-25.33331 -42,-48 -14,-22.66669 -21.66666,-34.66666 -23,-36 -21.333336,-20 -43.666664,-31 -67,-33 -12.666668,0 -19,4 -19,12 z" /></g><g
           transform="matrix(0.03786896,0,0,-0.03789127,697.86768,77.424622)"
           id="g74"><path
             id="path76"
             style="fill:#000000;fill-opacity:1;fill-rule:nonzero;stroke:none"
             d="m 109,429 c -18,0 -32.333336,6 -43,18 -10.666668,12 -16,26.66666 -16,44 0,47.33331 17.666664,88.33331 53,123 35.33334,34.66669 79.33333,52 132,52 60.66666,0 111.33334,-18.66669 152,-56 40.66666,-37.33331 61.33334,-85.66669 62,-145 0,-28.66666 -6.66666,-56 -20,-82 -13.33334,-26 -29.33334,-48.66666 -48,-68 -18.66666,-19.33334 -45.33334,-44 -80,-74 -24,-20.66667 -57.33333,-51.33333 -100,-92 l -59,-56 76,-1 c 104.66669,0 160.33334,1.666664 167,5 4.66666,1.333336 12.66666,31 24,89 v 3 h 40 v -3 C 448.33334,184 444,153.66667 436,95 428,36.333332 423,5.666667 421,3 V 0 H 50 v 19 12 c 0,4.666668 2,9.666668 6,15 4,5.333332 14,17 30,35 19.33334,21.33334 36,40 50,56 6,6.66667 17.33333,19 34,37 16.66667,18 28,30.33333 34,37 6,6.66667 15.66667,17.66667 29,33 13.33333,15.33334 22.66667,26.66666 28,34 5.33334,7.33334 13,17.33334 23,30 10,12.66666 17,23.33334 21,32 4,8.66666 9,18.33334 15,29 6,10.66666 10.33334,21.33334 13,32 2.66666,10.66666 5,20.66666 7,30 2,9.33334 3,20.33334 3,33 0,42 -11.33334,78.33331 -34,109 -22.66666,30.66669 -55,46 -97,46 -22,0 -41.33333,-5.66669 -58,-17 -16.66667,-11.33331 -28.33334,-22.33331 -35,-33 -6.66666,-10.66669 -10,-17 -10,-19 0,-0.66669 1.66666,-1 5,-1 12,0 24.33333,-4.66669 37,-14 12.66667,-9.33331 19,-24.66666 19,-46 0,-16.66666 -5.33333,-30.66666 -16,-42 -10.66667,-11.33334 -25.66667,-17.33334 -45,-18 z" /></g></g></g><g
       id="g78"><g
         clip-path="url(#clipPath84)"
         id="g80"><g
           transform="matrix(0.05427992,0,0,-0.05359465,-0.86833495,170.65504)"
           id="g86"><path
             id="path88"
             style="fill:#000000;fill-opacity:1;fill-rule:nonzero;stroke:none"
             d="m 18,487 c 0,6 3.666666,16 11,30 7.333332,14 20,30.33331 38,49 18,18.66669 38,37 60,55 22,18 51.66666,32.66669 89,44 37.33334,11.33331 75.33334,17.33331 114,18 19.33334,0 34.66666,-4.66669 46,-14 11.33334,-9.33331 18.33334,-18 21,-26 2.66666,-8 3.66666,-15 3,-21 0,-25.33331 -6,-70 -18,-134 -12,-64 -23.33334,-112.33334 -34,-145 0,-0.66666 39.66666,-1 119,-1 h 120 l 7,24 c 14,49.33334 32,105.33334 54,168 22,62.66669 36,98.33331 42,107 7.33331,10 18.33331,19.33331 33,28 14.66669,8.66669 28.33331,13.33331 41,14 12.66669,0 19,-3.66669 19,-11 L 750,578 C 727.33331,516 703,438.66669 677,346 651,253.33333 633.66669,171.66667 625,101 c -0.66669,-6 -1.33331,-12.333336 -2,-19 -0.66669,-6.666664 -1,-12.333336 -1,-17 0,-4.666668 -0.33331,-7.666668 -1,-9 0,-24 12.33331,-36 37,-36 5.33331,0 19.66669,1.666666 43,5 5.33331,18 17,32.666664 35,44 18,11.333336 34.33331,17.333336 49,18 12,0 18,-4 18,-12 0,-8 -4,-18.333332 -12,-31 -8,-12.666668 -20.33331,-26.333332 -37,-41 -16.66669,-14.666667 -39.66669,-26.666666 -69,-36 -29.33331,-9.333336 -61.66669,-14.333332 -97,-15 -13.33331,0 -22,0.666668 -26,2 -26.66669,10 -40,29.666666 -40,59 v 10 c 6,70.666672 19.33331,146.33333 40,227 l 7,31 -4,-1 c -2.66669,-1.33334 -5.66669,-2.33334 -9,-3 -3.33331,-0.66666 -5.66669,-1.66666 -7,-3 L 438,273 H 328 l -7,-24 C 311.66666,217.66667 296.33334,170.33334 275,107 253.66667,43.666664 239.33333,8 232,0 c -8.66667,-10.666667 -20.66667,-20 -36,-28 -15.33333,-8 -29,-12.333332 -41,-13 -4,0 -7.33333,0.666668 -10,2 -2.66667,1.333332 -4.33333,3 -5,5 -0.66667,2 -1,3.666666 -1,5 0,3.333334 3,12 9,26 6,14 17,43.666664 33,89 16,45.33334 33.33333,99 52,161 4.66667,15.33334 7,23.66666 7,25 0,0.66666 -15.33333,1 -46,1 h -25 c -20,0 -30,4 -30,12 0,6.66666 4.66667,14.33334 14,23 9.33333,8.66666 20.66667,16.66666 34,24 12.66667,6 29,9.33334 49,10 l 24,1 4,16 c 9.33334,36.66666 17.66666,77.66666 25,123 7.33334,45.33331 11,77.33331 11,96 0,23.33331 -13.33334,35 -40,35 h -6 c -37.33334,0 -65.66667,-7 -85,-21 -14,-9.33331 -28,-25.33331 -42,-48 -14,-22.66669 -21.66666,-34.66666 -23,-36 -21.333336,-20 -43.666664,-31 -67,-33 -12.666668,0 -19,4 -19,12 z" /></g><g
           transform="matrix(0.03837591,0,0,-0.03789142,46.789436,178.69424)"
           id="g90"><path
             id="path92"
             style="fill:#000000;fill-opacity:1;fill-rule:nonzero;stroke:none"
             d="m 213,578 -13,-5 c -9.33333,-3.33331 -22.66667,-6.66669 -40,-10 -17.33333,-3.33331 -36.66666,-5.66669 -58,-7 H 83 v 46 h 19 c 31.33333,1.33331 60.33333,6.33331 87,15 26.66667,8.66669 45.33333,16.66669 56,24 10.66667,7.33331 20,14.66669 28,22 1.33334,2 5.33334,3 12,3 6,0 11.66666,-2 17,-6 V 361 l 1,-300 c 4.66666,-4.666668 8.66666,-7.666668 12,-9 3.33334,-1.333332 11.33334,-2.666668 24,-4 12.66666,-1.333332 33.33334,-2 62,-2 h 26 V 0 H 416 C 402,2 349,3 257,3 166.33333,3 114,2 100,0 H 88 v 46 h 26 c 14.66667,0 27.33333,0 38,0 10.66667,0 19,0.333332 25,1 6,0.666668 11.33333,1.666668 16,3 4.66667,1.333332 7.33333,2 8,2 0.66667,0 2.66667,1.666668 6,5 3.33333,3.333332 5.33333,4.666668 6,4 z" /></g></g></g><g
       id="g94"><g
         clip-path="url(#clipPath100)"
         id="g96"><g
           transform="matrix(0.05319634,0,0,-0.05265161,-0.83988953,38.939568)"
           id="g102"><path
             id="path104"
             style="fill:#000000;fill-opacity:1;fill-rule:nonzero;stroke:none"
             d="m 18,487 c 0,6 3.666666,16 11,30 7.333332,14 20,30.33331 38,49 18,18.66669 38,37 60,55 22,18 51.66666,32.66669 89,44 37.33334,11.33331 75.33334,17.33331 114,18 19.33334,0 34.66666,-4.66669 46,-14 11.33334,-9.33331 18.33334,-18 21,-26 2.66666,-8 3.66666,-15 3,-21 0,-25.33331 -6,-70 -18,-134 -12,-64 -23.33334,-112.33334 -34,-145 0,-0.66666 39.66666,-1 119,-1 h 120 l 7,24 c 14,49.33334 32,105.33334 54,168 22,62.66669 36,98.33331 42,107 7.33331,10 18.33331,19.33331 33,28 14.66669,8.66669 28.33331,13.33331 41,14 12.66669,0 19,-3.66669 19,-11 L 750,578 C 727.33331,516 703,438.66669 677,346 651,253.33333 633.66669,171.66667 625,101 c -0.66669,-6 -1.33331,-12.333336 -2,-19 -0.66669,-6.666664 -1,-12.333336 -1,-17 0,-4.666668 -0.33331,-7.666668 -1,-9 0,-24 12.33331,-36 37,-36 5.33331,0 19.66669,1.666666 43,5 5.33331,18 17,32.666664 35,44 18,11.333336 34.33331,17.333336 49,18 12,0 18,-4 18,-12 0,-8 -4,-18.333332 -12,-31 -8,-12.666668 -20.33331,-26.333332 -37,-41 -16.66669,-14.666667 -39.66669,-26.666666 -69,-36 -29.33331,-9.333336 -61.66669,-14.333332 -97,-15 -13.33331,0 -22,0.666668 -26,2 -26.66669,10 -40,29.666666 -40,59 v 10 c 6,70.666672 19.33331,146.33333 40,227 l 7,31 -4,-1 c -2.66669,-1.33334 -5.66669,-2.33334 -9,-3 -3.33331,-0.66666 -5.66669,-1.66666 -7,-3 L 438,273 H 328 l -7,-24 C 311.66666,217.66667 296.33334,170.33334 275,107 253.66667,43.666664 239.33333,8 232,0 c -8.66667,-10.666667 -20.66667,-20 -36,-28 -15.33333,-8 -29,-12.333332 -41,-13 -4,0 -7.33333,0.666668 -10,2 -2.66667,1.333332 -4.33333,3 -5,5 -0.66667,2 -1,3.666666 -1,5 0,3.333334 3,12 9,26 6,14 17,43.666664 33,89 16,45.33334 33.33333,99 52,161 4.66667,15.33334 7,23.66666 7,25 0,0.66666 -15.33333,1 -46,1 h -25 c -20,0 -30,4 -30,12 0,6.66666 4.66667,14.33334 14,23 9.33333,8.66666 20.66667,16.66666 34,24 12.66667,6 29,9.33334 49,10 l 24,1 4,16 c 9.33334,36.66666 17.66666,77.66666 25,123 7.33334,45.33331 11,77.33331 11,96 0,23.33331 -13.33334,35 -40,35 h -6 c -37.33334,0 -65.66667,-7 -85,-21 -14,-9.33331 -28,-25.33331 -42,-48 -14,-22.66669 -21.66666,-34.66666 -23,-36 -21.333336,-20 -43.666664,-31 -67,-33 -12.666668,0 -19,4 -19,12 z" /></g><g
           transform="matrix(0.03760982,0,0,-0.03722469,45.866497,46.837307)"
           id="g106"><path
             id="path108"
             style="fill:#000000;fill-opacity:1;fill-rule:nonzero;stroke:none"
             d="m 96,585 c 37.33334,54 88.33333,81 153,81 32,0 64,-8.66669 96,-26 32,-17.33331 58,-48 78,-92 24.66666,-55.33334 37,-131.33331 37,-228 C 460,216.66666 445.66666,137.66667 417,83 403.66666,55 385.33334,32.666668 362,16 338.66666,-0.66666794 318.33334,-11 301,-15 c -17.33334,-4 -34.33334,-6.333334 -51,-7 -17.33333,0 -34.66667,2 -52,6 -17.33333,4 -37.66667,14.666666 -61,32 C 113.66666,33.333336 95.333336,55.666664 82,83 53.333332,137.66667 39,216.66666 39,320 39,436 58,524.33331 96,585 Z m 225,12 c -20,21.33331 -43.66666,32 -71,32 -28,0 -52,-10.66669 -72,-32 -16.66667,-17.33331 -27.66667,-41.33331 -33,-72 -5.33333,-30.66666 -8,-94.66666 -8,-192 0,-105.33334 2.66667,-174.66666 8,-208 5.33333,-33.333336 17.33333,-59.666664 36,-79 18.66667,-20 41.66667,-30 69,-30 26.66666,0 49.33334,10 68,30 19.33334,20 31.33334,48 36,84 4.66666,36 7.33334,103.66666 8,203 0,96.66669 -2.66666,160.33334 -8,191 -5.33334,30.66669 -16.33334,55 -33,73 z" /></g></g></g><g
       id="g110"><g
         clip-path="url(#clipPath116)"
         id="g112"><g
           transform="matrix(0.05319634,0,0,-0.05265161,404.59235,38.939568)"
           id="g118"><path
             id="path120"
             style="fill:#000000;fill-opacity:1;fill-rule:nonzero;stroke:none"
             d="m 18,487 c 0,6 3.666666,16 11,30 7.333332,14 20,30.33331 38,49 18,18.66669 38,37 60,55 22,18 51.66666,32.66669 89,44 37.33334,11.33331 75.33334,17.33331 114,18 19.33334,0 34.66666,-4.66669 46,-14 11.33334,-9.33331 18.33334,-18 21,-26 2.66666,-8 3.66666,-15 3,-21 0,-25.33331 -6,-70 -18,-134 -12,-64 -23.33334,-112.33334 -34,-145 0,-0.66666 39.66666,-1 119,-1 h 120 l 7,24 c 14,49.33334 32,105.33334 54,168 22,62.66669 36,98.33331 42,107 7.33331,10 18.33331,19.33331 33,28 14.66669,8.66669 28.33331,13.33331 41,14 12.66669,0 19,-3.66669 19,-11 L 750,578 C 727.33331,516 703,438.66669 677,346 651,253.33333 633.66669,171.66667 625,101 c -0.66669,-6 -1.33331,-12.333336 -2,-19 -0.66669,-6.666664 -1,-12.333336 -1,-17 0,-4.666668 -0.33331,-7.666668 -1,-9 0,-24 12.33331,-36 37,-36 5.33331,0 19.66669,1.666666 43,5 5.33331,18 17,32.666664 35,44 18,11.333336 34.33331,17.333336 49,18 12,0 18,-4 18,-12 0,-8 -4,-18.333332 -12,-31 -8,-12.666668 -20.33331,-26.333332 -37,-41 -16.66669,-14.666667 -39.66669,-26.666666 -69,-36 -29.33331,-9.333336 -61.66669,-14.333332 -97,-15 -13.33331,0 -22,0.666668 -26,2 -26.66669,10 -40,29.666666 -40,59 v 10 c 6,70.666672 19.33331,146.33333 40,227 l 7,31 -4,-1 c -2.66669,-1.33334 -5.66669,-2.33334 -9,-3 -3.33331,-0.66666 -5.66669,-1.66666 -7,-3 L 438,273 H 328 l -7,-24 C 311.66666,217.66667 296.33334,170.33334 275,107 253.66667,43.666664 239.33333,8 232,0 c -8.66667,-10.666667 -20.66667,-20 -36,-28 -15.33333,-8 -29,-12.333332 -41,-13 -4,0 -7.33333,0.666668 -10,2 -2.66667,1.333332 -4.33333,3 -5,5 -0.66667,2 -1,3.666666 -1,5 0,3.333334 3,12 9,26 6,14 17,43.666664 33,89 16,45.33334 33.33333,99 52,161 4.66667,15.33334 7,23.66666 7,25 0,0.66666 -15.33333,1 -46,1 h -25 c -20,0 -30,4 -30,12 0,6.66666 4.66667,14.33334 14,23 9.33333,8.66666 20.66667,16.66666 34,24 12.66667,6 29,9.33334 49,10 l 24,1 4,16 c 9.33334,36.66666 17.66666,77.66666 25,123 7.33334,45.33331 11,77.33331 11,96 0,23.33331 -13.33334,35 -40,35 h -6 c -37.33334,0 -65.66667,-7 -85,-21 -14,-9.33331 -28,-25.33331 -42,-48 -14,-22.66669 -21.66666,-34.66666 -23,-36 -21.333336,-20 -43.666664,-31 -67,-33 -12.666668,0 -19,4 -19,12 z" /></g><g
           transform="matrix(0.03760982,0,0,-0.03722469,451.29874,46.837307)"
           id="g122"><path
             id="path124"
             style="fill:#000000;fill-opacity:1;fill-rule:nonzero;stroke:none"
             d="m 96,585 c 37.33334,54 88.33333,81 153,81 32,0 64,-8.66669 96,-26 32,-17.33331 58,-48 78,-92 24.66666,-55.33334 37,-131.33331 37,-228 C 460,216.66666 445.66666,137.66667 417,83 403.66666,55 385.33334,32.666668 362,16 338.66666,-0.66666794 318.33334,-11 301,-15 c -17.33334,-4 -34.33334,-6.333334 -51,-7 -17.33333,0 -34.66667,2 -52,6 -17.33333,4 -37.66667,14.666666 -61,32 C 113.66666,33.333336 95.333336,55.666664 82,83 53.333332,137.66667 39,216.66666 39,320 39,436 58,524.33331 96,585 Z m 225,12 c -20,21.33331 -43.66666,32 -71,32 -28,0 -52,-10.66669 -72,-32 -16.66667,-17.33331 -27.66667,-41.33331 -33,-72 -5.33333,-30.66666 -8,-94.66666 -8,-192 0,-105.33334 2.66667,-174.66666 8,-208 5.33333,-33.333336 17.33333,-59.666664 36,-79 18.66667,-20 41.66667,-30 69,-30 26.66666,0 49.33334,10 68,30 19.33334,20 31.33334,48 36,84 4.66666,36 7.33334,103.66666 8,203 0,96.66669 -2.66666,160.33334 -8,191 -5.33334,30.66669 -16.33334,55 -33,73 z" /></g></g></g><g
       id="g126"><g
         clip-path="url(#clipPath132)"
         id="g128"><g
           transform="matrix(0.05427992,0,0,-0.05359465,404.5639,170.65504)"
           id="g134"><path
             id="path136"
             style="fill:#000000;fill-opacity:1;fill-rule:nonzero;stroke:none"
             d="m 18,487 c 0,6 3.666666,16 11,30 7.333332,14 20,30.33331 38,49 18,18.66669 38,37 60,55 22,18 51.66666,32.66669 89,44 37.33334,11.33331 75.33334,17.33331 114,18 19.33334,0 34.66666,-4.66669 46,-14 11.33334,-9.33331 18.33334,-18 21,-26 2.66666,-8 3.66666,-15 3,-21 0,-25.33331 -6,-70 -18,-134 -12,-64 -23.33334,-112.33334 -34,-145 0,-0.66666 39.66666,-1 119,-1 h 120 l 7,24 c 14,49.33334 32,105.33334 54,168 22,62.66669 36,98.33331 42,107 7.33331,10 18.33331,19.33331 33,28 14.66669,8.66669 28.33331,13.33331 41,14 12.66669,0 19,-3.66669 19,-11 L 750,578 C 727.33331,516 703,438.66669 677,346 651,253.33333 633.66669,171.66667 625,101 c -0.66669,-6 -1.33331,-12.333336 -2,-19 -0.66669,-6.666664 -1,-12.333336 -1,-17 0,-4.666668 -0.33331,-7.666668 -1,-9 0,-24 12.33331,-36 37,-36 5.33331,0 19.66669,1.666666 43,5 5.33331,18 17,32.666664 35,44 18,11.333336 34.33331,17.333336 49,18 12,0 18,-4 18,-12 0,-8 -4,-18.333332 -12,-31 -8,-12.666668 -20.33331,-26.333332 -37,-41 -16.66669,-14.666667 -39.66669,-26.666666 -69,-36 -29.33331,-9.333336 -61.66669,-14.333332 -97,-15 -13.33331,0 -22,0.666668 -26,2 -26.66669,10 -40,29.666666 -40,59 v 10 c 6,70.666672 19.33331,146.33333 40,227 l 7,31 -4,-1 c -2.66669,-1.33334 -5.66669,-2.33334 -9,-3 -3.33331,-0.66666 -5.66669,-1.66666 -7,-3 L 438,273 H 328 l -7,-24 C 311.66666,217.66667 296.33334,170.33334 275,107 253.66667,43.666664 239.33333,8 232,0 c -8.66667,-10.666667 -20.66667,-20 -36,-28 -15.33333,-8 -29,-12.333332 -41,-13 -4,0 -7.33333,0.666668 -10,2 -2.66667,1.333332 -4.33333,3 -5,5 -0.66667,2 -1,3.666666 -1,5 0,3.333334 3,12 9,26 6,14 17,43.666664 33,89 16,45.33334 33.33333,99 52,161 4.66667,15.33334 7,23.66666 7,25 0,0.66666 -15.33333,1 -46,1 h -25 c -20,0 -30,4 -30,12 0,6.66666 4.66667,14.33334 14,23 9.33333,8.66666 20.66667,16.66666 34,24 12.66667,6 29,9.33334 49,10 l 24,1 4,16 c 9.33334,36.66666 17.66666,77.66666 25,123 7.33334,45.33331 11,77.33331 11,96 0,23.33331 -13.33334,35 -40,35 h -6 c -37.33334,0 -65.66667,-7 -85,-21 -14,-9.33331 -28,-25.33331 -42,-48 -14,-22.66669 -21.66666,-34.66666 -23,-36 -21.333336,-20 -43.666664,-31 -67,-33 -12.666668,0 -19,4 -19,12 z" /></g><g
           transform="matrix(0.03837591,0,0,-0.03789142,452.22168,178.69424)"
           id="g138"><path
             id="path140"
             style="fill:#000000;fill-opacity:1;fill-rule:nonzero;stroke:none"
             d="m 213,578 -13,-5 c -9.33333,-3.33331 -22.66667,-6.66669 -40,-10 -17.33333,-3.33331 -36.66666,-5.66669 -58,-7 H 83 v 46 h 19 c 31.33333,1.33331 60.33333,6.33331 87,15 26.66667,8.66669 45.33333,16.66669 56,24 10.66667,7.33331 20,14.66669 28,22 1.33334,2 5.33334,3 12,3 6,0 11.66666,-2 17,-6 V 361 l 1,-300 c 4.66666,-4.666668 8.66666,-7.666668 12,-9 3.33334,-1.333332 11.33334,-2.666668 24,-4 12.66666,-1.333332 33.33334,-2 62,-2 h 26 V 0 H 416 C 402,2 349,3 257,3 166.33333,3 114,2 100,0 H 88 v 46 h 26 c 14.66667,0 27.33333,0 38,0 10.66667,0 19,0.333332 25,1 6,0.666668 11.33333,1.666668 16,3 4.66667,1.333332 7.33333,2 8,2 0.66667,0 2.66667,1.666668 6,5 3.33333,3.333332 5.33333,4.666668 6,4 z" /></g></g></g><g
       id="g142"><g
         clip-path="url(#clipPath148)"
         id="g144"><g
           transform="matrix(0.05538191,0,0,-0.05359424,233.36159,170.65494)"
           id="g150"><path
             id="path152"
             style="fill:#000000;fill-opacity:1;fill-rule:nonzero;stroke:none"
             d="m 18,487 c 0,6 3.666666,16 11,30 7.333332,14 20,30.33331 38,49 18,18.66669 38,37 60,55 22,18 51.66666,32.66669 89,44 37.33334,11.33331 75.33334,17.33331 114,18 19.33334,0 34.66666,-4.66669 46,-14 11.33334,-9.33331 18.33334,-18 21,-26 2.66666,-8 3.66666,-15 3,-21 0,-25.33331 -6,-70 -18,-134 -12,-64 -23.33334,-112.33334 -34,-145 0,-0.66666 39.66666,-1 119,-1 h 120 l 7,24 c 14,49.33334 32,105.33334 54,168 22,62.66669 36,98.33331 42,107 7.33331,10 18.33331,19.33331 33,28 14.66669,8.66669 28.33331,13.33331 41,14 12.66669,0 19,-3.66669 19,-11 L 750,578 C 727.33331,516 703,438.66669 677,346 651,253.33333 633.66669,171.66667 625,101 c -0.66669,-6 -1.33331,-12.333336 -2,-19 -0.66669,-6.666664 -1,-12.333336 -1,-17 0,-4.666668 -0.33331,-7.666668 -1,-9 0,-24 12.33331,-36 37,-36 5.33331,0 19.66669,1.666666 43,5 5.33331,18 17,32.666664 35,44 18,11.333336 34.33331,17.333336 49,18 12,0 18,-4 18,-12 0,-8 -4,-18.333332 -12,-31 -8,-12.666668 -20.33331,-26.333332 -37,-41 -16.66669,-14.666667 -39.66669,-26.666666 -69,-36 -29.33331,-9.333336 -61.66669,-14.333332 -97,-15 -13.33331,0 -22,0.666668 -26,2 -26.66669,10 -40,29.666666 -40,59 v 10 c 6,70.666672 19.33331,146.33333 40,227 l 7,31 -4,-1 c -2.66669,-1.33334 -5.66669,-2.33334 -9,-3 -3.33331,-0.66666 -5.66669,-1.66666 -7,-3 L 438,273 H 328 l -7,-24 C 311.66666,217.66667 296.33334,170.33334 275,107 253.66667,43.666664 239.33333,8 232,0 c -8.66667,-10.666667 -20.66667,-20 -36,-28 -15.33333,-8 -29,-12.333332 -41,-13 -4,0 -7.33333,0.666668 -10,2 -2.66667,1.333332 -4.33333,3 -5,5 -0.66667,2 -1,3.666666 -1,5 0,3.333334 3,12 9,26 6,14 17,43.666664 33,89 16,45.33334 33.33333,99 52,161 4.66667,15.33334 7,23.66666 7,25 0,0.66666 -15.33333,1 -46,1 h -25 c -20,0 -30,4 -30,12 0,6.66666 4.66667,14.33334 14,23 9.33333,8.66666 20.66667,16.66666 34,24 12.66667,6 29,9.33334 49,10 l 24,1 4,16 c 9.33334,36.66666 17.66666,77.66666 25,123 7.33334,45.33331 11,77.33331 11,96 0,23.33331 -13.33334,35 -40,35 h -6 c -37.33334,0 -65.66667,-7 -85,-21 -14,-9.33331 -28,-25.33331 -42,-48 -14,-22.66669 -21.66666,-34.66666 -23,-36 -21.333336,-20 -43.666664,-31 -67,-33 -12.666668,0 -19,4 -19,12 z" /></g><g
           transform="matrix(0.03915501,0,0,-0.03789113,281.98691,178.69408)"
           id="g154"><path
             id="path156"
             style="fill:#000000;fill-opacity:1;fill-rule:nonzero;stroke:none"
             d="M 462,0 C 450,2 407,3 333,3 255.66666,3 211,2 199,0 h -9 v 46 h 31 c 13.33333,0 22.33333,0 27,0 4.66667,0 10.33334,0.666668 17,2 6.66666,1.333332 11.33334,3 14,5 2.66666,2 5,4.666668 7,8 0.66666,1.333332 1,19.333328 1,54 v 50 H 28 v 46 l 151,231 c 102,154.66669 153.66666,232.33331 155,233 1.33334,1.33331 8.33334,2 21,2 h 18 l 6,-6 V 211 h 92 v -46 h -92 v -51 c 0,-27.333336 0,-43.333336 0,-48 0,-4.666668 2,-8.666668 6,-12 5.33334,-4.666668 24.33334,-7.333332 57,-8 h 29 V 0 Z M 293,211 V 545 L 74,212 183,211 Z" /></g></g></g><g
       id="g158"><g
         clip-path="url(#clipPath164)"
         id="g160"><g
           transform="matrix(0.053274,0,0,-0.05265161,233.41895,35.961052)"
           id="g166"><path
             id="path168"
             style="fill:#000000;fill-opacity:1;fill-rule:nonzero;stroke:none"
             d="m 18,487 c 0,6 3.666666,16 11,30 7.333332,14 20,30.33331 38,49 18,18.66669 38,37 60,55 22,18 51.66666,32.66669 89,44 37.33334,11.33331 75.33334,17.33331 114,18 19.33334,0 34.66666,-4.66669 46,-14 11.33334,-9.33331 18.33334,-18 21,-26 2.66666,-8 3.66666,-15 3,-21 0,-25.33331 -6,-70 -18,-134 -12,-64 -23.33334,-112.33334 -34,-145 0,-0.66666 39.66666,-1 119,-1 h 120 l 7,24 c 14,49.33334 32,105.33334 54,168 22,62.66669 36,98.33331 42,107 7.33331,10 18.33331,19.33331 33,28 14.66669,8.66669 28.33331,13.33331 41,14 12.66669,0 19,-3.66669 19,-11 L 750,578 C 727.33331,516 703,438.66669 677,346 651,253.33333 633.66669,171.66667 625,101 c -0.66669,-6 -1.33331,-12.333336 -2,-19 -0.66669,-6.666664 -1,-12.333336 -1,-17 0,-4.666668 -0.33331,-7.666668 -1,-9 0,-24 12.33331,-36 37,-36 5.33331,0 19.66669,1.666666 43,5 5.33331,18 17,32.666664 35,44 18,11.333336 34.33331,17.333336 49,18 12,0 18,-4 18,-12 0,-8 -4,-18.333332 -12,-31 -8,-12.666668 -20.33331,-26.333332 -37,-41 -16.66669,-14.666667 -39.66669,-26.666666 -69,-36 -29.33331,-9.333336 -61.66669,-14.333332 -97,-15 -13.33331,0 -22,0.666668 -26,2 -26.66669,10 -40,29.666666 -40,59 v 10 c 6,70.666672 19.33331,146.33333 40,227 l 7,31 -4,-1 c -2.66669,-1.33334 -5.66669,-2.33334 -9,-3 -3.33331,-0.66666 -5.66669,-1.66666 -7,-3 L 438,273 H 328 l -7,-24 C 311.66666,217.66667 296.33334,170.33334 275,107 253.66667,43.666664 239.33333,8 232,0 c -8.66667,-10.666667 -20.66667,-20 -36,-28 -15.33333,-8 -29,-12.333332 -41,-13 -4,0 -7.33333,0.666668 -10,2 -2.66667,1.333332 -4.33333,3 -5,5 -0.66667,2 -1,3.666666 -1,5 0,3.333334 3,12 9,26 6,14 17,43.666664 33,89 16,45.33334 33.33333,99 52,161 4.66667,15.33334 7,23.66666 7,25 0,0.66666 -15.33333,1 -46,1 h -25 c -20,0 -30,4 -30,12 0,6.66666 4.66667,14.33334 14,23 9.33333,8.66666 20.66667,16.66666 34,24 12.66667,6 29,9.33334 49,10 l 24,1 4,16 c 9.33334,36.66666 17.66666,77.66666 25,123 7.33334,45.33331 11,77.33331 11,96 0,23.33331 -13.33334,35 -40,35 h -6 c -37.33334,0 -65.66667,-7 -85,-21 -14,-9.33331 -28,-25.33331 -42,-48 -14,-22.66669 -21.66666,-34.66666 -23,-36 -21.333336,-20 -43.666664,-31 -67,-33 -12.666668,0 -19,4 -19,12 z" /></g><g
           transform="matrix(0.03766471,0,0,-0.03722469,280.19351,43.858791)"
           id="g170"><path
             id="path172"
             style="fill:#000000;fill-opacity:1;fill-rule:nonzero;stroke:none"
             d="m 127,463 c -18,0 -32,5.66666 -42,17 -10,11.33334 -15.333336,26 -16,44 0,36.66669 16,69.33331 48,98 32,28.66669 70.66666,43 116,43 23.33334,0 38,-0.33331 44,-1 49.33334,-8 87,-25.66669 113,-53 26,-27.33331 39.33334,-57 40,-89 0,-34.66666 -11.33334,-68.33334 -34,-101 -22.66666,-32.66666 -54,-56.33334 -94,-71 l -3,-2 c 0,-0.66666 3,-1.66666 9,-3 6,-1.33334 15.66666,-4.33334 29,-9 13.33334,-4.66666 26,-11.66666 38,-21 54.66666,-35.33334 82,-82 82,-140 C 457,122.33333 436.33334,76.333336 395,37 353.66666,-2.3333359 301.33334,-22 238,-22 184.66666,-22 138.66667,-7.6666679 100,21 61.333332,49.666668 42,86 42,130 c 0,18.66667 6,33.66667 18,45 12,11.33333 27,17.33333 45,18 18.66667,0 34,-6 46,-18 12,-12 18,-27 18,-45 0,-7.33334 -1,-14 -3,-20 -2,-6 -4.33333,-11.333336 -7,-16 -2.66667,-4.666664 -6.33333,-8.666664 -11,-12 -4.66667,-3.333336 -8.66667,-6 -12,-8 -3.33333,-2 -6.66667,-3.333336 -10,-4 -3.33334,-0.666664 -6,-1.666664 -8,-3 l -4,-1 c 34,-30 75.33333,-45 124,-45 36.66666,0 64.33334,17.666664 83,53 11.33334,22 17,55.66666 17,101 v 20 c 0,63.33334 -21.33334,105.66666 -64,127 -10,4 -30.33333,6.33334 -61,7 l -42,1 -3,2 c -1.33333,2 -2,7.33334 -2,16 0,12 2.66667,18 8,18 18.66667,0 38,1.66666 58,5 22.66667,3.33334 43.33334,17.33334 62,42 18.66666,24.66666 28,62 28,112 v 8 c 0,38 -11.66666,64.33331 -35,79 -14.66666,9.33331 -30.33334,14 -47,14 -21.33333,0 -41,-3.66669 -59,-11 -18,-7.33331 -30.66667,-15 -38,-23 -7.33333,-8 -11,-12 -11,-12 h 3 c 2,-0.66669 4.66667,-1.33331 8,-2 3.33333,-0.66669 6.66667,-2.33331 10,-5 3.33333,-2.66669 7.33333,-5 12,-7 4.66667,-2 8,-5.66669 10,-11 2,-5.33331 4.66667,-10.33331 8,-15 3.33333,-4.66669 4.33333,-11.33331 3,-20 0,-14.66666 -4.66667,-27.66666 -14,-39 -9.33333,-11.33334 -24.33333,-17.33334 -45,-18 z" /></g></g></g><g
       id="g174"><g
         clip-path="url(#clipPath180)"
         id="g176"><g
           transform="matrix(3.0032022,0,0,2.9785156,-584.01416,-740.16113)"
           id="g182"><path
             id="path184"
             style="fill:none;stroke:#000000;stroke-width:1;stroke-linecap:butt;stroke-linejoin:miter;stroke-miterlimit:10;stroke-dasharray:none;stroke-opacity:1"
             d="M 260.14001,264.85999 270,250" /><path
             id="path186"
             style="fill:none;stroke:#000000;stroke-width:1;stroke-linecap:butt;stroke-linejoin:miter;stroke-miterlimit:10;stroke-dasharray:none;stroke-opacity:1"
             d="M 260.14001,293.14001 270,310" /><path
             id="path188"
             style="fill:none;stroke:#000000;stroke-width:1;stroke-linecap:butt;stroke-linejoin:miter;stroke-miterlimit:10;stroke-dasharray:none;stroke-opacity:1"
             d="M 231.86,293.14001 220,310" /><path
             id="path190"
             style="fill:none;stroke:#000000;stroke-width:1;stroke-linecap:butt;stroke-linejoin:miter;stroke-miterlimit:10;stroke-dasharray:none;stroke-opacity:1"
             d="M 231.86,264.85999 220,250" /><path
             id="path192"
             style="fill:none;stroke:#000000;stroke-width:1;stroke-linecap:butt;stroke-linejoin:miter;stroke-miterlimit:10;stroke-dasharray:none;stroke-opacity:1"
             d="m 406,279 h 34.5" /><path
             id="path194"
             style="fill:none;stroke:#000000;stroke-width:1;stroke-linecap:butt;stroke-linejoin:miter;stroke-miterlimit:10;stroke-dasharray:none;stroke-opacity:1"
             d="m 406,279 c -3e-5,1.3132 -0.12814,2.6138 -0.38434,3.90176 -0.25619,1.288 -0.63559,2.53861 -1.13812,3.7519 -0.50253,1.21322 -1.11859,2.36581 -1.84818,3.4577 -0.72958,1.09192 -1.55865,2.10217 -2.48727,3.03076 -0.92859,0.92859 -1.93884,1.75766 -3.03076,2.48724 -1.09192,0.72959 -2.24451,1.34568 -3.45774,1.84821 -1.21328,0.50253 -2.46389,0.88193 -3.75186,1.13812 -1.28796,0.2562 -2.58853,0.38428 -3.90173,0.38431 -1.31323,-3e-5 -2.61386,-0.12811 -3.90186,-0.38431 -1.28799,-0.25619 -2.53863,-0.63559 -3.75189,-1.13812 -1.21322,-0.50253 -2.36581,-1.11862 -3.4577,-1.84821 -1.09189,-0.72958 -2.10214,-1.55865 -3.0307,-2.48724 -0.92862,-0.92859 -1.75772,-1.93884 -2.48731,-3.03073 -0.72958,-1.09192 -1.34564,-2.24451 -1.84817,-3.45773 -0.50253,-1.21329 -0.8819,-2.4639 -1.13809,-3.7519 C 366.12808,281.6138 366,280.3132 366,279 c 0,-1.3132 0.12808,-2.61383 0.38428,-3.90182 0.25619,-1.288 0.63556,-2.53864 1.13809,-3.7519 0.50253,-1.21328 1.11862,-2.36584 1.8482,-3.4577 0.72959,-1.09192 1.55866,-2.10217 2.48728,-3.03073 0.92856,-0.92859 1.93881,-1.75766 3.0307,-2.48724 1.09189,-0.72959 2.24448,-1.34568 3.4577,-1.84821 1.21326,-0.50253 2.4639,-0.8819 3.75189,-1.13809 C 383.38614,259.12811 384.68677,259 386,259 c 1.3132,0 2.61377,0.12808 3.90173,0.38428 1.28797,0.25619 2.53858,0.63556 3.75186,1.13809 1.21323,0.50253 2.36582,1.11862 3.45774,1.84824 1.09192,0.72958 2.10217,1.55865 3.03076,2.48724 0.92862,0.92856 1.75769,1.93881 2.48727,3.0307 0.72959,1.09189 1.34565,2.24445 1.84818,3.45773 0.50253,1.21326 0.88193,2.4639 1.13812,3.7519 0.2562,1.28799 0.38431,2.58862 0.38434,3.90182 z" /><path
             id="path196"
             style="fill:none;stroke:#000000;stroke-width:1;stroke-linecap:butt;stroke-linejoin:miter;stroke-miterlimit:10;stroke-dasharray:none;stroke-opacity:1"
             d="M 371.85999,293.14001 360,310" /><path
             id="path198"
             style="fill:none;stroke:#000000;stroke-width:1;stroke-linecap:butt;stroke-linejoin:miter;stroke-miterlimit:10;stroke-dasharray:none;stroke-opacity:1"
             d="M 371.85999,264.85999 360,250" /><path
             id="path200"
             style="fill:none;stroke:#000000;stroke-width:1;stroke-linecap:butt;stroke-linejoin:miter;stroke-miterlimit:10;stroke-dasharray:none;stroke-opacity:1"
             d="M 474.64001,264.85999 490,250" /><path
             id="path202"
             style="fill:none;stroke:#000000;stroke-width:1;stroke-linecap:butt;stroke-linejoin:miter;stroke-miterlimit:10;stroke-dasharray:none;stroke-opacity:1"
             d="M 474.64001,293.14001 490,310" /><path
             id="path204"
             style="fill:none;stroke:#000000;stroke-width:1;stroke-linecap:butt;stroke-linejoin:miter;stroke-miterlimit:10;stroke-dasharray:none;stroke-opacity:1"
             d="m 480.5,279 c -3e-5,1.3132 -0.12814,2.6138 -0.38434,3.90176 -0.25622,1.288 -0.63562,2.53861 -1.13815,3.7519 -0.50256,1.21322 -1.11862,2.36581 -1.84818,3.4577 -0.72958,1.09192 -1.55868,2.10217 -2.48724,3.03076 -0.92862,0.92859 -1.93887,1.75766 -3.03076,2.48724 -1.09189,0.72959 -2.24448,1.34568 -3.45774,1.84821 -1.21325,0.50253 -2.46386,0.88193 -3.75183,1.13812 -1.28799,0.2562 -2.58856,0.38428 -3.90176,0.38431 -1.31326,-3e-5 -2.61389,-0.12811 -3.90189,-0.38431 -1.28796,-0.25619 -2.53857,-0.63559 -3.75186,-1.13812 -1.21325,-0.50253 -2.36584,-1.11862 -3.45776,-1.84821 -1.09189,-0.72958 -2.10211,-1.55865 -3.03067,-2.48724 -0.92859,-0.92859 -1.75769,-1.93884 -2.48728,-3.03073 -0.72958,-1.09192 -1.34564,-2.24451 -1.8482,-3.45773 -0.50253,-1.21329 -0.8819,-2.4639 -1.13809,-3.7519 C 440.62805,281.6138 440.49997,280.3132 440.5,279 c -3e-5,-1.3132 0.12805,-2.61383 0.38425,-3.90182 0.25619,-1.288 0.63556,-2.53864 1.13809,-3.7519 0.50256,-1.21328 1.11862,-2.36584 1.84817,-3.4577 0.72962,-1.09192 1.55872,-2.10217 2.48731,-3.03073 0.92856,-0.92859 1.93881,-1.75766 3.03073,-2.48724 1.09189,-0.72959 2.24445,-1.34568 3.4577,-1.84821 1.21329,-0.50253 2.4639,-0.8819 3.75189,-1.13809 1.288,-0.2562 2.5886,-0.38431 3.90186,-0.38431 1.3132,0 2.61377,0.12808 3.90173,0.38428 1.288,0.25619 2.53861,0.63556 3.75186,1.13809 1.21326,0.50253 2.36585,1.11862 3.45777,1.84824 1.09189,0.72958 2.10211,1.55865 3.03073,2.48724 0.92856,0.92856 1.75766,1.93881 2.48724,3.0307 0.72956,1.09189 1.34562,2.24445 1.84818,3.45773 0.50253,1.21326 0.88193,2.4639 1.13815,3.7519 0.2562,1.28799 0.38431,2.58862 0.38434,3.90182 z" /></g></g></g><g
       id="g206"><g
         clip-path="url(#clipPath212)"
         id="g208"><g
           transform="matrix(0.0522296,0,0,-0.0538491,776.82825,108.68729)"
           id="g214"><path
             id="path216"
             style="fill:#000000;fill-opacity:1;fill-rule:nonzero;stroke:none"
             d="m 399,-80 c 0,22 0.33334,38.666664 1,50 0.66666,11.333334 1.33334,17.666667 2,19 v 4 l -15,-4 c -30.66666,-7.333334 -58.66666,-11 -84,-11 -63.33334,0 -118.33333,19 -165,57 -46.666672,38 -75.666664,93.33333 -87,166 -0.666668,5.33333 -1,19.66667 -1,43 0,68 16,132.66666 48,194 32,61.33334 75,115.66669 129,163 82.66669,68.66669 165.66666,103 249,103 25.33334,0 41.33331,-0.33331 48,-1 64.66669,-9.33331 116.66669,-38 156,-86 39.33331,-48 59.33331,-108.66666 60,-182 C 740,315 690.66669,205.66667 592,107 550,67 506.33334,36.666668 461,16 L 444,8 V 3 c 0,-0.6666667 1.66666,-9.666666 5,-27 3.33334,-17.333336 10.33334,-31.333332 21,-42 10.66666,-10.666664 26,-16 46,-16 23.33331,0 45.66669,7.333336 67,22 21.33331,14.666668 35.33331,33.666666 42,57 4,9.333334 8.33331,14 13,14 6,0 9.66669,-3 11,-9 0,-5.3333335 -3.33331,-17.333332 -10,-36 -6.66669,-18.666668 -16,-40.666664 -28,-66 -12,-25.33334 -30,-47 -54,-65 -24,-18 -49.33334,-27.66667 -76,-29 -54.66666,0 -82,35.66666 -82,107 z m 237,548 c 0,36.66666 -5,68.66669 -15,96 -10,27.33331 -23.66669,47.66669 -41,61 -17.33331,13.33331 -34,23.33331 -50,30 -16,6.66669 -33.66666,10 -53,10 -32,0 -64.66666,-8.33331 -98,-25 C 311,607.33331 256.33334,548.66669 215,464 173.66666,379.33331 153,296.66669 153,216 153,145.33333 171,93 207,59 223,45 232.66667,38 236,38 v 8 c 0,26.666672 11,51.333328 33,74 22,22.66667 48,34.33333 78,35 16.66666,0 31,-3.66667 43,-11 12,-7.33333 21,-17.33334 27,-30 6,-12.66666 10,-23.333336 12,-32 2,-8.666664 4,-17.666664 6,-27 l 13,9 c 42.66666,29.333336 79,69.66666 109,121 30,51.33334 50.66669,101 62,149 11.33331,48 17,92.66666 17,134 z M 314,18 c 32,0 62,7 90,21 l -1,10 c -2.66666,36.666672 -15,58.66666 -37,66 -8,1.33334 -14.33334,2 -19,2 -2,0 -4,0 -6,0 -2,0 -3.33334,0.33334 -4,1 -13.33334,0 -27,-6.66666 -41,-20 -14,-13.333336 -21.33334,-28.666664 -22,-46 0,-22.666668 13.33334,-34 40,-34 z" /></g><g
           transform="matrix(0.0522296,0,0,-0.0538491,788.77832,76.700928)"
           id="g218"><path
             id="path220"
             style="fill:#000000;fill-opacity:1;fill-rule:nonzero;stroke:none"
             d="m 179,251 c -10,0 -19.33333,-2 -28,-6 -8.66667,-4 -15.33333,-7.66667 -20,-11 -4.66666,-3.33333 -11.33334,-9.66667 -20,-19 l -14,12 -14,11 c 0,0.66667 4,5.66667 12,15 8,9.33334 16.66666,19.33334 26,30 9.33333,10.66666 16.33333,17.66666 21,21 15.33333,9.33334 30.33333,14 45,14 14.66667,0 36.66667,-6 66,-18 29.33334,-12 51.66666,-18 67,-18 10,0 19.33334,2 28,6 8.66666,4 15.33334,7.66666 20,11 4.66666,3.33334 11.33334,9.66666 20,19 l 14,-12 14,-11 c -27.33334,-39.33334 -51.33334,-63.66667 -72,-73 -9.33334,-4.66667 -19.66666,-7 -31,-7 -14,0 -35.66666,6 -65,18 -29.33333,12 -52.33333,18 -69,18 z" /></g></g></g><g
       id="g222"><g
         clip-path="url(#clipPath228)"
         id="g224"><g
           transform="matrix(0.05437553,0,0,-0.05344619,552.40509,113.16574)"
           id="g230"><path
             id="path232"
             style="fill:#000000;fill-opacity:1;fill-rule:nonzero;stroke:none"
             d="m 287,628 c 0,4.66669 -19,7.66669 -57,9 -16,0 -26.33333,0.33331 -31,1 -4.66667,0.66669 -7,4 -7,10 0,0.66669 0.66667,4.33331 2,11 4,13.33331 7,20.66669 9,22 2,1.33331 66.66666,2 194,2 126.66669,-0.66669 194.33331,-1.66669 203,-3 42.66669,-7.33331 78.33331,-23.66669 107,-49 28.66669,-25.33331 43.33331,-59 44,-101 0,-51.33334 -22,-98.33334 -66,-141 -46,-45.33334 -105.33331,-74 -178,-86 -4.66666,-0.66666 -39.66666,-1.33334 -105,-2 H 307 L 277,182 C 257,104.66666 247,63.666668 247,59 c 0,-2.666668 0.33333,-4.333332 1,-5 0.66667,-0.666668 3,-2 7,-4 4,-2 9.66666,-2.666668 17,-2 7.33334,0.666668 18.33334,0 33,-2 h 31 c 4,-6 6,-9.666668 6,-11 C 342,24.333332 339.66666,14.333334 335,5 331.66666,1.6666665 326.33334,0 319,0 317,0 304.66666,0.33333331 282,1 259.33334,1.6666667 226,2 182,2 140.66666,2 109,2 87,2 65,2 53,1.6666667 51,1 39,1 33,4.333333 33,11 c 0,1.333333 1,6 3,14 2.666668,10.666668 5.333332,16.666668 8,18 2.666668,1.333332 10.333332,2.333332 23,3 18,0 38,1 60,3 9.33333,2 15.66667,6 19,12 2,2.666668 26,95.33333 72,278 46,182.66669 69,279 69,289 z m 358,-74 c 0,8.66669 -0.66669,15.66669 -2,21 -1.33331,5.33331 -4.33331,12.66669 -9,22 -4.66669,9.33331 -13,16.66669 -25,22 -12,5.33331 -28.33331,10.66669 -49,16 -4.66669,0.66669 -31.33331,1.33331 -80,2 -11.33334,0 -23,0 -35,0 -12,0 -21.66666,-0.33331 -29,-1 -7.33334,-0.66669 -11.33334,-0.66669 -12,0 -8.66666,-0.66669 -14.66666,-3.66669 -18,-9 -1.33334,-4 -7.66666,-29.66669 -19,-77 -11.33334,-47.33334 -23,-93.33334 -35,-138 -12,-44.66666 -18,-67.33334 -18,-68 0,-1.33334 27,-2 81,-2 h 12 23 c 74.66669,0 128,16.66666 160,50 18,18 31.66669,44.33334 41,79 9.33331,34.66666 14,62.33331 14,83 z" /></g><g
           transform="matrix(0.05437553,0,0,-0.05344619,565.23767,82.541077)"
           id="g234"><path
             id="path236"
             style="fill:#000000;fill-opacity:1;fill-rule:nonzero;stroke:none"
             d="m 179,251 c -10,0 -19.33333,-2 -28,-6 -8.66667,-4 -15.33333,-7.66667 -20,-11 -4.66666,-3.33333 -11.33334,-9.66667 -20,-19 l -14,12 -14,11 c 0,0.66667 4,5.66667 12,15 8,9.33334 16.66666,19.33334 26,30 9.33333,10.66666 16.33333,17.66666 21,21 15.33333,9.33334 30.33333,14 45,14 14.66667,0 36.66667,-6 66,-18 29.33334,-12 51.66666,-18 67,-18 10,0 19.33334,2 28,6 8.66666,4 15.33334,7.66666 20,11 4.66666,3.33334 11.33334,9.66666 20,19 l 14,-12 14,-11 c -27.33334,-39.33334 -51.33334,-63.66667 -72,-73 -9.33334,-4.66667 -19.66666,-7 -31,-7 -14,0 -35.66666,6 -65,18 -29.33333,12 -52.33333,18 -69,18 z" /></g></g></g><g
       id="g238"><g
         clip-path="url(#clipPath244)"
         id="g240"><g
           transform="matrix(0.05407428,0,0,-0.05552057,131.9667,113.50692)"
           id="g246"><path
             id="path248"
             style="fill:#000000;fill-opacity:1;fill-rule:nonzero;stroke:none"
             d="m 230,637 c -18,0 -28.66667,0.33331 -32,1 -3.33333,0.66669 -5,4.33331 -5,11 0,18 3.66667,29 11,33 1.33333,0.66669 59.33331,1 174,1 114.66669,-0.66669 176.66669,-1.66669 186,-3 37.33331,-5.33331 68.66669,-14.66669 94,-28 25.33331,-13.33331 43.33331,-28.66669 54,-46 10.66669,-17.33331 17.66669,-31.66669 21,-43 3.33331,-11.33331 5.33331,-22.66669 6,-34 0,-30 -9.66669,-58 -29,-84 -19.33331,-26 -41.66669,-46 -67,-60 -25.33331,-14 -47.66669,-25.33334 -67,-34 -19.33331,-8.66666 -32,-13 -38,-13 l 7,-5 c 44.66669,-25.33334 67,-62 67,-110 0,-7.33333 -1.66669,-27.66666 -5,-61 -3.33331,-33.33334 -5,-60.66666 -5,-82 v -9 c 0,-12 0.33331,-21.333332 1,-28 0.66669,-6.666668 4.33331,-12.666666 11,-18 6.66669,-5.333334 15.33331,-8.333334 26,-9 18.66669,0 34,7.333332 46,22 12,14.666668 20.66669,30.333328 26,47 3.33331,9.333336 6,15 8,17 2,2 7,3 15,3 13.33331,0 20,-4 20,-12 0,-12 -8,-31 -24,-57 -25.33331,-38 -55.33331,-57 -90,-57 h -9 c -40.66669,0 -74.33331,8.333332 -101,25 -26.66666,16.666668 -41.33334,42.666664 -44,78 0,18 5,46 15,84 10,38 15,62.33333 15,73 0,34 -14.33334,58.66666 -43,74 -10,4.66666 -18.33334,7.33334 -25,8 -6.66666,0.66666 -30.33334,1.33334 -71,2 H 309 L 277,193 C 255,105 244,60.333332 244,59 c 0,-2.666668 0.33333,-4.333332 1,-5 0.66667,-0.666668 3,-2 7,-4 4,-2 9.66666,-2.666668 17,-2 7.33334,0.666668 18.33334,0 33,-2 h 31 c 4,-5.333332 6,-8.333332 6,-9 0,-0.666668 -1,-6.666666 -3,-18 C 333.33334,10.333333 330,4 326,0 H 311 C 287,1.3333334 243.33334,2 180,2 157.33333,2 136.33333,2 117,2 97.666664,2 82.333336,2 71,2 59.666664,2 52.666668,1.6666667 50,1 38.666664,1 33,4 33,10 c 0,1.333333 1,6 3,14 3.333332,12.666668 6.666668,19.666668 10,21 2.666668,0.666668 7.666668,1 15,1 h 6 c 18,0 38,1 60,3 9.33333,2 15.66667,6 19,12 2,2.666668 26,95.33333 72,278 46,182.66669 69,279 69,289 0,4.66669 -19,7.66669 -57,9 z m 400,-83 c 0,21.33331 -7,39.33331 -21,54 -14,14.66669 -42.66669,24 -86,28 -1.33331,0 -9,0 -23,0 -14,0 -26.66666,0.33331 -38,1 h -22 c -31.33334,0 -49.33334,-3.33331 -54,-10 -0.66666,-2 -12,-46.33331 -34,-133 -22,-86.66669 -33,-131 -33,-133 0,-0.66666 23,-1 69,-1 52,0.66666 86.66666,3 104,7 42.66669,6.66666 76,26.33334 100,59 10.66669,15.33334 19.66669,35.33334 27,60 7.33331,24.66666 11,47.33331 11,68 z" /></g><g
           transform="matrix(0.05407428,0,0,-0.05552057,143.47371,81.693626)"
           id="g250"><path
             id="path252"
             style="fill:#000000;fill-opacity:1;fill-rule:nonzero;stroke:none"
             d="m 179,251 c -10,0 -19.33333,-2 -28,-6 -8.66667,-4 -15.33333,-7.66667 -20,-11 -4.66666,-3.33333 -11.33334,-9.66667 -20,-19 l -14,12 -14,11 c 0,0.66667 4,5.66667 12,15 8,9.33334 16.66666,19.33334 26,30 9.33333,10.66666 16.33333,17.66666 21,21 15.33333,9.33334 30.33333,14 45,14 14.66667,0 36.66667,-6 66,-18 29.33334,-12 51.66666,-18 67,-18 10,0 19.33334,2 28,6 8.66666,4 15.33334,7.66666 20,11 4.66666,3.33334 11.33334,9.66666 20,19 l 14,-12 14,-11 c -27.33334,-39.33334 -51.33334,-63.66667 -72,-73 -9.33334,-4.66667 -19.66666,-7 -31,-7 -14,0 -35.66666,6 -65,18 -29.33333,12 -52.33333,18 -69,18 z" /></g></g></g></g></svg>