<?xml version="1.0" encoding="UTF-8" standalone="no"?>
<svg
   xmlns:dc="http://purl.org/dc/elements/1.1/"
   xmlns:cc="http://creativecommons.org/ns#"
   xmlns:rdf="http://www.w3.org/1999/02/22-rdf-syntax-ns#"
   xmlns:svg="http://www.w3.org/2000/svg"
   xmlns="http://www.w3.org/2000/svg"
   viewBox="0 0 252.16 136"
   height="136"
   width="252.16"
   xml:space="preserve"
   id="svg2"
   version="1.1"><metadata
     id="metadata8"><rdf:RDF><cc:Work
         rdf:about=""><dc:format>image/svg+xml</dc:format><dc:type
           rdf:resource="http://purl.org/dc/dcmitype/StillImage" /></cc:Work></rdf:RDF></metadata><defs
     id="defs6"><clipPath
       id="clipPath18"
       clipPathUnits="userSpaceOnUse"><path
         style="clip-rule:evenodd"
         id="path16"
         d="M 0,0 H 789 V 425.97656 H 0 Z" /></clipPath><clipPath
       id="clipPath30"
       clipPathUnits="userSpaceOnUse"><path
         style="clip-rule:evenodd"
         id="path28"
         d="m 736.30994,236.44366 h 44.89429 v 35.9155 h -44.89429 z" /></clipPath><clipPath
       id="clipPath46"
       clipPathUnits="userSpaceOnUse"><path
         style="clip-rule:evenodd"
         id="path44"
         d="m 520.81702,6.1035156e-5 h 41.90137 V 32.922596 h -41.90137 z" /></clipPath><clipPath
       id="clipPath62"
       clipPathUnits="userSpaceOnUse"><path
         style="clip-rule:evenodd"
         id="path60"
         d="m 287.36624,231.95428 h 92.78168 v 35.9155 h -92.78168 z" /></clipPath><clipPath
       id="clipPath86"
       clipPathUnits="userSpaceOnUse"><path
         style="clip-rule:evenodd"
         id="path84"
         d="M 0,0 H 789 V 425.97656 H 0 Z" /></clipPath><clipPath
       id="clipPath112"
       clipPathUnits="userSpaceOnUse"><path
         style="clip-rule:evenodd"
         id="path110"
         d="m 510.34158,231.95428 h 62.85214 v 44.89438 h -62.85214 z" /></clipPath><clipPath
       id="clipPath128"
       clipPathUnits="userSpaceOnUse"><path
         style="clip-rule:evenodd"
         id="path126"
         d="m 496.87332,344.19025 h 32.92245 v 44.89429 h -32.92245 z" /></clipPath><clipPath
       id="clipPath144"
       clipPathUnits="userSpaceOnUse"><path
         style="clip-rule:evenodd"
         id="path142"
         d="m 490.88736,134.68317 h 38.90842 v 32.92253 h -38.90842 z" /></clipPath><clipPath
       id="clipPath160"
       clipPathUnits="userSpaceOnUse"><path
         style="clip-rule:evenodd"
         id="path158"
         d="M 0.04229736,221.47894 H 263.42258 V 287.324 H 0.04229736 Z" /></clipPath></defs><g
     transform="matrix(0.31999998,0,0,0.31999998,0,3.4e-6)"
     id="g10"><g
       id="g12"><g
         clip-path="url(#clipPath18)"
         id="g14"><g
           transform="matrix(2.9929578,0,0,2.9929578,-357.61615,-836.53174)"
           id="g20"><path
             id="path22"
             style="fill:#000000;fill-opacity:1;fill-rule:nonzero;stroke:none"
             d="m 284,319.5 h 3 v 1 h -3 z m 6,0 h 3 v 1 h -3 z m 6,0 h 3 v 1 h -3 z m 6,0 h 3 v 1 h -3 z m 6,0 h 3 v 1 h -3 z m 6,0 h 3 v 1 h -3 z m 6,0 h 3 v 1 h -3 z m 6,0 h 3 v 1 h -3 z m 6,0 h 2 c 0.33307,0 0.66556,0.0133 0.99747,0.0399 l -0.0798,0.99682 C 334.61224,320.51224 334.30634,320.5 334,320.5 h -2 z m 6.08939,0.68787 c 0.99588,0.34475 1.93319,0.8081 2.81195,1.38998 l -0.55213,0.83374 c -0.80844,-0.53534 -1.67074,-0.96161 -2.58697,-1.27878 z m 5.21453,3.46426 c 0.70743,0.78842 1.30503,1.65289 1.79273,2.59335 l -0.88776,0.46033 c -0.44864,-0.8652 -0.99841,-1.66046 -1.64929,-2.38583 z m 2.88508,5.57697 c 0.20733,0.91201 0.311,1.83566 0.311,2.7709 v 0.27191 h -1 V 332 c 0,-0.8605 -0.0954,-1.71024 -0.2861,-2.54922 z m 0.311,6.04281 v 3 h -1 v -3 z m 0,6 v 3 h -1 v -3 z m 0,6 v 3 h -1 v -3 z m 0,6 v 3 h -1 v -3 z m 0,6 v 3 h -1 v -3 z m 0,6 v 3 h -1 v -3 z m 0,6 v 3 h -1 v -3 z m 0,6 v 3 h -1 v -3 z m 0,6 v 3 h -1 v -3 z m 0,6 v 3 h -1 v -3 z m 0,6 v 3 h -1 v -3 z m 0,6 v 3 h -1 v -3 z m 0,6 V 408 c 3e-5,0.77292 -0.071,1.53922 -0.21317,2.29886 l -0.98297,-0.1839 C 345.43463,409.41599 345.50003,408.711 345.5,408 v -0.72809 z m -1.19385,6.05914 c -0.45004,0.9545 -1.01193,1.83783 -1.68567,2.64994 l -0.76965,-0.63849 c 0.6199,-0.74722 1.13684,-1.55985 1.55084,-2.4379 z m -4.00876,4.81775 c -0.85025,0.6113 -1.76284,1.10797 -2.73785,1.48996 l -0.36481,-0.93109 c 0.89704,-0.35144 1.73667,-0.80838 2.51892,-1.37082 z m -5.83648,2.26554 c -0.48523,0.0571 -0.9722,0.0857 -1.46094,0.0857 h -1.54379 v -1 h 1.54385 c 0.44946,3e-5 0.89743,-0.0263 1.34393,-0.0788 l 0.11695,0.99317 z m -6.00473,0.0857 h -3 v -1 h 3 z m -6,0 h -3 v -1 h 3 z m -6,0 h -3 v -1 h 3 z m -6,0 h -3 v -1 h 3 z m -6,0 h -3 v -1 h 3 z m -6,0 h -3 v -1 h 3 z m -6,0 h -3 v -1 h 3 z m -6,0 h -3 v -1 h 3 z m -6,0 h -3 v -1 h 3 z m -6.03623,-0.26917 c -1.04614,-0.22067 -2.04751,-0.56985 -3.00412,-1.04751 l 0.44672,-0.89465 c 0.88006,0.43945 1.80133,0.76068 2.76382,0.96371 z m -5.62103,-2.79727 c -0.80542,-0.70016 -1.50961,-1.49057 -2.11261,-2.37115 l 0.82507,-0.565 c 0.55472,0.81012 1.20261,1.53726 1.94361,2.18145 z m -3.54349,-5.15396 c -0.36508,-1.00198 -0.59814,-2.03381 -0.69922,-3.09543 l 0.99549,-0.0948 c 0.093,0.97671 0.3074,1.92599 0.64331,2.84787 l -0.93958,0.34234 z M 265.5,406.18431 v -3 h 1 v 3 z m 0,-6 v -3 h 1 v 3 z m 0,-6 v -3 h 1 v 3 z m 0,-6 v -3 h 1 v 3 z m 0,-6 v -3 h 1 v 3 z m 0,-6 v -3 h 1 v 3 z m 0,-6 v -3 h 1 v 3 z m 0,-6 v -3 h 1 v 3 z m 0,-6 v -3 h 1 v 3 z m 0,-6 v -3 h 1 v 3 z m 0,-6 v -3 h 1 v 3 z m 0,-6 v -3 h 1 v 3 z m 0,-6 v -2.18427 c 0,-0.27072 0.009,-0.54126 0.0264,-0.81168 l 0.99786,0.065 C 266.50809,331.50177 266.5,331.7507 266.5,332 v 2.18427 h -1 z m 0.62357,-6.08304 c 0.32946,-1.00357 0.77896,-1.95026 1.34845,-2.84003 l 0.84222,0.53906 c -0.5239,0.81848 -0.93741,1.68943 -1.24054,2.61286 z m 3.38375,-5.2732 c 0.77839,-0.72067 1.63462,-1.33239 2.56867,-1.83511 l 0.47394,0.88055 c -0.85941,0.46253 -1.64713,1.0253 -2.36322,1.68833 z m 5.5307,-2.97201 C 276.01114,319.61868 276.99844,319.5 278,319.5 h 3 v 1 h -3 c -0.92151,0 -1.82986,0.10916 -2.72504,0.32751 l -0.23694,-0.97149 z" /></g></g></g><g
       id="g24"><g
         clip-path="url(#clipPath30)"
         id="g26"><g
           transform="matrix(0.05431774,0,0,-0.05457436,735.06061,260.5683)"
           id="g32"><path
             id="path34"
             style="fill:#000000;fill-opacity:1;fill-rule:nonzero;stroke:none"
             d="m 58,-216 c -9.333336,0 -17.333332,2.66667 -24,8 -6.666668,5.33333 -10.333334,12.66667 -11,22 0,6.66667 24.333332,107.333328 73,302 48.66667,194.66669 74.33333,294 77,298 8.66667,18.66666 24,28 46,28 8,-0.66666 14.66667,-3 20,-7 5.33333,-4 8.66667,-8 10,-12 1.33333,-4 2,-7.33334 2,-10 0,-8 -10.33333,-52.66666 -31,-134 -20.66667,-81.33334 -31.66667,-127 -33,-137 -1.33333,-7.33333 -2,-19 -2,-35 v -8 c 0,-48.666668 22.33333,-73 67,-73 6,0 12,0.333334 18,1 6,0.666666 11.66666,2 17,4 5.33334,2 10.33334,4.333332 15,7 4.66666,2.666668 9,5 13,7 4,2 8,5.333332 12,10 4,4.666668 7.66666,8 11,10 3.33334,2 6.66666,6 10,12 3.33334,6 6,9.666664 8,11 2,1.333336 5,5.333336 9,12 l 7,10 36,143 c 24,94.66669 37.33334,145 40,151 8.66666,18 23,27 43,27 8.66666,0 15.66666,-2.33334 21,-7 5.33331,-4.66666 9,-8.66666 11,-12 2,-3.33334 2.66669,-6.66666 2,-10 L 449,84 c -0.66666,-3.333336 -1,-8.666664 -1,-16 0,-16.666668 2.33334,-27.666668 7,-33 4.66666,-5.333334 11.66666,-8.333334 21,-9 6,0.666666 12.66666,3.666666 20,9 14,13.333336 27.66669,45.333328 41,96 4,13.33333 7.33331,20.33333 10,21 1.33331,0.66667 4.66669,1 10,1 h 4 c 12.66669,0 19,-3 19,-9 0,-4 -1.66669,-13 -5,-27 C 571.66669,103 565,85 555,63 545,41 534.33331,24.333334 523,13 514.33331,4.333333 503.66666,-2.6666665 491,-8 c -5.33334,-1.333333 -13.33334,-2 -24,-2 -14,0 -26.66666,2 -38,6 -11.33334,4 -20.33334,9 -27,15 -6.66666,6 -12.33334,12 -17,18 -4.66666,6 -7.66666,11 -9,15 -1.33334,4 -2,6.333332 -2,7 l -6,-6 C 364,41 358,36 350,30 342,24 333.33334,18 324,12 314.66666,6 302.66666,0.66666698 288,-4 c -14.66666,-4.666667 -28.66666,-7 -42,-7 -31.33333,0 -62.33333,7.666666 -93,23 l -24,-97 c -14,-54.66667 -22.33334,-86.33333 -25,-95 -2.66666,-8.66667 -6.666664,-16 -12,-22 -10.666664,-9.33333 -22,-14 -34,-14 z" /></g><g
           transform="matrix(0.03840264,0,0,-0.03858407,769.60669,268.75446)"
           id="g36"><path
             id="path38"
             style="fill:#000000;fill-opacity:1;fill-rule:nonzero;stroke:none"
             d="m 184,600 c 0,16 6.33333,30 19,42 12.66667,12 27.33333,18.33331 44,19 12,0 22,-4 30,-12 8,-8 12.33334,-18 13,-30 0,-15.33331 -6.66666,-29.33331 -20,-42 -13.33334,-12.66669 -28,-19.33331 -44,-20 -10,0 -19.33333,3.33331 -28,10 -8.66667,6.66669 -13.33333,17.66669 -14,33 z M 21,287 c 0,5.33334 3,15.66666 9,31 6,15.33334 14,32.33334 24,51 10,18.66666 24.666664,35.66666 44,51 19.33334,15.33334 39.33333,22.66666 60,22 26,0 47.66667,-7.66666 65,-23 17.33333,-15.33334 26.33333,-36 27,-62 0,-11.33334 -4.66667,-30 -14,-56 -9.33333,-26 -22.66667,-61 -40,-105 -17.33333,-44 -31.33333,-81.66666 -42,-113 -3.33333,-14.666664 -5,-25.333332 -5,-32 0,-16.666668 5.66667,-25 17,-25 6,0 12.33333,1 19,3 6.66667,2 14.33333,6.666668 23,14 8.66667,7.333332 17.66667,19 27,35 9.33333,16 17.66667,35.66666 25,59 2,8 3.66666,12.66667 5,14 1.33334,1.33333 7,2 17,2 13.33334,0 20,-3.33333 20,-10 0,-5.33333 -3,-15.66666 -9,-31 C 287,96.666664 278.66666,79.666672 268,61 257.33334,42.333332 242.33333,25.666668 223,11 203.66667,-3.666667 183,-11 161,-11 c -21.33333,0 -41,7 -59,21 -18,14 -27.333336,35.333332 -28,64 0,11.333336 1.666664,22 5,32 3.333336,10 17.666664,48 43,114 25.33333,67.33334 40,107.66666 44,121 4,13.33334 6.33333,26.33334 7,39 0,16 -5.66667,24 -17,24 h -2 c -20,0 -38.33333,-11 -55,-33 -16.666672,-22 -29.333336,-50 -38,-84 -0.666668,-0.66666 -1.333332,-1.66666 -2,-3 -0.666668,-1.33334 -1,-2.33334 -1,-3 0,-0.66666 -0.666668,-1.33334 -2,-2 -1.333332,-0.66666 -2.333332,-1 -3,-1 -0.666668,0 -2,0 -4,0 -2,0 -4.666668,0 -8,0 H 27 c -4,4 -6,7 -6,9 z" /></g></g></g><g
       id="g40"><g
         clip-path="url(#clipPath46)"
         id="g42"><g
           transform="matrix(0.05345533,0,0,-0.05489129,518.95526,24.262011)"
           id="g48"><path
             id="path50"
             style="fill:#000000;fill-opacity:1;fill-rule:nonzero;stroke:none"
             d="m 52,289 c 4.666668,28 22.666664,60.33334 54,97 31.33333,36.66666 70,55.33334 116,56 23.33333,0 44.66666,-6 64,-18 19.33334,-12 33.66666,-27 43,-45 28,42 61.66666,63 101,63 24.66666,0 46,-7.33334 64,-22 18,-14.66666 27.33331,-34.33334 28,-59 0,-19.33334 -4.66669,-35 -14,-47 -9.33334,-12 -18.33334,-19.33334 -27,-22 -8.66666,-2.66666 -16.33334,-4 -23,-4 -12.66666,0 -23,3.66666 -31,11 -8,7.33334 -12,17 -12,29 0,30.66666 16.66666,51.66666 50,63 -7.33334,8.66666 -20.66666,13 -40,13 -8.66666,0 -15,-0.66666 -19,-2 -25.33334,-10.66666 -44,-32.66666 -56,-66 -40,-147.33334 -60,-233.33333 -60,-258 0,-18.666668 5.33334,-32 16,-40 10.66666,-8 22.33334,-12 35,-12 24.66666,0 49,11 73,33 24,22 40.33334,49 49,81 2,6.66667 4,10.33333 6,11 2,0.66667 7.33334,1.33333 16,2 h 4 c 10,0 15,-2.66667 15,-8 0,-0.66667 -0.66666,-4.33333 -2,-11 C 491.33334,96 470.66666,62.333336 440,33 409.33334,3.666666 373.66666,-11 333,-11 286.33334,-11 251,10 227,52 199.66667,10.666664 168.33334,-10 133,-10 h -6 C 94.333328,-10 71,-1.333334 57,16 43,33.333336 35.666668,51.666664 35,71 c 0,21.333336 6.333332,38.66666 19,52 12.666664,13.33333 27.666664,20 45,20 28.66667,0 43,-14 43,-42 C 142,87.666664 138,76 130,66 122,56 114.33334,49.333332 107,46 99.666664,42.666668 95.333336,41 94,41 l -3,-1 c 0,-0.666668 2,-2 6,-4 4,-2 9.33334,-4.333334 16,-7 6.66666,-2.666666 13,-3.666666 19,-3 24,0 44.66667,15 62,45 6,10.666664 13.66667,33.33333 23,68 9.33333,34.66667 18.66667,70.66666 28,108 9.33333,37.33334 14.66666,59.33334 16,66 3.33334,18 5,31 5,39 0,18.66666 -5,32 -15,40 -10,8 -21.33333,12 -34,12 -26.66667,0 -51.66667,-10.66666 -75,-32 -23.33334,-21.33334 -39.66666,-48.66666 -49,-82 -1.333336,-6 -3,-9.33334 -5,-10 -2,-0.66666 -7.333336,-1.33334 -16,-2 H 58 c -4,4 -6,7.66666 -6,11 z" /></g><g
           transform="matrix(0.03779292,0,0,-0.03880815,551.29578,32.495705)"
           id="g52"><path
             id="path54"
             style="fill:#000000;fill-opacity:1;fill-rule:nonzero;stroke:none"
             d="m 184,600 c 0,16 6.33333,30 19,42 12.66667,12 27.33333,18.33331 44,19 12,0 22,-4 30,-12 8,-8 12.33334,-18 13,-30 0,-15.33331 -6.66666,-29.33331 -20,-42 -13.33334,-12.66669 -28,-19.33331 -44,-20 -10,0 -19.33333,3.33331 -28,10 -8.66667,6.66669 -13.33333,17.66669 -14,33 z M 21,287 c 0,5.33334 3,15.66666 9,31 6,15.33334 14,32.33334 24,51 10,18.66666 24.666664,35.66666 44,51 19.33334,15.33334 39.33333,22.66666 60,22 26,0 47.66667,-7.66666 65,-23 17.33333,-15.33334 26.33333,-36 27,-62 0,-11.33334 -4.66667,-30 -14,-56 -9.33333,-26 -22.66667,-61 -40,-105 -17.33333,-44 -31.33333,-81.66666 -42,-113 -3.33333,-14.666664 -5,-25.333332 -5,-32 0,-16.666668 5.66667,-25 17,-25 6,0 12.33333,1 19,3 6.66667,2 14.33333,6.666668 23,14 8.66667,7.333332 17.66667,19 27,35 9.33333,16 17.66667,35.66666 25,59 2,8 3.66666,12.66667 5,14 1.33334,1.33333 7,2 17,2 13.33334,0 20,-3.33333 20,-10 0,-5.33333 -3,-15.66666 -9,-31 C 287,96.666664 278.66666,79.666672 268,61 257.33334,42.333332 242.33333,25.666668 223,11 203.66667,-3.666667 183,-11 161,-11 c -21.33333,0 -41,7 -59,21 -18,14 -27.333336,35.333332 -28,64 0,11.333336 1.666664,22 5,32 3.333336,10 17.666664,48 43,114 25.33333,67.33334 40,107.66666 44,121 4,13.33334 6.33333,26.33334 7,39 0,16 -5.66667,24 -17,24 h -2 c -20,0 -38.33333,-11 -55,-33 -16.666672,-22 -29.333336,-50 -38,-84 -0.666668,-0.66666 -1.333332,-1.66666 -2,-3 -0.666668,-1.33334 -1,-2.33334 -1,-3 0,-0.66666 -0.666668,-1.33334 -2,-2 -1.333332,-0.66666 -2.333332,-1 -3,-1 -0.666668,0 -2,0 -4,0 -2,0 -4.666668,0 -8,0 H 27 c -4,4 -6,7 -6,9 z" /></g></g></g><g
       id="g56"><g
         clip-path="url(#clipPath62)"
         id="g58"><g
           transform="matrix(0.05429322,0,0,-0.05458282,286.11887,256.0799)"
           id="g64"><path
             id="path66"
             style="fill:#000000;fill-opacity:1;fill-rule:nonzero;stroke:none"
             d="m 58,-216 c -9.333336,0 -17.333332,2.66667 -24,8 -6.666668,5.33333 -10.333334,12.66667 -11,22 0,6.66667 24.333332,107.333328 73,302 48.66667,194.66669 74.33333,294 77,298 8.66667,18.66666 24,28 46,28 8,-0.66666 14.66667,-3 20,-7 5.33333,-4 8.66667,-8 10,-12 1.33333,-4 2,-7.33334 2,-10 0,-8 -10.33333,-52.66666 -31,-134 -20.66667,-81.33334 -31.66667,-127 -33,-137 -1.33333,-7.33333 -2,-19 -2,-35 v -8 c 0,-48.666668 22.33333,-73 67,-73 6,0 12,0.333334 18,1 6,0.666666 11.66666,2 17,4 5.33334,2 10.33334,4.333332 15,7 4.66666,2.666668 9,5 13,7 4,2 8,5.333332 12,10 4,4.666668 7.66666,8 11,10 3.33334,2 6.66666,6 10,12 3.33334,6 6,9.666664 8,11 2,1.333336 5,5.333336 9,12 l 7,10 36,143 c 24,94.66669 37.33334,145 40,151 8.66666,18 23,27 43,27 8.66666,0 15.66666,-2.33334 21,-7 5.33331,-4.66666 9,-8.66666 11,-12 2,-3.33334 2.66669,-6.66666 2,-10 L 449,84 c -0.66666,-3.333336 -1,-8.666664 -1,-16 0,-16.666668 2.33334,-27.666668 7,-33 4.66666,-5.333334 11.66666,-8.333334 21,-9 6,0.666666 12.66666,3.666666 20,9 14,13.333336 27.66669,45.333328 41,96 4,13.33333 7.33331,20.33333 10,21 1.33331,0.66667 4.66669,1 10,1 h 4 c 12.66669,0 19,-3 19,-9 0,-4 -1.66669,-13 -5,-27 C 571.66669,103 565,85 555,63 545,41 534.33331,24.333334 523,13 514.33331,4.333333 503.66666,-2.6666665 491,-8 c -5.33334,-1.333333 -13.33334,-2 -24,-2 -14,0 -26.66666,2 -38,6 -11.33334,4 -20.33334,9 -27,15 -6.66666,6 -12.33334,12 -17,18 -4.66666,6 -7.66666,11 -9,15 -1.33334,4 -2,6.333332 -2,7 l -6,-6 C 364,41 358,36 350,30 342,24 333.33334,18 324,12 314.66666,6 302.66666,0.66666698 288,-4 c -14.66666,-4.666667 -28.66666,-7 -42,-7 -31.33333,0 -62.33333,7.666666 -93,23 l -24,-97 c -14,-54.66667 -22.33334,-86.33333 -25,-95 -2.66666,-8.66667 -6.666664,-16 -12,-22 -10.666664,-9.33333 -22,-14 -34,-14 z" /></g><g
           transform="matrix(0.03838531,0,0,-0.03859005,320.64935,264.2673)"
           id="g68"><path
             id="path70"
             style="fill:#000000;fill-opacity:1;fill-rule:nonzero;stroke:none"
             d="m 184,600 c 0,16 6.33333,30 19,42 12.66667,12 27.33333,18.33331 44,19 12,0 22,-4 30,-12 8,-8 12.33334,-18 13,-30 0,-15.33331 -6.66666,-29.33331 -20,-42 -13.33334,-12.66669 -28,-19.33331 -44,-20 -10,0 -19.33333,3.33331 -28,10 -8.66667,6.66669 -13.33333,17.66669 -14,33 z M 21,287 c 0,5.33334 3,15.66666 9,31 6,15.33334 14,32.33334 24,51 10,18.66666 24.666664,35.66666 44,51 19.33334,15.33334 39.33333,22.66666 60,22 26,0 47.66667,-7.66666 65,-23 17.33333,-15.33334 26.33333,-36 27,-62 0,-11.33334 -4.66667,-30 -14,-56 -9.33333,-26 -22.66667,-61 -40,-105 -17.33333,-44 -31.33333,-81.66666 -42,-113 -3.33333,-14.666664 -5,-25.333332 -5,-32 0,-16.666668 5.66667,-25 17,-25 6,0 12.33333,1 19,3 6.66667,2 14.33333,6.666668 23,14 8.66667,7.333332 17.66667,19 27,35 9.33333,16 17.66667,35.66666 25,59 2,8 3.66666,12.66667 5,14 1.33334,1.33333 7,2 17,2 13.33334,0 20,-3.33333 20,-10 0,-5.33333 -3,-15.66666 -9,-31 C 287,96.666664 278.66666,79.666672 268,61 257.33334,42.333332 242.33333,25.666668 223,11 203.66667,-3.666667 183,-11 161,-11 c -21.33333,0 -41,7 -59,21 -18,14 -27.333336,35.333332 -28,64 0,11.333336 1.666664,22 5,32 3.333336,10 17.666664,48 43,114 25.33333,67.33334 40,107.66666 44,121 4,13.33334 6.33333,26.33334 7,39 0,16 -5.66667,24 -17,24 h -2 c -20,0 -38.33333,-11 -55,-33 -16.666672,-22 -29.333336,-50 -38,-84 -0.666668,-0.66666 -1.333332,-1.66666 -2,-3 -0.666668,-1.33334 -1,-2.33334 -1,-3 0,-0.66666 -0.666668,-1.33334 -2,-2 -1.333332,-0.66666 -2.333332,-1 -3,-1 -0.666668,0 -2,0 -4,0 -2,0 -4.666668,0 -8,0 H 27 c -4,4 -6,7 -6,9 z" /></g><g
           transform="matrix(0.03838531,0,0,-0.03859005,333.89227,264.2673)"
           id="g72"><path
             id="path74"
             style="fill:#000000;fill-opacity:1;fill-rule:nonzero;stroke:none"
             d="m 84,237 c 0,0 0,4.33333 0,13 0,8.66666 4.666664,15.33334 14,20 h 581 c 10,-5.33334 15,-12 15,-20 0,-8 -5,-14.66667 -15,-20 H 98 c -9.333336,4.66667 -14,11.33333 -14,20 z" /></g><g
           transform="matrix(0.03838531,0,0,-0.03859005,363.75604,264.2673)"
           id="g76"><path
             id="path78"
             style="fill:#000000;fill-opacity:1;fill-rule:nonzero;stroke:none"
             d="m 213,578 -13,-5 c -9.33333,-3.33331 -22.66667,-6.66669 -40,-10 -17.33333,-3.33331 -36.66666,-5.66669 -58,-7 H 83 v 46 h 19 c 31.33333,1.33331 60.33333,6.33331 87,15 26.66667,8.66669 45.33333,16.66669 56,24 10.66667,7.33331 20,14.66669 28,22 1.33334,2 5.33334,3 12,3 6,0 11.66666,-2 17,-6 V 361 l 1,-300 c 4.66666,-4.666668 8.66666,-7.666668 12,-9 3.33334,-1.333332 11.33334,-2.666668 24,-4 12.66666,-1.333332 33.33334,-2 62,-2 h 26 V 0 H 416 C 402,2 349,3 257,3 166.33333,3 114,2 100,0 H 88 v 46 h 26 c 14.66667,0 27.33333,0 38,0 10.66667,0 19,0.333332 25,1 6,0.666668 11.33333,1.666668 16,3 4.66667,1.333332 7.33333,2 8,2 0.66667,0 2.66667,1.666668 6,5 3.33333,3.333332 5.33333,4.666668 6,4 z" /></g></g></g><g
       id="g80"><g
         clip-path="url(#clipPath86)"
         id="g82"><g
           transform="matrix(2.9929578,0,0,2.9929578,-357.61615,-836.53174)"
           id="g88"><path
             id="path90"
             style="fill:none;stroke:#000000;stroke-width:1;stroke-linecap:butt;stroke-linejoin:miter;stroke-miterlimit:10;stroke-dasharray:none;stroke-opacity:1"
             d="M 301,340 V 320" /><path
             id="path92"
             style="fill:none;stroke:#000000;stroke-width:1;stroke-linecap:butt;stroke-linejoin:miter;stroke-miterlimit:10;stroke-dasharray:none;stroke-opacity:1"
             d="m 301,390 c 0,13.33334 5.83334,20 17.5,20 11.66666,0 17.5,-13.33334 17.5,-40 0,-26.66666 -5.83334,-40 -17.5,-40 -11.66666,0 -17.5,-3.33334 -17.5,-10" /><path
             id="path94"
             style="fill:none;stroke:#000000;stroke-width:1;stroke-linecap:butt;stroke-linejoin:miter;stroke-miterlimit:10;stroke-dasharray:none;stroke-opacity:1"
             d="M 276,365 H 256" /><path
             id="path96"
             style="fill:none;stroke:#000000;stroke-width:1;stroke-linecap:butt;stroke-linejoin:miter;stroke-miterlimit:10;stroke-dasharray:none;stroke-opacity:1"
             d="m 326,365 h 30" /><path
             id="path98"
             style="fill:#ffffff;fill-opacity:1;fill-rule:nonzero;stroke:none"
             d="m 326,365 c 0,0.81879 -0.0401,1.63559 -0.12042,2.45041 -0.0802,0.81485 -0.20023,1.62378 -0.35999,2.42679 -0.15973,0.80307 -0.35843,1.59637 -0.5961,2.37988 -0.23767,0.78354 -0.51318,1.5535 -0.82654,2.30994 -0.31332,0.75647 -0.66296,1.49575 -1.04895,2.21786 -0.38598,0.72208 -0.80642,1.42352 -1.26129,2.10428 -0.45486,0.68082 -0.94204,1.33768 -1.46148,1.97061 -0.51941,0.63294 -1.06861,1.23889 -1.64759,1.81784 -0.57895,0.57898 -1.1849,1.12821 -1.81784,1.64765 -0.63293,0.51941 -1.28979,1.00656 -1.97061,1.46142 -0.68075,0.4549 -1.3822,0.87534 -2.10431,1.26129 -0.72207,0.38599 -1.46136,0.73563 -2.21783,1.04895 -0.75644,0.31336 -1.52643,0.58887 -2.30997,0.82654 -0.78354,0.2377 -1.57684,0.4364 -2.37988,0.59613 -0.80304,0.15976 -1.61197,0.27976 -2.42679,0.36005 C 302.63556,389.95987 301.81876,390 301,390 c -0.81876,0 -1.63556,-0.0401 -2.45041,-0.12036 -0.81485,-0.0803 -1.62381,-0.20029 -2.42688,-0.36005 -0.80304,-0.15973 -1.59631,-0.35843 -2.37985,-0.59613 -0.78354,-0.23767 -1.55353,-0.51318 -2.30997,-0.82654 -0.75644,-0.31332 -1.4957,-0.66296 -2.2178,-1.04895 -0.72211,-0.38595 -1.42356,-0.80639 -2.10437,-1.26129 -0.68076,-0.45486 -1.33762,-0.94201 -1.97055,-1.46145 -0.63294,-0.51944 -1.23889,-1.06864 -1.81784,-1.64762 -0.57895,-0.57895 -1.12815,-1.1849 -1.64759,-1.81781 -0.51944,-0.63296 -1.00659,-1.28982 -1.46151,-1.97064 -0.45487,-0.68076 -0.87531,-1.3822 -1.2613,-2.10428 -0.38595,-0.72211 -0.73562,-1.46139 -1.04895,-2.21786 -0.31332,-0.75644 -0.58883,-1.52643 -0.8265,-2.30997 -0.23767,-0.78348 -0.43637,-1.57678 -0.59613,-2.37985 -0.15973,-0.80301 -0.27973,-1.61194 -0.35996,-2.42679 C 276.04013,366.63559 276,365.81879 276,365 c 0,-0.81876 0.0401,-1.63556 0.12039,-2.45041 0.0802,-0.81485 0.20023,-1.62381 0.35996,-2.42688 0.15976,-0.80304 0.35846,-1.59631 0.59613,-2.37985 0.23767,-0.78351 0.51315,-1.5535 0.82647,-2.30997 0.31333,-0.75644 0.663,-1.4957 1.04898,-2.2178 0.38596,-0.72208 0.8064,-1.42356 1.2613,-2.10437 0.45492,-0.68079 0.9421,-1.33762 1.46154,-1.97052 0.51941,-0.63294 1.06861,-1.23889 1.64756,-1.81787 0.57895,-0.57895 1.1849,-1.12812 1.81784,-1.64756 0.63293,-0.51944 1.28979,-1.00662 1.97055,-1.46154 0.68081,-0.45487 1.38226,-0.87531 2.10437,-1.2613 0.7221,-0.38595 1.46136,-0.73562 2.2178,-1.04895 0.75644,-0.31329 1.52643,-0.5888 2.30997,-0.8265 0.78354,-0.23764 1.57681,-0.43634 2.37985,-0.5961 0.80307,-0.15973 1.61203,-0.27973 2.42688,-0.35996 C 299.36444,340.04013 300.18124,340 301,340 c 0.81876,0 1.63556,0.0401 2.45041,0.12042 0.81482,0.0802 1.62375,0.20023 2.42679,0.35996 0.80304,0.15976 1.59634,0.35846 2.37988,0.5961 0.78354,0.2377 1.55353,0.51321 2.30997,0.8265 0.75647,0.31333 1.49576,0.663 2.21783,1.04895 0.72211,0.38599 1.42356,0.80643 2.10431,1.2613 0.68082,0.45492 1.33768,0.94207 1.97061,1.46151 0.63294,0.51944 1.23889,1.06864 1.81784,1.64759 0.57898,0.57898 1.12818,1.18493 1.64762,1.81784 0.51944,0.6329 1.00659,1.28976 1.46145,1.97055 0.45487,0.68081 0.87531,1.38226 1.26129,2.10434 0.38599,0.72213 0.73563,1.46139 1.04895,2.21783 0.31336,0.75647 0.58887,1.52646 0.82654,2.30997 0.23767,0.78354 0.43637,1.57681 0.5961,2.37985 0.15976,0.80307 0.27976,1.61203 0.35999,2.42688 C 325.95987,363.36444 326,364.18124 326,365 Z" /><path
             id="path100"
             style="fill:none;stroke:#000000;stroke-width:1;stroke-linecap:butt;stroke-linejoin:miter;stroke-miterlimit:10;stroke-dasharray:none;stroke-opacity:1"
             d="m 326,365 c 0,0.81879 -0.0401,1.63559 -0.12042,2.45041 -0.0802,0.81485 -0.20023,1.62378 -0.35999,2.42679 -0.15973,0.80307 -0.35843,1.59637 -0.5961,2.37988 -0.23767,0.78354 -0.51318,1.5535 -0.82654,2.30994 -0.31332,0.75647 -0.66296,1.49575 -1.04895,2.21786 -0.38598,0.72208 -0.80642,1.42352 -1.26129,2.10428 -0.45486,0.68082 -0.94204,1.33768 -1.46148,1.97061 -0.51941,0.63294 -1.06861,1.23889 -1.64759,1.81784 -0.57895,0.57898 -1.1849,1.12821 -1.81784,1.64765 -0.63293,0.51941 -1.28979,1.00656 -1.97061,1.46142 -0.68075,0.4549 -1.3822,0.87534 -2.10431,1.26129 -0.72207,0.38599 -1.46136,0.73563 -2.21783,1.04895 -0.75644,0.31336 -1.52643,0.58887 -2.30997,0.82654 -0.78354,0.2377 -1.57684,0.4364 -2.37988,0.59613 -0.80304,0.15976 -1.61197,0.27976 -2.42679,0.36005 C 302.63556,389.95987 301.81876,390 301,390 c -0.81876,0 -1.63556,-0.0401 -2.45041,-0.12036 -0.81485,-0.0803 -1.62381,-0.20029 -2.42688,-0.36005 -0.80304,-0.15973 -1.59631,-0.35843 -2.37985,-0.59613 -0.78354,-0.23767 -1.55353,-0.51318 -2.30997,-0.82654 -0.75644,-0.31332 -1.4957,-0.66296 -2.2178,-1.04895 -0.72211,-0.38595 -1.42356,-0.80639 -2.10437,-1.26129 -0.68076,-0.45486 -1.33762,-0.94201 -1.97055,-1.46145 -0.63294,-0.51944 -1.23889,-1.06864 -1.81784,-1.64762 -0.57895,-0.57895 -1.12815,-1.1849 -1.64759,-1.81781 -0.51944,-0.63296 -1.00659,-1.28982 -1.46151,-1.97064 -0.45487,-0.68076 -0.87531,-1.3822 -1.2613,-2.10428 -0.38595,-0.72211 -0.73562,-1.46139 -1.04895,-2.21786 -0.31332,-0.75644 -0.58883,-1.52643 -0.8265,-2.30997 -0.23767,-0.78348 -0.43637,-1.57678 -0.59613,-2.37985 -0.15973,-0.80301 -0.27973,-1.61194 -0.35996,-2.42679 C 276.04013,366.63559 276,365.81879 276,365 c 0,-0.81876 0.0401,-1.63556 0.12039,-2.45041 0.0802,-0.81485 0.20023,-1.62381 0.35996,-2.42688 0.15976,-0.80304 0.35846,-1.59631 0.59613,-2.37985 0.23767,-0.78351 0.51315,-1.5535 0.82647,-2.30997 0.31333,-0.75644 0.663,-1.4957 1.04898,-2.2178 0.38596,-0.72208 0.8064,-1.42356 1.2613,-2.10437 0.45492,-0.68079 0.9421,-1.33762 1.46154,-1.97052 0.51941,-0.63294 1.06861,-1.23889 1.64756,-1.81787 0.57895,-0.57895 1.1849,-1.12812 1.81784,-1.64756 0.63293,-0.51944 1.28979,-1.00662 1.97055,-1.46154 0.68081,-0.45487 1.38226,-0.87531 2.10437,-1.2613 0.7221,-0.38595 1.46136,-0.73562 2.2178,-1.04895 0.75644,-0.31329 1.52643,-0.5888 2.30997,-0.8265 0.78354,-0.23764 1.57681,-0.43634 2.37985,-0.5961 0.80307,-0.15973 1.61203,-0.27973 2.42688,-0.35996 C 299.36444,340.04013 300.18124,340 301,340 c 0.81876,0 1.63556,0.0401 2.45041,0.12042 0.81482,0.0802 1.62375,0.20023 2.42679,0.35996 0.80304,0.15976 1.59634,0.35846 2.37988,0.5961 0.78354,0.2377 1.55353,0.51321 2.30997,0.8265 0.75647,0.31333 1.49576,0.663 2.21783,1.04895 0.72211,0.38599 1.42356,0.80643 2.10431,1.2613 0.68082,0.45492 1.33768,0.94207 1.97061,1.46151 0.63294,0.51944 1.23889,1.06864 1.81784,1.64759 0.57898,0.57898 1.12818,1.18493 1.64762,1.81784 0.51944,0.6329 1.00659,1.28976 1.46145,1.97055 0.45487,0.68081 0.87531,1.38226 1.26129,2.10434 0.38599,0.72213 0.73563,1.46139 1.04895,2.21783 0.31336,0.75647 0.58887,1.52646 0.82654,2.30997 0.23767,0.78354 0.43637,1.57681 0.5961,2.37985 0.15976,0.80307 0.27976,1.61203 0.35999,2.42688 C 325.95987,363.36444 326,364.18124 326,365 Z" /></g><g
           transform="matrix(2.9929578,0,0,2.9929578,-359.11264,-838.02814)"
           id="g102"><path
             id="path104"
             style="fill:none;stroke:#000000;stroke-width:1;stroke-linecap:butt;stroke-linejoin:miter;stroke-miterlimit:10;stroke-dasharray:none;stroke-opacity:1"
             d="M 300.85999,321 301,300" /></g></g></g><g
       id="g106"><g
         clip-path="url(#clipPath112)"
         id="g108"><g
           transform="matrix(0.05316131,0,0,-0.05333285,508.50159,268.43396)"
           id="g114"><path
             id="path116"
             style="fill:#000000;fill-opacity:1;fill-rule:nonzero;stroke:none"
             d="m 289,629 c 0,4 -19,6.66669 -57,8 -16,0 -26.33333,0.33331 -31,1 -4.66667,0.66669 -7,4 -7,10 0,0.66669 0.66667,4.33331 2,11 0.66667,2 1.33333,4.33331 2,7 0.66667,2.66669 1,4.33331 1,5 0,0.66669 0.66667,2.33331 2,5 1.33333,2.66669 2,3.66669 2,3 0,-0.66669 1.33333,0 4,2 2.66667,2 4.33333,2.66669 5,2 0.66667,-0.66669 3.33333,-0.66669 8,0 4.66667,0.66669 8.66667,1 12,1 4,0 14,0 30,0 16,0 31,-0.33331 45,-1 52.66666,0 83,0 91,0 8,0 13.33334,-1.66669 16,-5 0.66666,-2.66669 13,-96.66663 37,-282 l 36,-279 23,37 c 16,24 37.33331,57.33333 64,100 26.66669,42.66666 56,89.33334 88,140 116.66669,186 175.66669,279.66669 177,281 0.66669,0.66669 1.66669,1.66669 3,3 1.33331,1.33331 2.66669,2.33331 4,3 l 6,2 h 96 c 11.33331,0 24.66669,0 40,0 15.3333,0 25,0.33331 29,1 22.6666,0 34,-3.66669 34,-11 0,-3.33331 -1,-9 -3,-17 -2,-8 -3,-12.33331 -3,-13 -2.6666,-4 -15,-6 -37,-6 -26.66669,-0.66669 -43.66669,-1.66669 -51,-3 -7.33331,-1.33331 -13.33331,-5 -18,-11 -2,-3.33331 -26,-97.66663 -72,-283 C 821,154.66666 797.66669,61 797,59 c 0,-2.666668 0.33331,-4.333332 1,-5 0.66669,-0.666668 3,-2 7,-4 4,-2 9.66669,-2.666668 17,-2 7.33331,0.666668 18.33331,0 33,-2 h 31 c 4,-6 6,-9.666668 6,-11 0,-10.666668 -2.33331,-20.666666 -7,-30 -3.33331,-3.3333335 -8.66669,-5 -16,-5 -3.33331,0 -17,0.33333331 -41,1 -24,0.6666667 -54.66669,1 -92,1 -40.66669,0 -71.33331,0 -92,0 -20.66669,0 -32.33331,-0.3333333 -35,-1 -11.33331,0 -17,3.333333 -17,10 0,1.333333 0.66669,6 2,14 2.66669,10.666668 5.33331,16.666668 8,18 2.66669,1.333332 10.33331,2.333332 23,3 18,0 38,1 60,3 9.33331,2 15.66669,6 19,12 1.33331,2.666668 14,51.33333 38,146 24,94.66669 47.66669,189 71,283 23.33331,94 35,141 35,141 L 654,322 C 523.33331,114 456.33334,8.333334 453,5 451.66666,4.3333335 450.33334,3.6666667 449,3 445.66666,1 440.33334,0 433,0 423,0 417,2.333333 415,7 413.66666,9.666667 400,113 374,317 L 335,624 267,354 C 222.33333,176.66666 200,85 200,79 204,57 228,46 272,46 h 10 c 4,-3.333332 6.33334,-6.333332 7,-9 0.66666,-2.666668 -0.33334,-8.666666 -3,-18 C 283.33334,8.333333 280.66666,2.3333335 278,1 275.33334,0.33333331 271.66666,0 267,0 265.66666,0 261.66666,0 255,0 248.33333,0 237,0.33333331 221,1 205,1.6666667 183.66667,2 157,2 137,2 116.33334,1.6666667 95,1 73.666664,0.33333331 61.333332,0 58,0 48,0 41.666668,0.66666663 39,2 c -2.666668,1.3333335 -4,4.333333 -4,9 0,1.333333 1,6 3,14 2,8 3.666668,13 5,15 1.333332,4 8.666664,6 22,6 46.66667,0 76.33333,13.333332 89,40 2.66667,4 25.66666,93.33333 69,268 43.33334,174.66669 65.33334,266.33331 66,275 z" /></g><g
           transform="matrix(0.03758505,0,0,-0.03770633,561.82239,276.4339)"
           id="g118"><path
             id="path120"
             style="fill:#000000;fill-opacity:1;fill-rule:nonzero;stroke:none"
             d="m 184,600 c 0,16 6.33333,30 19,42 12.66667,12 27.33333,18.33331 44,19 12,0 22,-4 30,-12 8,-8 12.33334,-18 13,-30 0,-15.33331 -6.66666,-29.33331 -20,-42 -13.33334,-12.66669 -28,-19.33331 -44,-20 -10,0 -19.33333,3.33331 -28,10 -8.66667,6.66669 -13.33333,17.66669 -14,33 z M 21,287 c 0,5.33334 3,15.66666 9,31 6,15.33334 14,32.33334 24,51 10,18.66666 24.666664,35.66666 44,51 19.33334,15.33334 39.33333,22.66666 60,22 26,0 47.66667,-7.66666 65,-23 17.33333,-15.33334 26.33333,-36 27,-62 0,-11.33334 -4.66667,-30 -14,-56 -9.33333,-26 -22.66667,-61 -40,-105 -17.33333,-44 -31.33333,-81.66666 -42,-113 -3.33333,-14.666664 -5,-25.333332 -5,-32 0,-16.666668 5.66667,-25 17,-25 6,0 12.33333,1 19,3 6.66667,2 14.33333,6.666668 23,14 8.66667,7.333332 17.66667,19 27,35 9.33333,16 17.66667,35.66666 25,59 2,8 3.66666,12.66667 5,14 1.33334,1.33333 7,2 17,2 13.33334,0 20,-3.33333 20,-10 0,-5.33333 -3,-15.66666 -9,-31 C 287,96.666664 278.66666,79.666672 268,61 257.33334,42.333332 242.33333,25.666668 223,11 203.66667,-3.666667 183,-11 161,-11 c -21.33333,0 -41,7 -59,21 -18,14 -27.333336,35.333332 -28,64 0,11.333336 1.666664,22 5,32 3.333336,10 17.666664,48 43,114 25.33333,67.33334 40,107.66666 44,121 4,13.33334 6.33333,26.33334 7,39 0,16 -5.66667,24 -17,24 h -2 c -20,0 -38.33333,-11 -55,-33 -16.666672,-22 -29.333336,-50 -38,-84 -0.666668,-0.66666 -1.333332,-1.66666 -2,-3 -0.666668,-1.33334 -1,-2.33334 -1,-3 0,-0.66666 -0.666668,-1.33334 -2,-2 -1.333332,-0.66666 -2.333332,-1 -3,-1 -0.666668,0 -2,0 -4,0 -2,0 -4.666668,0 -8,0 H 27 c -4,4 -6,7 -6,9 z" /></g></g></g><g
       id="g122"><g
         clip-path="url(#clipPath128)"
         id="g124"><g
           transform="matrix(0.05180458,0,0,-0.05265956,494.80115,380.75607)"
           id="g130"><path
             id="path132"
             style="fill:#000000;fill-opacity:1;fill-rule:nonzero;stroke:none"
             d="m 73,647 c 0,6.66669 1.333336,14.33331 4,23 2.666664,8.66669 6.666664,13 12,13 0.666664,0 24.66666,1.66669 72,5 47.33334,3.33331 71.66667,5.33331 73,6 8,0 12,-3 12,-9 0,-6 -11.33333,-53.66669 -34,-143 -5.33333,-22.66669 -11,-46 -17,-70 -6,-24 -11,-42 -15,-54 l -4,-19 c 0,-2 2,-1 6,3 32.66667,26.66666 66.33333,40 101,40 41.33334,0 74.66666,-15.33334 100,-46 25.33334,-30.66666 38.33334,-69.33334 39,-116 C 422,206 395.66666,139 343,79 290.33334,19 233.66667,-11 173,-11 139.66666,-11 109.33334,1.666666 82,27 54.666664,52.333336 40.666668,93.333328 40,150 v 9 c 0,14 2.666668,33.33333 8,58 5.333332,24.66667 21.666664,90.33331 49,197 33.33334,131.33337 50,201 50,209 0,8 -12.66667,12.66669 -38,14 -3.33334,0 -6,0 -8,0 h -5 c -6.666664,0 -11,0 -13,0 -2,0 -4.333336,1 -7,3 -2.666664,2 -3.666664,4.33331 -3,7 z M 336,325 v 6 c 0,49.33334 -20.33334,74 -61,74 -11.33334,0 -23,-2.66666 -35,-8 -12,-5.33334 -23,-12.33334 -33,-21 -10,-8.66666 -18.66667,-16.66666 -26,-24 -7.33333,-7.33334 -13.33333,-14.66666 -18,-22 l -6,-8 -21,-86 c -14.66666,-57.33334 -22,-98 -22,-122 0,-32 8,-56 24,-72 10.66667,-10.666668 24,-16 40,-16 22,0 44.33333,10.666664 67,32 16.66666,15.333336 30,34 40,56 10,22 21,57 33,105 12,48 18,83.33334 18,106 z" /></g><g
           transform="matrix(0.03662584,0,0,-0.0372303,518.73486,388.655)"
           id="g134"><path
             id="path136"
             style="fill:#000000;fill-opacity:1;fill-rule:nonzero;stroke:none"
             d="m 184,600 c 0,16 6.33333,30 19,42 12.66667,12 27.33333,18.33331 44,19 12,0 22,-4 30,-12 8,-8 12.33334,-18 13,-30 0,-15.33331 -6.66666,-29.33331 -20,-42 -13.33334,-12.66669 -28,-19.33331 -44,-20 -10,0 -19.33333,3.33331 -28,10 -8.66667,6.66669 -13.33333,17.66669 -14,33 z M 21,287 c 0,5.33334 3,15.66666 9,31 6,15.33334 14,32.33334 24,51 10,18.66666 24.666664,35.66666 44,51 19.33334,15.33334 39.33333,22.66666 60,22 26,0 47.66667,-7.66666 65,-23 17.33333,-15.33334 26.33333,-36 27,-62 0,-11.33334 -4.66667,-30 -14,-56 -9.33333,-26 -22.66667,-61 -40,-105 -17.33333,-44 -31.33333,-81.66666 -42,-113 -3.33333,-14.666664 -5,-25.333332 -5,-32 0,-16.666668 5.66667,-25 17,-25 6,0 12.33333,1 19,3 6.66667,2 14.33333,6.666668 23,14 8.66667,7.333332 17.66667,19 27,35 9.33333,16 17.66667,35.66666 25,59 2,8 3.66666,12.66667 5,14 1.33334,1.33333 7,2 17,2 13.33334,0 20,-3.33333 20,-10 0,-5.33333 -3,-15.66666 -9,-31 C 287,96.666664 278.66666,79.666672 268,61 257.33334,42.333332 242.33333,25.666668 223,11 203.66667,-3.666667 183,-11 161,-11 c -21.33333,0 -41,7 -59,21 -18,14 -27.333336,35.333332 -28,64 0,11.333336 1.666664,22 5,32 3.333336,10 17.666664,48 43,114 25.33333,67.33334 40,107.66666 44,121 4,13.33334 6.33333,26.33334 7,39 0,16 -5.66667,24 -17,24 h -2 c -20,0 -38.33333,-11 -55,-33 -16.666672,-22 -29.333336,-50 -38,-84 -0.666668,-0.66666 -1.333332,-1.66666 -2,-3 -0.666668,-1.33334 -1,-2.33334 -1,-3 0,-0.66666 -0.666668,-1.33334 -2,-2 -1.333332,-0.66666 -2.333332,-1 -3,-1 -0.666668,0 -2,0 -4,0 -2,0 -4.666668,0 -8,0 H 27 c -4,4 -6,7 -6,9 z" /></g></g></g><g
       id="g138"><g
         clip-path="url(#clipPath144)"
         id="g140"><g
           transform="matrix(0.05236169,0,0,-0.05498297,489.17401,158.93066)"
           id="g146"><path
             id="path148"
             style="fill:#000000;fill-opacity:1;fill-rule:nonzero;stroke:none"
             d="m 33,157 c 0,67.33334 25.333332,131.33334 76,192 50.66667,60.66666 107.66666,91.33334 171,92 34,0 64,-16.33334 90,-49 10.66666,20 26,30 46,30 8.66666,0 16.33334,-2.66666 23,-8 6.66666,-5.33334 10,-12 10,-20 0,-8.66666 -12.33334,-62 -37,-160 -24.66666,-98 -37.33334,-153.333336 -38,-166 0,-16.666668 2.33334,-27.666668 7,-33 4.66666,-5.333334 11.66666,-8.333334 21,-9 6,0.666666 12.66666,3.666666 20,9 14,13.333336 27.66666,45.333328 41,96 4,13.33333 7.33334,20.33333 10,21 1.33334,0.66667 4.66666,1 10,1 h 4 c 12.66666,0 19,-3 19,-9 0,-4 -1.66666,-13 -5,-27 C 497.66666,103 491,85 481,63 471,41 460.33334,24.333334 449,13 440.33334,4.333333 429.66666,-2.6666665 417,-8 c -5.33334,-1.333333 -13.33334,-2 -24,-2 -22.66666,0 -41.66666,5 -57,15 -15.33334,10 -25.33334,20.333332 -30,31 l -6,15 c -0.66666,0.666668 -2,0.333332 -4,-1 -1.33334,-1.333332 -2.66666,-2.666668 -4,-4 C 252.66666,8.6666641 212.66667,-10 172,-10 135.33333,-10 103,3.3333321 75,30 47,56.666668 33,99 33,157 Z m 318,171 c 0,4 -1.66666,11.33334 -5,22 -3.33334,10.66666 -11,22.33334 -23,35 -12,12.66666 -27.33334,19.33334 -46,20 -23.33333,0 -45.66667,-10.33334 -67,-31 -21.33333,-20.66666 -38,-47.66666 -50,-81 -19.33333,-52.66667 -33,-107.33333 -41,-164 0,-2 0,-5.66666 0,-11 0,-5.33334 -0.33334,-9.33334 -1,-12 0,-30 6,-50.666664 18,-62 12,-11.333336 26.33333,-17.333334 43,-18 25.33333,0 50.33333,11 75,33 24.66666,22 39.33334,39 44,51 1.33334,2.66666 10.33334,38.33333 27,107 16.66666,68.66669 25.33334,105.66666 26,111 z" /></g><g
           transform="matrix(0.03701972,0,0,-0.03887297,518.60126,167.1781)"
           id="g150"><path
             id="path152"
             style="fill:#000000;fill-opacity:1;fill-rule:nonzero;stroke:none"
             d="m 184,600 c 0,16 6.33333,30 19,42 12.66667,12 27.33333,18.33331 44,19 12,0 22,-4 30,-12 8,-8 12.33334,-18 13,-30 0,-15.33331 -6.66666,-29.33331 -20,-42 -13.33334,-12.66669 -28,-19.33331 -44,-20 -10,0 -19.33333,3.33331 -28,10 -8.66667,6.66669 -13.33333,17.66669 -14,33 z M 21,287 c 0,5.33334 3,15.66666 9,31 6,15.33334 14,32.33334 24,51 10,18.66666 24.666664,35.66666 44,51 19.33334,15.33334 39.33333,22.66666 60,22 26,0 47.66667,-7.66666 65,-23 17.33333,-15.33334 26.33333,-36 27,-62 0,-11.33334 -4.66667,-30 -14,-56 -9.33333,-26 -22.66667,-61 -40,-105 -17.33333,-44 -31.33333,-81.66666 -42,-113 -3.33333,-14.666664 -5,-25.333332 -5,-32 0,-16.666668 5.66667,-25 17,-25 6,0 12.33333,1 19,3 6.66667,2 14.33333,6.666668 23,14 8.66667,7.333332 17.66667,19 27,35 9.33333,16 17.66667,35.66666 25,59 2,8 3.66666,12.66667 5,14 1.33334,1.33333 7,2 17,2 13.33334,0 20,-3.33333 20,-10 0,-5.33333 -3,-15.66666 -9,-31 C 287,96.666664 278.66666,79.666672 268,61 257.33334,42.333332 242.33333,25.666668 223,11 203.66667,-3.666667 183,-11 161,-11 c -21.33333,0 -41,7 -59,21 -18,14 -27.333336,35.333332 -28,64 0,11.333336 1.666664,22 5,32 3.333336,10 17.666664,48 43,114 25.33333,67.33334 40,107.66666 44,121 4,13.33334 6.33333,26.33334 7,39 0,16 -5.66667,24 -17,24 h -2 c -20,0 -38.33333,-11 -55,-33 -16.666672,-22 -29.333336,-50 -38,-84 -0.666668,-0.66666 -1.333332,-1.66666 -2,-3 -0.666668,-1.33334 -1,-2.33334 -1,-3 0,-0.66666 -0.666668,-1.33334 -2,-2 -1.333332,-0.66666 -2.333332,-1 -3,-1 -0.666668,0 -2,0 -4,0 -2,0 -4.666668,0 -8,0 H 27 c -4,4 -6,7 -6,9 z" /></g></g></g><g
       id="g154"><g
         clip-path="url(#clipPath160)"
         id="g156"><g
           transform="matrix(0.05406727,0,0,-0.05521243,-1.8164113,270.67322)"
           id="g162"><path
             id="path164"
             style="fill:#000000;fill-opacity:1;fill-rule:nonzero;stroke:none"
             d="m 289,629 c 0,4 -19,6.66669 -57,8 -16,0 -26.33333,0.33331 -31,1 -4.66667,0.66669 -7,4 -7,10 0,0.66669 0.66667,4.33331 2,11 0.66667,2 1.33333,4.33331 2,7 0.66667,2.66669 1,4.33331 1,5 0,0.66669 0.66667,2.33331 2,5 1.33333,2.66669 2,3.66669 2,3 0,-0.66669 1.33333,0 4,2 2.66667,2 4.33333,2.66669 5,2 0.66667,-0.66669 3.33333,-0.66669 8,0 4.66667,0.66669 8.66667,1 12,1 4,0 14,0 30,0 16,0 31,-0.33331 45,-1 52.66666,0 83,0 91,0 8,0 13.33334,-1.66669 16,-5 0.66666,-2.66669 13,-96.66663 37,-282 l 36,-279 23,37 c 16,24 37.33331,57.33333 64,100 26.66669,42.66666 56,89.33334 88,140 116.66669,186 175.66669,279.66669 177,281 0.66669,0.66669 1.66669,1.66669 3,3 1.33331,1.33331 2.66669,2.33331 4,3 l 6,2 h 96 c 11.33331,0 24.66669,0 40,0 15.3333,0 25,0.33331 29,1 22.6666,0 34,-3.66669 34,-11 0,-3.33331 -1,-9 -3,-17 -2,-8 -3,-12.33331 -3,-13 -2.6666,-4 -15,-6 -37,-6 -26.66669,-0.66669 -43.66669,-1.66669 -51,-3 -7.33331,-1.33331 -13.33331,-5 -18,-11 -2,-3.33331 -26,-97.66663 -72,-283 C 821,154.66666 797.66669,61 797,59 c 0,-2.666668 0.33331,-4.333332 1,-5 0.66669,-0.666668 3,-2 7,-4 4,-2 9.66669,-2.666668 17,-2 7.33331,0.666668 18.33331,0 33,-2 h 31 c 4,-6 6,-9.666668 6,-11 0,-10.666668 -2.33331,-20.666666 -7,-30 -3.33331,-3.3333335 -8.66669,-5 -16,-5 -3.33331,0 -17,0.33333331 -41,1 -24,0.6666667 -54.66669,1 -92,1 -40.66669,0 -71.33331,0 -92,0 -20.66669,0 -32.33331,-0.3333333 -35,-1 -11.33331,0 -17,3.333333 -17,10 0,1.333333 0.66669,6 2,14 2.66669,10.666668 5.33331,16.666668 8,18 2.66669,1.333332 10.33331,2.333332 23,3 18,0 38,1 60,3 9.33331,2 15.66669,6 19,12 1.33331,2.666668 14,51.33333 38,146 24,94.66669 47.66669,189 71,283 23.33331,94 35,141 35,141 L 654,322 C 523.33331,114 456.33334,8.333334 453,5 451.66666,4.3333335 450.33334,3.6666667 449,3 445.66666,1 440.33334,0 433,0 423,0 417,2.333333 415,7 413.66666,9.666667 400,113 374,317 L 335,624 267,354 C 222.33333,176.66666 200,85 200,79 204,57 228,46 272,46 h 10 c 4,-3.333332 6.33334,-6.333332 7,-9 0.66666,-2.666668 -0.33334,-8.666666 -3,-18 C 283.33334,8.333333 280.66666,2.3333335 278,1 275.33334,0.33333331 271.66666,0 267,0 265.66666,0 261.66666,0 255,0 248.33333,0 237,0.33333331 221,1 205,1.6666667 183.66667,2 157,2 137,2 116.33334,1.6666667 95,1 73.666664,0.33333331 61.333332,0 58,0 48,0 41.666668,0.66666663 39,2 c -2.666668,1.3333335 -4,4.333333 -4,9 0,1.333333 1,6 3,14 2,8 3.666668,13 5,15 1.333332,4 8.666664,6 22,6 46.66667,0 76.33333,13.333332 89,40 2.66667,4 25.66666,93.33333 69,268 43.33334,174.66669 65.33334,266.33331 66,275 z" /></g><g
           transform="matrix(0.05406727,0,0,-0.05521243,18.675083,239.0365)"
           id="g166"><path
             id="path168"
             style="fill:#000000;fill-opacity:1;fill-rule:nonzero;stroke:none"
             d="m 179,251 c -10,0 -19.33333,-2 -28,-6 -8.66667,-4 -15.33333,-7.66667 -20,-11 -4.66666,-3.33333 -11.33334,-9.66667 -20,-19 l -14,12 -14,11 c 0,0.66667 4,5.66667 12,15 8,9.33334 16.66666,19.33334 26,30 9.33333,10.66666 16.33333,17.66666 21,21 15.33333,9.33334 30.33333,14 45,14 14.66667,0 36.66667,-6 66,-18 29.33334,-12 51.66666,-18 67,-18 10,0 19.33334,2 28,6 8.66666,4 15.33334,7.66666 20,11 4.66666,3.33334 11.33334,9.66666 20,19 l 14,-12 14,-11 c -27.33334,-39.33334 -51.33334,-63.66667 -72,-73 -9.33334,-4.66667 -19.66666,-7 -31,-7 -14,0 -35.66666,6 -65,18 -29.33333,12 -52.33333,18 -69,18 z" /></g><g
           transform="matrix(0.03822556,0,0,-0.03903519,59.712139,242.71916)"
           id="g170"><path
             id="path172"
             style="fill:#000000;fill-opacity:1;fill-rule:nonzero;stroke:none"
             d="m 58,-216 c -9.333336,0 -17.333332,2.66667 -24,8 -6.666668,5.33333 -10.333334,12.66667 -11,22 0,6.66667 24.333332,107.333328 73,302 48.66667,194.66669 74.33333,294 77,298 8.66667,18.66666 24,28 46,28 8,-0.66666 14.66667,-3 20,-7 5.33333,-4 8.66667,-8 10,-12 1.33333,-4 2,-7.33334 2,-10 0,-8 -10.33333,-52.66666 -31,-134 -20.66667,-81.33334 -31.66667,-127 -33,-137 -1.33333,-7.33333 -2,-19 -2,-35 v -8 c 0,-48.666668 22.33333,-73 67,-73 6,0 12,0.333334 18,1 6,0.666666 11.66666,2 17,4 5.33334,2 10.33334,4.333332 15,7 4.66666,2.666668 9,5 13,7 4,2 8,5.333332 12,10 4,4.666668 7.66666,8 11,10 3.33334,2 6.66666,6 10,12 3.33334,6 6,9.666664 8,11 2,1.333336 5,5.333336 9,12 l 7,10 36,143 c 24,94.66669 37.33334,145 40,151 8.66666,18 23,27 43,27 8.66666,0 15.66666,-2.33334 21,-7 5.33331,-4.66666 9,-8.66666 11,-12 2,-3.33334 2.66669,-6.66666 2,-10 L 449,84 c -0.66666,-3.333336 -1,-8.666664 -1,-16 0,-16.666668 2.33334,-27.666668 7,-33 4.66666,-5.333334 11.66666,-8.333334 21,-9 6,0.666666 12.66666,3.666666 20,9 14,13.333336 27.66669,45.333328 41,96 4,13.33333 7.33331,20.33333 10,21 1.33331,0.66667 4.66669,1 10,1 h 4 c 12.66669,0 19,-3 19,-9 0,-4 -1.66669,-13 -5,-27 C 571.66669,103 565,85 555,63 545,41 534.33331,24.333334 523,13 514.33331,4.333333 503.66666,-2.6666665 491,-8 c -5.33334,-1.333333 -13.33334,-2 -24,-2 -14,0 -26.66666,2 -38,6 -11.33334,4 -20.33334,9 -27,15 -6.66666,6 -12.33334,12 -17,18 -4.66666,6 -7.66666,11 -9,15 -1.33334,4 -2,6.333332 -2,7 l -6,-6 C 364,41 358,36 350,30 342,24 333.33334,18 324,12 314.66666,6 302.66666,0.66666698 288,-4 c -14.66666,-4.666667 -28.66666,-7 -42,-7 -31.33333,0 -62.33333,7.666666 -93,23 l -24,-97 c -14,-54.66667 -22.33334,-86.33333 -25,-95 -2.66666,-8.66667 -6.666664,-16 -12,-22 -10.666664,-9.33333 -22,-14 -34,-14 z" /></g><g
           transform="matrix(0.02702547,0,0,-0.02759788,84.023598,248.57445)"
           id="g174"><path
             id="path176"
             style="fill:#000000;fill-opacity:1;fill-rule:nonzero;stroke:none"
             d="m 184,600 c 0,16 6.33333,30 19,42 12.66667,12 27.33333,18.33331 44,19 12,0 22,-4 30,-12 8,-8 12.33334,-18 13,-30 0,-15.33331 -6.66666,-29.33331 -20,-42 -13.33334,-12.66669 -28,-19.33331 -44,-20 -10,0 -19.33333,3.33331 -28,10 -8.66667,6.66669 -13.33333,17.66669 -14,33 z M 21,287 c 0,5.33334 3,15.66666 9,31 6,15.33334 14,32.33334 24,51 10,18.66666 24.666664,35.66666 44,51 19.33334,15.33334 39.33333,22.66666 60,22 26,0 47.66667,-7.66666 65,-23 17.33333,-15.33334 26.33333,-36 27,-62 0,-11.33334 -4.66667,-30 -14,-56 -9.33333,-26 -22.66667,-61 -40,-105 -17.33333,-44 -31.33333,-81.66666 -42,-113 -3.33333,-14.666664 -5,-25.333332 -5,-32 0,-16.666668 5.66667,-25 17,-25 6,0 12.33333,1 19,3 6.66667,2 14.33333,6.666668 23,14 8.66667,7.333332 17.66667,19 27,35 9.33333,16 17.66667,35.66666 25,59 2,8 3.66666,12.66667 5,14 1.33334,1.33333 7,2 17,2 13.33334,0 20,-3.33333 20,-10 0,-5.33333 -3,-15.66666 -9,-31 C 287,96.666664 278.66666,79.666672 268,61 257.33334,42.333332 242.33333,25.666668 223,11 203.66667,-3.666667 183,-11 161,-11 c -21.33333,0 -41,7 -59,21 -18,14 -27.333336,35.333332 -28,64 0,11.333336 1.666664,22 5,32 3.333336,10 17.666664,48 43,114 25.33333,67.33334 40,107.66666 44,121 4,13.33334 6.33333,26.33334 7,39 0,16 -5.66667,24 -17,24 h -2 c -20,0 -38.33333,-11 -55,-33 -16.666672,-22 -29.333336,-50 -38,-84 -0.666668,-0.66666 -1.333332,-1.66666 -2,-3 -0.666668,-1.33334 -1,-2.33334 -1,-3 0,-0.66666 -0.666668,-1.33334 -2,-2 -1.333332,-0.66666 -2.333332,-1 -3,-1 -0.666668,0 -2,0 -4,0 -2,0 -4.666668,0 -8,0 H 27 c -4,4 -6,7 -6,9 z" /></g><g
           transform="matrix(0.03822556,0,0,-0.03903519,95.261909,242.71916)"
           id="g178"><path
             id="path180"
             style="fill:#000000;fill-opacity:1;fill-rule:nonzero;stroke:none"
             d="m 52,289 c 4.666668,28 22.666664,60.33334 54,97 31.33333,36.66666 70,55.33334 116,56 23.33333,0 44.66666,-6 64,-18 19.33334,-12 33.66666,-27 43,-45 28,42 61.66666,63 101,63 24.66666,0 46,-7.33334 64,-22 18,-14.66666 27.33331,-34.33334 28,-59 0,-19.33334 -4.66669,-35 -14,-47 -9.33334,-12 -18.33334,-19.33334 -27,-22 -8.66666,-2.66666 -16.33334,-4 -23,-4 -12.66666,0 -23,3.66666 -31,11 -8,7.33334 -12,17 -12,29 0,30.66666 16.66666,51.66666 50,63 -7.33334,8.66666 -20.66666,13 -40,13 -8.66666,0 -15,-0.66666 -19,-2 -25.33334,-10.66666 -44,-32.66666 -56,-66 -40,-147.33334 -60,-233.33333 -60,-258 0,-18.666668 5.33334,-32 16,-40 10.66666,-8 22.33334,-12 35,-12 24.66666,0 49,11 73,33 24,22 40.33334,49 49,81 2,6.66667 4,10.33333 6,11 2,0.66667 7.33334,1.33333 16,2 h 4 c 10,0 15,-2.66667 15,-8 0,-0.66667 -0.66666,-4.33333 -2,-11 C 491.33334,96 470.66666,62.333336 440,33 409.33334,3.666666 373.66666,-11 333,-11 286.33334,-11 251,10 227,52 199.66667,10.666664 168.33334,-10 133,-10 h -6 C 94.333328,-10 71,-1.333334 57,16 43,33.333336 35.666668,51.666664 35,71 c 0,21.333336 6.333332,38.66666 19,52 12.666664,13.33333 27.666664,20 45,20 28.66667,0 43,-14 43,-42 C 142,87.666664 138,76 130,66 122,56 114.33334,49.333332 107,46 99.666664,42.666668 95.333336,41 94,41 l -3,-1 c 0,-0.666668 2,-2 6,-4 4,-2 9.33334,-4.333334 16,-7 6.66666,-2.666666 13,-3.666666 19,-3 24,0 44.66667,15 62,45 6,10.666664 13.66667,33.33333 23,68 9.33333,34.66667 18.66667,70.66666 28,108 9.33333,37.33334 14.66666,59.33334 16,66 3.33334,18 5,31 5,39 0,18.66666 -5,32 -15,40 -10,8 -21.33333,12 -34,12 -26.66667,0 -51.66667,-10.66666 -75,-32 -23.33334,-21.33334 -39.66666,-48.66666 -49,-82 -1.333336,-6 -3,-9.33334 -5,-10 -2,-0.66666 -7.333336,-1.33334 -16,-2 H 58 c -4,4 -6,7.66666 -6,11 z" /></g><g
           transform="matrix(0.02702547,0,0,-0.02759788,118.38837,248.57445)"
           id="g182"><path
             id="path184"
             style="fill:#000000;fill-opacity:1;fill-rule:nonzero;stroke:none"
             d="m 184,600 c 0,16 6.33333,30 19,42 12.66667,12 27.33333,18.33331 44,19 12,0 22,-4 30,-12 8,-8 12.33334,-18 13,-30 0,-15.33331 -6.66666,-29.33331 -20,-42 -13.33334,-12.66669 -28,-19.33331 -44,-20 -10,0 -19.33333,3.33331 -28,10 -8.66667,6.66669 -13.33333,17.66669 -14,33 z M 21,287 c 0,5.33334 3,15.66666 9,31 6,15.33334 14,32.33334 24,51 10,18.66666 24.666664,35.66666 44,51 19.33334,15.33334 39.33333,22.66666 60,22 26,0 47.66667,-7.66666 65,-23 17.33333,-15.33334 26.33333,-36 27,-62 0,-11.33334 -4.66667,-30 -14,-56 -9.33333,-26 -22.66667,-61 -40,-105 -17.33333,-44 -31.33333,-81.66666 -42,-113 -3.33333,-14.666664 -5,-25.333332 -5,-32 0,-16.666668 5.66667,-25 17,-25 6,0 12.33333,1 19,3 6.66667,2 14.33333,6.666668 23,14 8.66667,7.333332 17.66667,19 27,35 9.33333,16 17.66667,35.66666 25,59 2,8 3.66666,12.66667 5,14 1.33334,1.33333 7,2 17,2 13.33334,0 20,-3.33333 20,-10 0,-5.33333 -3,-15.66666 -9,-31 C 287,96.666664 278.66666,79.666672 268,61 257.33334,42.333332 242.33333,25.666668 223,11 203.66667,-3.666667 183,-11 161,-11 c -21.33333,0 -41,7 -59,21 -18,14 -27.333336,35.333332 -28,64 0,11.333336 1.666664,22 5,32 3.333336,10 17.666664,48 43,114 25.33333,67.33334 40,107.66666 44,121 4,13.33334 6.33333,26.33334 7,39 0,16 -5.66667,24 -17,24 h -2 c -20,0 -38.33333,-11 -55,-33 -16.666672,-22 -29.333336,-50 -38,-84 -0.666668,-0.66666 -1.333332,-1.66666 -2,-3 -0.666668,-1.33334 -1,-2.33334 -1,-3 0,-0.66666 -0.666668,-1.33334 -2,-2 -1.333332,-0.66666 -2.333332,-1 -3,-1 -0.666668,0 -2,0 -4,0 -2,0 -4.666668,0 -8,0 H 27 c -4,4 -6,7 -6,9 z" /></g><g
           transform="matrix(0.03822556,0,0,-0.03903519,129.62286,242.71916)"
           id="g186"><path
             id="path188"
             style="fill:#000000;fill-opacity:1;fill-rule:nonzero;stroke:none"
             d="m 58,-216 c -9.333336,0 -17.333332,2.66667 -24,8 -6.666668,5.33333 -10.333334,12.66667 -11,22 0,6.66667 24.333332,107.333328 73,302 48.66667,194.66669 74.33333,294 77,298 8.66667,18.66666 24,28 46,28 8,-0.66666 14.66667,-3 20,-7 5.33333,-4 8.66667,-8 10,-12 1.33333,-4 2,-7.33334 2,-10 0,-8 -10.33333,-52.66666 -31,-134 -20.66667,-81.33334 -31.66667,-127 -33,-137 -1.33333,-7.33333 -2,-19 -2,-35 v -8 c 0,-48.666668 22.33333,-73 67,-73 6,0 12,0.333334 18,1 6,0.666666 11.66666,2 17,4 5.33334,2 10.33334,4.333332 15,7 4.66666,2.666668 9,5 13,7 4,2 8,5.333332 12,10 4,4.666668 7.66666,8 11,10 3.33334,2 6.66666,6 10,12 3.33334,6 6,9.666664 8,11 2,1.333336 5,5.333336 9,12 l 7,10 36,143 c 24,94.66669 37.33334,145 40,151 8.66666,18 23,27 43,27 8.66666,0 15.66666,-2.33334 21,-7 5.33331,-4.66666 9,-8.66666 11,-12 2,-3.33334 2.66669,-6.66666 2,-10 L 449,84 c -0.66666,-3.333336 -1,-8.666664 -1,-16 0,-16.666668 2.33334,-27.666668 7,-33 4.66666,-5.333334 11.66666,-8.333334 21,-9 6,0.666666 12.66666,3.666666 20,9 14,13.333336 27.66669,45.333328 41,96 4,13.33333 7.33331,20.33333 10,21 1.33331,0.66667 4.66669,1 10,1 h 4 c 12.66669,0 19,-3 19,-9 0,-4 -1.66669,-13 -5,-27 C 571.66669,103 565,85 555,63 545,41 534.33331,24.333334 523,13 514.33331,4.333333 503.66666,-2.6666665 491,-8 c -5.33334,-1.333333 -13.33334,-2 -24,-2 -14,0 -26.66666,2 -38,6 -11.33334,4 -20.33334,9 -27,15 -6.66666,6 -12.33334,12 -17,18 -4.66666,6 -7.66666,11 -9,15 -1.33334,4 -2,6.333332 -2,7 l -6,-6 C 364,41 358,36 350,30 342,24 333.33334,18 324,12 314.66666,6 302.66666,0.66666698 288,-4 c -14.66666,-4.666667 -28.66666,-7 -42,-7 -31.33333,0 -62.33333,7.666666 -93,23 l -24,-97 c -14,-54.66667 -22.33334,-86.33333 -25,-95 -2.66666,-8.66667 -6.666664,-16 -12,-22 -10.666664,-9.33333 -22,-14 -34,-14 z" /></g><g
           transform="matrix(0.02702547,0,0,-0.02759788,153.93431,248.57445)"
           id="g190"><path
             id="path192"
             style="fill:#000000;fill-opacity:1;fill-rule:nonzero;stroke:none"
             d="m 21,287 c 0.666666,4 1.666666,9.33334 3,16 1.333334,6.66666 5.333332,19.33334 12,38 6.666668,18.66666 13.333332,34.33334 20,47 6.666668,12.66666 17.666664,25 33,37 15.33334,12 30.66666,17.66666 46,17 24,0 44,-6 60,-18 16,-12 26,-23.33334 30,-34 4,-10.66666 6,-17.66666 6,-21 0,-1.33334 0.33333,-2 1,-2 l 11,11 c 40.66666,42.66666 87,64 139,64 36,0 65,-9 87,-27 22,-18 33.33334,-44.33334 34,-79 0.66666,-34.66666 -12,-87 -38,-157 -26,-70 -38.66666,-112.333336 -38,-127 0,-17.333336 5.66666,-26 17,-26 4,0 7,0.333334 9,1 19.33334,3.333334 36.66666,16 52,38 15.33331,22 27,48.66666 35,80 1.33331,5.33333 8,8 20,8 13.33331,0 20,-2.66667 20,-8 0,-0.66667 -1.33331,-5.66667 -4,-15 -5.33331,-19.33334 -12.66669,-38.333328 -22,-57 -9.33331,-18.666668 -24.66669,-37.333332 -46,-56 -21.33334,-18.6666679 -44.33334,-27.666667 -69,-27 -31.33334,0 -54,9 -68,27 -14,18 -21,36.666664 -21,56 0,12.666664 12,52.66666 36,120 24,67.33334 36.33334,118 37,152 0,39.33334 -14.66666,59 -44,59 h -5 C 316.66666,404 268.33334,370.33334 229,303 L 222,291 189,157 C 167,69.666664 154.33333,22.666668 151,16 c -8.66667,-18 -23,-27 -43,-27 -8.666664,0 -15.666664,2 -21,6 -5.333336,4 -9,8 -11,12 -2,4 -2.666664,7.333333 -2,10 0,8.666668 12.666664,63 38,163 25.33333,100 38.66667,154.33334 40,163 0.66667,3.33334 1,11 1,23 0,26 -8,39 -24,39 -25.33334,0 -46.333328,-33.33331 -63,-100 -4,-13.33334 -6,-20.33334 -6,-21 -1.333332,-4 -7.666664,-6 -19,-6 H 27 c -4,4 -6,7 -6,9 z" /></g><g
           transform="matrix(0.02702547,0,0,-0.02759788,170.1496,248.57445)"
           id="g194"><path
             id="path196"
             style="fill:#000000;fill-opacity:1;fill-rule:nonzero;stroke:none"
             d="m 84,237 c 0,0 0,4.33333 0,13 0,8.66666 4.666664,15.33334 14,20 h 581 c 10,-5.33334 15,-12 15,-20 0,-8 -5,-14.66667 -15,-20 H 98 c -9.333336,4.66667 -14,11.33333 -14,20 z" /></g><g
           transform="matrix(0.02702547,0,0,-0.02759788,191.17542,248.57445)"
           id="g198"><path
             id="path200"
             style="fill:#000000;fill-opacity:1;fill-rule:nonzero;stroke:none"
             d="m 213,578 -13,-5 c -9.33333,-3.33331 -22.66667,-6.66669 -40,-10 -17.33333,-3.33331 -36.66666,-5.66669 -58,-7 H 83 v 46 h 19 c 31.33333,1.33331 60.33333,6.33331 87,15 26.66667,8.66669 45.33333,16.66669 56,24 10.66667,7.33331 20,14.66669 28,22 1.33334,2 5.33334,3 12,3 6,0 11.66666,-2 17,-6 V 361 l 1,-300 c 4.66666,-4.666668 8.66666,-7.666668 12,-9 3.33334,-1.333332 11.33334,-2.666668 24,-4 12.66666,-1.333332 33.33334,-2 62,-2 h 26 V 0 H 416 C 402,2 349,3 257,3 166.33333,3 114,2 100,0 H 88 v 46 h 26 c 14.66667,0 27.33333,0 38,0 10.66667,0 19,0.333332 25,1 6,0.666668 11.33333,1.666668 16,3 4.66667,1.333332 7.33333,2 8,2 0.66667,0 2.66667,1.666668 6,5 3.33333,3.333332 5.33333,4.666668 6,4 z" /></g><g
           transform="matrix(0.03822556,0,0,-0.03903519,52.413059,286.89462)"
           id="g202"><path
             id="path204"
             style="fill:#000000;fill-opacity:1;fill-rule:nonzero;stroke:none"
             d="m 184,600 c 0,16 6.33333,30 19,42 12.66667,12 27.33333,18.33331 44,19 12,0 22,-4 30,-12 8,-8 12.33334,-18 13,-30 0,-15.33331 -6.66666,-29.33331 -20,-42 -13.33334,-12.66669 -28,-19.33331 -44,-20 -10,0 -19.33333,3.33331 -28,10 -8.66667,6.66669 -13.33333,17.66669 -14,33 z M 21,287 c 0,5.33334 3,15.66666 9,31 6,15.33334 14,32.33334 24,51 10,18.66666 24.666664,35.66666 44,51 19.33334,15.33334 39.33333,22.66666 60,22 26,0 47.66667,-7.66666 65,-23 17.33333,-15.33334 26.33333,-36 27,-62 0,-11.33334 -4.66667,-30 -14,-56 -9.33333,-26 -22.66667,-61 -40,-105 -17.33333,-44 -31.33333,-81.66666 -42,-113 -3.33333,-14.666664 -5,-25.333332 -5,-32 0,-16.666668 5.66667,-25 17,-25 6,0 12.33333,1 19,3 6.66667,2 14.33333,6.666668 23,14 8.66667,7.333332 17.66667,19 27,35 9.33333,16 17.66667,35.66666 25,59 2,8 3.66666,12.66667 5,14 1.33334,1.33333 7,2 17,2 13.33334,0 20,-3.33333 20,-10 0,-5.33333 -3,-15.66666 -9,-31 C 287,96.666664 278.66666,79.666672 268,61 257.33334,42.333332 242.33333,25.666668 223,11 203.66667,-3.666667 183,-11 161,-11 c -21.33333,0 -41,7 -59,21 -18,14 -27.333336,35.333332 -28,64 0,11.333336 1.666664,22 5,32 3.333336,10 17.666664,48 43,114 25.33333,67.33334 40,107.66666 44,121 4,13.33334 6.33333,26.33334 7,39 0,16 -5.66667,24 -17,24 h -2 c -20,0 -38.33333,-11 -55,-33 -16.666672,-22 -29.333336,-50 -38,-84 -0.666668,-0.66666 -1.333332,-1.66666 -2,-3 -0.666668,-1.33334 -1,-2.33334 -1,-3 0,-0.66666 -0.666668,-1.33334 -2,-2 -1.333332,-0.66666 -2.333332,-1 -3,-1 -0.666668,0 -2,0 -4,0 -2,0 -4.666668,0 -8,0 H 27 c -4,4 -6,7 -6,9 z" /></g><g
           transform="matrix(0.05406727,0,0,-0.05521243,224.35237,270.67322)"
           id="g206"><path
             id="path208"
             style="fill:#000000;fill-opacity:1;fill-rule:nonzero;stroke:none"
             d="m 56,347 c 0,8.66666 4.666664,15.33334 14,20 h 637 c 10,-5.33334 15,-12 15,-20 0,-7.33334 -4.66669,-13.66666 -14,-19 L 390,327 H 72 c -10.666668,3.33334 -16,10 -16,20 z m 0,-194 c 0,10 5.333332,16.66667 16,20 h 636 c 9.33331,-6.66667 14,-13.33333 14,-20 0,-8.66667 -5,-15.33333 -15,-20 H 70 c -9.333336,4.66667 -14,11.33333 -14,20 z" /></g></g></g></g></svg>