<?xml version="1.0" encoding="UTF-8" standalone="no"?>
<svg
   xmlns:dc="http://purl.org/dc/elements/1.1/"
   xmlns:cc="http://creativecommons.org/ns#"
   xmlns:rdf="http://www.w3.org/1999/02/22-rdf-syntax-ns#"
   xmlns:svg="http://www.w3.org/2000/svg"
   xmlns="http://www.w3.org/2000/svg"
   viewBox="0 0 240 64"
   height="64"
   width="240"
   xml:space="preserve"
   id="svg2"
   version="1.1"><metadata
     id="metadata8"><rdf:RDF><cc:Work
         rdf:about=""><dc:format>image/svg+xml</dc:format><dc:type
           rdf:resource="http://purl.org/dc/dcmitype/StillImage" /></cc:Work></rdf:RDF></metadata><defs
     id="defs6"><clipPath
       id="clipPath18"
       clipPathUnits="userSpaceOnUse"><path
         style="clip-rule:evenodd"
         id="path16"
         d="m 686.59125,152.23883 h 56.71643 v 35.8208 h -56.71643 z" /></clipPath><clipPath
       id="clipPath34"
       clipPathUnits="userSpaceOnUse"><path
         style="clip-rule:evenodd"
         id="path32"
         d="M 337.33746,0 H 444.80017 V 35.820862 H 337.33746 Z" /></clipPath><clipPath
       id="clipPath58"
       clipPathUnits="userSpaceOnUse"><path
         style="clip-rule:evenodd"
         id="path56"
         d="M 0,0 H 750 V 200.97656 H 0 Z" /></clipPath><clipPath
       id="clipPath70"
       clipPathUnits="userSpaceOnUse"><path
         style="clip-rule:evenodd"
         id="path68"
         d="m 686.59125,0 h 56.71643 v 35.820862 h -56.71643 z" /></clipPath><clipPath
       id="clipPath86"
       clipPathUnits="userSpaceOnUse"><path
         style="clip-rule:evenodd"
         id="path84"
         d="M 0.02404785,71.641785 H 289.5763 V 116.41791 H 0.02404785 Z" /></clipPath><clipPath
       id="clipPath146"
       clipPathUnits="userSpaceOnUse"><path
         style="clip-rule:evenodd"
         id="path144"
         d="m 337.33746,152.23883 h 107.46271 v 35.8208 H 337.33746 Z" /></clipPath><clipPath
       id="clipPath170"
       clipPathUnits="userSpaceOnUse"><path
         style="clip-rule:evenodd"
         id="path168"
         d="M 0,0 H 750 V 200.97656 H 0 Z" /></clipPath><clipPath
       id="clipPath192"
       clipPathUnits="userSpaceOnUse"><path
         style="clip-rule:evenodd"
         id="path190"
         d="m 546.29266,76.119385 h 38.80597 v 35.820895 h -38.80597 z" /></clipPath></defs><g
     transform="matrix(0.31999998,0,0,0.31999998,0,1.6e-6)"
     id="g10"><g
       id="g12"><g
         clip-path="url(#clipPath18)"
         id="g14"><g
           transform="matrix(0.05455209,0,0,-0.05443905,686.59326,176.30089)"
           id="g20"><path
             id="path22"
             style="fill:#000000;fill-opacity:1;fill-rule:nonzero;stroke:none"
             d="m 58,-216 c -9.333336,0 -17.333332,2.66667 -24,8 -6.666668,5.33333 -10.333334,12.66667 -11,22 0,6.66667 24.333332,107.333328 73,302 48.66667,194.66669 74.33333,294 77,298 8.66667,18.66666 24,28 46,28 8,-0.66666 14.66667,-3 20,-7 5.33333,-4 8.66667,-8 10,-12 1.33333,-4 2,-7.33334 2,-10 0,-8 -10.33333,-52.66666 -31,-134 -20.66667,-81.33334 -31.66667,-127 -33,-137 -1.33333,-7.33333 -2,-19 -2,-35 v -8 c 0,-48.666668 22.33333,-73 67,-73 6,0 12,0.333334 18,1 6,0.666666 11.66666,2 17,4 5.33334,2 10.33334,4.333332 15,7 4.66666,2.666668 9,5 13,7 4,2 8,5.333332 12,10 4,4.666668 7.66666,8 11,10 3.33334,2 6.66666,6 10,12 3.33334,6 6,9.666664 8,11 2,1.333336 5,5.333336 9,12 l 7,10 36,143 c 24,94.66669 37.33334,145 40,151 8.66666,18 23,27 43,27 8.66666,0 15.66666,-2.33334 21,-7 5.33331,-4.66666 9,-8.66666 11,-12 2,-3.33334 2.66669,-6.66666 2,-10 L 449,84 c -0.66666,-3.333336 -1,-8.666664 -1,-16 0,-16.666668 2.33334,-27.666668 7,-33 4.66666,-5.333334 11.66666,-8.333334 21,-9 6,0.666666 12.66666,3.666666 20,9 14,13.333336 27.66669,45.333328 41,96 4,13.33333 7.33331,20.33333 10,21 1.33331,0.66667 4.66669,1 10,1 h 4 c 12.66669,0 19,-3 19,-9 0,-4 -1.66669,-13 -5,-27 C 571.66669,103 565,85 555,63 545,41 534.33331,24.333334 523,13 514.33331,4.333333 503.66666,-2.6666665 491,-8 c -5.33334,-1.333333 -13.33334,-2 -24,-2 -14,0 -26.66666,2 -38,6 -11.33334,4 -20.33334,9 -27,15 -6.66666,6 -12.33334,12 -17,18 -4.66666,6 -7.66666,11 -9,15 -1.33334,4 -2,6.333332 -2,7 l -6,-6 C 364,41 358,36 350,30 342,24 333.33334,18 324,12 314.66666,6 302.66666,0.66666698 288,-4 c -14.66666,-4.666667 -28.66666,-7 -42,-7 -31.33333,0 -62.33333,7.666666 -93,23 l -24,-97 c -14,-54.66667 -22.33334,-86.33333 -25,-95 -2.66666,-8.66667 -6.666664,-16 -12,-22 -10.666664,-9.33333 -22,-14 -34,-14 z" /></g><g
           transform="matrix(0.03856833,0,0,-0.03848841,721.28839,184.46675)"
           id="g24"><path
             id="path26"
             style="fill:#000000;fill-opacity:1;fill-rule:nonzero;stroke:none"
             d="m 213,578 -13,-5 c -9.33333,-3.33331 -22.66667,-6.66669 -40,-10 -17.33333,-3.33331 -36.66666,-5.66669 -58,-7 H 83 v 46 h 19 c 31.33333,1.33331 60.33333,6.33331 87,15 26.66667,8.66669 45.33333,16.66669 56,24 10.66667,7.33331 20,14.66669 28,22 1.33334,2 5.33334,3 12,3 6,0 11.66666,-2 17,-6 V 361 l 1,-300 c 4.66666,-4.666668 8.66666,-7.666668 12,-9 3.33334,-1.333332 11.33334,-2.666668 24,-4 12.66666,-1.333332 33.33334,-2 62,-2 h 26 V 0 H 416 C 402,2 349,3 257,3 166.33333,3 114,2 100,0 H 88 v 46 h 26 c 14.66667,0 27.33333,0 38,0 10.66667,0 19,0.333332 25,1 6,0.666668 11.33333,1.666668 16,3 4.66667,1.333332 7.33333,2 8,2 0.66667,0 2.66667,1.666668 6,5 3.33333,3.333332 5.33333,4.666668 6,4 z" /></g></g></g><g
       id="g28"><g
         clip-path="url(#clipPath34)"
         id="g30"><g
           transform="matrix(0.05336049,0,0,-0.05443423,337.33746,24.061518)"
           id="g36"><path
             id="path38"
             style="fill:#000000;fill-opacity:1;fill-rule:nonzero;stroke:none"
             d="m 58,-216 c -9.333336,0 -17.333332,2.66667 -24,8 -6.666668,5.33333 -10.333334,12.66667 -11,22 0,6.66667 24.333332,107.333328 73,302 48.66667,194.66669 74.33333,294 77,298 8.66667,18.66666 24,28 46,28 8,-0.66666 14.66667,-3 20,-7 5.33333,-4 8.66667,-8 10,-12 1.33333,-4 2,-7.33334 2,-10 0,-8 -10.33333,-52.66666 -31,-134 -20.66667,-81.33334 -31.66667,-127 -33,-137 -1.33333,-7.33333 -2,-19 -2,-35 v -8 c 0,-48.666668 22.33333,-73 67,-73 6,0 12,0.333334 18,1 6,0.666666 11.66666,2 17,4 5.33334,2 10.33334,4.333332 15,7 4.66666,2.666668 9,5 13,7 4,2 8,5.333332 12,10 4,4.666668 7.66666,8 11,10 3.33334,2 6.66666,6 10,12 3.33334,6 6,9.666664 8,11 2,1.333336 5,5.333336 9,12 l 7,10 36,143 c 24,94.66669 37.33334,145 40,151 8.66666,18 23,27 43,27 8.66666,0 15.66666,-2.33334 21,-7 5.33331,-4.66666 9,-8.66666 11,-12 2,-3.33334 2.66669,-6.66666 2,-10 L 449,84 c -0.66666,-3.333336 -1,-8.666664 -1,-16 0,-16.666668 2.33334,-27.666668 7,-33 4.66666,-5.333334 11.66666,-8.333334 21,-9 6,0.666666 12.66666,3.666666 20,9 14,13.333336 27.66669,45.333328 41,96 4,13.33333 7.33331,20.33333 10,21 1.33331,0.66667 4.66669,1 10,1 h 4 c 12.66669,0 19,-3 19,-9 0,-4 -1.66669,-13 -5,-27 C 571.66669,103 565,85 555,63 545,41 534.33331,24.333334 523,13 514.33331,4.333333 503.66666,-2.6666665 491,-8 c -5.33334,-1.333333 -13.33334,-2 -24,-2 -14,0 -26.66666,2 -38,6 -11.33334,4 -20.33334,9 -27,15 -6.66666,6 -12.33334,12 -17,18 -4.66666,6 -7.66666,11 -9,15 -1.33334,4 -2,6.333332 -2,7 l -6,-6 C 364,41 358,36 350,30 342,24 333.33334,18 324,12 314.66666,6 302.66666,0.66666698 288,-4 c -14.66666,-4.666667 -28.66666,-7 -42,-7 -31.33333,0 -62.33333,7.666666 -93,23 l -24,-97 c -14,-54.66667 -22.33334,-86.33333 -25,-95 -2.66666,-8.66667 -6.666664,-16 -12,-22 -10.666664,-9.33333 -22,-14 -34,-14 z" /></g><g
           transform="matrix(0.03772587,0,0,-0.038485,371.27472,32.226654)"
           id="g40"><path
             id="path42"
             style="fill:#000000;fill-opacity:1;fill-rule:nonzero;stroke:none"
             d="m 21,287 c 0.666666,4 1.666666,9.33334 3,16 1.333334,6.66666 5.333332,19.33334 12,38 6.666668,18.66666 13.333332,34.33334 20,47 6.666668,12.66666 17.666664,25 33,37 15.33334,12 30.66666,17.66666 46,17 24,0 44,-6 60,-18 16,-12 26,-23.33334 30,-34 4,-10.66666 6,-17.66666 6,-21 0,-1.33334 0.33333,-2 1,-2 l 11,11 c 40.66666,42.66666 87,64 139,64 36,0 65,-9 87,-27 22,-18 33.33334,-44.33334 34,-79 0.66666,-34.66666 -12,-87 -38,-157 -26,-70 -38.66666,-112.333336 -38,-127 0,-17.333336 5.66666,-26 17,-26 4,0 7,0.333334 9,1 19.33334,3.333334 36.66666,16 52,38 15.33331,22 27,48.66666 35,80 1.33331,5.33333 8,8 20,8 13.33331,0 20,-2.66667 20,-8 0,-0.66667 -1.33331,-5.66667 -4,-15 -5.33331,-19.33334 -12.66669,-38.333328 -22,-57 -9.33331,-18.666668 -24.66669,-37.333332 -46,-56 -21.33334,-18.6666679 -44.33334,-27.666667 -69,-27 -31.33334,0 -54,9 -68,27 -14,18 -21,36.666664 -21,56 0,12.666664 12,52.66666 36,120 24,67.33334 36.33334,118 37,152 0,39.33334 -14.66666,59 -44,59 h -5 C 316.66666,404 268.33334,370.33334 229,303 L 222,291 189,157 C 167,69.666664 154.33333,22.666668 151,16 c -8.66667,-18 -23,-27 -43,-27 -8.666664,0 -15.666664,2 -21,6 -5.333336,4 -9,8 -11,12 -2,4 -2.666664,7.333333 -2,10 0,8.666668 12.666664,63 38,163 25.33333,100 38.66667,154.33334 40,163 0.66667,3.33334 1,11 1,23 0,26 -8,39 -24,39 -25.33334,0 -46.333328,-33.33331 -63,-100 -4,-13.33334 -6,-20.33334 -6,-21 -1.333332,-4 -7.666664,-6 -19,-6 H 27 c -4,4 -6,7 -6,9 z" /></g><g
           transform="matrix(0.03772587,0,0,-0.038485,393.91025,32.226654)"
           id="g44"><path
             id="path46"
             style="fill:#000000;fill-opacity:1;fill-rule:nonzero;stroke:none"
             d="m 84,237 c 0,0 0,4.33333 0,13 0,8.66666 4.666664,15.33334 14,20 h 581 c 10,-5.33334 15,-12 15,-20 0,-8 -5,-14.66667 -15,-20 H 98 c -9.333336,4.66667 -14,11.33333 -14,20 z" /></g><g
           transform="matrix(0.03772587,0,0,-0.038485,423.26099,32.226654)"
           id="g48"><path
             id="path50"
             style="fill:#000000;fill-opacity:1;fill-rule:nonzero;stroke:none"
             d="m 213,578 -13,-5 c -9.33333,-3.33331 -22.66667,-6.66669 -40,-10 -17.33333,-3.33331 -36.66666,-5.66669 -58,-7 H 83 v 46 h 19 c 31.33333,1.33331 60.33333,6.33331 87,15 26.66667,8.66669 45.33333,16.66669 56,24 10.66667,7.33331 20,14.66669 28,22 1.33334,2 5.33334,3 12,3 6,0 11.66666,-2 17,-6 V 361 l 1,-300 c 4.66666,-4.666668 8.66666,-7.666668 12,-9 3.33334,-1.333332 11.33334,-2.666668 24,-4 12.66666,-1.333332 33.33334,-2 62,-2 h 26 V 0 H 416 C 402,2 349,3 257,3 166.33333,3 114,2 100,0 H 88 v 46 h 26 c 14.66667,0 27.33333,0 38,0 10.66667,0 19,0.333332 25,1 6,0.666668 11.33333,1.666668 16,3 4.66667,1.333332 7.33333,2 8,2 0.66667,0 2.66667,1.666668 6,5 3.33333,3.333332 5.33333,4.666668 6,4 z" /></g></g></g><g
       id="g52"><g
         clip-path="url(#clipPath58)"
         id="g54"><g
           transform="matrix(2.9850748,0,0,2.9850748,-685.05066,-888.05969)"
           id="g60"><path
             id="path62"
             style="fill:#000000;fill-opacity:1;fill-rule:nonzero;stroke:none"
             d="m 404.5,359.5 h 3 v 3 h -3 m 12,-3 h 3 v 3 h -3 m 12,-3 h 3 v 3 h -3" /></g></g></g><g
       id="g64"><g
         clip-path="url(#clipPath70)"
         id="g66"><g
           transform="matrix(0.05455209,0,0,-0.05443905,686.59326,24.062061)"
           id="g72"><path
             id="path74"
             style="fill:#000000;fill-opacity:1;fill-rule:nonzero;stroke:none"
             d="m 58,-216 c -9.333336,0 -17.333332,2.66667 -24,8 -6.666668,5.33333 -10.333334,12.66667 -11,22 0,6.66667 24.333332,107.333328 73,302 48.66667,194.66669 74.33333,294 77,298 8.66667,18.66666 24,28 46,28 8,-0.66666 14.66667,-3 20,-7 5.33333,-4 8.66667,-8 10,-12 1.33333,-4 2,-7.33334 2,-10 0,-8 -10.33333,-52.66666 -31,-134 -20.66667,-81.33334 -31.66667,-127 -33,-137 -1.33333,-7.33333 -2,-19 -2,-35 v -8 c 0,-48.666668 22.33333,-73 67,-73 6,0 12,0.333334 18,1 6,0.666666 11.66666,2 17,4 5.33334,2 10.33334,4.333332 15,7 4.66666,2.666668 9,5 13,7 4,2 8,5.333332 12,10 4,4.666668 7.66666,8 11,10 3.33334,2 6.66666,6 10,12 3.33334,6 6,9.666664 8,11 2,1.333336 5,5.333336 9,12 l 7,10 36,143 c 24,94.66669 37.33334,145 40,151 8.66666,18 23,27 43,27 8.66666,0 15.66666,-2.33334 21,-7 5.33331,-4.66666 9,-8.66666 11,-12 2,-3.33334 2.66669,-6.66666 2,-10 L 449,84 c -0.66666,-3.333336 -1,-8.666664 -1,-16 0,-16.666668 2.33334,-27.666668 7,-33 4.66666,-5.333334 11.66666,-8.333334 21,-9 6,0.666666 12.66666,3.666666 20,9 14,13.333336 27.66669,45.333328 41,96 4,13.33333 7.33331,20.33333 10,21 1.33331,0.66667 4.66669,1 10,1 h 4 c 12.66669,0 19,-3 19,-9 0,-4 -1.66669,-13 -5,-27 C 571.66669,103 565,85 555,63 545,41 534.33331,24.333334 523,13 514.33331,4.333333 503.66666,-2.6666665 491,-8 c -5.33334,-1.333333 -13.33334,-2 -24,-2 -14,0 -26.66666,2 -38,6 -11.33334,4 -20.33334,9 -27,15 -6.66666,6 -12.33334,12 -17,18 -4.66666,6 -7.66666,11 -9,15 -1.33334,4 -2,6.333332 -2,7 l -6,-6 C 364,41 358,36 350,30 342,24 333.33334,18 324,12 314.66666,6 302.66666,0.66666698 288,-4 c -14.66666,-4.666667 -28.66666,-7 -42,-7 -31.33333,0 -62.33333,7.666666 -93,23 l -24,-97 c -14,-54.66667 -22.33334,-86.33333 -25,-95 -2.66666,-8.66667 -6.666664,-16 -12,-22 -10.666664,-9.33333 -22,-14 -34,-14 z" /></g><g
           transform="matrix(0.03856833,0,0,-0.03848841,721.28839,32.227921)"
           id="g76"><path
             id="path78"
             style="fill:#000000;fill-opacity:1;fill-rule:nonzero;stroke:none"
             d="m 96,585 c 37.33334,54 88.33333,81 153,81 32,0 64,-8.66669 96,-26 32,-17.33331 58,-48 78,-92 24.66666,-55.33334 37,-131.33331 37,-228 C 460,216.66666 445.66666,137.66667 417,83 403.66666,55 385.33334,32.666668 362,16 338.66666,-0.66666794 318.33334,-11 301,-15 c -17.33334,-4 -34.33334,-6.333334 -51,-7 -17.33333,0 -34.66667,2 -52,6 -17.33333,4 -37.66667,14.666666 -61,32 C 113.66666,33.333336 95.333336,55.666664 82,83 53.333332,137.66667 39,216.66666 39,320 39,436 58,524.33331 96,585 Z m 225,12 c -20,21.33331 -43.66666,32 -71,32 -28,0 -52,-10.66669 -72,-32 -16.66667,-17.33331 -27.66667,-41.33331 -33,-72 -5.33333,-30.66666 -8,-94.66666 -8,-192 0,-105.33334 2.66667,-174.66666 8,-208 5.33333,-33.333336 17.33333,-59.666664 36,-79 18.66667,-20 41.66667,-30 69,-30 26.66666,0 49.33334,10 68,30 19.33334,20 31.33334,48 36,84 4.66666,36 7.33334,103.66666 8,203 0,96.66669 -2.66666,160.33334 -8,191 -5.33334,30.66669 -16.33334,55 -33,73 z" /></g></g></g><g
       id="g80"><g
         clip-path="url(#clipPath86)"
         id="g82"><g
           transform="matrix(0.05377242,0,0,-0.0554503,0.07977038,111.87098)"
           id="g88"><path
             id="path90"
             style="fill:#000000;fill-opacity:1;fill-rule:nonzero;stroke:none"
             d="m 40,437 c -12.666668,0 -19,2.66666 -19,8 0,3.33334 5.333332,22 16,56 10.666668,34 22,67.66669 34,101 l 17,49 c 3.333336,12 7.666664,20.66669 13,26 h 468 90 c 21.33331,0 34,-0.33331 38,-1 4,-0.66669 6.33331,-3.66669 7,-9 0,-4 -5.66669,-42 -17,-114 -11.33331,-72 -17.66669,-108.33334 -19,-109 0,-4.66666 -6.33331,-7 -19,-7 -6,0 -10,0 -12,0 -2,0 -4,1.66666 -6,5 l -2,3 c 0,4 2,19 6,45 4,26 6,46.33331 6,61 0,23.33331 -4.33331,41 -13,53 -8.66669,12 -27,20.33331 -55,25 -3.33331,0.66669 -22.66669,1.33331 -58,2 -30.66666,0 -50,-0.33331 -58,-1 -8,-0.66669 -14,-3.33331 -18,-8 -0.66666,-0.66669 -24.33334,-93.66663 -71,-279 C 321.33334,157.66666 298,63.333332 298,60 c 0,-8 29.33334,-12.666668 88,-14 21.33334,0 35,-0.333332 41,-1 6,-0.666668 9,-3.666668 9,-9 0,-3.333332 -1,-8 -3,-14 -2.66666,-12 -5.66666,-19 -9,-21 l -2,-1 c -2,0 -4.33334,0 -7,0 -3.33334,0 -20.66666,0.33333331 -52,1 C 331.66666,1.6666667 286.66666,2 228,2 142,2 87.333336,1.3333334 64,0 H 49 c -4,4 -6,7 -6,9 0,2 0.666668,8 2,18 2.666668,8.666668 6,15 10,19 h 28 11 c 53.33334,0 85,3 95,9 0.66667,0.666668 1.33333,1 2,1 3.33333,2 6.66667,8.666664 10,20 3.33333,11.333336 16.66667,63.66666 40,157 11.33333,45.33334 20.66666,82.33334 28,111 46.66666,183.33337 70,277 70,281 0,3.33331 -9.66666,5 -29,5 h -31 c -44.66667,0 -74,-2 -88,-6 -30,-6.66669 -53.33333,-20.33331 -70,-41 -16.66667,-20.66669 -34.666664,-59.33331 -54,-116 -4.666668,-14.66666 -8,-23.33334 -10,-26 -2,-2.66666 -6.666668,-4 -14,-4 z" /></g><g
           transform="matrix(0.0380171,0,0,-0.03920336,42.721298,88.970001)"
           id="g92"><path
             id="path94"
             style="fill:#000000;fill-opacity:1;fill-rule:nonzero;stroke:none"
             d="m 58,-216 c -9.333336,0 -17.333332,2.66667 -24,8 -6.666668,5.33333 -10.333334,12.66667 -11,22 0,6.66667 24.333332,107.333328 73,302 48.66667,194.66669 74.33333,294 77,298 8.66667,18.66666 24,28 46,28 8,-0.66666 14.66667,-3 20,-7 5.33333,-4 8.66667,-8 10,-12 1.33333,-4 2,-7.33334 2,-10 0,-8 -10.33333,-52.66666 -31,-134 -20.66667,-81.33334 -31.66667,-127 -33,-137 -1.33333,-7.33333 -2,-19 -2,-35 v -8 c 0,-48.666668 22.33333,-73 67,-73 6,0 12,0.333334 18,1 6,0.666666 11.66666,2 17,4 5.33334,2 10.33334,4.333332 15,7 4.66666,2.666668 9,5 13,7 4,2 8,5.333332 12,10 4,4.666668 7.66666,8 11,10 3.33334,2 6.66666,6 10,12 3.33334,6 6,9.666664 8,11 2,1.333336 5,5.333336 9,12 l 7,10 36,143 c 24,94.66669 37.33334,145 40,151 8.66666,18 23,27 43,27 8.66666,0 15.66666,-2.33334 21,-7 5.33331,-4.66666 9,-8.66666 11,-12 2,-3.33334 2.66669,-6.66666 2,-10 L 449,84 c -0.66666,-3.333336 -1,-8.666664 -1,-16 0,-16.666668 2.33334,-27.666668 7,-33 4.66666,-5.333334 11.66666,-8.333334 21,-9 6,0.666666 12.66666,3.666666 20,9 14,13.333336 27.66669,45.333328 41,96 4,13.33333 7.33331,20.33333 10,21 1.33331,0.66667 4.66669,1 10,1 h 4 c 12.66669,0 19,-3 19,-9 0,-4 -1.66669,-13 -5,-27 C 571.66669,103 565,85 555,63 545,41 534.33331,24.333334 523,13 514.33331,4.333333 503.66666,-2.6666665 491,-8 c -5.33334,-1.333333 -13.33334,-2 -24,-2 -14,0 -26.66666,2 -38,6 -11.33334,4 -20.33334,9 -27,15 -6.66666,6 -12.33334,12 -17,18 -4.66666,6 -7.66666,11 -9,15 -1.33334,4 -2,6.333332 -2,7 l -6,-6 C 364,41 358,36 350,30 342,24 333.33334,18 324,12 314.66666,6 302.66666,0.66666698 288,-4 c -14.66666,-4.666667 -28.66666,-7 -42,-7 -31.33333,0 -62.33333,7.666666 -93,23 l -24,-97 c -14,-54.66667 -22.33334,-86.33333 -25,-95 -2.66666,-8.66667 -6.666664,-16 -12,-22 -10.666664,-9.33333 -22,-14 -34,-14 z" /></g><g
           transform="matrix(0.02687809,0,0,-0.02771678,66.900177,94.85051)"
           id="g96"><path
             id="path98"
             style="fill:#000000;fill-opacity:1;fill-rule:nonzero;stroke:none"
             d="m 96,585 c 37.33334,54 88.33333,81 153,81 32,0 64,-8.66669 96,-26 32,-17.33331 58,-48 78,-92 24.66666,-55.33334 37,-131.33331 37,-228 C 460,216.66666 445.66666,137.66667 417,83 403.66666,55 385.33334,32.666668 362,16 338.66666,-0.66666794 318.33334,-11 301,-15 c -17.33334,-4 -34.33334,-6.333334 -51,-7 -17.33333,0 -34.66667,2 -52,6 -17.33333,4 -37.66667,14.666666 -61,32 C 113.66666,33.333336 95.333336,55.666664 82,83 53.333332,137.66667 39,216.66666 39,320 39,436 58,524.33331 96,585 Z m 225,12 c -20,21.33331 -43.66666,32 -71,32 -28,0 -52,-10.66669 -72,-32 -16.66667,-17.33331 -27.66667,-41.33331 -33,-72 -5.33333,-30.66666 -8,-94.66666 -8,-192 0,-105.33334 2.66667,-174.66666 8,-208 5.33333,-33.333336 17.33333,-59.666664 36,-79 18.66667,-20 41.66667,-30 69,-30 26.66666,0 49.33334,10 68,30 19.33334,20 31.33334,48 36,84 4.66666,36 7.33334,103.66666 8,203 0,96.66669 -2.66666,160.33334 -8,191 -5.33334,30.66669 -16.33334,55 -33,73 z" /></g><g
           transform="matrix(0.0380171,0,0,-0.03920336,82.243874,88.970001)"
           id="g100"><path
             id="path102"
             style="fill:#000000;fill-opacity:1;fill-rule:nonzero;stroke:none"
             d="m 58,-216 c -9.333336,0 -17.333332,2.66667 -24,8 -6.666668,5.33333 -10.333334,12.66667 -11,22 0,6.66667 24.333332,107.333328 73,302 48.66667,194.66669 74.33333,294 77,298 8.66667,18.66666 24,28 46,28 8,-0.66666 14.66667,-3 20,-7 5.33333,-4 8.66667,-8 10,-12 1.33333,-4 2,-7.33334 2,-10 0,-8 -10.33333,-52.66666 -31,-134 -20.66667,-81.33334 -31.66667,-127 -33,-137 -1.33333,-7.33333 -2,-19 -2,-35 v -8 c 0,-48.666668 22.33333,-73 67,-73 6,0 12,0.333334 18,1 6,0.666666 11.66666,2 17,4 5.33334,2 10.33334,4.333332 15,7 4.66666,2.666668 9,5 13,7 4,2 8,5.333332 12,10 4,4.666668 7.66666,8 11,10 3.33334,2 6.66666,6 10,12 3.33334,6 6,9.666664 8,11 2,1.333336 5,5.333336 9,12 l 7,10 36,143 c 24,94.66669 37.33334,145 40,151 8.66666,18 23,27 43,27 8.66666,0 15.66666,-2.33334 21,-7 5.33331,-4.66666 9,-8.66666 11,-12 2,-3.33334 2.66669,-6.66666 2,-10 L 449,84 c -0.66666,-3.333336 -1,-8.666664 -1,-16 0,-16.666668 2.33334,-27.666668 7,-33 4.66666,-5.333334 11.66666,-8.333334 21,-9 6,0.666666 12.66666,3.666666 20,9 14,13.333336 27.66669,45.333328 41,96 4,13.33333 7.33331,20.33333 10,21 1.33331,0.66667 4.66669,1 10,1 h 4 c 12.66669,0 19,-3 19,-9 0,-4 -1.66669,-13 -5,-27 C 571.66669,103 565,85 555,63 545,41 534.33331,24.333334 523,13 514.33331,4.333333 503.66666,-2.6666665 491,-8 c -5.33334,-1.333333 -13.33334,-2 -24,-2 -14,0 -26.66666,2 -38,6 -11.33334,4 -20.33334,9 -27,15 -6.66666,6 -12.33334,12 -17,18 -4.66666,6 -7.66666,11 -9,15 -1.33334,4 -2,6.333332 -2,7 l -6,-6 C 364,41 358,36 350,30 342,24 333.33334,18 324,12 314.66666,6 302.66666,0.66666698 288,-4 c -14.66666,-4.666667 -28.66666,-7 -42,-7 -31.33333,0 -62.33333,7.666666 -93,23 l -24,-97 c -14,-54.66667 -22.33334,-86.33333 -25,-95 -2.66666,-8.66667 -6.666664,-16 -12,-22 -10.666664,-9.33333 -22,-14 -34,-14 z" /></g><g
           transform="matrix(0.02687809,0,0,-0.02771678,106.42274,94.85051)"
           id="g104"><path
             id="path106"
             style="fill:#000000;fill-opacity:1;fill-rule:nonzero;stroke:none"
             d="m 213,578 -13,-5 c -9.33333,-3.33331 -22.66667,-6.66669 -40,-10 -17.33333,-3.33331 -36.66666,-5.66669 -58,-7 H 83 v 46 h 19 c 31.33333,1.33331 60.33333,6.33331 87,15 26.66667,8.66669 45.33333,16.66669 56,24 10.66667,7.33331 20,14.66669 28,22 1.33334,2 5.33334,3 12,3 6,0 11.66666,-2 17,-6 V 361 l 1,-300 c 4.66666,-4.666668 8.66666,-7.666668 12,-9 3.33334,-1.333332 11.33334,-2.666668 24,-4 12.66666,-1.333332 33.33334,-2 62,-2 h 26 V 0 H 416 C 402,2 349,3 257,3 166.33333,3 114,2 100,0 H 88 v 46 h 26 c 14.66667,0 27.33333,0 38,0 10.66667,0 19,0.333332 25,1 6,0.666668 11.33333,1.666668 16,3 4.66667,1.333332 7.33333,2 8,2 0.66667,0 2.66667,1.666668 6,5 3.33333,3.333332 5.33333,4.666668 6,4 z" /></g><g
           transform="matrix(0.0380171,0,0,-0.03920336,121.76266,88.970001)"
           id="g108"><path
             id="path110"
             style="fill:#000000;fill-opacity:1;fill-rule:nonzero;stroke:none"
             d="m 78,60 c 0,16 5.666664,30 17,42 11.33334,12 25.66666,18 43,18 16,0 30,-5.33334 42,-16 C 192,93.333336 198.33333,79 199,61 199,44.333332 193.33333,30 182,18 170.66667,6 156.33333,0 139,0 121.66666,0 107.33334,5.666666 96,17 84.666664,28.333334 78.666664,42.666664 78,60 Z" /></g><g
           transform="matrix(0.0380171,0,0,-0.03920336,132.33141,88.970001)"
           id="g112"><path
             id="path114"
             style="fill:#000000;fill-opacity:1;fill-rule:nonzero;stroke:none"
             d="m 78,60 c 0,16 5.666664,30 17,42 11.33334,12 25.66666,18 43,18 16,0 30,-5.33334 42,-16 C 192,93.333336 198.33333,79 199,61 199,44.333332 193.33333,30 182,18 170.66667,6 156.33333,0 139,0 121.66666,0 107.33334,5.666666 96,17 84.666664,28.333334 78.666664,42.666664 78,60 Z" /></g><g
           transform="matrix(0.0380171,0,0,-0.03920336,142.90016,88.970001)"
           id="g116"><path
             id="path118"
             style="fill:#000000;fill-opacity:1;fill-rule:nonzero;stroke:none"
             d="m 78,60 c 0,16 5.666664,30 17,42 11.33334,12 25.66666,18 43,18 16,0 30,-5.33334 42,-16 C 192,93.333336 198.33333,79 199,61 199,44.333332 193.33333,30 182,18 170.66667,6 156.33333,0 139,0 121.66666,0 107.33334,5.666666 96,17 84.666664,28.333334 78.666664,42.666664 78,60 Z" /></g><g
           transform="matrix(0.0380171,0,0,-0.03920336,153.46892,88.970001)"
           id="g120"><path
             id="path122"
             style="fill:#000000;fill-opacity:1;fill-rule:nonzero;stroke:none"
             d="m 58,-216 c -9.333336,0 -17.333332,2.66667 -24,8 -6.666668,5.33333 -10.333334,12.66667 -11,22 0,6.66667 24.333332,107.333328 73,302 48.66667,194.66669 74.33333,294 77,298 8.66667,18.66666 24,28 46,28 8,-0.66666 14.66667,-3 20,-7 5.33333,-4 8.66667,-8 10,-12 1.33333,-4 2,-7.33334 2,-10 0,-8 -10.33333,-52.66666 -31,-134 -20.66667,-81.33334 -31.66667,-127 -33,-137 -1.33333,-7.33333 -2,-19 -2,-35 v -8 c 0,-48.666668 22.33333,-73 67,-73 6,0 12,0.333334 18,1 6,0.666666 11.66666,2 17,4 5.33334,2 10.33334,4.333332 15,7 4.66666,2.666668 9,5 13,7 4,2 8,5.333332 12,10 4,4.666668 7.66666,8 11,10 3.33334,2 6.66666,6 10,12 3.33334,6 6,9.666664 8,11 2,1.333336 5,5.333336 9,12 l 7,10 36,143 c 24,94.66669 37.33334,145 40,151 8.66666,18 23,27 43,27 8.66666,0 15.66666,-2.33334 21,-7 5.33331,-4.66666 9,-8.66666 11,-12 2,-3.33334 2.66669,-6.66666 2,-10 L 449,84 c -0.66666,-3.333336 -1,-8.666664 -1,-16 0,-16.666668 2.33334,-27.666668 7,-33 4.66666,-5.333334 11.66666,-8.333334 21,-9 6,0.666666 12.66666,3.666666 20,9 14,13.333336 27.66669,45.333328 41,96 4,13.33333 7.33331,20.33333 10,21 1.33331,0.66667 4.66669,1 10,1 h 4 c 12.66669,0 19,-3 19,-9 0,-4 -1.66669,-13 -5,-27 C 571.66669,103 565,85 555,63 545,41 534.33331,24.333334 523,13 514.33331,4.333333 503.66666,-2.6666665 491,-8 c -5.33334,-1.333333 -13.33334,-2 -24,-2 -14,0 -26.66666,2 -38,6 -11.33334,4 -20.33334,9 -27,15 -6.66666,6 -12.33334,12 -17,18 -4.66666,6 -7.66666,11 -9,15 -1.33334,4 -2,6.333332 -2,7 l -6,-6 C 364,41 358,36 350,30 342,24 333.33334,18 324,12 314.66666,6 302.66666,0.66666698 288,-4 c -14.66666,-4.666667 -28.66666,-7 -42,-7 -31.33333,0 -62.33333,7.666666 -93,23 l -24,-97 c -14,-54.66667 -22.33334,-86.33333 -25,-95 -2.66666,-8.66667 -6.666664,-16 -12,-22 -10.666664,-9.33333 -22,-14 -34,-14 z" /></g><g
           transform="matrix(0.02687809,0,0,-0.02771678,177.6478,94.85051)"
           id="g124"><path
             id="path126"
             style="fill:#000000;fill-opacity:1;fill-rule:nonzero;stroke:none"
             d="m 21,287 c 0.666666,4 1.666666,9.33334 3,16 1.333334,6.66666 5.333332,19.33334 12,38 6.666668,18.66666 13.333332,34.33334 20,47 6.666668,12.66666 17.666664,25 33,37 15.33334,12 30.66666,17.66666 46,17 24,0 44,-6 60,-18 16,-12 26,-23.33334 30,-34 4,-10.66666 6,-17.66666 6,-21 0,-1.33334 0.33333,-2 1,-2 l 11,11 c 40.66666,42.66666 87,64 139,64 36,0 65,-9 87,-27 22,-18 33.33334,-44.33334 34,-79 0.66666,-34.66666 -12,-87 -38,-157 -26,-70 -38.66666,-112.333336 -38,-127 0,-17.333336 5.66666,-26 17,-26 4,0 7,0.333334 9,1 19.33334,3.333334 36.66666,16 52,38 15.33331,22 27,48.66666 35,80 1.33331,5.33333 8,8 20,8 13.33331,0 20,-2.66667 20,-8 0,-0.66667 -1.33331,-5.66667 -4,-15 -5.33331,-19.33334 -12.66669,-38.333328 -22,-57 -9.33331,-18.666668 -24.66669,-37.333332 -46,-56 -21.33334,-18.6666679 -44.33334,-27.666667 -69,-27 -31.33334,0 -54,9 -68,27 -14,18 -21,36.666664 -21,56 0,12.666664 12,52.66666 36,120 24,67.33334 36.33334,118 37,152 0,39.33334 -14.66666,59 -44,59 h -5 C 316.66666,404 268.33334,370.33334 229,303 L 222,291 189,157 C 167,69.666664 154.33333,22.666668 151,16 c -8.66667,-18 -23,-27 -43,-27 -8.666664,0 -15.666664,2 -21,6 -5.333336,4 -9,8 -11,12 -2,4 -2.666664,7.333333 -2,10 0,8.666668 12.666664,63 38,163 25.33333,100 38.66667,154.33334 40,163 0.66667,3.33334 1,11 1,23 0,26 -8,39 -24,39 -25.33334,0 -46.333328,-33.33331 -63,-100 -4,-13.33334 -6,-20.33334 -6,-21 -1.333332,-4 -7.666664,-6 -19,-6 H 27 c -4,4 -6,7 -6,9 z" /></g><g
           transform="matrix(0.02687809,0,0,-0.02771678,193.77464,94.85051)"
           id="g128"><path
             id="path130"
             style="fill:#000000;fill-opacity:1;fill-rule:nonzero;stroke:none"
             d="m 84,237 c 0,0 0,4.33333 0,13 0,8.66666 4.666664,15.33334 14,20 h 581 c 10,-5.33334 15,-12 15,-20 0,-8 -5,-14.66667 -15,-20 H 98 c -9.333336,4.66667 -14,11.33333 -14,20 z" /></g><g
           transform="matrix(0.02687809,0,0,-0.02771678,214.68579,94.85051)"
           id="g132"><path
             id="path134"
             style="fill:#000000;fill-opacity:1;fill-rule:nonzero;stroke:none"
             d="m 213,578 -13,-5 c -9.33333,-3.33331 -22.66667,-6.66669 -40,-10 -17.33333,-3.33331 -36.66666,-5.66669 -58,-7 H 83 v 46 h 19 c 31.33333,1.33331 60.33333,6.33331 87,15 26.66667,8.66669 45.33333,16.66669 56,24 10.66667,7.33331 20,14.66669 28,22 1.33334,2 5.33334,3 12,3 6,0 11.66666,-2 17,-6 V 361 l 1,-300 c 4.66666,-4.666668 8.66666,-7.666668 12,-9 3.33334,-1.333332 11.33334,-2.666668 24,-4 12.66666,-1.333332 33.33334,-2 62,-2 h 26 V 0 H 416 C 402,2 349,3 257,3 166.33333,3 114,2 100,0 H 88 v 46 h 26 c 14.66667,0 27.33333,0 38,0 10.66667,0 19,0.333332 25,1 6,0.666668 11.33333,1.666668 16,3 4.66667,1.333332 7.33333,2 8,2 0.66667,0 2.66667,1.666668 6,5 3.33333,3.333332 5.33333,4.666668 6,4 z" /></g><g
           transform="matrix(0.05377242,0,0,-0.0554503,247.68564,111.87098)"
           id="g136"><path
             id="path138"
             style="fill:#000000;fill-opacity:1;fill-rule:nonzero;stroke:none"
             d="m 56,347 c 0,8.66666 4.666664,15.33334 14,20 h 637 c 10,-5.33334 15,-12 15,-20 0,-7.33334 -4.66669,-13.66666 -14,-19 L 390,327 H 72 c -10.666668,3.33334 -16,10 -16,20 z m 0,-194 c 0,10 5.333332,16.66667 16,20 h 636 c 9.33331,-6.66667 14,-13.33333 14,-20 0,-8.66667 -5,-15.33333 -15,-20 H 70 c -9.333336,4.66667 -14,11.33333 -14,20 z" /></g></g></g><g
       id="g140"><g
         clip-path="url(#clipPath146)"
         id="g142"><g
           transform="matrix(0.05336049,0,0,-0.05443423,337.33746,176.30035)"
           id="g148"><path
             id="path150"
             style="fill:#000000;fill-opacity:1;fill-rule:nonzero;stroke:none"
             d="m 58,-216 c -9.333336,0 -17.333332,2.66667 -24,8 -6.666668,5.33333 -10.333334,12.66667 -11,22 0,6.66667 24.333332,107.333328 73,302 48.66667,194.66669 74.33333,294 77,298 8.66667,18.66666 24,28 46,28 8,-0.66666 14.66667,-3 20,-7 5.33333,-4 8.66667,-8 10,-12 1.33333,-4 2,-7.33334 2,-10 0,-8 -10.33333,-52.66666 -31,-134 -20.66667,-81.33334 -31.66667,-127 -33,-137 -1.33333,-7.33333 -2,-19 -2,-35 v -8 c 0,-48.666668 22.33333,-73 67,-73 6,0 12,0.333334 18,1 6,0.666666 11.66666,2 17,4 5.33334,2 10.33334,4.333332 15,7 4.66666,2.666668 9,5 13,7 4,2 8,5.333332 12,10 4,4.666668 7.66666,8 11,10 3.33334,2 6.66666,6 10,12 3.33334,6 6,9.666664 8,11 2,1.333336 5,5.333336 9,12 l 7,10 36,143 c 24,94.66669 37.33334,145 40,151 8.66666,18 23,27 43,27 8.66666,0 15.66666,-2.33334 21,-7 5.33331,-4.66666 9,-8.66666 11,-12 2,-3.33334 2.66669,-6.66666 2,-10 L 449,84 c -0.66666,-3.333336 -1,-8.666664 -1,-16 0,-16.666668 2.33334,-27.666668 7,-33 4.66666,-5.333334 11.66666,-8.333334 21,-9 6,0.666666 12.66666,3.666666 20,9 14,13.333336 27.66669,45.333328 41,96 4,13.33333 7.33331,20.33333 10,21 1.33331,0.66667 4.66669,1 10,1 h 4 c 12.66669,0 19,-3 19,-9 0,-4 -1.66669,-13 -5,-27 C 571.66669,103 565,85 555,63 545,41 534.33331,24.333334 523,13 514.33331,4.333333 503.66666,-2.6666665 491,-8 c -5.33334,-1.333333 -13.33334,-2 -24,-2 -14,0 -26.66666,2 -38,6 -11.33334,4 -20.33334,9 -27,15 -6.66666,6 -12.33334,12 -17,18 -4.66666,6 -7.66666,11 -9,15 -1.33334,4 -2,6.333332 -2,7 l -6,-6 C 364,41 358,36 350,30 342,24 333.33334,18 324,12 314.66666,6 302.66666,0.66666698 288,-4 c -14.66666,-4.666667 -28.66666,-7 -42,-7 -31.33333,0 -62.33333,7.666666 -93,23 l -24,-97 c -14,-54.66667 -22.33334,-86.33333 -25,-95 -2.66666,-8.66667 -6.666664,-16 -12,-22 -10.666664,-9.33333 -22,-14 -34,-14 z" /></g><g
           transform="matrix(0.03772587,0,0,-0.038485,371.27472,184.46548)"
           id="g152"><path
             id="path154"
             style="fill:#000000;fill-opacity:1;fill-rule:nonzero;stroke:none"
             d="m 21,287 c 0.666666,4 1.666666,9.33334 3,16 1.333334,6.66666 5.333332,19.33334 12,38 6.666668,18.66666 13.333332,34.33334 20,47 6.666668,12.66666 17.666664,25 33,37 15.33334,12 30.66666,17.66666 46,17 24,0 44,-6 60,-18 16,-12 26,-23.33334 30,-34 4,-10.66666 6,-17.66666 6,-21 0,-1.33334 0.33333,-2 1,-2 l 11,11 c 40.66666,42.66666 87,64 139,64 36,0 65,-9 87,-27 22,-18 33.33334,-44.33334 34,-79 0.66666,-34.66666 -12,-87 -38,-157 -26,-70 -38.66666,-112.333336 -38,-127 0,-17.333336 5.66666,-26 17,-26 4,0 7,0.333334 9,1 19.33334,3.333334 36.66666,16 52,38 15.33331,22 27,48.66666 35,80 1.33331,5.33333 8,8 20,8 13.33331,0 20,-2.66667 20,-8 0,-0.66667 -1.33331,-5.66667 -4,-15 -5.33331,-19.33334 -12.66669,-38.333328 -22,-57 -9.33331,-18.666668 -24.66669,-37.333332 -46,-56 -21.33334,-18.6666679 -44.33334,-27.666667 -69,-27 -31.33334,0 -54,9 -68,27 -14,18 -21,36.666664 -21,56 0,12.666664 12,52.66666 36,120 24,67.33334 36.33334,118 37,152 0,39.33334 -14.66666,59 -44,59 h -5 C 316.66666,404 268.33334,370.33334 229,303 L 222,291 189,157 C 167,69.666664 154.33333,22.666668 151,16 c -8.66667,-18 -23,-27 -43,-27 -8.666664,0 -15.666664,2 -21,6 -5.333336,4 -9,8 -11,12 -2,4 -2.666664,7.333333 -2,10 0,8.666668 12.666664,63 38,163 25.33333,100 38.66667,154.33334 40,163 0.66667,3.33334 1,11 1,23 0,26 -8,39 -24,39 -25.33334,0 -46.333328,-33.33331 -63,-100 -4,-13.33334 -6,-20.33334 -6,-21 -1.333332,-4 -7.666664,-6 -19,-6 H 27 c -4,4 -6,7 -6,9 z" /></g><g
           transform="matrix(0.03772587,0,0,-0.038485,393.91025,184.46548)"
           id="g156"><path
             id="path158"
             style="fill:#000000;fill-opacity:1;fill-rule:nonzero;stroke:none"
             d="m 84,237 c 0,0 0,4.33333 0,13 0,8.66666 4.666664,15.33334 14,20 h 581 c 10,-5.33334 15,-12 15,-20 0,-8 -5,-14.66667 -15,-20 H 98 c -9.333336,4.66667 -14,11.33333 -14,20 z" /></g><g
           transform="matrix(0.03772587,0,0,-0.038485,423.26099,184.46548)"
           id="g160"><path
             id="path162"
             style="fill:#000000;fill-opacity:1;fill-rule:nonzero;stroke:none"
             d="m 109,429 c -18,0 -32.333336,6 -43,18 -10.666668,12 -16,26.66666 -16,44 0,47.33331 17.666664,88.33331 53,123 35.33334,34.66669 79.33333,52 132,52 60.66666,0 111.33334,-18.66669 152,-56 40.66666,-37.33331 61.33334,-85.66669 62,-145 0,-28.66666 -6.66666,-56 -20,-82 -13.33334,-26 -29.33334,-48.66666 -48,-68 -18.66666,-19.33334 -45.33334,-44 -80,-74 -24,-20.66667 -57.33333,-51.33333 -100,-92 l -59,-56 76,-1 c 104.66669,0 160.33334,1.666664 167,5 4.66666,1.333336 12.66666,31 24,89 v 3 h 40 v -3 C 448.33334,184 444,153.66667 436,95 428,36.333332 423,5.666667 421,3 V 0 H 50 v 19 12 c 0,4.666668 2,9.666668 6,15 4,5.333332 14,17 30,35 19.33334,21.33334 36,40 50,56 6,6.66667 17.33333,19 34,37 16.66667,18 28,30.33333 34,37 6,6.66667 15.66667,17.66667 29,33 13.33333,15.33334 22.66667,26.66666 28,34 5.33334,7.33334 13,17.33334 23,30 10,12.66666 17,23.33334 21,32 4,8.66666 9,18.33334 15,29 6,10.66666 10.33334,21.33334 13,32 2.66666,10.66666 5,20.66666 7,30 2,9.33334 3,20.33334 3,33 0,42 -11.33334,78.33331 -34,109 -22.66666,30.66669 -55,46 -97,46 -22,0 -41.33333,-5.66669 -58,-17 -16.66667,-11.33331 -28.33334,-22.33331 -35,-33 -6.66666,-10.66669 -10,-17 -10,-19 0,-0.66669 1.66666,-1 5,-1 12,0 24.33333,-4.66669 37,-14 12.66667,-9.33331 19,-24.66666 19,-46 0,-16.66666 -5.33333,-30.66666 -16,-42 -10.66667,-11.33334 -25.66667,-17.33334 -45,-18 z" /></g></g></g><g
       id="g164"><g
         clip-path="url(#clipPath170)"
         id="g166"><g
           transform="matrix(2.9850748,0,0,2.9850748,-685.05066,-888.05969)"
           id="g172"><path
             id="path174"
             style="fill:none;stroke:#000000;stroke-width:1;stroke-linecap:butt;stroke-linejoin:miter;stroke-miterlimit:10;stroke-dasharray:none;stroke-opacity:1"
             d="M 433.29001,315.70999 450,300" /><path
             id="path176"
             style="fill:none;stroke:#000000;stroke-width:1;stroke-linecap:butt;stroke-linejoin:miter;stroke-miterlimit:10;stroke-dasharray:none;stroke-opacity:1"
             d="M 433.29001,343.29001 450,360" /><path
             id="path178"
             style="fill:none;stroke:#000000;stroke-width:1;stroke-linecap:butt;stroke-linejoin:miter;stroke-miterlimit:10;stroke-dasharray:none;stroke-opacity:1"
             d="M 405.70999,343.29001 390,360" /><path
             id="path180"
             style="fill:none;stroke:#000000;stroke-width:1;stroke-linecap:butt;stroke-linejoin:miter;stroke-miterlimit:10;stroke-dasharray:none;stroke-opacity:1"
             d="M 405.70999,315.70999 390,300" /><path
             id="path182"
             style="fill:#ffffff;fill-opacity:1;fill-rule:nonzero;stroke:none"
             d="m 439,329.5 c -3e-5,1.2804 -0.12494,2.54846 -0.37473,3.80423 -0.24978,1.2558 -0.61969,2.47516 -1.10964,3.65805 -0.49,1.18292 -1.09067,2.3067 -1.80201,3.37131 -0.71133,1.0646 -1.51971,2.04959 -2.42508,2.95498 -0.90539,0.90537 -1.89038,1.71372 -2.95498,2.42505 -1.06461,0.71134 -2.18839,1.31201 -3.37131,1.80201 -1.18289,0.48999 -2.40225,0.85989 -3.65802,1.10968 C 422.04846,348.87509 420.78036,349 419.5,349 c -1.2804,0 -2.54849,-0.12491 -3.80429,-0.37469 -1.2558,-0.24979 -2.47516,-0.61969 -3.65808,-1.10968 -1.18292,-0.49 -2.30667,-1.09067 -3.37128,-1.80201 -1.0646,-0.71133 -2.04959,-1.51968 -2.95495,-2.42505 -0.90537,-0.90539 -1.71375,-1.89038 -2.42511,-2.95498 -0.71137,-1.06461 -1.31205,-2.18839 -1.80201,-3.37131 -0.48999,-1.18289 -0.85986,-2.40225 -1.10965,-3.65805 C 400.12485,332.04846 399.99997,330.7804 400,329.5 c -3e-5,-1.28043 0.12485,-2.54852 0.37463,-3.80432 0.24979,-1.25577 0.61966,-2.47513 1.10965,-3.65805 0.48996,-1.18292 1.09064,-2.30667 1.80201,-3.37128 0.71136,-1.0646 1.51974,-2.04956 2.42511,-2.95492 0.90536,-0.90537 1.89035,-1.71375 2.95495,-2.42508 1.06461,-0.71134 2.18836,-1.31202 3.37128,-1.80201 1.18292,-0.48996 2.40228,-0.85986 3.65808,-1.10965 C 416.95151,310.12491 418.2196,310 419.5,310 c 1.28036,0 2.54846,0.12491 3.80423,0.37469 1.25577,0.24979 2.47513,0.61969 3.65805,1.10965 1.18289,0.48999 2.30667,1.09067 3.37131,1.80201 1.06457,0.71133 2.04956,1.51971 2.95495,2.42508 0.90537,0.90536 1.71372,1.89032 2.42505,2.95492 0.71134,1.06461 1.31201,2.18836 1.802,3.37128 0.48999,1.18292 0.8599,2.40228 1.10968,3.65805 0.24979,1.2558 0.3747,2.52389 0.37473,3.80432 z" /><path
             id="path184"
             style="fill:none;stroke:#000000;stroke-width:1;stroke-linecap:butt;stroke-linejoin:miter;stroke-miterlimit:10;stroke-dasharray:none;stroke-opacity:1"
             d="m 439,329.5 c -3e-5,1.2804 -0.12494,2.54846 -0.37473,3.80423 -0.24978,1.2558 -0.61969,2.47516 -1.10964,3.65805 -0.49,1.18292 -1.09067,2.3067 -1.80201,3.37131 -0.71133,1.0646 -1.51971,2.04959 -2.42508,2.95498 -0.90539,0.90537 -1.89038,1.71372 -2.95498,2.42505 -1.06461,0.71134 -2.18839,1.31201 -3.37131,1.80201 -1.18289,0.48999 -2.40225,0.85989 -3.65802,1.10968 C 422.04846,348.87509 420.78036,349 419.5,349 c -1.2804,0 -2.54849,-0.12491 -3.80429,-0.37469 -1.2558,-0.24979 -2.47516,-0.61969 -3.65808,-1.10968 -1.18292,-0.49 -2.30667,-1.09067 -3.37128,-1.80201 -1.0646,-0.71133 -2.04959,-1.51968 -2.95495,-2.42505 -0.90537,-0.90539 -1.71375,-1.89038 -2.42511,-2.95498 -0.71137,-1.06461 -1.31205,-2.18839 -1.80201,-3.37131 -0.48999,-1.18289 -0.85986,-2.40225 -1.10965,-3.65805 C 400.12485,332.04846 399.99997,330.7804 400,329.5 c -3e-5,-1.28043 0.12485,-2.54852 0.37463,-3.80432 0.24979,-1.25577 0.61966,-2.47513 1.10965,-3.65805 0.48996,-1.18292 1.09064,-2.30667 1.80201,-3.37128 0.71136,-1.0646 1.51974,-2.04956 2.42511,-2.95492 0.90536,-0.90537 1.89035,-1.71375 2.95495,-2.42508 1.06461,-0.71134 2.18836,-1.31202 3.37128,-1.80201 1.18292,-0.48996 2.40228,-0.85986 3.65808,-1.10965 C 416.95151,310.12491 418.2196,310 419.5,310 c 1.28036,0 2.54846,0.12491 3.80423,0.37469 1.25577,0.24979 2.47513,0.61969 3.65805,1.10965 1.18289,0.48999 2.30667,1.09067 3.37131,1.80201 1.06457,0.71133 2.04956,1.51971 2.95495,2.42508 0.90537,0.90536 1.71372,1.89032 2.42505,2.95492 0.71134,1.06461 1.31201,2.18836 1.802,3.37128 0.48999,1.18292 0.8599,2.40228 1.10968,3.65805 0.24979,1.2558 0.3747,2.52389 0.37473,3.80432 z" /></g></g></g><g
       id="g186"><g
         clip-path="url(#clipPath192)"
         id="g188"><g
           transform="matrix(0.05512212,0,0,-0.05289387,546.29266,111.93441)"
           id="g194"><path
             id="path196"
             style="fill:#000000;fill-opacity:1;fill-rule:nonzero;stroke:none"
             d="m 40,437 c -12.666668,0 -19,2.66666 -19,8 0,3.33334 5.333332,22 16,56 10.666668,34 22,67.66669 34,101 l 17,49 c 3.333336,12 7.666664,20.66669 13,26 h 468 90 c 21.33331,0 34,-0.33331 38,-1 4,-0.66669 6.33331,-3.66669 7,-9 0,-4 -5.66669,-42 -17,-114 -11.33331,-72 -17.66669,-108.33334 -19,-109 0,-4.66666 -6.33331,-7 -19,-7 -6,0 -10,0 -12,0 -2,0 -4,1.66666 -6,5 l -2,3 c 0,4 2,19 6,45 4,26 6,46.33331 6,61 0,23.33331 -4.33331,41 -13,53 -8.66669,12 -27,20.33331 -55,25 -3.33331,0.66669 -22.66669,1.33331 -58,2 -30.66666,0 -50,-0.33331 -58,-1 -8,-0.66669 -14,-3.33331 -18,-8 -0.66666,-0.66669 -24.33334,-93.66663 -71,-279 C 321.33334,157.66666 298,63.333332 298,60 c 0,-8 29.33334,-12.666668 88,-14 21.33334,0 35,-0.333332 41,-1 6,-0.666668 9,-3.666668 9,-9 0,-3.333332 -1,-8 -3,-14 -2.66666,-12 -5.66666,-19 -9,-21 l -2,-1 c -2,0 -4.33334,0 -7,0 -3.33334,0 -20.66666,0.33333331 -52,1 C 331.66666,1.6666667 286.66666,2 228,2 142,2 87.333336,1.3333334 64,0 H 49 c -4,4 -6,7 -6,9 0,2 0.666668,8 2,18 2.666668,8.666668 6,15 10,19 h 28 11 c 53.33334,0 85,3 95,9 0.66667,0.666668 1.33333,1 2,1 3.33333,2 6.66667,8.666664 10,20 3.33333,11.333336 16.66667,63.66666 40,157 11.33333,45.33334 20.66666,82.33334 28,111 46.66666,183.33337 70,277 70,281 0,3.33331 -9.66666,5 -29,5 h -31 c -44.66667,0 -74,-2 -88,-6 -30,-6.66669 -53.33333,-20.33331 -70,-41 -16.66667,-20.66669 -34.666664,-59.33331 -54,-116 -4.666668,-14.66666 -8,-23.33334 -10,-26 -2,-2.66666 -6.666668,-4 -14,-4 z" /></g></g></g></g></svg>