<?xml version="1.0" encoding="UTF-8" standalone="no"?>
<svg
   xmlns:dc="http://purl.org/dc/elements/1.1/"
   xmlns:cc="http://creativecommons.org/ns#"
   xmlns:rdf="http://www.w3.org/1999/02/22-rdf-syntax-ns#"
   xmlns:svg="http://www.w3.org/2000/svg"
   xmlns="http://www.w3.org/2000/svg"
   viewBox="0 0 281.28 40"
   height="40"
   width="281.28"
   xml:space="preserve"
   id="svg2"
   version="1.1"><metadata
     id="metadata8"><rdf:RDF><cc:Work
         rdf:about=""><dc:format>image/svg+xml</dc:format><dc:type
           rdf:resource="http://purl.org/dc/dcmitype/StillImage" /></cc:Work></rdf:RDF></metadata><defs
     id="defs6"><clipPath
       id="clipPath18"
       clipPathUnits="userSpaceOnUse"><path
         style="clip-rule:evenodd"
         id="path16"
         d="M 6.3981934,38.235229 H 258.33862 V 82.352874 H 6.3981934 Z" /></clipPath><clipPath
       id="clipPath54"
       clipPathUnits="userSpaceOnUse"><path
         style="clip-rule:evenodd"
         id="path52"
         d="m 3.125,0 h 875 v 125.97656 h -875 z" /></clipPath><clipPath
       id="clipPath70"
       clipPathUnits="userSpaceOnUse"><path
         style="clip-rule:evenodd"
         id="path68"
         d="m 332.43878,11.764648 h 32.604 v 35.294117 h -32.604 z" /></clipPath><clipPath
       id="clipPath82"
       clipPathUnits="userSpaceOnUse"><path
         style="clip-rule:evenodd"
         id="path80"
         d="m 569.55914,11.764648 h 29.64001 v 23.529411 h -29.64001 z" /></clipPath><clipPath
       id="clipPath94"
       clipPathUnits="userSpaceOnUse"><path
         style="clip-rule:evenodd"
         id="path92"
         d="m 806.6795,11.764648 h 26.67603 V 47.058765 H 806.6795 Z" /></clipPath><clipPath
       id="clipPath106"
       clipPathUnits="userSpaceOnUse"><path
         style="clip-rule:evenodd"
         id="path104"
         d="m 3.125,0 h 875 v 125.97656 h -875 z" /></clipPath><clipPath
       id="clipPath120"
       clipPathUnits="userSpaceOnUse"><path
         style="clip-rule:evenodd"
         id="path118"
         d="m 430.25092,41.176392 h 41.49606 v 38.235291 h -41.49606 z" /></clipPath><clipPath
       id="clipPath132"
       clipPathUnits="userSpaceOnUse"><path
         style="clip-rule:evenodd"
         id="path130"
         d="m 3.125,0 h 875 v 125.97656 h -875 z" /></clipPath><clipPath
       id="clipPath146"
       clipPathUnits="userSpaceOnUse"><path
         style="clip-rule:evenodd"
         id="path144"
         d="m 689.60138,41.176392 h 56.3161 v 38.235291 h -56.3161 z" /></clipPath></defs><g
     transform="scale(0.31999998)"
     id="g10"><g
       id="g12"><g
         clip-path="url(#clipPath18)"
         id="g14"><g
           transform="matrix(0.05380312,0,0,-0.05463485,6.4529719,77.872818)"
           id="g20"><path
             id="path22"
             style="fill:#000000;fill-opacity:1;fill-rule:nonzero;stroke:none"
             d="m 52,648 c 0,14.66669 4.333332,26.33331 13,35 h 11 c 28,-2 63,-3 105,-3 78.66669,0 125,1 139,3 h 10 c 4,-4 6,-7 6,-9 0,-2 -0.66666,-8 -2,-18 -3.33334,-10 -6.33334,-16.33331 -9,-19 h -21 c -14.66666,-1.33331 -24.66666,-2 -30,-2 -19.33333,-3.33331 -30,-8.33331 -32,-15 0,-1.33331 9.66667,-85 29,-251 19.33334,-166 29.33334,-249.66666 30,-251 l 73,117 c 48.66666,78 97.33334,156.66666 146,236 48.66669,79.33331 73.66669,120.33331 75,123 2.66669,4.66669 4,9.66669 4,15 0,16 -14.66669,25.33331 -44,28 -12,0 -18,3.66669 -18,11 0,0.66669 0.66669,5 2,13 2,9.33331 4,15.33331 6,18 2,2.66669 6.33331,4 13,4 1.33331,0 5.33331,0 12,0 6.66669,0 18,-0.33331 34,-1 16,-0.66669 37.33331,-1 64,-1 46,0 75,0.66669 87,2 h 7 c 4.66669,-4.66669 7,-8.33331 7,-11 0,-11.33331 -3,-22 -9,-32 -2,-2 -7.66669,-3 -17,-3 -8.66669,-0.66669 -16.66669,-1.33331 -24,-2 -7.33331,-0.66669 -14.33331,-2.33331 -21,-5 -6.66669,-2.66669 -12,-5 -16,-7 -4,-2 -8,-4.66669 -12,-8 -4,-3.33331 -7.33331,-5.66669 -10,-7 -2.66669,-1.33331 -5.33331,-4.33331 -8,-9 -2.66669,-4.66669 -5,-7 -7,-7 L 452,282 C 332,88 270,-11.333333 266,-16 c -2,-1.333334 -4.33334,-3 -7,-5 l -18,-1 h -7 c -12,0 -18,2.333332 -18,7 -2,4 -15,110.666656 -39,320 -25.33333,212 -38.33333,319 -39,321 -3.33333,7.33331 -24,11 -62,11 H 59 c -4.666668,3.33331 -7,7 -7,11 z" /></g><g
           transform="matrix(0.03803881,0,0,-0.03862684,52.793598,55.308624)"
           id="g24"><path
             id="path26"
             style="fill:#000000;fill-opacity:1;fill-rule:nonzero;stroke:none"
             d="m 58,-216 c -9.333336,0 -17.333332,2.66667 -24,8 -6.666668,5.33333 -10.333334,12.66667 -11,22 0,6.66667 24.333332,107.333328 73,302 48.66667,194.66669 74.33333,294 77,298 8.66667,18.66666 24,28 46,28 8,-0.66666 14.66667,-3 20,-7 5.33333,-4 8.66667,-8 10,-12 1.33333,-4 2,-7.33334 2,-10 0,-8 -10.33333,-52.66666 -31,-134 -20.66667,-81.33334 -31.66667,-127 -33,-137 -1.33333,-7.33333 -2,-19 -2,-35 v -8 c 0,-48.666668 22.33333,-73 67,-73 6,0 12,0.333334 18,1 6,0.666666 11.66666,2 17,4 5.33334,2 10.33334,4.333332 15,7 4.66666,2.666668 9,5 13,7 4,2 8,5.333332 12,10 4,4.666668 7.66666,8 11,10 3.33334,2 6.66666,6 10,12 3.33334,6 6,9.666664 8,11 2,1.333336 5,5.333336 9,12 l 7,10 36,143 c 24,94.66669 37.33334,145 40,151 8.66666,18 23,27 43,27 8.66666,0 15.66666,-2.33334 21,-7 5.33331,-4.66666 9,-8.66666 11,-12 2,-3.33334 2.66669,-6.66666 2,-10 L 449,84 c -0.66666,-3.333336 -1,-8.666664 -1,-16 0,-16.666668 2.33334,-27.666668 7,-33 4.66666,-5.333334 11.66666,-8.333334 21,-9 6,0.666666 12.66666,3.666666 20,9 14,13.333336 27.66669,45.333328 41,96 4,13.33333 7.33331,20.33333 10,21 1.33331,0.66667 4.66669,1 10,1 h 4 c 12.66669,0 19,-3 19,-9 0,-4 -1.66669,-13 -5,-27 C 571.66669,103 565,85 555,63 545,41 534.33331,24.333334 523,13 514.33331,4.333333 503.66666,-2.6666665 491,-8 c -5.33334,-1.333333 -13.33334,-2 -24,-2 -14,0 -26.66666,2 -38,6 -11.33334,4 -20.33334,9 -27,15 -6.66666,6 -12.33334,12 -17,18 -4.66666,6 -7.66666,11 -9,15 -1.33334,4 -2,6.333332 -2,7 l -6,-6 C 364,41 358,36 350,30 342,24 333.33334,18 324,12 314.66666,6 302.66666,0.66666698 288,-4 c -14.66666,-4.666667 -28.66666,-7 -42,-7 -31.33333,0 -62.33333,7.666666 -93,23 l -24,-97 c -14,-54.66667 -22.33334,-86.33333 -25,-95 -2.66666,-8.66667 -6.666664,-16 -12,-22 -10.666664,-9.33333 -22,-14 -34,-14 z" /></g><g
           transform="matrix(0.03803881,0,0,-0.03862684,75.730995,55.308624)"
           id="g28"><path
             id="path30"
             style="fill:#000000;fill-opacity:1;fill-rule:nonzero;stroke:none"
             d="m 74,431 c 0.666664,0 24.666664,1.66666 72,5 47.33334,3.33334 71.66667,5.33334 73,6 8,0 12,-2.66666 12,-8 0,-4 -15.33333,-68.33331 -46,-193 L 137,51 h 3 l 10,4 c 7.33333,2.666668 16.33333,6.666668 27,12 10.66667,5.333336 23,11.666664 37,19 14,7.333336 29.66667,18.33334 47,33 17.33334,14.66667 34.33334,30 51,46 65.33334,66 109.66666,142.33331 133,229 8.66666,32 25.66666,48 51,48 8.66666,0 16.33331,-2.66666 23,-8 6.66669,-5.33334 10.33331,-13 11,-23 0,-14 -4.66669,-33.66666 -14,-59 -9.33334,-25.33334 -25,-55.33334 -47,-90 C 447,227.33333 420,194 388,162 356,130 315.66666,99.333336 267,70 218.33333,40.666664 164.66667,19 106,5 89.333328,0.33333302 77.666664,-2 71,-2 c -3.333336,0 -7.333332,0.3333333 -12,1 -4.666668,0.66666669 -7.333332,1.33333331 -8,2 -4,2.6666667 -6,6 -6,10 0,1.333333 14.333332,60.333328 43,177 l 44,176 c 0.66667,8.66666 -1.66667,14 -7,16 -5.33334,2 -18.33333,3.66666 -39,5 H 65 c -4,4 -6,6.66666 -6,8 0,1.33334 0.666668,7.66666 2,19 2.666668,12.66666 7,19 13,19 z" /></g><g
           transform="matrix(0.05380312,0,0,-0.05463485,98.590813,77.872818)"
           id="g32"><path
             id="path34"
             style="fill:#000000;fill-opacity:1;fill-rule:nonzero;stroke:none"
             d="m 436,683 c 9.33334,0 26,-0.33331 50,-1 24,-0.66669 46.33331,-1.33331 67,-2 34,0 62.33331,0.33331 85,1 22.66669,0.66669 35.66669,1 39,1 12,0 18,-2.66669 18,-8 0,-2.66669 -1,-7.66669 -3,-15 -3.33331,-12 -6.33331,-18.66669 -9,-20 -2.66669,-1.33331 -10,-2 -22,-2 -16.66669,-0.66669 -30,-2.33331 -40,-5 -10,-2.66669 -17,-5.33331 -21,-8 -4,-2.66669 -5,-5.66669 -3,-9 0,-8 5.33331,-87.33331 16,-238 10.66669,-150.66667 16,-230.33333 16,-239 l 2,3 c 1.33331,2 3.33331,5.33333 6,10 2.66669,4.66667 6.66669,11 12,19 5.33331,8 11,18 17,30 6,12 14,25.66667 24,41 10,15.33334 20,33.33334 30,54 10,20.66666 23,43 39,67 69.33331,122.66669 108.66669,192.66669 118,210 9.33331,17.33331 14.33331,28 15,32 0,10 -6.33331,18 -19,24 -12.66669,6 -26.66669,9 -42,9 -9.33331,0 -14,3.33331 -14,10 0,2 0.66669,6.33331 2,13 2.66669,10.66669 4.66669,17 6,19 1.33331,2 6,3 14,3 2,0 7.66669,0 17,0 9.33331,0 22.33331,0 39,0 16.66669,0 34.66669,-0.33331 54,-1 44,0 72.3333,0.66669 85,2 9.3334,0 14,-3.66669 14,-11 0,-4 -1,-9.66669 -3,-17 -2,-7.33331 -4.3334,-12.33331 -7,-15 -2.6666,-2.66669 -6,-3.66669 -10,-3 -14.6667,0 -28,-2 -40,-6 -12,-4 -22,-8.66669 -30,-14 -8,-5.33331 -14.33331,-11 -19,-17 -4.66669,-6 -8.66669,-11.33331 -12,-16 L 923,578 754,282 C 642,84.666656 585.66669,-14.333333 585,-15 c -4,-4.666668 -12,-7 -24,-7 -10,0 -16.33331,1.666666 -19,5 -2,2 -8.33331,84 -19,246 -10.66669,162 -16.33334,245.66666 -17,251 L 494,462 C 479.33334,437.33334 436.66669,363 366,239 270,71 221.33333,-13.666667 220,-15 c -1.33333,-1.333334 -3,-2.666666 -5,-4 -3.33333,-2 -9.33333,-3 -18,-3 -12.66667,0 -19.66667,2.333332 -21,7 0,2 -7.33333,108.333328 -22,319 -14.66667,210.66669 -22.33333,316.66669 -23,318 -1.33333,6 -4.66666,9.66669 -10,11 -5.33334,1.33331 -18.33333,2.66669 -39,4 H 58 c -4.666668,4.66669 -7,8.33331 -7,11 0.666668,15.33331 5,27 13,35 h 12 c 28,-2 61.33333,-3 100,-3 83.33334,0 129,1 137,3 h 10 c 4,-4 6,-7 6,-9 0,-2 -0.66666,-8 -2,-18 -3.33334,-10 -6.33334,-16.33331 -9,-19 h -21 c -40.66666,-2 -62.33333,-7.66669 -65,-17 20,-306.66669 31.33334,-468 34,-484 l 235,414 -2,37 c -2,28 -5.33334,43 -10,45 -4,2.66669 -18,4.33331 -42,5 -12.66666,0 -21,0.66669 -25,2 -4,1.33331 -6,4.33331 -6,9 0,1.33331 0.66666,5.33331 2,12 0.66666,2.66669 1.33334,5.66669 2,9 0.66666,3.33331 1,5.66669 1,7 0,1.33331 1,2.66669 3,4 2,1.33331 3.33334,2 4,2 0.66666,0 3.33334,0.33331 8,1 z" /></g><g
           transform="matrix(0.03803881,0,0,-0.03862684,159.72191,55.308624)"
           id="g36"><path
             id="path38"
             style="fill:#000000;fill-opacity:1;fill-rule:nonzero;stroke:none"
             d="m 74,431 c 0.666664,0 24.666664,1.66666 72,5 47.33334,3.33334 71.66667,5.33334 73,6 8,0 12,-2.66666 12,-8 0,-4 -15.33333,-68.33331 -46,-193 L 137,51 h 3 l 10,4 c 7.33333,2.666668 16.33333,6.666668 27,12 10.66667,5.333336 23,11.666664 37,19 14,7.333336 29.66667,18.33334 47,33 17.33334,14.66667 34.33334,30 51,46 65.33334,66 109.66666,142.33331 133,229 8.66666,32 25.66666,48 51,48 8.66666,0 16.33331,-2.66666 23,-8 6.66669,-5.33334 10.33331,-13 11,-23 0,-14 -4.66669,-33.66666 -14,-59 -9.33334,-25.33334 -25,-55.33334 -47,-90 C 447,227.33333 420,194 388,162 356,130 315.66666,99.333336 267,70 218.33333,40.666664 164.66667,19 106,5 89.333328,0.33333302 77.666664,-2 71,-2 c -3.333336,0 -7.333332,0.3333333 -12,1 -4.666668,0.66666669 -7.333332,1.33333331 -8,2 -4,2.6666667 -6,6 -6,10 0,1.333333 14.333332,60.333328 43,177 l 44,176 c 0.66667,8.66666 -1.66667,14 -7,16 -5.33334,2 -18.33333,3.66666 -39,5 H 65 c -4,4 -6,6.66666 -6,8 0,1.33334 0.666668,7.66666 2,19 2.666668,12.66666 7,19 13,19 z" /></g><g
           transform="matrix(0.03803881,0,0,-0.03862684,179.88248,55.308624)"
           id="g40"><path
             id="path42"
             style="fill:#000000;fill-opacity:1;fill-rule:nonzero;stroke:none"
             d="m 21,287 c 0.666666,2 1.333334,4.66666 2,8 0.666666,3.33334 2.333334,10.66666 5,22 2.666666,11.33334 6,21.66666 10,31 4,9.33334 9,20.33334 15,33 6,12.66666 12.666664,22.66666 20,30 7.333336,7.33334 16,14.66666 26,22 10,7.33334 21,10.33334 33,9 16,0 30.33333,-2.33334 43,-7 12.66667,-4.66666 22.66667,-10.66666 30,-18 7.33333,-7.33334 12.66667,-14.66666 16,-22 3.33333,-7.33334 6,-13.66666 8,-19 l 2,-7 c 0,-1.33334 0.33333,-2 1,-2 l 11,11 c 40.66666,42.66666 87,64 139,64 36,0 65,-9 87,-27 22,-18 33.33334,-44.33334 34,-79 v -10 c 0,-16 -21.33334,-107 -64,-273 -38.66666,-156.66667 -59.33334,-237.33333 -62,-242 -8.66666,-18 -23.66666,-27 -45,-27 -8.66666,0 -16,2.66667 -22,8 -6,5.33333 -9.66666,12.66667 -11,22 0,6 19.66666,87 59,243 l 62,250 c 2,10 3,22.66666 3,38 0,39.33334 -14.66666,59 -44,59 h -5 C 316.66666,404 268.33334,370.33334 229,303 L 222,291 189,157 C 167,69.666664 154.33333,22.666668 151,16 c -8.66667,-18 -23,-27 -43,-27 -8.666664,0 -15.666664,2 -21,6 -5.333336,4 -9,8 -11,12 -2,4 -2.666664,7.333333 -2,10 0,8.666668 13.333328,66 40,172 26.66667,106 40,165 40,177 0,26 -8.66667,39 -26,39 -14,0 -26,-9.33334 -36,-28 C 82,358.33334 74,338 68,316 62,294 58.333332,282 57,280 55.666668,278.66666 50.333336,278 41,278 H 27 c -4,4 -6,7 -6,9 z" /></g><g
           transform="matrix(0.05380312,0,0,-0.05463485,216.42503,77.872818)"
           id="g44"><path
             id="path46"
             style="fill:#000000;fill-opacity:1;fill-rule:nonzero;stroke:none"
             d="m 56,347 c 0,8.66666 4.666664,15.33334 14,20 h 637 c 10,-5.33334 15,-12 15,-20 0,-7.33334 -4.66669,-13.66666 -14,-19 L 390,327 H 72 c -10.666668,3.33334 -16,10 -16,20 z m 0,-194 c 0,10 5.333332,16.66667 16,20 h 636 c 9.33331,-6.66667 14,-13.33333 14,-20 0,-8.66667 -5,-15.33333 -15,-20 H 70 c -9.333336,4.66667 -14,11.33333 -14,20 z" /></g></g></g><g
       id="g48"><g
         clip-path="url(#clipPath54)"
         id="g50"><g
           transform="matrix(2.964005,0,0,2.9411764,-466.36057,-600)"
           id="g56"><path
             id="path58"
             style="fill:none;stroke:#000000;stroke-width:1;stroke-linecap:butt;stroke-linejoin:miter;stroke-miterlimit:10;stroke-dasharray:none;stroke-opacity:1"
             d="M 290,225 H 260" /><path
             id="path60"
             style="fill:none;stroke:#000000;stroke-width:1;stroke-linecap:butt;stroke-linejoin:miter;stroke-miterlimit:10;stroke-dasharray:none;stroke-opacity:1"
             d="m 330,225 h 50" /><path
             id="path62"
             style="fill:none;stroke:#000000;stroke-width:1;stroke-linecap:butt;stroke-linejoin:miter;stroke-miterlimit:10;stroke-dasharray:none;stroke-opacity:1"
             d="m 420,225 h 30" /></g></g></g><g
       id="g64"><g
         clip-path="url(#clipPath70)"
         id="g66"><g
           transform="matrix(0.05406974,0,0,-0.0536149,332.43878,35.470192)"
           id="g72"><path
             id="path74"
             style="fill:#000000;fill-opacity:1;fill-rule:nonzero;stroke:none"
             d="m 58,-216 c -9.333336,0 -17.333332,2.66667 -24,8 -6.666668,5.33333 -10.333334,12.66667 -11,22 0,6.66667 24.333332,107.333328 73,302 48.66667,194.66669 74.33333,294 77,298 8.66667,18.66666 24,28 46,28 8,-0.66666 14.66667,-3 20,-7 5.33333,-4 8.66667,-8 10,-12 1.33333,-4 2,-7.33334 2,-10 0,-8 -10.33333,-52.66666 -31,-134 -20.66667,-81.33334 -31.66667,-127 -33,-137 -1.33333,-7.33333 -2,-19 -2,-35 v -8 c 0,-48.666668 22.33333,-73 67,-73 6,0 12,0.333334 18,1 6,0.666666 11.66666,2 17,4 5.33334,2 10.33334,4.333332 15,7 4.66666,2.666668 9,5 13,7 4,2 8,5.333332 12,10 4,4.666668 7.66666,8 11,10 3.33334,2 6.66666,6 10,12 3.33334,6 6,9.666664 8,11 2,1.333336 5,5.333336 9,12 l 7,10 36,143 c 24,94.66669 37.33334,145 40,151 8.66666,18 23,27 43,27 8.66666,0 15.66666,-2.33334 21,-7 5.33331,-4.66666 9,-8.66666 11,-12 2,-3.33334 2.66669,-6.66666 2,-10 L 449,84 c -0.66666,-3.333336 -1,-8.666664 -1,-16 0,-16.666668 2.33334,-27.666668 7,-33 4.66666,-5.333334 11.66666,-8.333334 21,-9 6,0.666666 12.66666,3.666666 20,9 14,13.333336 27.66669,45.333328 41,96 4,13.33333 7.33331,20.33333 10,21 1.33331,0.66667 4.66669,1 10,1 h 4 c 12.66669,0 19,-3 19,-9 0,-4 -1.66669,-13 -5,-27 C 571.66669,103 565,85 555,63 545,41 534.33331,24.333334 523,13 514.33331,4.333333 503.66666,-2.6666665 491,-8 c -5.33334,-1.333333 -13.33334,-2 -24,-2 -14,0 -26.66666,2 -38,6 -11.33334,4 -20.33334,9 -27,15 -6.66666,6 -12.33334,12 -17,18 -4.66666,6 -7.66666,11 -9,15 -1.33334,4 -2,6.333332 -2,7 l -6,-6 C 364,41 358,36 350,30 342,24 333.33334,18 324,12 314.66666,6 302.66666,0.66666698 288,-4 c -14.66666,-4.666667 -28.66666,-7 -42,-7 -31.33333,0 -62.33333,7.666666 -93,23 l -24,-97 c -14,-54.66667 -22.33334,-86.33333 -25,-95 -2.66666,-8.66667 -6.666664,-16 -12,-22 -10.666664,-9.33333 -22,-14 -34,-14 z" /></g></g></g><g
       id="g76"><g
         clip-path="url(#clipPath82)"
         id="g78"><g
           transform="matrix(0.05592462,0,0,-0.05315275,569.55914,35.276112)"
           id="g84"><path
             id="path86"
             style="fill:#000000;fill-opacity:1;fill-rule:nonzero;stroke:none"
             d="m 74,431 c 0.666664,0 24.666664,1.66666 72,5 47.33334,3.33334 71.66667,5.33334 73,6 8,0 12,-2.66666 12,-8 0,-4 -15.33333,-68.33331 -46,-193 L 137,51 h 3 l 10,4 c 7.33333,2.666668 16.33333,6.666668 27,12 10.66667,5.333336 23,11.666664 37,19 14,7.333336 29.66667,18.33334 47,33 17.33334,14.66667 34.33334,30 51,46 65.33334,66 109.66666,142.33331 133,229 8.66666,32 25.66666,48 51,48 8.66666,0 16.33331,-2.66666 23,-8 6.66669,-5.33334 10.33331,-13 11,-23 0,-14 -4.66669,-33.66666 -14,-59 -9.33334,-25.33334 -25,-55.33334 -47,-90 C 447,227.33333 420,194 388,162 356,130 315.66666,99.333336 267,70 218.33333,40.666664 164.66667,19 106,5 89.333328,0.33333302 77.666664,-2 71,-2 c -3.333336,0 -7.333332,0.3333333 -12,1 -4.666668,0.66666669 -7.333332,1.33333331 -8,2 -4,2.6666667 -6,6 -6,10 0,1.333333 14.333332,60.333328 43,177 l 44,176 c 0.66667,8.66666 -1.66667,14 -7,16 -5.33334,2 -18.33333,3.66666 -39,5 H 65 c -4,4 -6,6.66666 -6,8 0,1.33334 0.666668,7.66666 2,19 2.666668,12.66666 7,19 13,19 z" /></g></g></g><g
       id="g88"><g
         clip-path="url(#clipPath94)"
         id="g90"><g
           transform="matrix(0.05367413,0,0,-0.05358692,806.6795,35.467026)"
           id="g96"><path
             id="path98"
             style="fill:#000000;fill-opacity:1;fill-rule:nonzero;stroke:none"
             d="m 21,287 c 0.666666,2 1.333334,4.66666 2,8 0.666666,3.33334 2.333334,10.66666 5,22 2.666666,11.33334 6,21.66666 10,31 4,9.33334 9,20.33334 15,33 6,12.66666 12.666664,22.66666 20,30 7.333336,7.33334 16,14.66666 26,22 10,7.33334 21,10.33334 33,9 16,0 30.33333,-2.33334 43,-7 12.66667,-4.66666 22.66667,-10.66666 30,-18 7.33333,-7.33334 12.66667,-14.66666 16,-22 3.33333,-7.33334 6,-13.66666 8,-19 l 2,-7 c 0,-1.33334 0.33333,-2 1,-2 l 11,11 c 40.66666,42.66666 87,64 139,64 36,0 65,-9 87,-27 22,-18 33.33334,-44.33334 34,-79 v -10 c 0,-16 -21.33334,-107 -64,-273 -38.66666,-156.66667 -59.33334,-237.33333 -62,-242 -8.66666,-18 -23.66666,-27 -45,-27 -8.66666,0 -16,2.66667 -22,8 -6,5.33333 -9.66666,12.66667 -11,22 0,6 19.66666,87 59,243 l 62,250 c 2,10 3,22.66666 3,38 0,39.33334 -14.66666,59 -44,59 h -5 C 316.66666,404 268.33334,370.33334 229,303 L 222,291 189,157 C 167,69.666664 154.33333,22.666668 151,16 c -8.66667,-18 -23,-27 -43,-27 -8.666664,0 -15.666664,2 -21,6 -5.333336,4 -9,8 -11,12 -2,4 -2.666664,7.333333 -2,10 0,8.666668 13.333328,66 40,172 26.66667,106 40,165 40,177 0,26 -8.66667,39 -26,39 -14,0 -26,-9.33334 -36,-28 C 82,358.33334 74,338 68,316 62,294 58.333332,282 57,280 55.666668,278.66666 50.333336,278 41,278 H 27 c -4,4 -6,7 -6,9 z" /></g></g></g><g
       id="g100"><g
         clip-path="url(#clipPath106)"
         id="g102"><g
           transform="matrix(2.964005,0,0,2.9411764,-466.36057,-600)"
           id="g108"><path
             id="path110"
             style="fill:#ffffff;fill-opacity:1;fill-rule:nonzero;stroke:none"
             d="m 330,225 c -3e-5,1.31322 -0.12814,2.61382 -0.38434,3.90179 -0.25619,1.28798 -0.63559,2.53859 -1.13812,3.75184 -0.50253,1.21327 -1.11862,2.36584 -1.84821,3.45773 -0.72958,1.0919 -1.55865,2.10216 -2.48724,3.03076 -0.92859,0.92857 -1.93884,1.75766 -3.03076,2.48724 -1.09189,0.72959 -2.24448,1.34566 -3.45774,1.84821 -1.21325,0.50255 -2.46386,0.88193 -3.75186,1.13812 -1.28796,0.2562 -2.58853,0.38429 -3.90173,0.38431 -1.31323,-2e-5 -2.61383,-0.12811 -3.90179,-0.38432 -1.288,-0.25621 -2.53864,-0.63559 -3.7519,-1.13814 -1.21325,-0.50255 -2.36584,-1.11861 -3.45776,-1.84818 -1.09189,-0.72958 -2.10214,-1.55867 -3.0307,-2.48724 -0.92862,-0.9286 -1.75769,-1.93884 -2.48728,-3.03075 -0.72958,-1.0919 -1.34564,-2.24447 -1.84817,-3.45774 -0.50256,-1.21325 -0.88193,-2.46387 -1.13812,-3.75185 C 290.12808,227.6138 290,226.31322 290,225 c 0,-1.31322 0.12808,-2.61382 0.38428,-3.90181 0.25619,-1.28798 0.63556,-2.5386 1.13812,-3.75188 0.50253,-1.21327 1.11859,-2.36584 1.84817,-3.45774 0.72959,-1.09189 1.55866,-2.10213 2.48728,-3.03071 0.92856,-0.92858 1.93881,-1.75767 3.0307,-2.48725 1.09192,-0.72959 2.24451,-1.34566 3.45776,-1.84821 1.21326,-0.50255 2.4639,-0.88193 3.7519,-1.13811 C 307.38617,205.1281 308.68677,205 310,205 c 1.3132,0 2.61377,0.1281 3.90173,0.38428 1.288,0.25619 2.53861,0.63557 3.75186,1.13812 1.21326,0.50255 2.36585,1.11862 3.45774,1.84819 1.09192,0.7296 2.10217,1.55869 3.03076,2.48727 0.92859,0.92858 1.75766,1.93882 2.48724,3.03072 0.72959,1.09189 1.34568,2.24446 1.84821,3.45773 0.50253,1.21328 0.88193,2.4639 1.13812,3.75188 0.2562,1.28799 0.38431,2.58859 0.38434,3.90181 z" /><path
             id="path112"
             style="fill:none;stroke:#000000;stroke-width:1;stroke-linecap:butt;stroke-linejoin:miter;stroke-miterlimit:10;stroke-dasharray:none;stroke-opacity:1"
             d="m 330,225 c -3e-5,1.31322 -0.12814,2.61382 -0.38434,3.90179 -0.25619,1.28798 -0.63559,2.53859 -1.13812,3.75184 -0.50253,1.21327 -1.11862,2.36584 -1.84821,3.45773 -0.72958,1.0919 -1.55865,2.10216 -2.48724,3.03076 -0.92859,0.92857 -1.93884,1.75766 -3.03076,2.48724 -1.09189,0.72959 -2.24448,1.34566 -3.45774,1.84821 -1.21325,0.50255 -2.46386,0.88193 -3.75186,1.13812 -1.28796,0.2562 -2.58853,0.38429 -3.90173,0.38431 -1.31323,-2e-5 -2.61383,-0.12811 -3.90179,-0.38432 -1.288,-0.25621 -2.53864,-0.63559 -3.7519,-1.13814 -1.21325,-0.50255 -2.36584,-1.11861 -3.45776,-1.84818 -1.09189,-0.72958 -2.10214,-1.55867 -3.0307,-2.48724 -0.92862,-0.9286 -1.75769,-1.93884 -2.48728,-3.03075 -0.72958,-1.0919 -1.34564,-2.24447 -1.84817,-3.45774 -0.50256,-1.21325 -0.88193,-2.46387 -1.13812,-3.75185 C 290.12808,227.6138 290,226.31322 290,225 c 0,-1.31322 0.12808,-2.61382 0.38428,-3.90181 0.25619,-1.28798 0.63556,-2.5386 1.13812,-3.75188 0.50253,-1.21327 1.11859,-2.36584 1.84817,-3.45774 0.72959,-1.09189 1.55866,-2.10213 2.48728,-3.03071 0.92856,-0.92858 1.93881,-1.75767 3.0307,-2.48725 1.09192,-0.72959 2.24451,-1.34566 3.45776,-1.84821 1.21326,-0.50255 2.4639,-0.88193 3.7519,-1.13811 C 307.38617,205.1281 308.68677,205 310,205 c 1.3132,0 2.61377,0.1281 3.90173,0.38428 1.288,0.25619 2.53861,0.63557 3.75186,1.13812 1.21326,0.50255 2.36585,1.11862 3.45774,1.84819 1.09192,0.7296 2.10217,1.55869 3.03076,2.48727 0.92859,0.92858 1.75766,1.93882 2.48724,3.03072 0.72959,1.09189 1.34568,2.24446 1.84821,3.45773 0.50253,1.21328 0.88193,2.4639 1.13812,3.75188 0.2562,1.28799 0.38431,2.58859 0.38434,3.90181 z" /></g></g></g><g
       id="g114"><g
         clip-path="url(#clipPath120)"
         id="g116"><g
           transform="matrix(0.05396108,0,0,-0.0542298,430.25092,78.216988)"
           id="g122"><path
             id="path124"
             style="fill:#000000;fill-opacity:1;fill-rule:nonzero;stroke:none"
             d="m 52,648 c 0,14.66669 4.333332,26.33331 13,35 h 11 c 28,-2 63,-3 105,-3 78.66669,0 125,1 139,3 h 10 c 4,-4 6,-7 6,-9 0,-2 -0.66666,-8 -2,-18 -3.33334,-10 -6.33334,-16.33331 -9,-19 h -21 c -14.66666,-1.33331 -24.66666,-2 -30,-2 -19.33333,-3.33331 -30,-8.33331 -32,-15 0,-1.33331 9.66667,-85 29,-251 19.33334,-166 29.33334,-249.66666 30,-251 l 73,117 c 48.66666,78 97.33334,156.66666 146,236 48.66669,79.33331 73.66669,120.33331 75,123 2.66669,4.66669 4,9.66669 4,15 0,16 -14.66669,25.33331 -44,28 -12,0 -18,3.66669 -18,11 0,0.66669 0.66669,5 2,13 2,9.33331 4,15.33331 6,18 2,2.66669 6.33331,4 13,4 1.33331,0 5.33331,0 12,0 6.66669,0 18,-0.33331 34,-1 16,-0.66669 37.33331,-1 64,-1 46,0 75,0.66669 87,2 h 7 c 4.66669,-4.66669 7,-8.33331 7,-11 0,-11.33331 -3,-22 -9,-32 -2,-2 -7.66669,-3 -17,-3 -8.66669,-0.66669 -16.66669,-1.33331 -24,-2 -7.33331,-0.66669 -14.33331,-2.33331 -21,-5 -6.66669,-2.66669 -12,-5 -16,-7 -4,-2 -8,-4.66669 -12,-8 -4,-3.33331 -7.33331,-5.66669 -10,-7 -2.66669,-1.33331 -5.33331,-4.33331 -8,-9 -2.66669,-4.66669 -5,-7 -7,-7 L 452,282 C 332,88 270,-11.333333 266,-16 c -2,-1.333334 -4.33334,-3 -7,-5 l -18,-1 h -7 c -12,0 -18,2.333332 -18,7 -2,4 -15,110.666656 -39,320 -25.33333,212 -38.33333,319 -39,321 -3.33333,7.33331 -24,11 -62,11 H 59 c -4.666668,3.33331 -7,7 -7,11 z" /></g></g></g><g
       id="g126"><g
         clip-path="url(#clipPath132)"
         id="g128"><g
           transform="matrix(2.964005,0,0,2.9411764,-466.36057,-600)"
           id="g134"><path
             id="path136"
             style="fill:#ffffff;fill-opacity:1;fill-rule:nonzero;stroke:none"
             d="m 420,225 c 0,1.31322 -0.12811,2.61382 -0.38431,3.90179 -0.25619,1.28798 -0.63559,2.53859 -1.13815,3.75184 -0.50253,1.21327 -1.11862,2.36584 -1.84821,3.45773 -0.72958,1.0919 -1.55865,2.10216 -2.48721,3.03076 -0.92859,0.92857 -1.93884,1.75766 -3.03076,2.48724 -1.09189,0.72959 -2.24448,1.34566 -3.45773,1.84821 -1.21326,0.50255 -2.46387,0.88193 -3.75187,1.13812 -1.28799,0.2562 -2.58859,0.38429 -3.90176,0.38431 -1.31326,-2e-5 -2.61386,-0.12811 -3.90186,-0.38432 -1.28799,-0.25621 -2.5386,-0.63559 -3.75186,-1.13814 -1.21325,-0.50255 -2.36584,-1.11861 -3.45776,-1.84818 -1.09189,-0.72958 -2.10211,-1.55867 -3.0307,-2.48724 -0.92859,-0.9286 -1.75769,-1.93884 -2.48728,-3.03075 -0.72958,-1.0919 -1.34564,-2.24447 -1.84817,-3.45774 -0.50253,-1.21325 -0.8819,-2.46387 -1.13809,-3.75185 C 380.12808,227.6138 379.99997,226.31322 380,225 c -3e-5,-1.31322 0.12805,-2.61382 0.38425,-3.90181 0.25619,-1.28798 0.63559,-2.5386 1.13812,-3.75188 0.50253,-1.21327 1.11859,-2.36584 1.84817,-3.45774 0.72959,-1.09189 1.55869,-2.10213 2.48728,-3.03071 0.92859,-0.92858 1.93884,-1.75767 3.03073,-2.48725 1.09189,-0.72959 2.24448,-1.34566 3.45773,-1.84821 1.21326,-0.50255 2.46387,-0.88193 3.75186,-1.13811 C 397.38614,205.1281 398.68674,205 400,205 c 1.31317,0 2.61374,0.1281 3.90173,0.38428 1.288,0.25619 2.53861,0.63557 3.75186,1.13812 1.21329,0.50255 2.36585,1.11862 3.45774,1.84819 1.09195,0.7296 2.1022,1.55869 3.03079,2.48727 0.92856,0.92858 1.75763,1.93882 2.48721,3.03072 0.72959,1.09189 1.34568,2.24446 1.84821,3.45773 0.50256,1.21328 0.88196,2.4639 1.13815,3.75188 C 419.87189,222.38618 420,223.68678 420,225 Z" /><path
             id="path138"
             style="fill:none;stroke:#000000;stroke-width:1;stroke-linecap:butt;stroke-linejoin:miter;stroke-miterlimit:10;stroke-dasharray:none;stroke-opacity:1"
             d="m 420,225 c 0,1.31322 -0.12811,2.61382 -0.38431,3.90179 -0.25619,1.28798 -0.63559,2.53859 -1.13815,3.75184 -0.50253,1.21327 -1.11862,2.36584 -1.84821,3.45773 -0.72958,1.0919 -1.55865,2.10216 -2.48721,3.03076 -0.92859,0.92857 -1.93884,1.75766 -3.03076,2.48724 -1.09189,0.72959 -2.24448,1.34566 -3.45773,1.84821 -1.21326,0.50255 -2.46387,0.88193 -3.75187,1.13812 -1.28799,0.2562 -2.58859,0.38429 -3.90176,0.38431 -1.31326,-2e-5 -2.61386,-0.12811 -3.90186,-0.38432 -1.28799,-0.25621 -2.5386,-0.63559 -3.75186,-1.13814 -1.21325,-0.50255 -2.36584,-1.11861 -3.45776,-1.84818 -1.09189,-0.72958 -2.10211,-1.55867 -3.0307,-2.48724 -0.92859,-0.9286 -1.75769,-1.93884 -2.48728,-3.03075 -0.72958,-1.0919 -1.34564,-2.24447 -1.84817,-3.45774 -0.50253,-1.21325 -0.8819,-2.46387 -1.13809,-3.75185 C 380.12808,227.6138 379.99997,226.31322 380,225 c -3e-5,-1.31322 0.12805,-2.61382 0.38425,-3.90181 0.25619,-1.28798 0.63559,-2.5386 1.13812,-3.75188 0.50253,-1.21327 1.11859,-2.36584 1.84817,-3.45774 0.72959,-1.09189 1.55869,-2.10213 2.48728,-3.03071 0.92859,-0.92858 1.93884,-1.75767 3.03073,-2.48725 1.09189,-0.72959 2.24448,-1.34566 3.45773,-1.84821 1.21326,-0.50255 2.46387,-0.88193 3.75186,-1.13811 C 397.38614,205.1281 398.68674,205 400,205 c 1.31317,0 2.61374,0.1281 3.90173,0.38428 1.288,0.25619 2.53861,0.63557 3.75186,1.13812 1.21329,0.50255 2.36585,1.11862 3.45774,1.84819 1.09195,0.7296 2.1022,1.55869 3.03079,2.48727 0.92856,0.92858 1.75763,1.93882 2.48721,3.03072 0.72959,1.09189 1.34568,2.24446 1.84821,3.45773 0.50256,1.21328 0.88196,2.4639 1.13815,3.75188 C 419.87189,222.38618 420,223.68678 420,225 Z" /></g></g></g><g
       id="g140"><g
         clip-path="url(#clipPath146)"
         id="g142"><g
           transform="matrix(0.05373674,0,0,-0.05423427,689.60138,78.218468)"
           id="g148"><path
             id="path150"
             style="fill:#000000;fill-opacity:1;fill-rule:nonzero;stroke:none"
             d="m 436,683 c 9.33334,0 26,-0.33331 50,-1 24,-0.66669 46.33331,-1.33331 67,-2 34,0 62.33331,0.33331 85,1 22.66669,0.66669 35.66669,1 39,1 12,0 18,-2.66669 18,-8 0,-2.66669 -1,-7.66669 -3,-15 -3.33331,-12 -6.33331,-18.66669 -9,-20 -2.66669,-1.33331 -10,-2 -22,-2 -16.66669,-0.66669 -30,-2.33331 -40,-5 -10,-2.66669 -17,-5.33331 -21,-8 -4,-2.66669 -5,-5.66669 -3,-9 0,-8 5.33331,-87.33331 16,-238 10.66669,-150.66667 16,-230.33333 16,-239 l 2,3 c 1.33331,2 3.33331,5.33333 6,10 2.66669,4.66667 6.66669,11 12,19 5.33331,8 11,18 17,30 6,12 14,25.66667 24,41 10,15.33334 20,33.33334 30,54 10,20.66666 23,43 39,67 69.33331,122.66669 108.66669,192.66669 118,210 9.33331,17.33331 14.33331,28 15,32 0,10 -6.33331,18 -19,24 -12.66669,6 -26.66669,9 -42,9 -9.33331,0 -14,3.33331 -14,10 0,2 0.66669,6.33331 2,13 2.66669,10.66669 4.66669,17 6,19 1.33331,2 6,3 14,3 2,0 7.66669,0 17,0 9.33331,0 22.33331,0 39,0 16.66669,0 34.66669,-0.33331 54,-1 44,0 72.3333,0.66669 85,2 9.3334,0 14,-3.66669 14,-11 0,-4 -1,-9.66669 -3,-17 -2,-7.33331 -4.3334,-12.33331 -7,-15 -2.6666,-2.66669 -6,-3.66669 -10,-3 -14.6667,0 -28,-2 -40,-6 -12,-4 -22,-8.66669 -30,-14 -8,-5.33331 -14.33331,-11 -19,-17 -4.66669,-6 -8.66669,-11.33331 -12,-16 L 923,578 754,282 C 642,84.666656 585.66669,-14.333333 585,-15 c -4,-4.666668 -12,-7 -24,-7 -10,0 -16.33331,1.666666 -19,5 -2,2 -8.33331,84 -19,246 -10.66669,162 -16.33334,245.66666 -17,251 L 494,462 C 479.33334,437.33334 436.66669,363 366,239 270,71 221.33333,-13.666667 220,-15 c -1.33333,-1.333334 -3,-2.666666 -5,-4 -3.33333,-2 -9.33333,-3 -18,-3 -12.66667,0 -19.66667,2.333332 -21,7 0,2 -7.33333,108.333328 -22,319 -14.66667,210.66669 -22.33333,316.66669 -23,318 -1.33333,6 -4.66666,9.66669 -10,11 -5.33334,1.33331 -18.33333,2.66669 -39,4 H 58 c -4.666668,4.66669 -7,8.33331 -7,11 0.666668,15.33331 5,27 13,35 h 12 c 28,-2 61.33333,-3 100,-3 83.33334,0 129,1 137,3 h 10 c 4,-4 6,-7 6,-9 0,-2 -0.66666,-8 -2,-18 -3.33334,-10 -6.33334,-16.33331 -9,-19 h -21 c -40.66666,-2 -62.33333,-7.66669 -65,-17 20,-306.66669 31.33334,-468 34,-484 l 235,414 -2,37 c -2,28 -5.33334,43 -10,45 -4,2.66669 -18,4.33331 -42,5 -12.66666,0 -21,0.66669 -25,2 -4,1.33331 -6,4.33331 -6,9 0,1.33331 0.66666,5.33331 2,12 0.66666,2.66669 1.33334,5.66669 2,9 0.66666,3.33331 1,5.66669 1,7 0,1.33331 1,2.66669 3,4 2,1.33331 3.33334,2 4,2 0.66666,0 3.33334,0.33331 8,1 z" /></g></g></g></g></svg>